M48
;Layer_Color=9474304
;FILE_FORMAT=2:5
INCH,LZ
;TYPE=PLATED
T1F00S00C0.00800
T2F00S00C0.01500
T3F00S00C0.02800
T4F00S00C0.03150
T5F00S00C0.03543
%
T01
X0207189Y0175776
X020398Y01805
X0210398
X0207189Y0185224
T02
X01685Y0178
X02545Y017
T03
X0215595Y01255
T04
X0166Y0120658
X0166Y0140342
X0187Y0140185
X0187Y01205
X0189657Y0157
X0209343Y0157
T05
X0135Y014
Y015
X027
Y014
Y016
Y017
X0135
Y016
M30
