M48
;Layer_Color=9474304
;FILE_FORMAT=2:5
INCH,LZ
;TYPE=PLATED
T1F00S00C0.00800
T2F00S00C0.02800
T3F00S00C0.03150
T4F00S00C0.03543
T5F00S00C0.04000
%
T01
X01615Y0144
X0181Y019
X01895Y01975
X0213Y0177508
X02575Y01685
X0256724Y0216791
Y0223209
X0261449Y022
X0252
X02275Y02575
X01345Y02775
X0131Y0219
X0128Y02185
X0129Y01995
X01335Y019
X0134637Y0165287
T02
X01695Y01385
T03
X02115Y0205658
X02115Y0225342
X0199Y0223158
X0199Y0242843
X0199Y0250157
X0199Y0269843
X0219158Y0274
X0238843Y0274
T04
X0112244Y01285
X0122244
X0132244
X0142244
X02175
X02275
X02375
X02475
X02575
X02675
X02775
X02875
X02335Y0152
X02235
X02135
X02035
X0226Y0222
X0236
X02795Y0273
X02895
T05
X02795Y0171
Y0181
X02895
Y0191
Y0201
Y0211
Y0221
Y0231
Y0241
Y0251
Y0261
X02795
Y0251
Y0241
Y0231
Y0221
Y0211
Y0201
Y0191
X02895Y01705
X01195Y0171
Y0181
Y0191
Y0201
Y0211
Y0221
Y0231
Y0241
Y0251
Y0261
X01095
Y0251
Y0241
Y0231
Y0221
Y0211
Y0201
Y0191
Y0181
Y0171
M30
