G04*
G04 #@! TF.GenerationSoftware,Altium Limited,Altium Designer,18.0.12 (696)*
G04*
G04 Layer_Physical_Order=2*
G04 Layer_Color=16711680*
%FSLAX25Y25*%
%MOIN*%
G70*
G01*
G75*
%ADD11C,0.01000*%
%ADD59C,0.02000*%
%ADD60C,0.00800*%
%ADD61C,0.01968*%
%ADD62C,0.05906*%
%ADD63R,0.05906X0.05906*%
%ADD64R,0.05315X0.05315*%
%ADD65C,0.05315*%
%ADD66R,0.05315X0.05315*%
%ADD67C,0.07500*%
%ADD68R,0.07500X0.07500*%
%ADD69C,0.01500*%
%ADD70C,0.05000*%
G36*
X297000Y110000D02*
X103000D01*
Y304500D01*
X297000D01*
Y110000D01*
D02*
G37*
%LPC*%
G36*
X134500Y290185D02*
Y289000D01*
X135685D01*
X135649Y289183D01*
X135262Y289762D01*
X134683Y290148D01*
X134500Y290185D01*
D02*
G37*
G36*
X133500D02*
X133317Y290148D01*
X132738Y289762D01*
X132352Y289183D01*
X132315Y289000D01*
X133500D01*
Y290185D01*
D02*
G37*
G36*
X135685Y288000D02*
X134500D01*
Y286815D01*
X134683Y286852D01*
X135262Y287238D01*
X135649Y287817D01*
X135685Y288000D01*
D02*
G37*
G36*
X133500D02*
X132315D01*
X132352Y287817D01*
X132738Y287238D01*
X133317Y286852D01*
X133500Y286815D01*
Y288000D01*
D02*
G37*
G36*
X219158Y288623D02*
Y285500D01*
X222281D01*
X222221Y285955D01*
X221852Y286844D01*
X221266Y287609D01*
X220502Y288195D01*
X219612Y288563D01*
X219158Y288623D01*
D02*
G37*
G36*
X218158D02*
X217703Y288563D01*
X216813Y288195D01*
X216049Y287609D01*
X215463Y286844D01*
X215094Y285955D01*
X215034Y285500D01*
X218158D01*
Y288623D01*
D02*
G37*
G36*
X289500Y287921D02*
Y284500D01*
X292921D01*
X292851Y285032D01*
X292453Y285993D01*
X291819Y286819D01*
X290993Y287453D01*
X290032Y287851D01*
X289500Y287921D01*
D02*
G37*
G36*
X288500D02*
X287968Y287851D01*
X287007Y287453D01*
X286181Y286819D01*
X285547Y285993D01*
X285149Y285032D01*
X285079Y284500D01*
X288500D01*
Y287921D01*
D02*
G37*
G36*
X241800Y288457D02*
X234885D01*
Y281542D01*
X241800D01*
Y288457D01*
D02*
G37*
G36*
X222281Y284500D02*
X219158D01*
Y281377D01*
X219612Y281437D01*
X220502Y281805D01*
X221266Y282392D01*
X221852Y283155D01*
X222221Y284045D01*
X222281Y284500D01*
D02*
G37*
G36*
X218158D02*
X215034D01*
X215094Y284045D01*
X215463Y283155D01*
X216049Y282392D01*
X216813Y281805D01*
X217703Y281437D01*
X218158Y281377D01*
Y284500D01*
D02*
G37*
G36*
X199000Y284466D02*
Y281343D01*
X202123D01*
X202063Y281797D01*
X201695Y282687D01*
X201109Y283451D01*
X200344Y284037D01*
X199455Y284406D01*
X199000Y284466D01*
D02*
G37*
G36*
X198000D02*
X197545Y284406D01*
X196655Y284037D01*
X195891Y283451D01*
X195305Y282687D01*
X194937Y281797D01*
X194877Y281343D01*
X198000D01*
Y284466D01*
D02*
G37*
G36*
X282753Y287753D02*
X275247D01*
Y280247D01*
X282753D01*
Y287753D01*
D02*
G37*
G36*
X292921Y283500D02*
X289500D01*
Y280079D01*
X290032Y280149D01*
X290993Y280547D01*
X291819Y281181D01*
X292453Y282007D01*
X292851Y282968D01*
X292921Y283500D01*
D02*
G37*
G36*
X288500D02*
X285079D01*
X285149Y282968D01*
X285547Y282007D01*
X286181Y281181D01*
X287007Y280547D01*
X287968Y280149D01*
X288500Y280079D01*
Y283500D01*
D02*
G37*
G36*
X202123Y280343D02*
X199000D01*
Y277219D01*
X199455Y277279D01*
X200344Y277648D01*
X201109Y278234D01*
X201695Y278998D01*
X202063Y279888D01*
X202123Y280343D01*
D02*
G37*
G36*
X198000D02*
X194877D01*
X194937Y279888D01*
X195305Y278998D01*
X195891Y278234D01*
X196655Y277648D01*
X197545Y277279D01*
X198000Y277219D01*
Y280343D01*
D02*
G37*
G36*
X289500Y276725D02*
Y272500D01*
X293725D01*
X293628Y273240D01*
X293149Y274395D01*
X292388Y275388D01*
X291395Y276149D01*
X290240Y276628D01*
X289500Y276725D01*
D02*
G37*
G36*
X288500D02*
X287760Y276628D01*
X286604Y276149D01*
X285612Y275388D01*
X284851Y274395D01*
X284372Y273240D01*
X284275Y272500D01*
X288500D01*
Y276725D01*
D02*
G37*
G36*
X113550Y276550D02*
X104450D01*
Y267450D01*
X113550D01*
Y276550D01*
D02*
G37*
G36*
X279000Y276589D02*
X277812Y276433D01*
X276705Y275974D01*
X275755Y275245D01*
X275026Y274295D01*
X274567Y273188D01*
X274411Y272000D01*
X274567Y270812D01*
X275026Y269705D01*
X275755Y268755D01*
X276705Y268026D01*
X277812Y267567D01*
X279000Y267411D01*
X280188Y267567D01*
X281295Y268026D01*
X282245Y268755D01*
X282974Y269705D01*
X283433Y270812D01*
X283589Y272000D01*
X283433Y273188D01*
X282974Y274295D01*
X282245Y275245D01*
X281295Y275974D01*
X280188Y276433D01*
X279000Y276589D01*
D02*
G37*
G36*
X119000D02*
X117812Y276433D01*
X116705Y275974D01*
X115755Y275245D01*
X115026Y274295D01*
X114567Y273188D01*
X114411Y272000D01*
X114567Y270812D01*
X115026Y269705D01*
X115755Y268755D01*
X116705Y268026D01*
X117812Y267567D01*
X119000Y267411D01*
X120188Y267567D01*
X121295Y268026D01*
X122245Y268755D01*
X122974Y269705D01*
X123433Y270812D01*
X123589Y272000D01*
X123433Y273188D01*
X122974Y274295D01*
X122245Y275245D01*
X121295Y275974D01*
X120188Y276433D01*
X119000Y276589D01*
D02*
G37*
G36*
X293725Y271500D02*
X289500D01*
Y267275D01*
X290240Y267372D01*
X291395Y267851D01*
X292388Y268612D01*
X293149Y269604D01*
X293628Y270760D01*
X293725Y271500D01*
D02*
G37*
G36*
X288500D02*
X284275D01*
X284372Y270760D01*
X284851Y269604D01*
X285612Y268612D01*
X286604Y267851D01*
X287760Y267372D01*
X288500Y267275D01*
Y271500D01*
D02*
G37*
G36*
X119500Y266725D02*
Y262500D01*
X123725D01*
X123628Y263240D01*
X123149Y264395D01*
X122388Y265388D01*
X121396Y266149D01*
X120240Y266628D01*
X119500Y266725D01*
D02*
G37*
G36*
X118500D02*
X117760Y266628D01*
X116604Y266149D01*
X115612Y265388D01*
X114851Y264395D01*
X114372Y263240D01*
X114275Y262500D01*
X118500D01*
Y266725D01*
D02*
G37*
G36*
X289000Y266589D02*
X287812Y266433D01*
X286705Y265974D01*
X285755Y265245D01*
X285026Y264295D01*
X284567Y263188D01*
X284411Y262000D01*
X284567Y260812D01*
X285026Y259705D01*
X285755Y258755D01*
X286705Y258026D01*
X287812Y257567D01*
X289000Y257411D01*
X290188Y257567D01*
X291295Y258026D01*
X292245Y258755D01*
X292974Y259705D01*
X293433Y260812D01*
X293589Y262000D01*
X293433Y263188D01*
X292974Y264295D01*
X292245Y265245D01*
X291295Y265974D01*
X290188Y266433D01*
X289000Y266589D01*
D02*
G37*
G36*
X109000D02*
X107812Y266433D01*
X106705Y265974D01*
X105755Y265245D01*
X105026Y264295D01*
X104567Y263188D01*
X104411Y262000D01*
X104567Y260812D01*
X105026Y259705D01*
X105755Y258755D01*
X106705Y258026D01*
X107812Y257567D01*
X109000Y257411D01*
X110188Y257567D01*
X111295Y258026D01*
X112245Y258755D01*
X112974Y259705D01*
X113433Y260812D01*
X113589Y262000D01*
X113433Y263188D01*
X112974Y264295D01*
X112245Y265245D01*
X111295Y265974D01*
X110188Y266433D01*
X109000Y266589D01*
D02*
G37*
G36*
X123725Y261500D02*
X119500D01*
Y257275D01*
X120240Y257372D01*
X121396Y257851D01*
X122388Y258612D01*
X123149Y259605D01*
X123628Y260760D01*
X123725Y261500D01*
D02*
G37*
G36*
X118500D02*
X114275D01*
X114372Y260760D01*
X114851Y259605D01*
X115612Y258612D01*
X116604Y257851D01*
X117760Y257372D01*
X118500Y257275D01*
Y261500D01*
D02*
G37*
G36*
X201958Y264615D02*
X195043D01*
Y257800D01*
X195043Y257700D01*
X195043Y257200D01*
Y250385D01*
X201958D01*
Y257200D01*
X201958Y257300D01*
X201958Y257800D01*
Y264615D01*
D02*
G37*
G36*
X227000Y270080D02*
X226395Y269960D01*
X225883Y269618D01*
X225540Y269105D01*
X225420Y268500D01*
X225540Y267895D01*
X225883Y267383D01*
X226395Y267040D01*
X227000Y266920D01*
X227605Y267040D01*
X227959Y267277D01*
X263493D01*
X274635Y256135D01*
X275032Y255870D01*
X275500Y255777D01*
X275670D01*
X275830Y255303D01*
X275755Y255245D01*
X275026Y254295D01*
X274567Y253188D01*
X274411Y252000D01*
X274567Y250812D01*
X275026Y249705D01*
X275755Y248755D01*
X276705Y248026D01*
X277812Y247567D01*
X279000Y247411D01*
X280188Y247567D01*
X281295Y248026D01*
X282245Y248755D01*
X282974Y249705D01*
X283433Y250812D01*
X283589Y252000D01*
X283433Y253188D01*
X282974Y254295D01*
X282245Y255245D01*
X282170Y255303D01*
X282330Y255777D01*
X283493D01*
X285011Y254259D01*
X284567Y253188D01*
X284411Y252000D01*
X284567Y250812D01*
X285026Y249705D01*
X285755Y248755D01*
X286705Y248026D01*
X287812Y247567D01*
X289000Y247411D01*
X290188Y247567D01*
X291295Y248026D01*
X292245Y248755D01*
X292974Y249705D01*
X293433Y250812D01*
X293589Y252000D01*
X293433Y253188D01*
X292974Y254295D01*
X292245Y255245D01*
X291295Y255974D01*
X290188Y256433D01*
X289000Y256589D01*
X287812Y256433D01*
X286741Y255989D01*
X284865Y257865D01*
X284468Y258130D01*
X284000Y258224D01*
X282330D01*
X282170Y258697D01*
X282245Y258755D01*
X282974Y259705D01*
X283433Y260812D01*
X283589Y262000D01*
X283433Y263188D01*
X282974Y264295D01*
X282245Y265245D01*
X281295Y265974D01*
X280188Y266433D01*
X279000Y266589D01*
X277812Y266433D01*
X276705Y265974D01*
X275755Y265245D01*
X275026Y264295D01*
X274567Y263188D01*
X274411Y262000D01*
X274567Y260812D01*
X274880Y260058D01*
X274456Y259775D01*
X264865Y269365D01*
X264468Y269630D01*
X264000Y269724D01*
X227959D01*
X227605Y269960D01*
X227000Y270080D01*
D02*
G37*
G36*
X119000Y256589D02*
X117812Y256433D01*
X116705Y255974D01*
X115755Y255245D01*
X115026Y254295D01*
X114567Y253188D01*
X114411Y252000D01*
X114567Y250812D01*
X115026Y249705D01*
X115755Y248755D01*
X116705Y248026D01*
X117812Y247567D01*
X119000Y247411D01*
X120188Y247567D01*
X121295Y248026D01*
X122245Y248755D01*
X122974Y249705D01*
X123433Y250812D01*
X123589Y252000D01*
X123433Y253188D01*
X122974Y254295D01*
X122245Y255245D01*
X121295Y255974D01*
X120188Y256433D01*
X119000Y256589D01*
D02*
G37*
G36*
X109000D02*
X107812Y256433D01*
X106705Y255974D01*
X105755Y255245D01*
X105026Y254295D01*
X104567Y253188D01*
X104411Y252000D01*
X104567Y250812D01*
X105026Y249705D01*
X105755Y248755D01*
X106705Y248026D01*
X107812Y247567D01*
X109000Y247411D01*
X110188Y247567D01*
X111295Y248026D01*
X112245Y248755D01*
X112974Y249705D01*
X113433Y250812D01*
X113589Y252000D01*
X113433Y253188D01*
X112974Y254295D01*
X112245Y255245D01*
X111295Y255974D01*
X110188Y256433D01*
X109000Y256589D01*
D02*
G37*
G36*
X289000Y246589D02*
X287812Y246433D01*
X286705Y245974D01*
X285755Y245245D01*
X285026Y244295D01*
X284567Y243188D01*
X284411Y242000D01*
X284567Y240812D01*
X285026Y239705D01*
X285755Y238755D01*
X286705Y238026D01*
X287812Y237567D01*
X289000Y237411D01*
X290188Y237567D01*
X291295Y238026D01*
X292245Y238755D01*
X292974Y239705D01*
X293433Y240812D01*
X293589Y242000D01*
X293433Y243188D01*
X292974Y244295D01*
X292245Y245245D01*
X291295Y245974D01*
X290188Y246433D01*
X289000Y246589D01*
D02*
G37*
G36*
X279000D02*
X277812Y246433D01*
X276705Y245974D01*
X275755Y245245D01*
X275026Y244295D01*
X274567Y243188D01*
X274411Y242000D01*
X274567Y240812D01*
X275026Y239705D01*
X275755Y238755D01*
X276705Y238026D01*
X277812Y237567D01*
X279000Y237411D01*
X280188Y237567D01*
X281295Y238026D01*
X282245Y238755D01*
X282974Y239705D01*
X283433Y240812D01*
X283589Y242000D01*
X283433Y243188D01*
X282974Y244295D01*
X282245Y245245D01*
X281295Y245974D01*
X280188Y246433D01*
X279000Y246589D01*
D02*
G37*
G36*
X109000D02*
X107812Y246433D01*
X106705Y245974D01*
X105755Y245245D01*
X105026Y244295D01*
X104567Y243188D01*
X104411Y242000D01*
X104567Y240812D01*
X105026Y239705D01*
X105755Y238755D01*
X106705Y238026D01*
X107812Y237567D01*
X109000Y237411D01*
X110188Y237567D01*
X111295Y238026D01*
X112245Y238755D01*
X112974Y239705D01*
X113433Y240812D01*
X113589Y242000D01*
X113433Y243188D01*
X112974Y244295D01*
X112245Y245245D01*
X111295Y245974D01*
X110188Y246433D01*
X109000Y246589D01*
D02*
G37*
G36*
X211500Y239966D02*
Y236842D01*
X214623D01*
X214563Y237297D01*
X214195Y238187D01*
X213609Y238951D01*
X212844Y239537D01*
X211955Y239906D01*
X211500Y239966D01*
D02*
G37*
G36*
X210500D02*
X210045Y239906D01*
X209156Y239537D01*
X208391Y238951D01*
X207805Y238187D01*
X207437Y237297D01*
X207377Y236842D01*
X210500D01*
Y239966D01*
D02*
G37*
G36*
X256724Y236132D02*
Y234709D01*
X258148D01*
X258094Y234983D01*
X257655Y235639D01*
X256999Y236078D01*
X256724Y236132D01*
D02*
G37*
G36*
X255724Y236132D02*
X255450Y236078D01*
X254794Y235639D01*
X254355Y234983D01*
X254301Y234709D01*
X255724D01*
Y236132D01*
D02*
G37*
G36*
X199000Y237781D02*
Y234658D01*
X202123D01*
X202063Y235112D01*
X201695Y236002D01*
X201109Y236766D01*
X200344Y237352D01*
X199455Y237721D01*
X199000Y237781D01*
D02*
G37*
G36*
X198000D02*
X197545Y237721D01*
X196655Y237352D01*
X195891Y236766D01*
X195305Y236002D01*
X194937Y235112D01*
X194877Y234658D01*
X198000D01*
Y237781D01*
D02*
G37*
G36*
X214623Y235842D02*
X211500D01*
Y232719D01*
X211955Y232779D01*
X212844Y233148D01*
X213609Y233734D01*
X214195Y234498D01*
X214563Y235388D01*
X214623Y235842D01*
D02*
G37*
G36*
X210500D02*
X207377D01*
X207437Y235388D01*
X207805Y234498D01*
X208391Y233734D01*
X209156Y233148D01*
X210045Y232779D01*
X210500Y232719D01*
Y235842D01*
D02*
G37*
G36*
X255724Y233709D02*
X254301D01*
X254355Y233435D01*
X254794Y232778D01*
X255450Y232340D01*
X255724Y232285D01*
Y233709D01*
D02*
G37*
G36*
X258148D02*
X256724D01*
Y232285D01*
X256999Y232340D01*
X257655Y232778D01*
X258094Y233435D01*
X258148Y233709D01*
D02*
G37*
G36*
X261449Y232924D02*
Y231500D01*
X262873D01*
X262818Y231774D01*
X262379Y232431D01*
X261723Y232869D01*
X261449Y232924D01*
D02*
G37*
G36*
X252000D02*
Y231500D01*
X253424D01*
X253369Y231774D01*
X252931Y232431D01*
X252274Y232869D01*
X252000Y232924D01*
D02*
G37*
G36*
X251000D02*
X250726Y232869D01*
X250069Y232431D01*
X249631Y231774D01*
X249576Y231500D01*
X251000D01*
Y232924D01*
D02*
G37*
G36*
X260449D02*
X260175Y232869D01*
X259518Y232431D01*
X259080Y231774D01*
X259025Y231500D01*
X260449D01*
Y232924D01*
D02*
G37*
G36*
X202123Y233658D02*
X199000D01*
Y230534D01*
X199455Y230594D01*
X200344Y230963D01*
X201109Y231549D01*
X201695Y232313D01*
X202063Y233203D01*
X202123Y233658D01*
D02*
G37*
G36*
X198000D02*
X194877D01*
X194937Y233203D01*
X195305Y232313D01*
X195891Y231549D01*
X196655Y230963D01*
X197545Y230594D01*
X198000Y230534D01*
Y233658D01*
D02*
G37*
G36*
X239253Y236753D02*
X231747D01*
Y229247D01*
X239253D01*
Y236753D01*
D02*
G37*
G36*
X225500Y236785D02*
X224520Y236656D01*
X223607Y236278D01*
X222824Y235677D01*
X222222Y234893D01*
X221844Y233980D01*
X221715Y233000D01*
X221844Y232020D01*
X222222Y231107D01*
X222824Y230324D01*
X223607Y229722D01*
X224520Y229344D01*
X225500Y229215D01*
X226480Y229344D01*
X227393Y229722D01*
X228176Y230324D01*
X228778Y231107D01*
X229156Y232020D01*
X229285Y233000D01*
X229156Y233980D01*
X228778Y234893D01*
X228176Y235677D01*
X227393Y236278D01*
X226480Y236656D01*
X225500Y236785D01*
D02*
G37*
G36*
X262873Y230500D02*
X261449D01*
Y229076D01*
X261723Y229131D01*
X262379Y229569D01*
X262818Y230226D01*
X262873Y230500D01*
D02*
G37*
G36*
X253424D02*
X252000D01*
Y229076D01*
X252274Y229131D01*
X252931Y229569D01*
X253369Y230226D01*
X253424Y230500D01*
D02*
G37*
G36*
X251000D02*
X249576D01*
X249631Y230226D01*
X250069Y229569D01*
X250726Y229131D01*
X251000Y229076D01*
Y230500D01*
D02*
G37*
G36*
X260449D02*
X259025D01*
X259080Y230226D01*
X259518Y229569D01*
X260175Y229131D01*
X260449Y229076D01*
Y230500D01*
D02*
G37*
G36*
X119000Y246589D02*
X117812Y246433D01*
X116705Y245974D01*
X115755Y245245D01*
X115026Y244295D01*
X114567Y243188D01*
X114411Y242000D01*
X114567Y240812D01*
X115026Y239705D01*
X115755Y238755D01*
X116705Y238026D01*
X117812Y237567D01*
X119000Y237411D01*
X120188Y237567D01*
X120905Y237864D01*
X127233Y231537D01*
X127068Y230995D01*
X126895Y230960D01*
X126383Y230617D01*
X126040Y230105D01*
X125957Y229687D01*
X123635Y227365D01*
X123370Y226968D01*
X123276Y226500D01*
Y224722D01*
X122776Y224553D01*
X122245Y225245D01*
X121295Y225974D01*
X120188Y226433D01*
X119000Y226589D01*
X117812Y226433D01*
X116705Y225974D01*
X115755Y225245D01*
X115026Y224295D01*
X114567Y223188D01*
X114411Y222000D01*
X114567Y220812D01*
X115026Y219705D01*
X115741Y218774D01*
X115714Y218595D01*
X115604Y218273D01*
X115050D01*
X114582Y218180D01*
X114185Y217915D01*
X111832Y215562D01*
X111295Y215974D01*
X110188Y216433D01*
X109000Y216589D01*
X107812Y216433D01*
X106705Y215974D01*
X105755Y215245D01*
X105026Y214295D01*
X104567Y213188D01*
X104411Y212000D01*
X104567Y210812D01*
X105026Y209705D01*
X105755Y208755D01*
X106705Y208026D01*
X107812Y207567D01*
X109000Y207411D01*
X110188Y207567D01*
X111295Y208026D01*
X112245Y208755D01*
X112974Y209705D01*
X113433Y210812D01*
X113589Y212000D01*
X113433Y213188D01*
X113282Y213552D01*
X115296Y215565D01*
X115360Y215550D01*
X115559Y214990D01*
X115026Y214295D01*
X114567Y213188D01*
X114411Y212000D01*
X114567Y210812D01*
X115026Y209705D01*
X115755Y208755D01*
X115786Y208731D01*
X115662Y208196D01*
X115582Y208180D01*
X115185Y207915D01*
X113135Y205865D01*
X112870Y205468D01*
X112836Y205297D01*
X112301Y205172D01*
X112245Y205245D01*
X111295Y205974D01*
X110188Y206433D01*
X109000Y206589D01*
X107812Y206433D01*
X106705Y205974D01*
X105755Y205245D01*
X105026Y204295D01*
X104567Y203188D01*
X104411Y202000D01*
X104567Y200812D01*
X105026Y199705D01*
X105755Y198755D01*
X106705Y198026D01*
X107812Y197567D01*
X109000Y197411D01*
X110188Y197567D01*
X111295Y198026D01*
X112245Y198755D01*
X112303Y198830D01*
X112777Y198670D01*
Y197507D01*
X111259Y195989D01*
X110188Y196433D01*
X109000Y196589D01*
X107812Y196433D01*
X106705Y195974D01*
X105755Y195245D01*
X105026Y194295D01*
X104567Y193188D01*
X104411Y192000D01*
X104567Y190812D01*
X105026Y189705D01*
X105755Y188755D01*
X106705Y188026D01*
X107812Y187567D01*
X109000Y187411D01*
X110188Y187567D01*
X111295Y188026D01*
X112245Y188755D01*
X112974Y189705D01*
X113433Y190812D01*
X113589Y192000D01*
X113433Y193188D01*
X112989Y194259D01*
X114865Y196135D01*
X115130Y196532D01*
X115224Y197000D01*
Y198670D01*
X115697Y198830D01*
X115755Y198755D01*
X116705Y198026D01*
X117812Y197567D01*
X119000Y197411D01*
X120188Y197567D01*
X121295Y198026D01*
X122245Y198755D01*
X122974Y199705D01*
X123376Y200675D01*
X130000D01*
X130507Y200775D01*
X130936Y201062D01*
X131066Y201045D01*
X131447Y200865D01*
X131540Y200395D01*
X131776Y200041D01*
Y199506D01*
X124036Y191766D01*
X123732Y191916D01*
X123586Y192023D01*
X123433Y193188D01*
X122974Y194295D01*
X122245Y195245D01*
X121295Y195974D01*
X120188Y196433D01*
X119000Y196589D01*
X117812Y196433D01*
X116705Y195974D01*
X115755Y195245D01*
X115026Y194295D01*
X114567Y193188D01*
X114411Y192000D01*
X114567Y190812D01*
X115026Y189705D01*
X115741Y188774D01*
X115714Y188595D01*
X115604Y188274D01*
X114050D01*
X113582Y188180D01*
X113185Y187915D01*
X111259Y185989D01*
X110188Y186433D01*
X109000Y186589D01*
X107812Y186433D01*
X106705Y185974D01*
X105755Y185245D01*
X105026Y184295D01*
X104567Y183188D01*
X104411Y182000D01*
X104567Y180812D01*
X105026Y179705D01*
X105755Y178755D01*
X106705Y178026D01*
X107812Y177567D01*
X109000Y177411D01*
X110188Y177567D01*
X111295Y178026D01*
X112245Y178755D01*
X112974Y179705D01*
X113433Y180812D01*
X113589Y182000D01*
X113433Y183188D01*
X112989Y184259D01*
X114557Y185827D01*
X115735D01*
X115896Y185353D01*
X115755Y185245D01*
X115026Y184295D01*
X114567Y183188D01*
X114411Y182000D01*
X114567Y180812D01*
X115026Y179705D01*
X115755Y178755D01*
X116705Y178026D01*
X117812Y177567D01*
X119000Y177411D01*
X120188Y177567D01*
X121295Y178026D01*
X122245Y178755D01*
X122974Y179705D01*
X123433Y180812D01*
X123589Y182000D01*
X123433Y183188D01*
X122974Y184295D01*
X122245Y185245D01*
X121856Y185544D01*
X121876Y186159D01*
X121915Y186185D01*
X133865Y198135D01*
X134130Y198531D01*
X134223Y199000D01*
Y200041D01*
X134460Y200395D01*
X134580Y201000D01*
X134460Y201605D01*
X134117Y202117D01*
X133605Y202460D01*
X133135Y202554D01*
X132955Y202933D01*
X132938Y203064D01*
X137049Y207174D01*
X188194D01*
X188395Y207040D01*
X189000Y206920D01*
X189605Y207040D01*
X190118Y207382D01*
X190460Y207895D01*
X190580Y208500D01*
X190460Y209105D01*
X190118Y209617D01*
X189605Y209960D01*
X189000Y210080D01*
X188395Y209960D01*
X188194Y209825D01*
X136500D01*
X135993Y209725D01*
X135563Y209437D01*
X129451Y203326D01*
X123376D01*
X122974Y204295D01*
X122245Y205245D01*
X122104Y205353D01*
X122265Y205826D01*
X125050D01*
X125518Y205920D01*
X125915Y206185D01*
X128687Y208957D01*
X129105Y209040D01*
X129618Y209383D01*
X129960Y209895D01*
X130080Y210500D01*
X129960Y211105D01*
X129618Y211617D01*
X129105Y211960D01*
X128500Y212080D01*
X127895Y211960D01*
X127383Y211617D01*
X127040Y211105D01*
X126957Y210687D01*
X124543Y208274D01*
X122396D01*
X122286Y208595D01*
X122259Y208773D01*
X122974Y209705D01*
X123433Y210812D01*
X123589Y212000D01*
X123433Y213188D01*
X122974Y214295D01*
X122245Y215245D01*
X121856Y215544D01*
X121876Y216159D01*
X121915Y216185D01*
X125365Y219635D01*
X125630Y220031D01*
X125724Y220500D01*
Y225993D01*
X127687Y227957D01*
X128105Y228040D01*
X128618Y228382D01*
X128866Y228755D01*
X129274Y228856D01*
X129457Y228833D01*
X129895Y228540D01*
X130500Y228420D01*
X131105Y228540D01*
X131617Y228883D01*
X131960Y229395D01*
X132080Y230000D01*
X131960Y230605D01*
X131617Y231118D01*
X131105Y231460D01*
X130687Y231543D01*
X122779Y239451D01*
X122974Y239705D01*
X123433Y240812D01*
X123589Y242000D01*
X123433Y243188D01*
X122974Y244295D01*
X122245Y245245D01*
X121295Y245974D01*
X120188Y246433D01*
X119000Y246589D01*
D02*
G37*
G36*
X256724Y229715D02*
Y228291D01*
X258148D01*
X258094Y228566D01*
X257655Y229222D01*
X256999Y229661D01*
X256724Y229715D01*
D02*
G37*
G36*
X255724Y229715D02*
X255450Y229661D01*
X254794Y229222D01*
X254355Y228566D01*
X254301Y228291D01*
X255724D01*
Y229715D01*
D02*
G37*
G36*
X289000Y236589D02*
X287812Y236433D01*
X286705Y235974D01*
X285755Y235245D01*
X285026Y234295D01*
X284567Y233188D01*
X284411Y232000D01*
X284567Y230812D01*
X285026Y229705D01*
X285755Y228755D01*
X286705Y228026D01*
X287812Y227567D01*
X289000Y227411D01*
X290188Y227567D01*
X291295Y228026D01*
X292245Y228755D01*
X292974Y229705D01*
X293433Y230812D01*
X293589Y232000D01*
X293433Y233188D01*
X292974Y234295D01*
X292245Y235245D01*
X291295Y235974D01*
X290188Y236433D01*
X289000Y236589D01*
D02*
G37*
G36*
X279000D02*
X277812Y236433D01*
X276705Y235974D01*
X275755Y235245D01*
X275026Y234295D01*
X274567Y233188D01*
X274411Y232000D01*
X274567Y230812D01*
X275026Y229705D01*
X275755Y228755D01*
X276705Y228026D01*
X277812Y227567D01*
X279000Y227411D01*
X280188Y227567D01*
X281295Y228026D01*
X282245Y228755D01*
X282974Y229705D01*
X283433Y230812D01*
X283589Y232000D01*
X283433Y233188D01*
X282974Y234295D01*
X282245Y235245D01*
X281295Y235974D01*
X280188Y236433D01*
X279000Y236589D01*
D02*
G37*
G36*
X119000D02*
X117812Y236433D01*
X116705Y235974D01*
X115755Y235245D01*
X115026Y234295D01*
X114567Y233188D01*
X114411Y232000D01*
X114567Y230812D01*
X115026Y229705D01*
X115755Y228755D01*
X116705Y228026D01*
X117812Y227567D01*
X119000Y227411D01*
X120188Y227567D01*
X121295Y228026D01*
X122245Y228755D01*
X122974Y229705D01*
X123433Y230812D01*
X123589Y232000D01*
X123433Y233188D01*
X122974Y234295D01*
X122245Y235245D01*
X121295Y235974D01*
X120188Y236433D01*
X119000Y236589D01*
D02*
G37*
G36*
X109000D02*
X107812Y236433D01*
X106705Y235974D01*
X105755Y235245D01*
X105026Y234295D01*
X104567Y233188D01*
X104411Y232000D01*
X104567Y230812D01*
X105026Y229705D01*
X105755Y228755D01*
X106705Y228026D01*
X107812Y227567D01*
X109000Y227411D01*
X110188Y227567D01*
X111295Y228026D01*
X112245Y228755D01*
X112974Y229705D01*
X113433Y230812D01*
X113589Y232000D01*
X113433Y233188D01*
X112974Y234295D01*
X112245Y235245D01*
X111295Y235974D01*
X110188Y236433D01*
X109000Y236589D01*
D02*
G37*
G36*
X255724Y227291D02*
X254301D01*
X254355Y227017D01*
X254794Y226361D01*
X255450Y225922D01*
X255724Y225868D01*
Y227291D01*
D02*
G37*
G36*
X258148D02*
X256724D01*
Y225868D01*
X256999Y225922D01*
X257655Y226361D01*
X258094Y227017D01*
X258148Y227291D01*
D02*
G37*
G36*
X289000Y226589D02*
X287812Y226433D01*
X286705Y225974D01*
X285755Y225245D01*
X285026Y224295D01*
X284567Y223188D01*
X284411Y222000D01*
X284567Y220812D01*
X285026Y219705D01*
X285755Y218755D01*
X286705Y218026D01*
X287812Y217567D01*
X289000Y217411D01*
X290188Y217567D01*
X291295Y218026D01*
X292245Y218755D01*
X292974Y219705D01*
X293433Y220812D01*
X293589Y222000D01*
X293433Y223188D01*
X292974Y224295D01*
X292245Y225245D01*
X291295Y225974D01*
X290188Y226433D01*
X289000Y226589D01*
D02*
G37*
G36*
X279000D02*
X277812Y226433D01*
X276705Y225974D01*
X275755Y225245D01*
X275026Y224295D01*
X274567Y223188D01*
X274411Y222000D01*
X274567Y220812D01*
X275026Y219705D01*
X275755Y218755D01*
X276705Y218026D01*
X277812Y217567D01*
X279000Y217411D01*
X280188Y217567D01*
X281295Y218026D01*
X282245Y218755D01*
X282974Y219705D01*
X283433Y220812D01*
X283589Y222000D01*
X283433Y223188D01*
X282974Y224295D01*
X282245Y225245D01*
X281295Y225974D01*
X280188Y226433D01*
X279000Y226589D01*
D02*
G37*
G36*
X109000D02*
X107812Y226433D01*
X106705Y225974D01*
X105755Y225245D01*
X105026Y224295D01*
X104567Y223188D01*
X104411Y222000D01*
X104567Y220812D01*
X105026Y219705D01*
X105755Y218755D01*
X106705Y218026D01*
X107812Y217567D01*
X109000Y217411D01*
X110188Y217567D01*
X111295Y218026D01*
X112245Y218755D01*
X112974Y219705D01*
X113433Y220812D01*
X113589Y222000D01*
X113433Y223188D01*
X112974Y224295D01*
X112245Y225245D01*
X111295Y225974D01*
X110188Y226433D01*
X109000Y226589D01*
D02*
G37*
G36*
X214458Y220115D02*
X207542D01*
Y213200D01*
X214458D01*
Y220115D01*
D02*
G37*
G36*
X289000Y216589D02*
X287812Y216433D01*
X286705Y215974D01*
X285755Y215245D01*
X285026Y214295D01*
X284567Y213188D01*
X284411Y212000D01*
X284567Y210812D01*
X285026Y209705D01*
X285755Y208755D01*
X286705Y208026D01*
X287812Y207567D01*
X289000Y207411D01*
X290188Y207567D01*
X291295Y208026D01*
X292245Y208755D01*
X292974Y209705D01*
X293433Y210812D01*
X293589Y212000D01*
X293433Y213188D01*
X292974Y214295D01*
X292245Y215245D01*
X291295Y215974D01*
X290188Y216433D01*
X289000Y216589D01*
D02*
G37*
G36*
X279000D02*
X277812Y216433D01*
X276705Y215974D01*
X275755Y215245D01*
X275026Y214295D01*
X274567Y213188D01*
X274411Y212000D01*
X274567Y210812D01*
X275026Y209705D01*
X275755Y208755D01*
X276705Y208026D01*
X277812Y207567D01*
X279000Y207411D01*
X280188Y207567D01*
X281295Y208026D01*
X282245Y208755D01*
X282974Y209705D01*
X283433Y210812D01*
X283589Y212000D01*
X283433Y213188D01*
X282974Y214295D01*
X282245Y215245D01*
X281295Y215974D01*
X280188Y216433D01*
X279000Y216589D01*
D02*
G37*
G36*
X181000Y202685D02*
Y201500D01*
X182185D01*
X182149Y201683D01*
X181762Y202262D01*
X181183Y202648D01*
X181000Y202685D01*
D02*
G37*
G36*
X180000D02*
X179817Y202648D01*
X179238Y202262D01*
X178851Y201683D01*
X178815Y201500D01*
X180000D01*
Y202685D01*
D02*
G37*
G36*
X182185Y200500D02*
X181000D01*
Y199315D01*
X181183Y199352D01*
X181762Y199738D01*
X182149Y200317D01*
X182185Y200500D01*
D02*
G37*
G36*
X180000D02*
X178815D01*
X178851Y200317D01*
X179238Y199738D01*
X179817Y199352D01*
X180000Y199315D01*
Y200500D01*
D02*
G37*
G36*
X289000Y206589D02*
X287812Y206433D01*
X286705Y205974D01*
X285755Y205245D01*
X285026Y204295D01*
X284567Y203188D01*
X284411Y202000D01*
X284567Y200812D01*
X285026Y199705D01*
X285755Y198755D01*
X286705Y198026D01*
X287812Y197567D01*
X289000Y197411D01*
X290188Y197567D01*
X291295Y198026D01*
X292245Y198755D01*
X292974Y199705D01*
X293433Y200812D01*
X293589Y202000D01*
X293433Y203188D01*
X292974Y204295D01*
X292245Y205245D01*
X291295Y205974D01*
X290188Y206433D01*
X289000Y206589D01*
D02*
G37*
G36*
X279000D02*
X277812Y206433D01*
X276705Y205974D01*
X275755Y205245D01*
X275026Y204295D01*
X274567Y203188D01*
X274411Y202000D01*
X274567Y200812D01*
X275026Y199705D01*
X275755Y198755D01*
X276705Y198026D01*
X277812Y197567D01*
X279000Y197411D01*
X280188Y197567D01*
X281295Y198026D01*
X282245Y198755D01*
X282974Y199705D01*
X283433Y200812D01*
X283589Y202000D01*
X283433Y203188D01*
X282974Y204295D01*
X282245Y205245D01*
X281295Y205974D01*
X280188Y206433D01*
X279000Y206589D01*
D02*
G37*
G36*
X213000Y190193D02*
Y189008D01*
X214185D01*
X214148Y189191D01*
X213762Y189770D01*
X213183Y190156D01*
X213000Y190193D01*
D02*
G37*
G36*
X212000D02*
X211817Y190156D01*
X211238Y189770D01*
X210852Y189191D01*
X210815Y189008D01*
X212000D01*
Y190193D01*
D02*
G37*
G36*
X289000Y196589D02*
X287812Y196433D01*
X286705Y195974D01*
X285755Y195245D01*
X285026Y194295D01*
X284567Y193188D01*
X284411Y192000D01*
X284567Y190812D01*
X285026Y189705D01*
X285755Y188755D01*
X286705Y188026D01*
X287812Y187567D01*
X289000Y187411D01*
X290188Y187567D01*
X291295Y188026D01*
X292245Y188755D01*
X292974Y189705D01*
X293433Y190812D01*
X293589Y192000D01*
X293433Y193188D01*
X292974Y194295D01*
X292245Y195245D01*
X291295Y195974D01*
X290188Y196433D01*
X289000Y196589D01*
D02*
G37*
G36*
X279000D02*
X277812Y196433D01*
X276705Y195974D01*
X275755Y195245D01*
X275026Y194295D01*
X274567Y193188D01*
X274411Y192000D01*
X274567Y190812D01*
X275026Y189705D01*
X275755Y188755D01*
X276705Y188026D01*
X277812Y187567D01*
X279000Y187411D01*
X280188Y187567D01*
X281295Y188026D01*
X282245Y188755D01*
X282974Y189705D01*
X283433Y190812D01*
X283589Y192000D01*
X283433Y193188D01*
X282974Y194295D01*
X282245Y195245D01*
X281295Y195974D01*
X280188Y196433D01*
X279000Y196589D01*
D02*
G37*
G36*
X214185Y188008D02*
X213000D01*
Y186823D01*
X213183Y186859D01*
X213762Y187246D01*
X214148Y187825D01*
X214185Y188008D01*
D02*
G37*
G36*
X212000D02*
X210815D01*
X210852Y187825D01*
X211238Y187246D01*
X211817Y186859D01*
X212000Y186823D01*
Y188008D01*
D02*
G37*
G36*
X257500Y181185D02*
Y180000D01*
X258685D01*
X258648Y180183D01*
X258262Y180762D01*
X257683Y181149D01*
X257500Y181185D01*
D02*
G37*
G36*
X256500D02*
X256317Y181149D01*
X255738Y180762D01*
X255351Y180183D01*
X255315Y180000D01*
X256500D01*
Y181185D01*
D02*
G37*
G36*
X258685Y179000D02*
X257500D01*
Y177815D01*
X257683Y177851D01*
X258262Y178238D01*
X258648Y178817D01*
X258685Y179000D01*
D02*
G37*
G36*
X256500D02*
X255315D01*
X255351Y178817D01*
X255738Y178238D01*
X256317Y177851D01*
X256500Y177815D01*
Y179000D01*
D02*
G37*
G36*
X279000Y186589D02*
X277812Y186433D01*
X276705Y185974D01*
X275755Y185245D01*
X275026Y184295D01*
X274567Y183188D01*
X274411Y182000D01*
X274567Y180812D01*
X275026Y179705D01*
X275755Y178755D01*
X276705Y178026D01*
X277812Y177567D01*
X279000Y177411D01*
X280188Y177567D01*
X281295Y178026D01*
X282245Y178755D01*
X282974Y179705D01*
X283433Y180812D01*
X283589Y182000D01*
X283433Y183188D01*
X282974Y184295D01*
X282245Y185245D01*
X281295Y185974D01*
X280188Y186433D01*
X279000Y186589D01*
D02*
G37*
G36*
X289000Y186089D02*
X287812Y185933D01*
X286705Y185474D01*
X285755Y184745D01*
X285026Y183795D01*
X284567Y182688D01*
X284411Y181500D01*
X284567Y180312D01*
X285026Y179205D01*
X285755Y178255D01*
X286705Y177526D01*
X287812Y177067D01*
X289000Y176911D01*
X290188Y177067D01*
X291295Y177526D01*
X292245Y178255D01*
X292974Y179205D01*
X293433Y180312D01*
X293589Y181500D01*
X293433Y182688D01*
X292974Y183795D01*
X292245Y184745D01*
X291295Y185474D01*
X290188Y185933D01*
X289000Y186089D01*
D02*
G37*
G36*
X139000Y177185D02*
Y176000D01*
X140185D01*
X140148Y176183D01*
X139762Y176762D01*
X139183Y177148D01*
X139000Y177185D01*
D02*
G37*
G36*
X138000D02*
X137817Y177148D01*
X137238Y176762D01*
X136852Y176183D01*
X136815Y176000D01*
X138000D01*
Y177185D01*
D02*
G37*
G36*
X140185Y175000D02*
X139000D01*
Y173815D01*
X139183Y173852D01*
X139762Y174238D01*
X140148Y174817D01*
X140185Y175000D01*
D02*
G37*
G36*
X138000D02*
X136815D01*
X136852Y174817D01*
X137238Y174238D01*
X137817Y173852D01*
X138000Y173815D01*
Y175000D01*
D02*
G37*
G36*
X213500Y166921D02*
Y163500D01*
X216921D01*
X216851Y164032D01*
X216453Y164993D01*
X215819Y165819D01*
X214993Y166453D01*
X214032Y166851D01*
X213500Y166921D01*
D02*
G37*
G36*
X212500D02*
X211968Y166851D01*
X211007Y166453D01*
X210181Y165819D01*
X209547Y164993D01*
X209149Y164032D01*
X209079Y163500D01*
X212500D01*
Y166921D01*
D02*
G37*
G36*
X236753Y166753D02*
X229247D01*
Y159247D01*
X236753D01*
Y166753D01*
D02*
G37*
G36*
X223000Y166785D02*
X222020Y166656D01*
X221107Y166278D01*
X220323Y165676D01*
X219722Y164893D01*
X219344Y163980D01*
X219215Y163000D01*
X219344Y162020D01*
X219722Y161107D01*
X220323Y160324D01*
X221107Y159722D01*
X222020Y159344D01*
X223000Y159215D01*
X223980Y159344D01*
X224893Y159722D01*
X225676Y160324D01*
X226278Y161107D01*
X226656Y162020D01*
X226785Y163000D01*
X226656Y163980D01*
X226278Y164893D01*
X225676Y165676D01*
X224893Y166278D01*
X223980Y166656D01*
X223000Y166785D01*
D02*
G37*
G36*
X203000D02*
X202020Y166656D01*
X201107Y166278D01*
X200324Y165676D01*
X199722Y164893D01*
X199344Y163980D01*
X199215Y163000D01*
X199344Y162020D01*
X199722Y161107D01*
X200324Y160324D01*
X201107Y159722D01*
X202020Y159344D01*
X203000Y159215D01*
X203980Y159344D01*
X204893Y159722D01*
X205677Y160324D01*
X206278Y161107D01*
X206656Y162020D01*
X206785Y163000D01*
X206656Y163980D01*
X206278Y164893D01*
X205677Y165676D01*
X204893Y166278D01*
X203980Y166656D01*
X203000Y166785D01*
D02*
G37*
G36*
X216921Y162500D02*
X213500D01*
Y159079D01*
X214032Y159149D01*
X214993Y159547D01*
X215819Y160181D01*
X216453Y161007D01*
X216851Y161968D01*
X216921Y162500D01*
D02*
G37*
G36*
X212500D02*
X209079D01*
X209149Y161968D01*
X209547Y161007D01*
X210181Y160181D01*
X211007Y159547D01*
X211968Y159149D01*
X212500Y159079D01*
Y162500D01*
D02*
G37*
G36*
X161500Y156685D02*
Y155500D01*
X162685D01*
X162648Y155683D01*
X162262Y156262D01*
X161683Y156649D01*
X161500Y156685D01*
D02*
G37*
G36*
X160500D02*
X160317Y156649D01*
X159738Y156262D01*
X159352Y155683D01*
X159315Y155500D01*
X160500D01*
Y156685D01*
D02*
G37*
G36*
X162685Y154500D02*
X161500D01*
Y153315D01*
X161683Y153351D01*
X162262Y153738D01*
X162648Y154317D01*
X162685Y154500D01*
D02*
G37*
G36*
X160500D02*
X159315D01*
X159352Y154317D01*
X159738Y153738D01*
X160317Y153351D01*
X160500Y153315D01*
Y154500D01*
D02*
G37*
G36*
X169000Y152829D02*
X168139Y152715D01*
X167336Y152383D01*
X166646Y151854D01*
X166118Y151164D01*
X165785Y150362D01*
X165672Y149500D01*
X165785Y148638D01*
X166118Y147836D01*
X166388Y147483D01*
X160240Y141335D01*
X152253D01*
Y143253D01*
X144747D01*
Y135747D01*
X152253D01*
Y137665D01*
X213247D01*
Y135747D01*
X220753D01*
Y143253D01*
X213247D01*
Y141335D01*
X166084D01*
X165893Y141797D01*
X170298Y146202D01*
X170541Y146566D01*
X170664Y146617D01*
X171354Y147146D01*
X171882Y147836D01*
X172215Y148638D01*
X172328Y149500D01*
X172215Y150362D01*
X171882Y151164D01*
X171354Y151854D01*
X170664Y152383D01*
X169861Y152715D01*
X169000Y152829D01*
D02*
G37*
G36*
X109000Y143421D02*
Y140000D01*
X112421D01*
X112351Y140532D01*
X111953Y141493D01*
X111319Y142319D01*
X110493Y142953D01*
X109532Y143351D01*
X109000Y143421D01*
D02*
G37*
G36*
X237500D02*
Y140000D01*
X240921D01*
X240851Y140532D01*
X240453Y141493D01*
X239819Y142319D01*
X238993Y142953D01*
X238032Y143351D01*
X237500Y143421D01*
D02*
G37*
G36*
X236500D02*
X235968Y143351D01*
X235007Y142953D01*
X234181Y142319D01*
X233547Y141493D01*
X233149Y140532D01*
X233079Y140000D01*
X236500D01*
Y143421D01*
D02*
G37*
G36*
X108000D02*
X107468Y143351D01*
X106507Y142953D01*
X105681Y142319D01*
X105047Y141493D01*
X104649Y140532D01*
X104579Y140000D01*
X108000D01*
Y143421D01*
D02*
G37*
G36*
X287000Y143285D02*
X286020Y143156D01*
X285107Y142778D01*
X284324Y142176D01*
X283722Y141393D01*
X283344Y140480D01*
X283215Y139500D01*
X283344Y138520D01*
X283722Y137607D01*
X284324Y136823D01*
X285107Y136222D01*
X286020Y135844D01*
X287000Y135715D01*
X287980Y135844D01*
X288893Y136222D01*
X289676Y136823D01*
X290278Y137607D01*
X290656Y138520D01*
X290785Y139500D01*
X290656Y140480D01*
X290278Y141393D01*
X289676Y142176D01*
X288893Y142778D01*
X287980Y143156D01*
X287000Y143285D01*
D02*
G37*
G36*
X277000D02*
X276020Y143156D01*
X275107Y142778D01*
X274324Y142176D01*
X273722Y141393D01*
X273344Y140480D01*
X273215Y139500D01*
X273344Y138520D01*
X273722Y137607D01*
X274324Y136823D01*
X275107Y136222D01*
X276020Y135844D01*
X277000Y135715D01*
X277980Y135844D01*
X278893Y136222D01*
X279677Y136823D01*
X280278Y137607D01*
X280656Y138520D01*
X280785Y139500D01*
X280656Y140480D01*
X280278Y141393D01*
X279677Y142176D01*
X278893Y142778D01*
X277980Y143156D01*
X277000Y143285D01*
D02*
G37*
G36*
X267000D02*
X266020Y143156D01*
X265107Y142778D01*
X264323Y142176D01*
X263722Y141393D01*
X263344Y140480D01*
X263215Y139500D01*
X263344Y138520D01*
X263722Y137607D01*
X264323Y136823D01*
X265107Y136222D01*
X266020Y135844D01*
X267000Y135715D01*
X267980Y135844D01*
X268893Y136222D01*
X269676Y136823D01*
X270278Y137607D01*
X270656Y138520D01*
X270785Y139500D01*
X270656Y140480D01*
X270278Y141393D01*
X269676Y142176D01*
X268893Y142778D01*
X267980Y143156D01*
X267000Y143285D01*
D02*
G37*
G36*
X257000D02*
X256020Y143156D01*
X255107Y142778D01*
X254324Y142176D01*
X253722Y141393D01*
X253344Y140480D01*
X253215Y139500D01*
X253344Y138520D01*
X253722Y137607D01*
X254324Y136823D01*
X255107Y136222D01*
X256020Y135844D01*
X257000Y135715D01*
X257980Y135844D01*
X258893Y136222D01*
X259677Y136823D01*
X260278Y137607D01*
X260656Y138520D01*
X260785Y139500D01*
X260656Y140480D01*
X260278Y141393D01*
X259677Y142176D01*
X258893Y142778D01*
X257980Y143156D01*
X257000Y143285D01*
D02*
G37*
G36*
X247000D02*
X246020Y143156D01*
X245107Y142778D01*
X244323Y142176D01*
X243722Y141393D01*
X243344Y140480D01*
X243215Y139500D01*
X243344Y138520D01*
X243722Y137607D01*
X244323Y136823D01*
X245107Y136222D01*
X246020Y135844D01*
X247000Y135715D01*
X247980Y135844D01*
X248893Y136222D01*
X249676Y136823D01*
X250278Y137607D01*
X250656Y138520D01*
X250785Y139500D01*
X250656Y140480D01*
X250278Y141393D01*
X249676Y142176D01*
X248893Y142778D01*
X247980Y143156D01*
X247000Y143285D01*
D02*
G37*
G36*
X227000D02*
X226020Y143156D01*
X225107Y142778D01*
X224324Y142176D01*
X223722Y141393D01*
X223344Y140480D01*
X223215Y139500D01*
X223344Y138520D01*
X223722Y137607D01*
X224324Y136823D01*
X225107Y136222D01*
X226020Y135844D01*
X227000Y135715D01*
X227980Y135844D01*
X228893Y136222D01*
X229677Y136823D01*
X230278Y137607D01*
X230656Y138520D01*
X230785Y139500D01*
X230656Y140480D01*
X230278Y141393D01*
X229677Y142176D01*
X228893Y142778D01*
X227980Y143156D01*
X227000Y143285D01*
D02*
G37*
G36*
X138500D02*
X137520Y143156D01*
X136607Y142778D01*
X135824Y142176D01*
X135222Y141393D01*
X134844Y140480D01*
X134715Y139500D01*
X134844Y138520D01*
X135222Y137607D01*
X135824Y136823D01*
X136607Y136222D01*
X137520Y135844D01*
X138500Y135715D01*
X139480Y135844D01*
X140393Y136222D01*
X141176Y136823D01*
X141778Y137607D01*
X142156Y138520D01*
X142285Y139500D01*
X142156Y140480D01*
X141778Y141393D01*
X141176Y142176D01*
X140393Y142778D01*
X139480Y143156D01*
X138500Y143285D01*
D02*
G37*
G36*
X128500D02*
X127520Y143156D01*
X126607Y142778D01*
X125823Y142176D01*
X125222Y141393D01*
X124844Y140480D01*
X124715Y139500D01*
X124844Y138520D01*
X125222Y137607D01*
X125823Y136823D01*
X126607Y136222D01*
X127520Y135844D01*
X128500Y135715D01*
X129480Y135844D01*
X130393Y136222D01*
X131176Y136823D01*
X131778Y137607D01*
X132156Y138520D01*
X132285Y139500D01*
X132156Y140480D01*
X131778Y141393D01*
X131176Y142176D01*
X130393Y142778D01*
X129480Y143156D01*
X128500Y143285D01*
D02*
G37*
G36*
X118500D02*
X117520Y143156D01*
X116607Y142778D01*
X115823Y142176D01*
X115222Y141393D01*
X114844Y140480D01*
X114715Y139500D01*
X114844Y138520D01*
X115222Y137607D01*
X115823Y136823D01*
X116607Y136222D01*
X117520Y135844D01*
X118500Y135715D01*
X119480Y135844D01*
X120393Y136222D01*
X121177Y136823D01*
X121778Y137607D01*
X122156Y138520D01*
X122285Y139500D01*
X122156Y140480D01*
X121778Y141393D01*
X121177Y142176D01*
X120393Y142778D01*
X119480Y143156D01*
X118500Y143285D01*
D02*
G37*
G36*
X112421Y139000D02*
X109000D01*
Y135579D01*
X109532Y135649D01*
X110493Y136047D01*
X111319Y136681D01*
X111953Y137507D01*
X112351Y138468D01*
X112421Y139000D01*
D02*
G37*
G36*
X240921D02*
X237500D01*
Y135579D01*
X238032Y135649D01*
X238993Y136047D01*
X239819Y136681D01*
X240453Y137507D01*
X240851Y138468D01*
X240921Y139000D01*
D02*
G37*
G36*
X236500D02*
X233079D01*
X233149Y138468D01*
X233547Y137507D01*
X234181Y136681D01*
X235007Y136047D01*
X235968Y135649D01*
X236500Y135579D01*
Y139000D01*
D02*
G37*
G36*
X108000D02*
X104579D01*
X104649Y138468D01*
X105047Y137507D01*
X105681Y136681D01*
X106507Y136047D01*
X107468Y135649D01*
X108000Y135579D01*
Y139000D01*
D02*
G37*
G36*
X119000Y133421D02*
Y130000D01*
X122421D01*
X122351Y130532D01*
X121953Y131493D01*
X121319Y132319D01*
X120493Y132953D01*
X119532Y133351D01*
X119000Y133421D01*
D02*
G37*
G36*
X118000D02*
X117468Y133351D01*
X116507Y132953D01*
X115681Y132319D01*
X115047Y131493D01*
X114649Y130532D01*
X114579Y130000D01*
X118000D01*
Y133421D01*
D02*
G37*
G36*
X152253Y133253D02*
X144747D01*
Y125747D01*
X152253D01*
Y133253D01*
D02*
G37*
G36*
X138500Y133285D02*
X137520Y133156D01*
X136607Y132778D01*
X135824Y132176D01*
X135222Y131393D01*
X134844Y130480D01*
X134715Y129500D01*
X134844Y128520D01*
X135222Y127607D01*
X135824Y126823D01*
X136607Y126222D01*
X137520Y125844D01*
X138500Y125715D01*
X139480Y125844D01*
X140393Y126222D01*
X141176Y126823D01*
X141778Y127607D01*
X142156Y128520D01*
X142285Y129500D01*
X142156Y130480D01*
X141778Y131393D01*
X141176Y132176D01*
X140393Y132778D01*
X139480Y133156D01*
X138500Y133285D01*
D02*
G37*
G36*
X128500D02*
X127520Y133156D01*
X126607Y132778D01*
X125823Y132176D01*
X125222Y131393D01*
X124844Y130480D01*
X124715Y129500D01*
X124844Y128520D01*
X125222Y127607D01*
X125823Y126823D01*
X126607Y126222D01*
X127520Y125844D01*
X128500Y125715D01*
X129480Y125844D01*
X130393Y126222D01*
X131176Y126823D01*
X131778Y127607D01*
X132156Y128520D01*
X132285Y129500D01*
X132156Y130480D01*
X131778Y131393D01*
X131176Y132176D01*
X130393Y132778D01*
X129480Y133156D01*
X128500Y133285D01*
D02*
G37*
G36*
X122421Y129000D02*
X119000D01*
Y125579D01*
X119532Y125649D01*
X120493Y126047D01*
X121319Y126681D01*
X121953Y127507D01*
X122351Y128468D01*
X122421Y129000D01*
D02*
G37*
G36*
X118000D02*
X114579D01*
X114649Y128468D01*
X115047Y127507D01*
X115681Y126681D01*
X116507Y126047D01*
X117468Y125649D01*
X118000Y125579D01*
Y129000D01*
D02*
G37*
%LPD*%
D11*
X136500Y208500D02*
X189000D01*
X130000Y202000D02*
X136500Y208500D01*
X119000Y202000D02*
X130000D01*
D59*
X148500Y139500D02*
X161000D01*
X217000D01*
X161000D02*
X169000Y147500D01*
Y149500D01*
D60*
X227000Y268500D02*
X264000D01*
X284000Y257000D02*
X289000Y252000D01*
X275500Y257000D02*
X284000D01*
X264000Y268500D02*
X275500Y257000D01*
X133000Y199000D02*
Y201000D01*
X114050Y187050D02*
X121050D01*
X133000Y199000D01*
X109000Y182000D02*
X114050Y187050D01*
X125050Y207050D02*
X128500Y210500D01*
X116050Y207050D02*
X125050D01*
X124500Y226500D02*
X127500Y229500D01*
X124500Y220500D02*
Y226500D01*
X121050Y217050D02*
X124500Y220500D01*
X110000Y212000D02*
X115050Y217050D01*
X121050D01*
X119000Y241500D02*
Y242000D01*
Y241500D02*
X130500Y230000D01*
X109000Y212000D02*
X110000D01*
X114000Y205000D02*
X116050Y207050D01*
X114000Y197000D02*
Y205000D01*
X109000Y192000D02*
X114000Y197000D01*
D61*
X256224Y227791D02*
D03*
X251500Y231000D02*
D03*
X256224Y234209D02*
D03*
X260949Y231000D02*
D03*
D62*
X118500Y129500D02*
D03*
X128500D02*
D03*
X138500D02*
D03*
X108500Y139500D02*
D03*
X118500D02*
D03*
X128500D02*
D03*
X138500D02*
D03*
X287000D02*
D03*
X277000D02*
D03*
X267000D02*
D03*
X257000D02*
D03*
X247000D02*
D03*
X237000D02*
D03*
X227000D02*
D03*
X289000Y284000D02*
D03*
X225500Y233000D02*
D03*
X223000Y163000D02*
D03*
X213000D02*
D03*
X203000D02*
D03*
D63*
X148500Y129500D02*
D03*
Y139500D02*
D03*
X217000D02*
D03*
X279000Y284000D02*
D03*
X235500Y233000D02*
D03*
X233000Y163000D02*
D03*
D64*
X211000Y216657D02*
D03*
X198500Y261157D02*
D03*
X198500Y253842D02*
D03*
D65*
X211000Y236343D02*
D03*
X218657Y285000D02*
D03*
X198500Y280842D02*
D03*
X198500Y234157D02*
D03*
D66*
X238342Y285000D02*
D03*
D67*
X289000Y181500D02*
D03*
Y192000D02*
D03*
Y202000D02*
D03*
Y212000D02*
D03*
Y222000D02*
D03*
Y232000D02*
D03*
Y242000D02*
D03*
Y252000D02*
D03*
Y262000D02*
D03*
Y272000D02*
D03*
X279000Y182000D02*
D03*
Y192000D02*
D03*
Y202000D02*
D03*
Y212000D02*
D03*
Y222000D02*
D03*
Y232000D02*
D03*
Y242000D02*
D03*
Y252000D02*
D03*
Y262000D02*
D03*
Y272000D02*
D03*
X119000Y182000D02*
D03*
Y192000D02*
D03*
Y202000D02*
D03*
Y212000D02*
D03*
Y222000D02*
D03*
Y232000D02*
D03*
Y242000D02*
D03*
Y252000D02*
D03*
Y262000D02*
D03*
Y272000D02*
D03*
X109000Y182000D02*
D03*
Y192000D02*
D03*
Y202000D02*
D03*
Y212000D02*
D03*
Y222000D02*
D03*
Y232000D02*
D03*
Y242000D02*
D03*
Y252000D02*
D03*
Y262000D02*
D03*
D68*
Y272000D02*
D03*
D69*
X138500Y175500D02*
D03*
X134000Y288500D02*
D03*
X161000Y155000D02*
D03*
X180500Y201000D02*
D03*
X212500Y188508D02*
D03*
X257000Y179500D02*
D03*
X227000Y268500D02*
D03*
X127500Y229500D02*
D03*
X133000Y201000D02*
D03*
X130500Y230000D02*
D03*
X128500Y210500D02*
D03*
X189000Y208500D02*
D03*
D70*
X169000Y149500D02*
D03*
M02*
