G04*
G04 #@! TF.GenerationSoftware,Altium Limited,Altium Designer,18.0.12 (696)*
G04*
G04 Layer_Color=128*
%FSLAX25Y25*%
%MOIN*%
G70*
G01*
G75*
%ADD74C,0.00200*%
D74*
X255824Y227791D02*
X256624D01*
X256224Y227391D02*
Y228191D01*
X251100Y231000D02*
X251900D01*
X251500Y230600D02*
Y231400D01*
X255824Y234209D02*
X256624D01*
X256224Y233809D02*
Y234609D01*
X260549Y231000D02*
X261349D01*
X260949Y230600D02*
Y231400D01*
X116728Y129500D02*
X120272D01*
X118500Y127728D02*
Y131272D01*
X126728Y129500D02*
X130272D01*
X128500Y127728D02*
Y131272D01*
X136728Y129500D02*
X140272D01*
X138500Y127728D02*
Y131272D01*
X146728Y129500D02*
X150272D01*
X148500Y127728D02*
Y131272D01*
X106728Y139500D02*
X110272D01*
X108500Y137728D02*
Y141272D01*
X116728Y139500D02*
X120272D01*
X118500Y137728D02*
Y141272D01*
X126728Y139500D02*
X130272D01*
X128500Y137728D02*
Y141272D01*
X136728Y139500D02*
X140272D01*
X138500Y137728D02*
Y141272D01*
X146728Y139500D02*
X150272D01*
X148500Y137728D02*
Y141272D01*
X285228Y139500D02*
X288772D01*
X287000Y137728D02*
Y141272D01*
X275228Y139500D02*
X278772D01*
X277000Y137728D02*
Y141272D01*
X265228Y139500D02*
X268772D01*
X267000Y137728D02*
Y141272D01*
X255228Y139500D02*
X258772D01*
X257000Y137728D02*
Y141272D01*
X245228Y139500D02*
X248772D01*
X247000Y137728D02*
Y141272D01*
X235228Y139500D02*
X238772D01*
X237000Y137728D02*
Y141272D01*
X225228Y139500D02*
X228772D01*
X227000Y137728D02*
Y141272D01*
X215228Y139500D02*
X218772D01*
X217000Y137728D02*
Y141272D01*
X209425Y216657D02*
X212575D01*
X211000Y215083D02*
Y218232D01*
X209425Y236343D02*
X212575D01*
X211000Y234768D02*
Y237917D01*
X236768Y285000D02*
X239917D01*
X238342Y283425D02*
Y286575D01*
X217083Y285000D02*
X220232D01*
X218657Y283425D02*
Y286575D01*
X287000Y181500D02*
X291000D01*
X289000Y179500D02*
Y183500D01*
X287000Y192000D02*
X291000D01*
X289000Y190000D02*
Y194000D01*
X287000Y202000D02*
X291000D01*
X289000Y200000D02*
Y204000D01*
X287000Y212000D02*
X291000D01*
X289000Y210000D02*
Y214000D01*
X287000Y222000D02*
X291000D01*
X289000Y220000D02*
Y224000D01*
X287000Y232000D02*
X291000D01*
X289000Y230000D02*
Y234000D01*
X287000Y242000D02*
X291000D01*
X289000Y240000D02*
Y244000D01*
X287000Y252000D02*
X291000D01*
X289000Y250000D02*
Y254000D01*
X287000Y262000D02*
X291000D01*
X289000Y260000D02*
Y264000D01*
X287000Y272000D02*
X291000D01*
X289000Y270000D02*
Y274000D01*
X277000Y182000D02*
X281000D01*
X279000Y180000D02*
Y184000D01*
X277000Y192000D02*
X281000D01*
X279000Y190000D02*
Y194000D01*
X277000Y202000D02*
X281000D01*
X279000Y200000D02*
Y204000D01*
X277000Y212000D02*
X281000D01*
X279000Y210000D02*
Y214000D01*
X277000Y222000D02*
X281000D01*
X279000Y220000D02*
Y224000D01*
X277000Y232000D02*
X281000D01*
X279000Y230000D02*
Y234000D01*
X277000Y242000D02*
X281000D01*
X279000Y240000D02*
Y244000D01*
X277000Y252000D02*
X281000D01*
X279000Y250000D02*
Y254000D01*
X277000Y262000D02*
X281000D01*
X279000Y260000D02*
Y264000D01*
X277000Y272000D02*
X281000D01*
X279000Y270000D02*
Y274000D01*
X117000Y182000D02*
X121000D01*
X119000Y180000D02*
Y184000D01*
X117000Y192000D02*
X121000D01*
X119000Y190000D02*
Y194000D01*
X117000Y202000D02*
X121000D01*
X119000Y200000D02*
Y204000D01*
X117000Y212000D02*
X121000D01*
X119000Y210000D02*
Y214000D01*
X117000Y222000D02*
X121000D01*
X119000Y220000D02*
Y224000D01*
X117000Y232000D02*
X121000D01*
X119000Y230000D02*
Y234000D01*
X117000Y242000D02*
X121000D01*
X119000Y240000D02*
Y244000D01*
X117000Y252000D02*
X121000D01*
X119000Y250000D02*
Y254000D01*
X117000Y262000D02*
X121000D01*
X119000Y260000D02*
Y264000D01*
X117000Y272000D02*
X121000D01*
X119000Y270000D02*
Y274000D01*
X107000Y182000D02*
X111000D01*
X109000Y180000D02*
Y184000D01*
X107000Y192000D02*
X111000D01*
X109000Y190000D02*
Y194000D01*
X107000Y202000D02*
X111000D01*
X109000Y200000D02*
Y204000D01*
X107000Y212000D02*
X111000D01*
X109000Y210000D02*
Y214000D01*
X107000Y222000D02*
X111000D01*
X109000Y220000D02*
Y224000D01*
X107000Y232000D02*
X111000D01*
X109000Y230000D02*
Y234000D01*
X107000Y242000D02*
X111000D01*
X109000Y240000D02*
Y244000D01*
X107000Y252000D02*
X111000D01*
X109000Y250000D02*
Y254000D01*
X107000Y262000D02*
X111000D01*
X109000Y260000D02*
Y264000D01*
X107000Y272000D02*
X111000D01*
X109000Y270000D02*
Y274000D01*
X287228Y284000D02*
X290772D01*
X289000Y282228D02*
Y285772D01*
X277228Y284000D02*
X280772D01*
X279000Y282228D02*
Y285772D01*
X196925Y261157D02*
X200075D01*
X198500Y259583D02*
Y262732D01*
X196925Y280842D02*
X200075D01*
X198500Y279268D02*
Y282417D01*
X196925Y253842D02*
X200075D01*
X198500Y252268D02*
Y255417D01*
X196925Y234157D02*
X200075D01*
X198500Y232583D02*
Y235732D01*
X223728Y233000D02*
X227272D01*
X225500Y231228D02*
Y234772D01*
X233728Y233000D02*
X237272D01*
X235500Y231228D02*
Y234772D01*
X231228Y163000D02*
X234772D01*
X233000Y161228D02*
Y164772D01*
X221228Y163000D02*
X224772D01*
X223000Y161228D02*
Y164772D01*
X211228Y163000D02*
X214772D01*
X213000Y161228D02*
Y164772D01*
X201228Y163000D02*
X204772D01*
X203000Y161228D02*
Y164772D01*
X138100Y175500D02*
X138900D01*
X138500Y175100D02*
Y175900D01*
X133600Y288500D02*
X134400D01*
X134000Y288100D02*
Y288900D01*
X167600Y149500D02*
X170400D01*
X169000Y148100D02*
Y150900D01*
X160600Y155000D02*
X161400D01*
X161000Y154600D02*
Y155400D01*
X180100Y201000D02*
X180900D01*
X180500Y200600D02*
Y201400D01*
X212100Y188508D02*
X212900D01*
X212500Y188108D02*
Y188908D01*
X256600Y179500D02*
X257400D01*
X257000Y179100D02*
Y179900D01*
X226600Y268500D02*
X227400D01*
X227000Y268100D02*
Y268900D01*
X127100Y229500D02*
X127900D01*
X127500Y229100D02*
Y229900D01*
X132600Y201000D02*
X133400D01*
X133000Y200600D02*
Y201400D01*
X130100Y230000D02*
X130900D01*
X130500Y229600D02*
Y230400D01*
X128100Y210500D02*
X128900D01*
X128500Y210100D02*
Y210900D01*
X188600Y208500D02*
X189400D01*
X189000Y208100D02*
Y208900D01*
M02*
