G04*
G04 #@! TF.GenerationSoftware,Altium Limited,Altium Designer,18.0.12 (696)*
G04*
G04 Layer_Color=8388736*
%FSLAX25Y25*%
%MOIN*%
G70*
G01*
G75*
G04:AMPARAMS|DCode=14|XSize=29.65mil|YSize=39.5mil|CornerRadius=5.95mil|HoleSize=0mil|Usage=FLASHONLY|Rotation=180.000|XOffset=0mil|YOffset=0mil|HoleType=Round|Shape=RoundedRectangle|*
%AMROUNDEDRECTD14*
21,1,0.02965,0.02760,0,0,180.0*
21,1,0.01776,0.03950,0,0,180.0*
1,1,0.01190,-0.00888,0.01380*
1,1,0.01190,0.00888,0.01380*
1,1,0.01190,0.00888,-0.01380*
1,1,0.01190,-0.00888,-0.01380*
%
%ADD14ROUNDEDRECTD14*%
%ADD15R,0.12211X0.08786*%
%ADD16O,0.02762X0.08274*%
%ADD17R,0.10800X0.03800*%
%ADD18O,0.10800X0.03800*%
%ADD19R,0.07690X0.03359*%
%ADD20R,0.04147X0.05918*%
%ADD21R,0.05800X0.05800*%
%ADD22R,0.06115X0.04540*%
%ADD23R,0.05918X0.04147*%
%ADD24R,0.04540X0.06115*%
%ADD25R,0.03162X0.04737*%
%ADD26O,0.03300X0.06800*%
%ADD27R,0.03300X0.06800*%
%ADD28R,0.13595X0.04934*%
G04:AMPARAMS|DCode=29|XSize=29.65mil|YSize=57.21mil|CornerRadius=5.95mil|HoleSize=0mil|Usage=FLASHONLY|Rotation=90.000|XOffset=0mil|YOffset=0mil|HoleType=Round|Shape=RoundedRectangle|*
%AMROUNDEDRECTD29*
21,1,0.02965,0.04532,0,0,90.0*
21,1,0.01776,0.05721,0,0,90.0*
1,1,0.01190,0.02266,0.00888*
1,1,0.01190,0.02266,-0.00888*
1,1,0.01190,-0.02266,-0.00888*
1,1,0.01190,-0.02266,0.00888*
%
%ADD29ROUNDEDRECTD29*%
G04:AMPARAMS|DCode=30|XSize=23mil|YSize=69.02mil|CornerRadius=5.65mil|HoleSize=0mil|Usage=FLASHONLY|Rotation=180.000|XOffset=0mil|YOffset=0mil|HoleType=Round|Shape=RoundedRectangle|*
%AMROUNDEDRECTD30*
21,1,0.02300,0.05772,0,0,180.0*
21,1,0.01170,0.06902,0,0,180.0*
1,1,0.01130,-0.00585,0.02886*
1,1,0.01130,0.00585,0.02886*
1,1,0.01130,0.00585,-0.02886*
1,1,0.01130,-0.00585,-0.02886*
%
%ADD30ROUNDEDRECTD30*%
%ADD31C,0.02368*%
%ADD32C,0.06706*%
%ADD33R,0.06706X0.06706*%
%ADD34R,0.06115X0.06115*%
%ADD35C,0.06115*%
%ADD36R,0.06115X0.06115*%
%ADD37C,0.08300*%
%ADD38R,0.08300X0.08300*%
%ADD39C,0.02300*%
%ADD40C,0.05800*%
D14*
X253760Y200480D02*
D03*
X257500D02*
D03*
X261240D02*
D03*
Y210520D02*
D03*
X257500D02*
D03*
X253760D02*
D03*
D15*
X256224Y231000D02*
D03*
D16*
X248724Y240843D02*
D03*
X253724D02*
D03*
X258724D02*
D03*
X263724D02*
D03*
Y221158D02*
D03*
X258724D02*
D03*
X253724D02*
D03*
X248724D02*
D03*
D17*
X169000Y206000D02*
D03*
D18*
Y216000D02*
D03*
Y226000D02*
D03*
Y236000D02*
D03*
Y246000D02*
D03*
Y256000D02*
D03*
X134000Y206000D02*
D03*
Y216000D02*
D03*
Y226000D02*
D03*
Y236000D02*
D03*
Y246000D02*
D03*
Y256000D02*
D03*
D19*
X234524Y255000D02*
D03*
Y260000D02*
D03*
Y265000D02*
D03*
Y270000D02*
D03*
X212476Y255000D02*
D03*
Y260000D02*
D03*
Y265000D02*
D03*
Y270000D02*
D03*
D20*
X122653Y282500D02*
D03*
X129347D02*
D03*
X287653Y294000D02*
D03*
X294346D02*
D03*
X122404Y294900D02*
D03*
X129096D02*
D03*
X195153Y217000D02*
D03*
X201847D02*
D03*
X191847Y194000D02*
D03*
X185153D02*
D03*
X185153Y187000D02*
D03*
X191847D02*
D03*
X121846Y172500D02*
D03*
X115154D02*
D03*
X121846Y164000D02*
D03*
X115154D02*
D03*
X158346Y150000D02*
D03*
X151654D02*
D03*
D21*
X115500Y282500D02*
D03*
X107500D02*
D03*
X273500Y294000D02*
D03*
X281500D02*
D03*
X107750Y294900D02*
D03*
X115750D02*
D03*
D22*
X261500Y186650D02*
D03*
Y180350D02*
D03*
X252500Y186650D02*
D03*
Y180350D02*
D03*
D23*
X270500Y228847D02*
D03*
Y222153D02*
D03*
X233000Y172153D02*
D03*
Y178847D02*
D03*
X223500Y179000D02*
D03*
Y172307D02*
D03*
D24*
X148150Y189000D02*
D03*
X141850D02*
D03*
X129350D02*
D03*
X135650D02*
D03*
X144150Y180000D02*
D03*
X137850D02*
D03*
X201650Y172500D02*
D03*
X195350D02*
D03*
X207850D02*
D03*
X214150D02*
D03*
X185350Y201500D02*
D03*
X191650D02*
D03*
D25*
X112000Y158224D02*
D03*
X115740Y148776D02*
D03*
X108260D02*
D03*
D26*
X129137Y151000D02*
D03*
X134137D02*
D03*
X139137D02*
D03*
X144137D02*
D03*
X129137Y171000D02*
D03*
X134137D02*
D03*
X139137D02*
D03*
D27*
X144137D02*
D03*
D28*
X251000Y253583D02*
D03*
Y276417D02*
D03*
D29*
X238335Y191500D02*
D03*
Y196500D02*
D03*
Y201500D02*
D03*
Y206500D02*
D03*
X217665Y191500D02*
D03*
Y196500D02*
D03*
Y201500D02*
D03*
Y206500D02*
D03*
D30*
X198661Y182346D02*
D03*
X201220D02*
D03*
X203780D02*
D03*
X206339D02*
D03*
X198661Y200654D02*
D03*
X201220D02*
D03*
X203780D02*
D03*
X206339D02*
D03*
D31*
X256224Y227791D02*
D03*
X251500Y231000D02*
D03*
X256224Y234209D02*
D03*
X260949Y231000D02*
D03*
D32*
X118500Y129500D02*
D03*
X128500D02*
D03*
X138500D02*
D03*
X108500Y139500D02*
D03*
X118500D02*
D03*
X128500D02*
D03*
X138500D02*
D03*
X287000D02*
D03*
X277000D02*
D03*
X267000D02*
D03*
X257000D02*
D03*
X247000D02*
D03*
X237000D02*
D03*
X227000D02*
D03*
X289000Y284000D02*
D03*
X225500Y233000D02*
D03*
X223000Y163000D02*
D03*
X213000D02*
D03*
X203000D02*
D03*
D33*
X148500Y129500D02*
D03*
Y139500D02*
D03*
X217000D02*
D03*
X279000Y284000D02*
D03*
X235500Y233000D02*
D03*
X233000Y163000D02*
D03*
D34*
X211000Y216657D02*
D03*
X198500Y261157D02*
D03*
X198500Y253842D02*
D03*
D35*
X211000Y236343D02*
D03*
X218657Y285000D02*
D03*
X198500Y280842D02*
D03*
X198500Y234157D02*
D03*
D36*
X238342Y285000D02*
D03*
D37*
X289000Y181500D02*
D03*
Y192000D02*
D03*
Y202000D02*
D03*
Y212000D02*
D03*
Y222000D02*
D03*
Y232000D02*
D03*
Y242000D02*
D03*
Y252000D02*
D03*
Y262000D02*
D03*
Y272000D02*
D03*
X279000Y182000D02*
D03*
Y192000D02*
D03*
Y202000D02*
D03*
Y212000D02*
D03*
Y222000D02*
D03*
Y232000D02*
D03*
Y242000D02*
D03*
Y252000D02*
D03*
Y262000D02*
D03*
Y272000D02*
D03*
X119000Y182000D02*
D03*
Y192000D02*
D03*
Y202000D02*
D03*
Y212000D02*
D03*
Y222000D02*
D03*
Y232000D02*
D03*
Y242000D02*
D03*
Y252000D02*
D03*
Y262000D02*
D03*
Y272000D02*
D03*
X109000Y182000D02*
D03*
Y192000D02*
D03*
Y202000D02*
D03*
Y212000D02*
D03*
Y222000D02*
D03*
Y232000D02*
D03*
Y242000D02*
D03*
Y252000D02*
D03*
Y262000D02*
D03*
D38*
Y272000D02*
D03*
D39*
X138500Y175500D02*
D03*
X134000Y288500D02*
D03*
X161000Y155000D02*
D03*
X180500Y201000D02*
D03*
X212500Y188508D02*
D03*
X257000Y179500D02*
D03*
X227000Y268500D02*
D03*
X127500Y229500D02*
D03*
X133000Y201000D02*
D03*
X130500Y230000D02*
D03*
X128500Y210500D02*
D03*
X189000Y208500D02*
D03*
D40*
X169000Y149500D02*
D03*
M02*
