G04*
G04 #@! TF.GenerationSoftware,Altium Limited,Altium Designer,18.0.12 (696)*
G04*
G04 Layer_Physical_Order=1*
G04 Layer_Color=255*
%FSLAX25Y25*%
%MOIN*%
G70*
G01*
G75*
%ADD11C,0.01000*%
G04:AMPARAMS|DCode=41|XSize=21.65mil|YSize=31.5mil|CornerRadius=1.95mil|HoleSize=0mil|Usage=FLASHONLY|Rotation=180.000|XOffset=0mil|YOffset=0mil|HoleType=Round|Shape=RoundedRectangle|*
%AMROUNDEDRECTD41*
21,1,0.02165,0.02760,0,0,180.0*
21,1,0.01776,0.03150,0,0,180.0*
1,1,0.00390,-0.00888,0.01380*
1,1,0.00390,0.00888,0.01380*
1,1,0.00390,0.00888,-0.01380*
1,1,0.00390,-0.00888,-0.01380*
%
%ADD41ROUNDEDRECTD41*%
%ADD42R,0.11811X0.08386*%
%ADD43O,0.02362X0.07874*%
%ADD44R,0.10000X0.03000*%
%ADD45O,0.10000X0.03000*%
%ADD46R,0.06890X0.02559*%
%ADD47R,0.03347X0.05118*%
%ADD48R,0.05000X0.05000*%
%ADD49R,0.05315X0.03740*%
%ADD50R,0.05118X0.03347*%
%ADD51R,0.03740X0.05315*%
%ADD52R,0.02362X0.03937*%
%ADD53O,0.02500X0.06000*%
%ADD54R,0.02500X0.06000*%
%ADD55R,0.12795X0.04134*%
G04:AMPARAMS|DCode=56|XSize=21.65mil|YSize=49.21mil|CornerRadius=1.95mil|HoleSize=0mil|Usage=FLASHONLY|Rotation=90.000|XOffset=0mil|YOffset=0mil|HoleType=Round|Shape=RoundedRectangle|*
%AMROUNDEDRECTD56*
21,1,0.02165,0.04532,0,0,90.0*
21,1,0.01776,0.04921,0,0,90.0*
1,1,0.00390,0.02266,0.00888*
1,1,0.00390,0.02266,-0.00888*
1,1,0.00390,-0.02266,-0.00888*
1,1,0.00390,-0.02266,0.00888*
%
%ADD56ROUNDEDRECTD56*%
G04:AMPARAMS|DCode=57|XSize=15mil|YSize=61.02mil|CornerRadius=1.65mil|HoleSize=0mil|Usage=FLASHONLY|Rotation=180.000|XOffset=0mil|YOffset=0mil|HoleType=Round|Shape=RoundedRectangle|*
%AMROUNDEDRECTD57*
21,1,0.01500,0.05772,0,0,180.0*
21,1,0.01170,0.06102,0,0,180.0*
1,1,0.00330,-0.00585,0.02886*
1,1,0.00330,0.00585,0.02886*
1,1,0.00330,0.00585,-0.02886*
1,1,0.00330,-0.00585,-0.02886*
%
%ADD57ROUNDEDRECTD57*%
%ADD58C,0.04000*%
%ADD59C,0.02000*%
%ADD60C,0.00800*%
%ADD61C,0.01968*%
%ADD62C,0.05906*%
%ADD63R,0.05906X0.05906*%
%ADD64R,0.05315X0.05315*%
%ADD65C,0.05315*%
%ADD66R,0.05315X0.05315*%
%ADD67C,0.07500*%
%ADD68R,0.07500X0.07500*%
%ADD69C,0.01500*%
%ADD70C,0.05000*%
D11*
X138000Y139000D02*
X138500Y139500D01*
X138000Y129500D02*
Y139000D01*
X143500Y127253D02*
Y143000D01*
X140747Y124500D02*
X143500Y127253D01*
X133000Y124500D02*
X140747D01*
X128000Y129500D02*
X133000Y124500D01*
X128000Y129500D02*
X128500Y130000D01*
Y139500D01*
X138500Y175500D02*
Y179350D01*
X137850Y180000D02*
X138500Y179350D01*
Y171637D02*
Y175500D01*
Y171637D02*
X139137Y171000D01*
X129096Y294900D02*
Y295900D01*
Y293404D02*
Y294900D01*
X107750D02*
Y295900D01*
Y290250D02*
Y294900D01*
X134137Y167863D02*
X139137Y162863D01*
X134137Y167863D02*
Y171000D01*
X150500Y150000D02*
X151654D01*
X143500Y143000D02*
X150500Y150000D01*
X138500Y139500D02*
X139137Y140137D01*
X134137Y145137D02*
Y151000D01*
X128500Y139500D02*
X134137Y145137D01*
X119224Y148776D02*
X128500Y139500D01*
X115740Y148776D02*
X119224D01*
X109224D02*
X118500Y139500D01*
X108260Y148776D02*
X109224D01*
X129096Y293404D02*
X134000Y288500D01*
X129347Y283846D02*
X134000Y288500D01*
X129347Y283000D02*
Y283846D01*
X108260Y165606D02*
X115154Y172500D01*
X108260Y148776D02*
Y165606D01*
X198500Y280842D02*
X201634D01*
X212476Y270000D01*
Y265000D02*
Y270000D01*
X254122Y206500D02*
X264000D01*
X257500Y209878D02*
Y210520D01*
X254122Y206500D02*
X257500Y209878D01*
X249000Y206500D02*
X254122D01*
X244000Y201500D02*
X249000Y206500D01*
X264000D02*
X270500Y213000D01*
Y222153D01*
X263724Y222071D02*
X270500Y228847D01*
X263724Y221158D02*
Y222071D01*
X261240Y210520D02*
Y213260D01*
X258724Y215776D02*
X261240Y213260D01*
X258724Y215776D02*
Y221158D01*
X253724Y210555D02*
X253760Y210520D01*
X253724Y210555D02*
Y221158D01*
X250449Y231000D02*
X256224D01*
X248724Y229276D02*
X250449Y231000D01*
X248724Y221158D02*
Y229276D01*
X253760Y200480D02*
Y201122D01*
X257000Y199980D02*
X257500Y200480D01*
X257000Y179500D02*
Y199980D01*
X252500Y186650D02*
Y193650D01*
X257000Y179500D02*
X257850Y180350D01*
X261500D01*
X256150D02*
X257000Y179500D01*
X252500Y180350D02*
X256150D01*
X252500Y193650D02*
X253760Y194909D01*
Y200480D01*
X121846Y171653D02*
Y172500D01*
Y164000D02*
X124346D01*
X128423Y159923D01*
X134577D01*
X110294Y277706D02*
X111550Y278961D01*
X158346Y152347D02*
X161000Y155000D01*
X158346Y150000D02*
Y152347D01*
X180500Y201000D02*
X181000Y201500D01*
X185350D01*
X223307Y172500D02*
X223500Y172307D01*
X214150Y172500D02*
X223307D01*
X212500Y188508D02*
X215492Y191500D01*
X206339Y182346D02*
X212500Y188508D01*
X214150Y172500D02*
Y176850D01*
X212500Y178500D02*
X214150Y176850D01*
X212500Y178500D02*
Y188508D01*
X215492Y191500D02*
X217665D01*
X189000Y208500D02*
X191650Y205850D01*
Y201500D02*
Y205850D01*
X294346Y288347D02*
Y294000D01*
X290000Y284000D02*
X294346Y288347D01*
X289000Y284000D02*
X290000D01*
X281500Y294000D02*
X287653D01*
X137850Y180000D02*
Y180067D01*
X141850Y184067D01*
Y189000D01*
X135650Y182201D02*
X137850Y180000D01*
X135650Y182201D02*
Y189000D01*
X139137Y151000D02*
Y155363D01*
X134577Y159923D02*
X139137Y155363D01*
X129137Y188787D02*
X129350Y189000D01*
X129137Y171000D02*
Y188787D01*
X148150Y175012D02*
Y189000D01*
X144137Y171000D02*
X148150Y175012D01*
X139137Y140137D02*
Y151000D01*
X195350Y163150D02*
Y172500D01*
Y163150D02*
X200000Y158500D01*
X208500D01*
X213000Y163000D01*
X218000Y168000D02*
X223000Y163000D01*
X212284Y168000D02*
X218000D01*
X207850Y172433D02*
X212284Y168000D01*
X207850Y172433D02*
Y172500D01*
X201650Y164350D02*
X203000Y163000D01*
X201650Y164350D02*
Y172500D01*
X207850D02*
Y174650D01*
X203780Y178720D02*
X207850Y174650D01*
X203780Y178720D02*
Y182346D01*
X201220D02*
X201650Y181917D01*
Y172500D02*
Y181917D01*
X189807Y182346D02*
X198661D01*
X185153Y187000D02*
X189807Y182346D01*
X185153Y187000D02*
X185153Y187000D01*
Y194000D01*
X191847Y187000D02*
X197000D01*
X206339Y196339D01*
Y200654D01*
X197150Y196000D02*
X202110D01*
X193846D02*
X197150D01*
X191650Y201500D02*
X197150Y196000D01*
X191847Y194000D02*
X193846Y196000D01*
X202110D02*
X203780Y197670D01*
Y200654D01*
X195153Y217000D02*
X198661Y213492D01*
Y200654D02*
Y213492D01*
X201220Y200654D02*
Y206878D01*
X211000Y216657D01*
X228500Y178847D02*
X233000D01*
X223654D02*
X228500D01*
X217665Y196500D02*
X219500D01*
X227000Y189000D01*
Y180347D02*
Y189000D01*
Y180347D02*
X228500Y178847D01*
X223500Y179000D02*
X223654Y178847D01*
X216819Y200654D02*
X217665Y201500D01*
X206339Y200654D02*
X216819D01*
X217665Y201500D02*
Y206500D01*
X210658Y217000D02*
X211000Y216657D01*
X201847Y217000D02*
X210658D01*
X289000Y189000D02*
Y192000D01*
X115750Y294900D02*
X122404D01*
X107750Y290250D02*
X111550Y286450D01*
Y278961D02*
Y286450D01*
X115750Y282500D02*
X122404D01*
X104000Y278250D02*
X107750Y282000D01*
X104000Y276389D02*
Y278250D01*
X103950Y276339D02*
X104000Y276389D01*
X103950Y263050D02*
Y276339D01*
Y263050D02*
X105000Y262000D01*
X109000D01*
D41*
X253760Y200480D02*
D03*
X257500D02*
D03*
X261240D02*
D03*
Y210520D02*
D03*
X257500D02*
D03*
X253760D02*
D03*
D42*
X256224Y231000D02*
D03*
D43*
X248724Y240843D02*
D03*
X253724D02*
D03*
X258724D02*
D03*
X263724D02*
D03*
Y221158D02*
D03*
X258724D02*
D03*
X253724D02*
D03*
X248724D02*
D03*
D44*
X169000Y206000D02*
D03*
D45*
Y216000D02*
D03*
Y226000D02*
D03*
Y236000D02*
D03*
Y246000D02*
D03*
Y256000D02*
D03*
X134000Y206000D02*
D03*
Y216000D02*
D03*
Y226000D02*
D03*
Y236000D02*
D03*
Y246000D02*
D03*
Y256000D02*
D03*
D46*
X234524Y255000D02*
D03*
Y260000D02*
D03*
Y265000D02*
D03*
Y270000D02*
D03*
X212476Y255000D02*
D03*
Y260000D02*
D03*
Y265000D02*
D03*
Y270000D02*
D03*
D47*
X122653Y282500D02*
D03*
X129347D02*
D03*
X287653Y294000D02*
D03*
X294346D02*
D03*
X122404Y294900D02*
D03*
X129096D02*
D03*
X195153Y217000D02*
D03*
X201847D02*
D03*
X191847Y194000D02*
D03*
X185153D02*
D03*
X185153Y187000D02*
D03*
X191847D02*
D03*
X121846Y172500D02*
D03*
X115154D02*
D03*
X121846Y164000D02*
D03*
X115154D02*
D03*
X158346Y150000D02*
D03*
X151654D02*
D03*
D48*
X115500Y282500D02*
D03*
X107500D02*
D03*
X273500Y294000D02*
D03*
X281500D02*
D03*
X107750Y294900D02*
D03*
X115750D02*
D03*
D49*
X261500Y186650D02*
D03*
Y180350D02*
D03*
X252500Y186650D02*
D03*
Y180350D02*
D03*
D50*
X270500Y228847D02*
D03*
Y222153D02*
D03*
X233000Y172153D02*
D03*
Y178847D02*
D03*
X223500Y179000D02*
D03*
Y172307D02*
D03*
D51*
X148150Y189000D02*
D03*
X141850D02*
D03*
X129350D02*
D03*
X135650D02*
D03*
X144150Y180000D02*
D03*
X137850D02*
D03*
X201650Y172500D02*
D03*
X195350D02*
D03*
X207850D02*
D03*
X214150D02*
D03*
X185350Y201500D02*
D03*
X191650D02*
D03*
D52*
X112000Y158224D02*
D03*
X115740Y148776D02*
D03*
X108260D02*
D03*
D53*
X129137Y151000D02*
D03*
X134137D02*
D03*
X139137D02*
D03*
X144137D02*
D03*
X129137Y171000D02*
D03*
X134137D02*
D03*
X139137D02*
D03*
D54*
X144137D02*
D03*
D55*
X251000Y253583D02*
D03*
Y276417D02*
D03*
D56*
X238335Y191500D02*
D03*
Y196500D02*
D03*
Y201500D02*
D03*
Y206500D02*
D03*
X217665Y191500D02*
D03*
Y196500D02*
D03*
Y201500D02*
D03*
Y206500D02*
D03*
D57*
X198661Y182346D02*
D03*
X201220D02*
D03*
X203780D02*
D03*
X206339D02*
D03*
X198661Y200654D02*
D03*
X201220D02*
D03*
X203780D02*
D03*
X206339D02*
D03*
D58*
X268500Y273500D02*
X279000Y284000D01*
X268500Y245618D02*
Y273500D01*
X263724Y240843D02*
X268500Y245618D01*
X218657Y285000D02*
X227240Y276417D01*
X251000D01*
Y248000D02*
Y253583D01*
X225500Y233000D02*
Y242000D01*
X234524Y251024D01*
Y255000D01*
Y260000D01*
Y265000D02*
X237024Y267500D01*
X255349D01*
X260924Y261924D01*
Y247924D02*
Y261924D01*
X258724Y245724D02*
X260924Y247924D01*
X258724Y240843D02*
Y245724D01*
X253724Y240843D02*
Y245276D01*
X251000Y248000D02*
X253724Y245276D01*
X235500Y233000D02*
X243342Y240843D01*
X248724D01*
X247342Y294000D02*
X273500D01*
X238342Y285000D02*
X247342Y294000D01*
X273500Y289500D02*
Y294000D01*
Y289500D02*
X279000Y284000D01*
D59*
X148000Y139000D02*
X148500Y139500D01*
X148000Y129500D02*
Y139000D01*
X145137Y162863D02*
X154237D01*
X139137D02*
X145137D01*
X211319Y253842D02*
X212476Y255000D01*
X198500Y253842D02*
X211319D01*
X147294Y277706D02*
X168294D01*
X192157Y253842D01*
X198500D01*
X238335Y206500D02*
X238835Y206000D01*
X242500D01*
X244000Y201500D02*
Y204500D01*
X242500Y206000D02*
X244000Y204500D01*
Y178500D02*
Y201500D01*
X237653Y172153D02*
X244000Y178500D01*
X233000Y172153D02*
X237653D01*
X121846Y171653D02*
X130637Y162863D01*
X139137D01*
X154237D02*
X169000Y177625D01*
X110294Y277706D02*
X147294D01*
X169000Y149500D02*
Y177625D01*
Y206000D01*
X227000Y143500D02*
Y157000D01*
X250500Y146000D02*
X257000Y139500D01*
X229500Y146000D02*
X250500D01*
X227000Y143500D02*
X229500Y146000D01*
X227000Y139500D02*
Y143500D01*
X233000Y163000D02*
Y172153D01*
X227000Y157000D02*
X233000Y163000D01*
X217000Y139500D02*
X227000D01*
X228177Y216657D02*
X238335Y206500D01*
X211000Y216657D02*
X228177D01*
X169000Y246000D02*
Y256000D01*
Y236000D02*
Y246000D01*
Y226000D02*
Y236000D01*
Y216000D02*
Y226000D01*
Y206000D02*
Y216000D01*
X109000Y276412D02*
X110294Y277706D01*
X147294D02*
X169000Y256000D01*
X109000Y272000D02*
Y276412D01*
D60*
X284000Y257000D02*
X289000Y262000D01*
X284000Y218000D02*
Y257000D01*
X282950Y216950D02*
X284000Y218000D01*
X141587Y166413D02*
Y174587D01*
X144150Y177150D01*
X141587Y166413D02*
X145137Y162863D01*
X144150Y177150D02*
Y180000D01*
X112000Y158224D02*
X115154Y161378D01*
Y164000D01*
X218500Y260000D02*
X227000Y268500D01*
X212476Y260000D02*
X218500D01*
X211319Y261157D02*
X212476Y260000D01*
X198500Y261157D02*
X211319D01*
X276950Y216950D02*
X282950D01*
X273500Y213500D02*
X276950Y216950D01*
X273500Y210500D02*
Y213500D01*
X267000Y204000D02*
X273500Y210500D01*
X256638Y204000D02*
X267000D01*
X253760Y201122D02*
X256638Y204000D01*
X261240Y200480D02*
X261260Y200500D01*
X270500D01*
X276950Y206950D01*
X283950D02*
X289000Y212000D01*
X261240Y200480D02*
X261500Y200220D01*
Y186650D02*
Y200220D01*
X268500Y146000D02*
Y188500D01*
X267000Y144500D02*
X268500Y146000D01*
X267000Y139500D02*
Y144500D01*
X268500Y188500D02*
X276950Y196950D01*
X283950D02*
X289000Y202000D01*
X276950Y196950D02*
X283950D01*
X127500Y229500D02*
Y229758D01*
X133742Y236000D01*
X134000D01*
X130500Y229500D02*
Y230000D01*
Y229500D02*
X134000Y226000D01*
X128500Y210500D02*
X134000Y216000D01*
X133000Y201000D02*
X134000Y202000D01*
Y206000D01*
X125000Y247000D02*
X134000Y256000D01*
X125000Y240500D02*
Y247000D01*
X119000Y234500D02*
X125000Y240500D01*
X119000Y232000D02*
Y234500D01*
X124000Y236000D02*
X134000Y246000D01*
X124000Y227000D02*
Y236000D01*
X119000Y222000D02*
X124000Y227000D01*
X104050Y209950D02*
Y225500D01*
Y209950D02*
X106950Y207050D01*
X104050Y225500D02*
X109000Y230450D01*
X124500Y206000D02*
Y213500D01*
X114000Y217000D02*
X121000D01*
X124500Y213500D01*
Y206000D02*
X134500Y196000D01*
X129350Y189000D02*
Y198650D01*
X120950Y207050D02*
X129350Y198650D01*
X141150Y196000D02*
X148150Y189000D01*
X134500Y196000D02*
X141150D01*
X109000Y222000D02*
X114000Y217000D01*
X106950Y207050D02*
X120950D01*
X109000Y230450D02*
Y232000D01*
X276950Y206950D02*
X283950D01*
X289000Y189000D02*
X294050Y183950D01*
Y179408D02*
Y183950D01*
X287000Y172358D02*
X294050Y179408D01*
X287000Y139500D02*
Y172358D01*
X277000Y169500D02*
X289000Y181500D01*
X277000Y139500D02*
Y169500D01*
D61*
X256224Y227791D02*
D03*
X251500Y231000D02*
D03*
X256224Y234209D02*
D03*
X260949Y231000D02*
D03*
D62*
X118500Y129500D02*
D03*
X128500D02*
D03*
X138500D02*
D03*
X108500Y139500D02*
D03*
X118500D02*
D03*
X128500D02*
D03*
X138500D02*
D03*
X287000D02*
D03*
X277000D02*
D03*
X267000D02*
D03*
X257000D02*
D03*
X247000D02*
D03*
X237000D02*
D03*
X227000D02*
D03*
X289000Y284000D02*
D03*
X225500Y233000D02*
D03*
X223000Y163000D02*
D03*
X213000D02*
D03*
X203000D02*
D03*
D63*
X148500Y129500D02*
D03*
Y139500D02*
D03*
X217000D02*
D03*
X279000Y284000D02*
D03*
X235500Y233000D02*
D03*
X233000Y163000D02*
D03*
D64*
X211000Y216657D02*
D03*
X198500Y261157D02*
D03*
X198500Y253842D02*
D03*
D65*
X211000Y236343D02*
D03*
X218657Y285000D02*
D03*
X198500Y280842D02*
D03*
X198500Y234157D02*
D03*
D66*
X238342Y285000D02*
D03*
D67*
X289000Y181500D02*
D03*
Y192000D02*
D03*
Y202000D02*
D03*
Y212000D02*
D03*
Y222000D02*
D03*
Y232000D02*
D03*
Y242000D02*
D03*
Y252000D02*
D03*
Y262000D02*
D03*
Y272000D02*
D03*
X279000Y182000D02*
D03*
Y192000D02*
D03*
Y202000D02*
D03*
Y212000D02*
D03*
Y222000D02*
D03*
Y232000D02*
D03*
Y242000D02*
D03*
Y252000D02*
D03*
Y262000D02*
D03*
Y272000D02*
D03*
X119000Y182000D02*
D03*
Y192000D02*
D03*
Y202000D02*
D03*
Y212000D02*
D03*
Y222000D02*
D03*
Y232000D02*
D03*
Y242000D02*
D03*
Y252000D02*
D03*
Y262000D02*
D03*
Y272000D02*
D03*
X109000Y182000D02*
D03*
Y192000D02*
D03*
Y202000D02*
D03*
Y212000D02*
D03*
Y222000D02*
D03*
Y232000D02*
D03*
Y242000D02*
D03*
Y252000D02*
D03*
Y262000D02*
D03*
D68*
Y272000D02*
D03*
D69*
X138500Y175500D02*
D03*
X134000Y288500D02*
D03*
X161000Y155000D02*
D03*
X180500Y201000D02*
D03*
X212500Y188508D02*
D03*
X257000Y179500D02*
D03*
X227000Y268500D02*
D03*
X127500Y229500D02*
D03*
X133000Y201000D02*
D03*
X130500Y230000D02*
D03*
X128500Y210500D02*
D03*
X189000Y208500D02*
D03*
D70*
X169000Y149500D02*
D03*
M02*
