G04*
G04 #@! TF.GenerationSoftware,Altium Limited,Altium Designer,18.0.12 (696)*
G04*
G04 Layer_Color=16711935*
%FSLAX25Y25*%
%MOIN*%
G70*
G01*
G75*
%ADD31C,0.02368*%
%ADD32C,0.06706*%
%ADD33R,0.06706X0.06706*%
%ADD34R,0.06115X0.06115*%
%ADD35C,0.06115*%
%ADD36R,0.06115X0.06115*%
%ADD37C,0.08300*%
%ADD38R,0.08300X0.08300*%
%ADD39C,0.02300*%
%ADD40C,0.05800*%
D31*
X256224Y227791D02*
D03*
X251500Y231000D02*
D03*
X256224Y234209D02*
D03*
X260949Y231000D02*
D03*
D32*
X118500Y129500D02*
D03*
X128500D02*
D03*
X138500D02*
D03*
X108500Y139500D02*
D03*
X118500D02*
D03*
X128500D02*
D03*
X138500D02*
D03*
X287000D02*
D03*
X277000D02*
D03*
X267000D02*
D03*
X257000D02*
D03*
X247000D02*
D03*
X237000D02*
D03*
X227000D02*
D03*
X289000Y284000D02*
D03*
X225500Y233000D02*
D03*
X223000Y163000D02*
D03*
X213000D02*
D03*
X203000D02*
D03*
D33*
X148500Y129500D02*
D03*
Y139500D02*
D03*
X217000D02*
D03*
X279000Y284000D02*
D03*
X235500Y233000D02*
D03*
X233000Y163000D02*
D03*
D34*
X211000Y216657D02*
D03*
X198500Y261157D02*
D03*
X198500Y253842D02*
D03*
D35*
X211000Y236343D02*
D03*
X218657Y285000D02*
D03*
X198500Y280842D02*
D03*
X198500Y234157D02*
D03*
D36*
X238342Y285000D02*
D03*
D37*
X289000Y181500D02*
D03*
Y192000D02*
D03*
Y202000D02*
D03*
Y212000D02*
D03*
Y222000D02*
D03*
Y232000D02*
D03*
Y242000D02*
D03*
Y252000D02*
D03*
Y262000D02*
D03*
Y272000D02*
D03*
X279000Y182000D02*
D03*
Y192000D02*
D03*
Y202000D02*
D03*
Y212000D02*
D03*
Y222000D02*
D03*
Y232000D02*
D03*
Y242000D02*
D03*
Y252000D02*
D03*
Y262000D02*
D03*
Y272000D02*
D03*
X119000Y182000D02*
D03*
Y192000D02*
D03*
Y202000D02*
D03*
Y212000D02*
D03*
Y222000D02*
D03*
Y232000D02*
D03*
Y242000D02*
D03*
Y252000D02*
D03*
Y262000D02*
D03*
Y272000D02*
D03*
X109000Y182000D02*
D03*
Y192000D02*
D03*
Y202000D02*
D03*
Y212000D02*
D03*
Y222000D02*
D03*
Y232000D02*
D03*
Y242000D02*
D03*
Y252000D02*
D03*
Y262000D02*
D03*
D38*
Y272000D02*
D03*
D39*
X138500Y175500D02*
D03*
X134000Y288500D02*
D03*
X161000Y155000D02*
D03*
X180500Y201000D02*
D03*
X212500Y188508D02*
D03*
X257000Y179500D02*
D03*
X227000Y268500D02*
D03*
X127500Y229500D02*
D03*
X133000Y201000D02*
D03*
X130500Y230000D02*
D03*
X128500Y210500D02*
D03*
X189000Y208500D02*
D03*
D40*
X169000Y149500D02*
D03*
M02*
