G04*
G04 #@! TF.GenerationSoftware,Altium Limited,Altium Designer,18.0.12 (696)*
G04*
G04 Layer_Color=2752767*
%FSLAX25Y25*%
%MOIN*%
G70*
G01*
G75*
%ADD11C,0.01000*%
%ADD74C,0.00200*%
%ADD75C,0.00267*%
D11*
X103000Y304500D02*
X297500D01*
X103000Y109500D02*
Y304500D01*
Y109500D02*
X297500D01*
X297500Y304500D02*
X297500Y109500D01*
D74*
X255424Y226991D02*
Y228591D01*
X257024D01*
Y226991D01*
X255424D01*
X250700Y230200D02*
Y231800D01*
X252300D01*
Y230200D01*
X250700D01*
X255424Y233409D02*
Y235009D01*
X257024D01*
Y233409D01*
X255424D01*
X260149Y230200D02*
Y231800D01*
X261749D01*
Y230200D01*
X260149D01*
X211000Y215858D02*
X210200Y217458D01*
X211800D01*
X211000Y215858D01*
X211000Y235542D02*
X210200Y237142D01*
X211800D01*
X211000Y235542D01*
X238342Y284200D02*
X237543Y285800D01*
X239142D01*
X238342Y284200D01*
X218657Y284200D02*
X217858Y285800D01*
X219458D01*
X218657Y284200D01*
X289000Y180700D02*
X289400Y181100D01*
X289800D01*
X289400Y181500D01*
X289800Y181900D01*
X289400D01*
X289000Y182300D01*
X288600Y181900D01*
X288200D01*
X288600Y181500D01*
X288200Y181100D01*
X288600D01*
X289000Y180700D01*
Y191200D02*
X289400Y191600D01*
X289800D01*
X289400Y192000D01*
X289800Y192400D01*
X289400D01*
X289000Y192800D01*
X288600Y192400D01*
X288200D01*
X288600Y192000D01*
X288200Y191600D01*
X288600D01*
X289000Y191200D01*
Y201200D02*
X289400Y201600D01*
X289800D01*
X289400Y202000D01*
X289800Y202400D01*
X289400D01*
X289000Y202800D01*
X288600Y202400D01*
X288200D01*
X288600Y202000D01*
X288200Y201600D01*
X288600D01*
X289000Y201200D01*
Y211200D02*
X289400Y211600D01*
X289800D01*
X289400Y212000D01*
X289800Y212400D01*
X289400D01*
X289000Y212800D01*
X288600Y212400D01*
X288200D01*
X288600Y212000D01*
X288200Y211600D01*
X288600D01*
X289000Y211200D01*
Y221200D02*
X289400Y221600D01*
X289800D01*
X289400Y222000D01*
X289800Y222400D01*
X289400D01*
X289000Y222800D01*
X288600Y222400D01*
X288200D01*
X288600Y222000D01*
X288200Y221600D01*
X288600D01*
X289000Y221200D01*
Y231200D02*
X289400Y231600D01*
X289800D01*
X289400Y232000D01*
X289800Y232400D01*
X289400D01*
X289000Y232800D01*
X288600Y232400D01*
X288200D01*
X288600Y232000D01*
X288200Y231600D01*
X288600D01*
X289000Y231200D01*
Y241200D02*
X289400Y241600D01*
X289800D01*
X289400Y242000D01*
X289800Y242400D01*
X289400D01*
X289000Y242800D01*
X288600Y242400D01*
X288200D01*
X288600Y242000D01*
X288200Y241600D01*
X288600D01*
X289000Y241200D01*
Y251200D02*
X289400Y251600D01*
X289800D01*
X289400Y252000D01*
X289800Y252400D01*
X289400D01*
X289000Y252800D01*
X288600Y252400D01*
X288200D01*
X288600Y252000D01*
X288200Y251600D01*
X288600D01*
X289000Y251200D01*
Y261200D02*
X289400Y261600D01*
X289800D01*
X289400Y262000D01*
X289800Y262400D01*
X289400D01*
X289000Y262800D01*
X288600Y262400D01*
X288200D01*
X288600Y262000D01*
X288200Y261600D01*
X288600D01*
X289000Y261200D01*
Y271200D02*
X289400Y271600D01*
X289800D01*
X289400Y272000D01*
X289800Y272400D01*
X289400D01*
X289000Y272800D01*
X288600Y272400D01*
X288200D01*
X288600Y272000D01*
X288200Y271600D01*
X288600D01*
X289000Y271200D01*
X279000Y181200D02*
X279400Y181600D01*
X279800D01*
X279400Y182000D01*
X279800Y182400D01*
X279400D01*
X279000Y182800D01*
X278600Y182400D01*
X278200D01*
X278600Y182000D01*
X278200Y181600D01*
X278600D01*
X279000Y181200D01*
Y191200D02*
X279400Y191600D01*
X279800D01*
X279400Y192000D01*
X279800Y192400D01*
X279400D01*
X279000Y192800D01*
X278600Y192400D01*
X278200D01*
X278600Y192000D01*
X278200Y191600D01*
X278600D01*
X279000Y191200D01*
Y201200D02*
X279400Y201600D01*
X279800D01*
X279400Y202000D01*
X279800Y202400D01*
X279400D01*
X279000Y202800D01*
X278600Y202400D01*
X278200D01*
X278600Y202000D01*
X278200Y201600D01*
X278600D01*
X279000Y201200D01*
Y211200D02*
X279400Y211600D01*
X279800D01*
X279400Y212000D01*
X279800Y212400D01*
X279400D01*
X279000Y212800D01*
X278600Y212400D01*
X278200D01*
X278600Y212000D01*
X278200Y211600D01*
X278600D01*
X279000Y211200D01*
Y221200D02*
X279400Y221600D01*
X279800D01*
X279400Y222000D01*
X279800Y222400D01*
X279400D01*
X279000Y222800D01*
X278600Y222400D01*
X278200D01*
X278600Y222000D01*
X278200Y221600D01*
X278600D01*
X279000Y221200D01*
Y231200D02*
X279400Y231600D01*
X279800D01*
X279400Y232000D01*
X279800Y232400D01*
X279400D01*
X279000Y232800D01*
X278600Y232400D01*
X278200D01*
X278600Y232000D01*
X278200Y231600D01*
X278600D01*
X279000Y231200D01*
Y241200D02*
X279400Y241600D01*
X279800D01*
X279400Y242000D01*
X279800Y242400D01*
X279400D01*
X279000Y242800D01*
X278600Y242400D01*
X278200D01*
X278600Y242000D01*
X278200Y241600D01*
X278600D01*
X279000Y241200D01*
Y251200D02*
X279400Y251600D01*
X279800D01*
X279400Y252000D01*
X279800Y252400D01*
X279400D01*
X279000Y252800D01*
X278600Y252400D01*
X278200D01*
X278600Y252000D01*
X278200Y251600D01*
X278600D01*
X279000Y251200D01*
Y261200D02*
X279400Y261600D01*
X279800D01*
X279400Y262000D01*
X279800Y262400D01*
X279400D01*
X279000Y262800D01*
X278600Y262400D01*
X278200D01*
X278600Y262000D01*
X278200Y261600D01*
X278600D01*
X279000Y261200D01*
Y271200D02*
X279400Y271600D01*
X279800D01*
X279400Y272000D01*
X279800Y272400D01*
X279400D01*
X279000Y272800D01*
X278600Y272400D01*
X278200D01*
X278600Y272000D01*
X278200Y271600D01*
X278600D01*
X279000Y271200D01*
X119000Y181200D02*
X119400Y181600D01*
X119800D01*
X119400Y182000D01*
X119800Y182400D01*
X119400D01*
X119000Y182800D01*
X118600Y182400D01*
X118200D01*
X118600Y182000D01*
X118200Y181600D01*
X118600D01*
X119000Y181200D01*
Y191200D02*
X119400Y191600D01*
X119800D01*
X119400Y192000D01*
X119800Y192400D01*
X119400D01*
X119000Y192800D01*
X118600Y192400D01*
X118200D01*
X118600Y192000D01*
X118200Y191600D01*
X118600D01*
X119000Y191200D01*
Y201200D02*
X119400Y201600D01*
X119800D01*
X119400Y202000D01*
X119800Y202400D01*
X119400D01*
X119000Y202800D01*
X118600Y202400D01*
X118200D01*
X118600Y202000D01*
X118200Y201600D01*
X118600D01*
X119000Y201200D01*
Y211200D02*
X119400Y211600D01*
X119800D01*
X119400Y212000D01*
X119800Y212400D01*
X119400D01*
X119000Y212800D01*
X118600Y212400D01*
X118200D01*
X118600Y212000D01*
X118200Y211600D01*
X118600D01*
X119000Y211200D01*
Y221200D02*
X119400Y221600D01*
X119800D01*
X119400Y222000D01*
X119800Y222400D01*
X119400D01*
X119000Y222800D01*
X118600Y222400D01*
X118200D01*
X118600Y222000D01*
X118200Y221600D01*
X118600D01*
X119000Y221200D01*
Y231200D02*
X119400Y231600D01*
X119800D01*
X119400Y232000D01*
X119800Y232400D01*
X119400D01*
X119000Y232800D01*
X118600Y232400D01*
X118200D01*
X118600Y232000D01*
X118200Y231600D01*
X118600D01*
X119000Y231200D01*
Y241200D02*
X119400Y241600D01*
X119800D01*
X119400Y242000D01*
X119800Y242400D01*
X119400D01*
X119000Y242800D01*
X118600Y242400D01*
X118200D01*
X118600Y242000D01*
X118200Y241600D01*
X118600D01*
X119000Y241200D01*
Y251200D02*
X119400Y251600D01*
X119800D01*
X119400Y252000D01*
X119800Y252400D01*
X119400D01*
X119000Y252800D01*
X118600Y252400D01*
X118200D01*
X118600Y252000D01*
X118200Y251600D01*
X118600D01*
X119000Y251200D01*
Y261200D02*
X119400Y261600D01*
X119800D01*
X119400Y262000D01*
X119800Y262400D01*
X119400D01*
X119000Y262800D01*
X118600Y262400D01*
X118200D01*
X118600Y262000D01*
X118200Y261600D01*
X118600D01*
X119000Y261200D01*
Y271200D02*
X119400Y271600D01*
X119800D01*
X119400Y272000D01*
X119800Y272400D01*
X119400D01*
X119000Y272800D01*
X118600Y272400D01*
X118200D01*
X118600Y272000D01*
X118200Y271600D01*
X118600D01*
X119000Y271200D01*
X109000Y181200D02*
X109400Y181600D01*
X109800D01*
X109400Y182000D01*
X109800Y182400D01*
X109400D01*
X109000Y182800D01*
X108600Y182400D01*
X108200D01*
X108600Y182000D01*
X108200Y181600D01*
X108600D01*
X109000Y181200D01*
Y191200D02*
X109400Y191600D01*
X109800D01*
X109400Y192000D01*
X109800Y192400D01*
X109400D01*
X109000Y192800D01*
X108600Y192400D01*
X108200D01*
X108600Y192000D01*
X108200Y191600D01*
X108600D01*
X109000Y191200D01*
Y201200D02*
X109400Y201600D01*
X109800D01*
X109400Y202000D01*
X109800Y202400D01*
X109400D01*
X109000Y202800D01*
X108600Y202400D01*
X108200D01*
X108600Y202000D01*
X108200Y201600D01*
X108600D01*
X109000Y201200D01*
Y211200D02*
X109400Y211600D01*
X109800D01*
X109400Y212000D01*
X109800Y212400D01*
X109400D01*
X109000Y212800D01*
X108600Y212400D01*
X108200D01*
X108600Y212000D01*
X108200Y211600D01*
X108600D01*
X109000Y211200D01*
Y221200D02*
X109400Y221600D01*
X109800D01*
X109400Y222000D01*
X109800Y222400D01*
X109400D01*
X109000Y222800D01*
X108600Y222400D01*
X108200D01*
X108600Y222000D01*
X108200Y221600D01*
X108600D01*
X109000Y221200D01*
Y231200D02*
X109400Y231600D01*
X109800D01*
X109400Y232000D01*
X109800Y232400D01*
X109400D01*
X109000Y232800D01*
X108600Y232400D01*
X108200D01*
X108600Y232000D01*
X108200Y231600D01*
X108600D01*
X109000Y231200D01*
Y241200D02*
X109400Y241600D01*
X109800D01*
X109400Y242000D01*
X109800Y242400D01*
X109400D01*
X109000Y242800D01*
X108600Y242400D01*
X108200D01*
X108600Y242000D01*
X108200Y241600D01*
X108600D01*
X109000Y241200D01*
Y251200D02*
X109400Y251600D01*
X109800D01*
X109400Y252000D01*
X109800Y252400D01*
X109400D01*
X109000Y252800D01*
X108600Y252400D01*
X108200D01*
X108600Y252000D01*
X108200Y251600D01*
X108600D01*
X109000Y251200D01*
Y261200D02*
X109400Y261600D01*
X109800D01*
X109400Y262000D01*
X109800Y262400D01*
X109400D01*
X109000Y262800D01*
X108600Y262400D01*
X108200D01*
X108600Y262000D01*
X108200Y261600D01*
X108600D01*
X109000Y261200D01*
Y271200D02*
X109400Y271600D01*
X109800D01*
X109400Y272000D01*
X109800Y272400D01*
X109400D01*
X109000Y272800D01*
X108600Y272400D01*
X108200D01*
X108600Y272000D01*
X108200Y271600D01*
X108600D01*
X109000Y271200D01*
X198500Y260357D02*
X197700Y261958D01*
X199300D01*
X198500Y260357D01*
X198500Y280043D02*
X197700Y281643D01*
X199300D01*
X198500Y280043D01*
Y253043D02*
X197700Y254643D01*
X199300D01*
X198500Y253043D01*
X198500Y233358D02*
X197700Y234958D01*
X199300D01*
X198500Y233358D01*
X137700Y174700D02*
Y176300D01*
X139300D01*
Y174700D01*
X137700D01*
X133200Y287700D02*
Y289300D01*
X134800D01*
Y287700D01*
X133200D01*
X168200Y148700D02*
X168600Y149500D01*
X168200Y150300D01*
X169000Y149900D01*
X169800Y150300D01*
X169400Y149500D01*
X169800Y148700D01*
X169000Y149100D01*
X168200Y148700D01*
X160200Y154200D02*
Y155800D01*
X161800D01*
Y154200D01*
X160200D01*
X179700Y200200D02*
Y201800D01*
X181300D01*
Y200200D01*
X179700D01*
X211700Y187708D02*
Y189308D01*
X213300D01*
Y187708D01*
X211700D01*
X256200Y178700D02*
Y180300D01*
X257800D01*
Y178700D01*
X256200D01*
X226200Y267700D02*
Y269300D01*
X227800D01*
Y267700D01*
X226200D01*
X126700Y228700D02*
Y230300D01*
X128300D01*
Y228700D01*
X126700D01*
X132200Y200200D02*
Y201800D01*
X133800D01*
Y200200D01*
X132200D01*
X129700Y229200D02*
Y230800D01*
X131300D01*
Y229200D01*
X129700D01*
X127700Y209700D02*
Y211300D01*
X129300D01*
Y209700D01*
X127700D01*
X188200Y207700D02*
Y209300D01*
X189800D01*
Y207700D01*
X188200D01*
D75*
X119300Y129500D02*
G03*
X119300Y129500I-800J0D01*
G01*
X129300D02*
G03*
X129300Y129500I-800J0D01*
G01*
X139300D02*
G03*
X139300Y129500I-800J0D01*
G01*
X149300D02*
G03*
X149300Y129500I-800J0D01*
G01*
X109300Y139500D02*
G03*
X109300Y139500I-800J0D01*
G01*
X119300D02*
G03*
X119300Y139500I-800J0D01*
G01*
X129300D02*
G03*
X129300Y139500I-800J0D01*
G01*
X139300D02*
G03*
X139300Y139500I-800J0D01*
G01*
X149300D02*
G03*
X149300Y139500I-800J0D01*
G01*
X287800D02*
G03*
X287800Y139500I-800J0D01*
G01*
X277800D02*
G03*
X277800Y139500I-800J0D01*
G01*
X267800D02*
G03*
X267800Y139500I-800J0D01*
G01*
X257800D02*
G03*
X257800Y139500I-800J0D01*
G01*
X247800D02*
G03*
X247800Y139500I-800J0D01*
G01*
X237800D02*
G03*
X237800Y139500I-800J0D01*
G01*
X227800D02*
G03*
X227800Y139500I-800J0D01*
G01*
X217800D02*
G03*
X217800Y139500I-800J0D01*
G01*
X289800Y284000D02*
G03*
X289800Y284000I-800J0D01*
G01*
X279800D02*
G03*
X279800Y284000I-800J0D01*
G01*
X226300Y233000D02*
G03*
X226300Y233000I-800J0D01*
G01*
X236300D02*
G03*
X236300Y233000I-800J0D01*
G01*
X233800Y163000D02*
G03*
X233800Y163000I-800J0D01*
G01*
X223800D02*
G03*
X223800Y163000I-800J0D01*
G01*
X213800D02*
G03*
X213800Y163000I-800J0D01*
G01*
X203800D02*
G03*
X203800Y163000I-800J0D01*
G01*
M02*
