G04*
G04 #@! TF.GenerationSoftware,Altium Limited,Altium Designer,18.0.12 (696)*
G04*
G04 Layer_Physical_Order=1*
G04 Layer_Color=255*
%FSLAX25Y25*%
%MOIN*%
G70*
G01*
G75*
%ADD12C,0.01000*%
%ADD25R,0.04134X0.12795*%
%ADD26R,0.03347X0.05118*%
%ADD27R,0.03740X0.05315*%
G04:AMPARAMS|DCode=28|XSize=21.65mil|YSize=31.5mil|CornerRadius=1.95mil|HoleSize=0mil|Usage=FLASHONLY|Rotation=0.000|XOffset=0mil|YOffset=0mil|HoleType=Round|Shape=RoundedRectangle|*
%AMROUNDEDRECTD28*
21,1,0.02165,0.02760,0,0,0.0*
21,1,0.01776,0.03150,0,0,0.0*
1,1,0.00390,0.00888,-0.01380*
1,1,0.00390,-0.00888,-0.01380*
1,1,0.00390,-0.00888,0.01380*
1,1,0.00390,0.00888,0.01380*
%
%ADD28ROUNDEDRECTD28*%
%ADD29R,0.08386X0.11811*%
%ADD30O,0.07874X0.02362*%
%ADD31C,0.04000*%
%ADD32C,0.03000*%
%ADD33C,0.05906*%
%ADD34R,0.05906X0.05906*%
%ADD35C,0.01968*%
%ADD36C,0.05315*%
%ADD37R,0.05315X0.05315*%
%ADD38C,0.03000*%
D12*
X145500Y117000D02*
X146038Y117538D01*
X155483D01*
X157634Y115387D01*
Y114463D02*
Y115387D01*
X150228Y119538D02*
X156312D01*
X137471Y132295D02*
X150228Y119538D01*
X158507Y123000D02*
X161500D01*
X157969Y123538D02*
X158507Y123000D01*
X153962Y123538D02*
X157969D01*
X149000Y128500D02*
X153962Y123538D01*
X157678Y121000D02*
X160500D01*
X157140Y121538D02*
X157678Y121000D01*
X151962Y121538D02*
X157140D01*
X146500Y127000D02*
X151962Y121538D01*
X157350Y118500D02*
X159500D01*
X156312Y119538D02*
X157350Y118500D01*
X159500D02*
X161374Y116626D01*
X134197Y122150D02*
X142347Y114000D01*
X153431D01*
X153894Y114463D01*
X145500Y117000D02*
Y119500D01*
X140496Y124504D02*
X145500Y119500D01*
X140496Y122500D02*
Y124504D01*
X128004Y132295D02*
X137471D01*
X147500Y143500D02*
X149500Y145500D01*
X156158D01*
X143488Y139488D02*
X147500Y143500D01*
X141496Y139488D02*
X143488D01*
X144000Y105500D02*
X147000Y108500D01*
X140693Y105500D02*
X144000D01*
X169500Y115000D02*
Y117828D01*
X156828Y130500D02*
X169500Y117828D01*
X156158Y130500D02*
X156828D01*
X161374Y104424D02*
Y105546D01*
X166000Y110172D01*
Y118328D01*
X161500Y122828D02*
X166000Y118328D01*
X161500Y122828D02*
Y123000D01*
X149000Y128500D02*
Y132500D01*
X152000Y135500D01*
X156158D01*
X153000Y140500D02*
X156158D01*
X146500Y134000D02*
X153000Y140500D01*
X146500Y127000D02*
Y134000D01*
X160500Y121000D02*
X164000Y117500D01*
Y111000D02*
Y117500D01*
X161500Y108500D02*
X164000Y111000D01*
X155500Y108500D02*
X161500D01*
X154000Y107000D02*
X155500Y108500D01*
X154000Y104530D02*
Y107000D01*
X153894Y104424D02*
X154000Y104530D01*
X161374Y114463D02*
Y116626D01*
X134197Y122150D02*
Y122500D01*
X128854Y127842D02*
X134197Y122500D01*
X120000Y127842D02*
X128854D01*
X128004Y132295D02*
X135197Y139488D01*
X116890Y132295D02*
X128004D01*
X115547Y130953D02*
X116890Y132295D01*
X115547Y125998D02*
Y130953D01*
Y125998D02*
X120000Y121545D01*
Y117842D02*
Y121545D01*
X157634Y103499D02*
Y104424D01*
X155483Y101349D02*
X157634Y103499D01*
X138151Y101349D02*
X155483D01*
X134000Y105500D02*
X138151Y101349D01*
X131658Y107843D02*
X134000Y105500D01*
X120000Y107843D02*
X131658D01*
X185500Y140500D02*
X186000Y140000D01*
X223342Y109000D02*
X224500Y107843D01*
D25*
X179165Y109000D02*
D03*
X202000D02*
D03*
D26*
X134000Y105500D02*
D03*
X140693D02*
D03*
D27*
X140496Y122500D02*
D03*
X134197D02*
D03*
X141496Y139488D02*
D03*
X135197D02*
D03*
D28*
X161374Y104424D02*
D03*
X157634D02*
D03*
X153894D02*
D03*
Y114463D02*
D03*
X157634D02*
D03*
X161374D02*
D03*
D29*
X166000Y138000D02*
D03*
D30*
X175842Y145500D02*
D03*
Y140500D02*
D03*
Y135500D02*
D03*
Y130500D02*
D03*
X156158D02*
D03*
Y135500D02*
D03*
Y140500D02*
D03*
Y145500D02*
D03*
D31*
X221342Y121000D02*
X224500Y117842D01*
X212185Y128500D02*
X213843D01*
X221342Y121000D01*
X224352Y127842D02*
X224500D01*
X216694Y135500D02*
X224352Y127842D01*
X175842Y135500D02*
X216694D01*
X189000Y121000D02*
X221342D01*
X179500Y130500D02*
X189000Y121000D01*
X175842Y130500D02*
X179500D01*
X216843Y145500D02*
X224500Y137843D01*
X175842Y145500D02*
X216843D01*
X202000Y109000D02*
X223342D01*
D32*
X175500Y116665D02*
Y121000D01*
Y116665D02*
X179165Y113000D01*
Y109000D02*
Y113000D01*
X175842Y140500D02*
X185500D01*
D33*
X224500Y107843D02*
D03*
Y117842D02*
D03*
Y127842D02*
D03*
X120000Y137843D02*
D03*
Y127842D02*
D03*
Y117842D02*
D03*
D34*
X224500Y137843D02*
D03*
X120000Y107843D02*
D03*
D35*
X162791Y138000D02*
D03*
X166000Y142724D02*
D03*
X169209Y138000D02*
D03*
X166000Y133276D02*
D03*
D36*
X192500Y128500D02*
D03*
D37*
X212185Y128500D02*
D03*
D38*
X145500Y117000D02*
D03*
X147500Y143500D02*
D03*
X169500Y115000D02*
D03*
X147000Y108500D02*
D03*
X175500Y121000D02*
D03*
X185500Y140500D02*
D03*
M02*
