G04*
G04 #@! TF.GenerationSoftware,Altium Limited,Altium Designer,18.0.12 (696)*
G04*
G04 Layer_Color=2752767*
%FSLAX25Y25*%
%MOIN*%
G70*
G01*
G75*
%ADD43C,0.00200*%
%ADD44C,0.00267*%
D43*
X223700Y107043D02*
Y108642D01*
X225300D01*
Y107043D01*
X223700D01*
Y117043D02*
Y118642D01*
X225300D01*
Y117043D01*
X223700D01*
Y127042D02*
Y128642D01*
X225300D01*
Y127042D01*
X223700D01*
Y137042D02*
Y138643D01*
X225300D01*
Y137042D01*
X223700D01*
X119200D02*
Y138643D01*
X120800D01*
Y137042D01*
X119200D01*
Y127042D02*
Y128642D01*
X120800D01*
Y127042D01*
X119200D01*
Y117043D02*
Y118642D01*
X120800D01*
Y117043D01*
X119200D01*
Y107043D02*
Y108642D01*
X120800D01*
Y107043D01*
X119200D01*
X192500Y127700D02*
X191700Y129300D01*
X193300D01*
X192500Y127700D01*
X212185Y127700D02*
X211385Y129300D01*
X212985D01*
X212185Y127700D01*
X145500Y116200D02*
X145900Y116600D01*
X146300D01*
X145900Y117000D01*
X146300Y117400D01*
X145900D01*
X145500Y117800D01*
X145100Y117400D01*
X144700D01*
X145100Y117000D01*
X144700Y116600D01*
X145100D01*
X145500Y116200D01*
X147500Y142700D02*
X147900Y143100D01*
X148300D01*
X147900Y143500D01*
X148300Y143900D01*
X147900D01*
X147500Y144300D01*
X147100Y143900D01*
X146700D01*
X147100Y143500D01*
X146700Y143100D01*
X147100D01*
X147500Y142700D01*
X169500Y114200D02*
X169900Y114600D01*
X170300D01*
X169900Y115000D01*
X170300Y115400D01*
X169900D01*
X169500Y115800D01*
X169100Y115400D01*
X168700D01*
X169100Y115000D01*
X168700Y114600D01*
X169100D01*
X169500Y114200D01*
X147000Y107700D02*
X147400Y108100D01*
X147800D01*
X147400Y108500D01*
X147800Y108900D01*
X147400D01*
X147000Y109300D01*
X146600Y108900D01*
X146200D01*
X146600Y108500D01*
X146200Y108100D01*
X146600D01*
X147000Y107700D01*
X175500Y120200D02*
X175900Y120600D01*
X176300D01*
X175900Y121000D01*
X176300Y121400D01*
X175900D01*
X175500Y121800D01*
X175100Y121400D01*
X174700D01*
X175100Y121000D01*
X174700Y120600D01*
X175100D01*
X175500Y120200D01*
X185500Y139700D02*
X185900Y140100D01*
X186300D01*
X185900Y140500D01*
X186300Y140900D01*
X185900D01*
X185500Y141300D01*
X185100Y140900D01*
X184700D01*
X185100Y140500D01*
X184700Y140100D01*
X185100D01*
X185500Y139700D01*
D44*
X163591Y138000D02*
G03*
X163591Y138000I-800J0D01*
G01*
X166800Y142724D02*
G03*
X166800Y142724I-800J0D01*
G01*
X170009Y138000D02*
G03*
X170009Y138000I-800J0D01*
G01*
X166800Y133276D02*
G03*
X166800Y133276I-800J0D01*
G01*
M02*
