G04*
G04 #@! TF.GenerationSoftware,Altium Limited,Altium Designer,18.0.12 (696)*
G04*
G04 Layer_Color=8388736*
%FSLAX25Y25*%
%MOIN*%
G70*
G01*
G75*
%ADD13R,0.04934X0.13595*%
%ADD14R,0.04147X0.05918*%
%ADD15R,0.04540X0.06115*%
G04:AMPARAMS|DCode=16|XSize=29.65mil|YSize=39.5mil|CornerRadius=5.95mil|HoleSize=0mil|Usage=FLASHONLY|Rotation=0.000|XOffset=0mil|YOffset=0mil|HoleType=Round|Shape=RoundedRectangle|*
%AMROUNDEDRECTD16*
21,1,0.02965,0.02760,0,0,0.0*
21,1,0.01776,0.03950,0,0,0.0*
1,1,0.01190,0.00888,-0.01380*
1,1,0.01190,-0.00888,-0.01380*
1,1,0.01190,-0.00888,0.01380*
1,1,0.01190,0.00888,0.01380*
%
%ADD16ROUNDEDRECTD16*%
%ADD17R,0.08786X0.12211*%
%ADD18O,0.08274X0.02762*%
%ADD19C,0.06706*%
%ADD20R,0.06706X0.06706*%
%ADD21C,0.02368*%
%ADD22C,0.06115*%
%ADD23R,0.06115X0.06115*%
%ADD24C,0.03800*%
D13*
X179165Y109000D02*
D03*
X202000D02*
D03*
D14*
X134000Y105500D02*
D03*
X140693D02*
D03*
D15*
X140496Y122500D02*
D03*
X134197D02*
D03*
X141496Y139488D02*
D03*
X135197D02*
D03*
D16*
X161374Y104424D02*
D03*
X157634D02*
D03*
X153894D02*
D03*
Y114463D02*
D03*
X157634D02*
D03*
X161374D02*
D03*
D17*
X166000Y138000D02*
D03*
D18*
X175842Y145500D02*
D03*
Y140500D02*
D03*
Y135500D02*
D03*
Y130500D02*
D03*
X156158D02*
D03*
Y135500D02*
D03*
Y140500D02*
D03*
Y145500D02*
D03*
D19*
X224500Y107843D02*
D03*
Y117842D02*
D03*
Y127842D02*
D03*
X120000Y137843D02*
D03*
Y127842D02*
D03*
Y117842D02*
D03*
D20*
X224500Y137843D02*
D03*
X120000Y107843D02*
D03*
D21*
X162791Y138000D02*
D03*
X166000Y142724D02*
D03*
X169209Y138000D02*
D03*
X166000Y133276D02*
D03*
D22*
X192500Y128500D02*
D03*
D23*
X212185Y128500D02*
D03*
D24*
X145500Y117000D02*
D03*
X147500Y143500D02*
D03*
X169500Y115000D02*
D03*
X147000Y108500D02*
D03*
X175500Y121000D02*
D03*
X185500Y140500D02*
D03*
M02*
