G04*
G04 #@! TF.GenerationSoftware,Altium Limited,Altium Designer,18.0.12 (696)*
G04*
G04 Layer_Color=128*
%FSLAX25Y25*%
%MOIN*%
G70*
G01*
G75*
%ADD43C,0.00200*%
D43*
X222728Y107843D02*
X226272D01*
X224500Y106071D02*
Y109614D01*
X222728Y117842D02*
X226272D01*
X224500Y116071D02*
Y119614D01*
X222728Y127842D02*
X226272D01*
X224500Y126071D02*
Y129614D01*
X222728Y137843D02*
X226272D01*
X224500Y136071D02*
Y139614D01*
X118228Y137843D02*
X121772D01*
X120000Y136071D02*
Y139614D01*
X118228Y127842D02*
X121772D01*
X120000Y126071D02*
Y129614D01*
X118228Y117842D02*
X121772D01*
X120000Y116071D02*
Y119614D01*
X118228Y107843D02*
X121772D01*
X120000Y106071D02*
Y109614D01*
X162391Y138000D02*
X163191D01*
X162791Y137600D02*
Y138400D01*
X165600Y142724D02*
X166400D01*
X166000Y142324D02*
Y143124D01*
X168809Y138000D02*
X169609D01*
X169209Y137600D02*
Y138400D01*
X165600Y133276D02*
X166400D01*
X166000Y132876D02*
Y133676D01*
X190925Y128500D02*
X194075D01*
X192500Y126925D02*
Y130075D01*
X210610Y128500D02*
X213760D01*
X212185Y126925D02*
Y130075D01*
X144750Y117000D02*
X146250D01*
X145500Y116250D02*
Y117750D01*
X146750Y143500D02*
X148250D01*
X147500Y142750D02*
Y144250D01*
X168750Y115000D02*
X170250D01*
X169500Y114250D02*
Y115750D01*
X146250Y108500D02*
X147750D01*
X147000Y107750D02*
Y109250D01*
X174750Y121000D02*
X176250D01*
X175500Y120250D02*
Y121750D01*
X184750Y140500D02*
X186250D01*
X185500Y139750D02*
Y141250D01*
M02*
