G04*
G04 #@! TF.GenerationSoftware,Altium Limited,Altium Designer,18.0.12 (696)*
G04*
G04 Layer_Color=16711935*
%FSLAX25Y25*%
%MOIN*%
G70*
G01*
G75*
%ADD40C,0.00394*%
%ADD41C,0.00300*%
D40*
X164800Y147800D02*
G03*
X167200Y147800I1200J0D01*
G01*
X177787Y115693D02*
X203378D01*
X177787Y102307D02*
X203378D01*
X177787D02*
Y115693D01*
X203378Y102307D02*
Y115693D01*
X133016Y102842D02*
Y108158D01*
X141677Y102842D02*
Y108158D01*
X133016D02*
X141677D01*
X133016Y102842D02*
X141677D01*
Y119646D02*
Y125354D01*
X133016Y119646D02*
Y125354D01*
Y119646D02*
X141677D01*
X133016Y125354D02*
X141677D01*
X142677Y136634D02*
Y142342D01*
X134016Y136634D02*
Y142342D01*
Y136634D02*
X142677D01*
X134016Y142342D02*
X142677D01*
X151630Y105998D02*
Y112888D01*
X163638Y105998D02*
Y112888D01*
X151630Y105998D02*
X163638D01*
X151630Y112888D02*
X163638D01*
X158150Y144550D02*
Y146450D01*
X153800D02*
X158150D01*
X153800Y144550D02*
Y146450D01*
Y144550D02*
X158150D01*
Y139550D02*
Y141450D01*
X153800D02*
X158150D01*
X153800Y139550D02*
Y141450D01*
Y139550D02*
X158150D01*
Y134550D02*
Y136450D01*
X153800D02*
X158150D01*
X153800Y134550D02*
Y136450D01*
Y134550D02*
X158150D01*
Y129550D02*
Y131450D01*
X153800D02*
X158150D01*
X153800Y129550D02*
Y131450D01*
Y129550D02*
X158150D01*
X173850D02*
Y131450D01*
Y129550D02*
X178200D01*
Y131450D01*
X173850D02*
X178200D01*
X173850Y134550D02*
Y136450D01*
Y134550D02*
X178200D01*
Y136450D01*
X173850D02*
X178200D01*
X173850Y139550D02*
Y141450D01*
Y139550D02*
X178200D01*
Y141450D01*
X173850D02*
X178200D01*
X173850Y144550D02*
Y146450D01*
Y144550D02*
X178200D01*
Y146450D01*
X173850D02*
X178200D01*
X158150Y128200D02*
X173850D01*
Y147800D01*
X158150D02*
X173850D01*
X158150Y128200D02*
Y147800D01*
D41*
X159504Y141227D02*
Y137061D01*
X160337Y136228D01*
X162003D01*
X162836Y137061D01*
Y141227D01*
X164502Y136228D02*
X166168D01*
X165335D01*
Y141227D01*
X164502Y140394D01*
M02*
