G04*
G04 #@! TF.GenerationSoftware,Altium Limited,Altium Designer,18.0.12 (696)*
G04*
G04 Layer_Color=32896*
%FSLAX25Y25*%
%MOIN*%
G70*
G01*
G75*
%ADD12C,0.01000*%
D12*
X219000Y132000D02*
X220500Y130500D01*
X220000Y144000D02*
X221500Y142500D01*
X152073Y103500D02*
X156072D01*
Y105499D01*
X155405Y106166D01*
X152740D01*
X152073Y105499D01*
Y103500D01*
X156072Y107499D02*
X152073D01*
Y109498D01*
X152740Y110164D01*
X154072D01*
X154739Y109498D01*
Y107499D01*
Y108832D02*
X156072Y110164D01*
X152073Y111497D02*
X154739D01*
X156072Y112830D01*
X154739Y114163D01*
X152073D01*
X152740Y115496D02*
X152073Y116163D01*
Y117496D01*
X152740Y118162D01*
X153406D01*
X154072Y117496D01*
X154739Y118162D01*
X155405D01*
X156072Y117496D01*
Y116163D01*
X155405Y115496D01*
X154739D01*
X154072Y116163D01*
X153406Y115496D01*
X152740D01*
X154072Y116163D02*
Y117496D01*
X152740Y119495D02*
X152073Y120161D01*
Y121494D01*
X152740Y122161D01*
X153406D01*
X154072Y121494D01*
X154739Y122161D01*
X155405D01*
X156072Y121494D01*
Y120161D01*
X155405Y119495D01*
X154739D01*
X154072Y120161D01*
X153406Y119495D01*
X152740D01*
X154072Y120161D02*
Y121494D01*
X152073Y123494D02*
Y126159D01*
X152740D01*
X155405Y123494D01*
X156072D01*
Y130158D02*
Y127492D01*
X153406Y130158D01*
X152740D01*
X152073Y129492D01*
Y128159D01*
X152740Y127492D01*
X163270Y103500D02*
X159272D01*
X160604Y104833D01*
X159272Y106166D01*
X163270D01*
Y108165D02*
Y109498D01*
X162604Y110164D01*
X161271D01*
X160604Y109498D01*
Y108165D01*
X161271Y107499D01*
X162604D01*
X163270Y108165D01*
X159938Y112164D02*
X160604D01*
Y111497D01*
Y112830D01*
Y112164D01*
X162604D01*
X163270Y112830D01*
Y115496D02*
Y116829D01*
X162604Y117496D01*
X161271D01*
X160604Y116829D01*
Y115496D01*
X161271Y114830D01*
X162604D01*
X163270Y115496D01*
X160604Y118828D02*
X163270D01*
X161937D01*
X161271Y119495D01*
X160604Y120161D01*
Y120828D01*
X159272Y126826D02*
X163270D01*
Y128825D01*
X162604Y129492D01*
X159938D01*
X159272Y128825D01*
Y126826D01*
X160604Y130824D02*
X163270D01*
X161937D01*
X161271Y131491D01*
X160604Y132157D01*
Y132824D01*
X163270Y134823D02*
Y136156D01*
Y135490D01*
X160604D01*
Y134823D01*
Y138155D02*
X163270Y139488D01*
X160604Y140821D01*
X163270Y144153D02*
Y142821D01*
X162604Y142154D01*
X161271D01*
X160604Y142821D01*
Y144153D01*
X161271Y144820D01*
X161937D01*
Y142154D01*
X160604Y146153D02*
X163270D01*
X161937D01*
X161271Y146819D01*
X160604Y147486D01*
Y148152D01*
X166470Y103500D02*
X170469D01*
Y105499D01*
X169802Y106166D01*
X167136D01*
X166470Y105499D01*
Y103500D01*
X170469Y109498D02*
Y108165D01*
X169802Y107499D01*
X168469D01*
X167803Y108165D01*
Y109498D01*
X168469Y110164D01*
X169136D01*
Y107499D01*
X170469Y111497D02*
Y113497D01*
X169802Y114163D01*
X169136Y113497D01*
Y112164D01*
X168469Y111497D01*
X167803Y112164D01*
Y114163D01*
X170469Y115496D02*
Y116829D01*
Y116163D01*
X167803D01*
Y115496D01*
X171801Y120161D02*
Y120828D01*
X171135Y121494D01*
X167803D01*
Y119495D01*
X168469Y118828D01*
X169802D01*
X170469Y119495D01*
Y121494D01*
Y122827D02*
X167803D01*
Y124826D01*
X168469Y125493D01*
X170469D01*
Y128825D02*
Y127492D01*
X169802Y126826D01*
X168469D01*
X167803Y127492D01*
Y128825D01*
X168469Y129492D01*
X169136D01*
Y126826D01*
X166470Y133490D02*
X170469D01*
Y131491D01*
X169802Y130824D01*
X168469D01*
X167803Y131491D01*
Y133490D01*
X166470Y138822D02*
X170469D01*
Y140821D01*
X169802Y141488D01*
X169136D01*
X168469D01*
X167803Y140821D01*
Y138822D01*
Y142821D02*
X169802D01*
X170469Y143487D01*
Y145486D01*
X171135D01*
X171801Y144820D01*
Y144153D01*
X170469Y145486D02*
X167803D01*
X175001Y103500D02*
X179000D01*
Y105499D01*
X178333Y106166D01*
X177667D01*
X177001Y105499D01*
Y103500D01*
Y105499D01*
X176334Y106166D01*
X175668D01*
X175001Y105499D01*
Y103500D01*
X179000Y109498D02*
Y108165D01*
X178333Y107499D01*
X177001D01*
X176334Y108165D01*
Y109498D01*
X177001Y110164D01*
X177667D01*
Y107499D01*
X179000Y111497D02*
X176334D01*
Y113497D01*
X177001Y114163D01*
X179000D01*
X175001Y119495D02*
Y122161D01*
Y120828D01*
X179000D01*
Y123494D02*
Y124826D01*
Y124160D01*
X176334D01*
Y123494D01*
X175668Y127492D02*
X176334D01*
Y126826D01*
Y128159D01*
Y127492D01*
X178333D01*
X179000Y128159D01*
X176334Y130158D02*
X178333D01*
X179000Y130824D01*
Y132824D01*
X176334D01*
X179000Y134157D02*
Y136156D01*
X178333Y136823D01*
X177667Y136156D01*
Y134823D01*
X177001Y134157D01*
X176334Y134823D01*
Y136823D01*
X205999Y109998D02*
X204999Y110998D01*
X203000D01*
X202000Y109998D01*
Y106000D01*
X203000Y105000D01*
X204999D01*
X205999Y106000D01*
Y107999D01*
X203999D01*
X207998Y105000D02*
Y110998D01*
X211997Y105000D01*
Y110998D01*
X213996D02*
Y105000D01*
X216995D01*
X217995Y106000D01*
Y109998D01*
X216995Y110998D01*
X213996D01*
X184000Y120998D02*
Y116999D01*
X185999Y115000D01*
X187999Y116999D01*
Y120998D01*
X189998Y115000D02*
Y120998D01*
X191997Y118999D01*
X193997Y120998D01*
Y115000D01*
X198995Y120998D02*
X196996D01*
X195996Y119998D01*
Y116000D01*
X196996Y115000D01*
X198995D01*
X199995Y116000D01*
Y119998D01*
X198995Y120998D01*
X201994D02*
X205993D01*
X203994D01*
Y115000D01*
X210991Y120998D02*
X208992D01*
X207992Y119998D01*
Y116000D01*
X208992Y115000D01*
X210991D01*
X211991Y116000D01*
Y119998D01*
X210991Y120998D01*
X213990Y115000D02*
Y120998D01*
X216989D01*
X217989Y119998D01*
Y117999D01*
X216989Y116999D01*
X213990D01*
X215990D02*
X217989Y115000D01*
X198999Y139998D02*
X197000D01*
X196000Y138998D01*
Y135000D01*
X197000Y134000D01*
X198999D01*
X199999Y135000D01*
Y138998D01*
X198999Y139998D01*
X201998D02*
Y135000D01*
X202998Y134000D01*
X204997D01*
X205997Y135000D01*
Y139998D01*
X207996D02*
X211995D01*
X209996D01*
Y134000D01*
X217993D02*
X213994D01*
X217993Y137999D01*
Y138998D01*
X216993Y139998D01*
X214994D01*
X213994Y138998D01*
X200999Y148998D02*
X199000D01*
X198000Y147998D01*
Y144000D01*
X199000Y143000D01*
X200999D01*
X201999Y144000D01*
Y147998D01*
X200999Y148998D01*
X203998D02*
Y144000D01*
X204998Y143000D01*
X206997D01*
X207997Y144000D01*
Y148998D01*
X209996D02*
X213995D01*
X211996D01*
Y143000D01*
X215994D02*
X217993D01*
X216994D01*
Y148998D01*
X215994Y147998D01*
X126500Y139998D02*
X128499D01*
X127500D01*
Y134000D01*
X126500D01*
X128499D01*
X135497Y138998D02*
X134497Y139998D01*
X132498D01*
X131498Y138998D01*
Y137999D01*
X132498Y136999D01*
X134497D01*
X135497Y135999D01*
Y135000D01*
X134497Y134000D01*
X132498D01*
X131498Y135000D01*
X141495Y139998D02*
X137496D01*
Y134000D01*
X141495D01*
X137496Y136999D02*
X139496D01*
X143494Y134000D02*
Y139998D01*
X147493Y134000D01*
Y139998D01*
X126000Y110498D02*
Y106499D01*
X127999Y104500D01*
X129999Y106499D01*
Y110498D01*
X135997Y109498D02*
X134997Y110498D01*
X132998D01*
X131998Y109498D01*
Y105500D01*
X132998Y104500D01*
X134997D01*
X135997Y105500D01*
X141995Y109498D02*
X140995Y110498D01*
X138996D01*
X137996Y109498D01*
Y105500D01*
X138996Y104500D01*
X140995D01*
X141995Y105500D01*
X126500Y120498D02*
Y114500D01*
X129499D01*
X130499Y115500D01*
Y119498D01*
X129499Y120498D01*
X126500D01*
X132498D02*
X134497D01*
X133498D01*
Y114500D01*
X132498D01*
X134497D01*
X137496D02*
Y120498D01*
X140496D01*
X141495Y119498D01*
Y117499D01*
X140496Y116499D01*
X137496D01*
X139496D02*
X141495Y114500D01*
X126500Y124500D02*
Y130498D01*
X129499D01*
X130499Y129498D01*
Y127499D01*
X129499Y126499D01*
X126500D01*
X132498Y130498D02*
Y124500D01*
X134497Y126499D01*
X136497Y124500D01*
Y130498D01*
X138496Y124500D02*
Y130498D01*
X140496Y128499D01*
X142495Y130498D01*
Y124500D01*
M02*
