M48
;Layer_Color=9474304
;FILE_FORMAT=2:5
INCH,LZ
;TYPE=PLATED
T1F00S00C0.00800
T2F00S00C0.01968
T3F00S00C0.02800
T4F00S00C0.03000
T5F00S00C0.03543
T6F00S00C0.03898
%
T01
X0174964Y0147
X01875Y01465
X0198491Y0147
X02035Y0162
X0196Y0166
X02015Y0179
X0199341Y0181341
X01995Y0204
X01965
X02035Y0208
X01945Y0219
X02135Y02195
X0207Y02315
X02395Y02205
X02355Y02015
X0233Y0199
X02305Y01965
X02245Y01925
X0236Y0181
X0256156Y0200014
X0256656Y0205514
Y0208514
Y0211514
Y0214514
X0284656Y0195514
X02445Y02575
X02475Y0261
X0248Y02985
X0202Y0299
X0199Y0334
X0196349Y0332151
X01885Y0339
X0247
X0255156Y0334656
X0257715Y0336285
Y0326785
X0255156Y0325156
T02
X023238Y0151502
X0237317
T03
X02245Y03385
T04
X0215156Y0312272
X0225156
X0235156
T05
X01515Y0124
Y0134
Y0144
Y0154
X0301156Y0154514
Y0144514
Y0134514
Y0124514
Y0164514
Y0174514
Y0184514
Y0194514
Y0204514
Y0214514
Y0224514
Y0234514
Y0244514
Y0254514
Y0264514
Y0274514
Y0284514
Y0294514
Y0304514
X0244106Y0280346
Y0270346
X0234106
Y0280346
X0224106
Y0270346
X0214106
Y0280346
X0204106
Y0270346
X01515Y0274
Y0264
Y0254
Y0244
Y0234
Y0224
Y0214
Y0204
Y0194
Y0184
Y0174
Y0164
Y0284
Y0294
Y0304
Y0314
Y0324
Y0334
Y0344
Y0354
X0301156Y0354514
Y0344514
Y0334514
Y0324514
Y0314514
T06
X0256053Y0122051
Y0139768
X0281644
Y0122051
M30
