G04*
G04 #@! TF.GenerationSoftware,Altium Limited,Altium Designer,18.0.12 (696)*
G04*
G04 Layer_Physical_Order=2*
G04 Layer_Color=16711680*
%FSLAX25Y25*%
%MOIN*%
G70*
G01*
G75*
%ADD10C,0.01000*%
%ADD58C,0.00800*%
%ADD59C,0.02000*%
%ADD61C,0.05906*%
%ADD62R,0.05906X0.05906*%
%ADD63R,0.05315X0.05315*%
%ADD64C,0.05315*%
%ADD65R,0.05315X0.05315*%
%ADD66C,0.07500*%
%ADD67R,0.07500X0.07500*%
%ADD68C,0.01968*%
%ADD69C,0.01500*%
%ADD70C,0.05000*%
G36*
X297500Y106500D02*
X103500D01*
Y293500D01*
X297500D01*
Y106500D01*
D02*
G37*
%LPC*%
G36*
X135000Y279185D02*
Y278000D01*
X136185D01*
X136149Y278183D01*
X135762Y278762D01*
X135183Y279149D01*
X135000Y279185D01*
D02*
G37*
G36*
X134000D02*
X133817Y279149D01*
X133238Y278762D01*
X132852Y278183D01*
X132815Y278000D01*
X134000D01*
Y279185D01*
D02*
G37*
G36*
X136185Y277000D02*
X135000D01*
Y275815D01*
X135183Y275851D01*
X135762Y276238D01*
X136149Y276817D01*
X136185Y277000D01*
D02*
G37*
G36*
X134000D02*
X132815D01*
X132852Y276817D01*
X133238Y276238D01*
X133817Y275851D01*
X134000Y275815D01*
Y277000D01*
D02*
G37*
G36*
X219657Y277623D02*
Y274500D01*
X222781D01*
X222721Y274955D01*
X222352Y275845D01*
X221766Y276609D01*
X221002Y277195D01*
X220112Y277563D01*
X219657Y277623D01*
D02*
G37*
G36*
X218657D02*
X218203Y277563D01*
X217313Y277195D01*
X216549Y276609D01*
X215963Y275845D01*
X215594Y274955D01*
X215534Y274500D01*
X218657D01*
Y277623D01*
D02*
G37*
G36*
X290000Y276921D02*
Y273500D01*
X293421D01*
X293351Y274032D01*
X292953Y274993D01*
X292319Y275819D01*
X291493Y276453D01*
X290532Y276851D01*
X290000Y276921D01*
D02*
G37*
G36*
X289000D02*
X288468Y276851D01*
X287507Y276453D01*
X286681Y275819D01*
X286047Y274993D01*
X285649Y274032D01*
X285579Y273500D01*
X289000D01*
Y276921D01*
D02*
G37*
G36*
X242300Y277457D02*
X235385D01*
Y270543D01*
X242300D01*
Y277457D01*
D02*
G37*
G36*
X222781Y273500D02*
X219657D01*
Y270377D01*
X220112Y270437D01*
X221002Y270805D01*
X221766Y271392D01*
X222352Y272155D01*
X222721Y273045D01*
X222781Y273500D01*
D02*
G37*
G36*
X218657D02*
X215534D01*
X215594Y273045D01*
X215963Y272155D01*
X216549Y271392D01*
X217313Y270805D01*
X218203Y270437D01*
X218657Y270377D01*
Y273500D01*
D02*
G37*
G36*
X199500Y273466D02*
Y270342D01*
X202623D01*
X202563Y270797D01*
X202195Y271687D01*
X201609Y272451D01*
X200845Y273037D01*
X199955Y273406D01*
X199500Y273466D01*
D02*
G37*
G36*
X198500D02*
X198045Y273406D01*
X197155Y273037D01*
X196391Y272451D01*
X195805Y271687D01*
X195437Y270797D01*
X195377Y270342D01*
X198500D01*
Y273466D01*
D02*
G37*
G36*
X283253Y276753D02*
X275747D01*
Y269247D01*
X283253D01*
Y276753D01*
D02*
G37*
G36*
X293421Y272500D02*
X290000D01*
Y269079D01*
X290532Y269149D01*
X291493Y269547D01*
X292319Y270181D01*
X292953Y271007D01*
X293351Y271968D01*
X293421Y272500D01*
D02*
G37*
G36*
X289000D02*
X285579D01*
X285649Y271968D01*
X286047Y271007D01*
X286681Y270181D01*
X287507Y269547D01*
X288468Y269149D01*
X289000Y269079D01*
Y272500D01*
D02*
G37*
G36*
X202623Y269342D02*
X199500D01*
Y266219D01*
X199955Y266279D01*
X200845Y266648D01*
X201609Y267234D01*
X202195Y267998D01*
X202563Y268888D01*
X202623Y269342D01*
D02*
G37*
G36*
X198500D02*
X195377D01*
X195437Y268888D01*
X195805Y267998D01*
X196391Y267234D01*
X197155Y266648D01*
X198045Y266279D01*
X198500Y266219D01*
Y269342D01*
D02*
G37*
G36*
X290000Y265725D02*
Y261500D01*
X294225D01*
X294128Y262240D01*
X293649Y263396D01*
X292888Y264388D01*
X291896Y265149D01*
X290740Y265628D01*
X290000Y265725D01*
D02*
G37*
G36*
X289000D02*
X288260Y265628D01*
X287105Y265149D01*
X286112Y264388D01*
X285351Y263396D01*
X284872Y262240D01*
X284775Y261500D01*
X289000D01*
Y265725D01*
D02*
G37*
G36*
X114050Y265550D02*
X104950D01*
Y256450D01*
X114050D01*
Y265550D01*
D02*
G37*
G36*
X279500Y265589D02*
X278312Y265433D01*
X277205Y264974D01*
X276255Y264245D01*
X275526Y263295D01*
X275067Y262188D01*
X274911Y261000D01*
X275067Y259812D01*
X275526Y258705D01*
X276255Y257755D01*
X277205Y257026D01*
X278312Y256567D01*
X279500Y256411D01*
X280688Y256567D01*
X281795Y257026D01*
X282745Y257755D01*
X283474Y258705D01*
X283933Y259812D01*
X284089Y261000D01*
X283933Y262188D01*
X283474Y263295D01*
X282745Y264245D01*
X281795Y264974D01*
X280688Y265433D01*
X279500Y265589D01*
D02*
G37*
G36*
X119500D02*
X118312Y265433D01*
X117205Y264974D01*
X116255Y264245D01*
X115526Y263295D01*
X115067Y262188D01*
X114911Y261000D01*
X115067Y259812D01*
X115526Y258705D01*
X116255Y257755D01*
X117205Y257026D01*
X118312Y256567D01*
X119500Y256411D01*
X120688Y256567D01*
X121795Y257026D01*
X122745Y257755D01*
X123474Y258705D01*
X123933Y259812D01*
X124089Y261000D01*
X123933Y262188D01*
X123474Y263295D01*
X122745Y264245D01*
X121795Y264974D01*
X120688Y265433D01*
X119500Y265589D01*
D02*
G37*
G36*
X294225Y260500D02*
X290000D01*
Y256275D01*
X290740Y256372D01*
X291896Y256851D01*
X292888Y257612D01*
X293649Y258605D01*
X294128Y259760D01*
X294225Y260500D01*
D02*
G37*
G36*
X289000D02*
X284775D01*
X284872Y259760D01*
X285351Y258605D01*
X286112Y257612D01*
X287105Y256851D01*
X288260Y256372D01*
X289000Y256275D01*
Y260500D01*
D02*
G37*
G36*
X120000Y255725D02*
Y251500D01*
X124225D01*
X124128Y252240D01*
X123649Y253396D01*
X122888Y254388D01*
X121896Y255149D01*
X120740Y255628D01*
X120000Y255725D01*
D02*
G37*
G36*
X119000D02*
X118260Y255628D01*
X117104Y255149D01*
X116112Y254388D01*
X115351Y253396D01*
X114872Y252240D01*
X114775Y251500D01*
X119000D01*
Y255725D01*
D02*
G37*
G36*
X289500Y255589D02*
X288312Y255433D01*
X287205Y254974D01*
X286255Y254245D01*
X285526Y253295D01*
X285067Y252188D01*
X284911Y251000D01*
X285067Y249812D01*
X285526Y248705D01*
X286255Y247755D01*
X287205Y247026D01*
X288312Y246567D01*
X289500Y246411D01*
X290688Y246567D01*
X291795Y247026D01*
X292745Y247755D01*
X293474Y248705D01*
X293933Y249812D01*
X294089Y251000D01*
X293933Y252188D01*
X293474Y253295D01*
X292745Y254245D01*
X291795Y254974D01*
X290688Y255433D01*
X289500Y255589D01*
D02*
G37*
G36*
X109500D02*
X108312Y255433D01*
X107205Y254974D01*
X106255Y254245D01*
X105526Y253295D01*
X105067Y252188D01*
X104911Y251000D01*
X105067Y249812D01*
X105526Y248705D01*
X106255Y247755D01*
X107205Y247026D01*
X108312Y246567D01*
X109500Y246411D01*
X110688Y246567D01*
X111795Y247026D01*
X112745Y247755D01*
X113474Y248705D01*
X113933Y249812D01*
X114089Y251000D01*
X113933Y252188D01*
X113474Y253295D01*
X112745Y254245D01*
X111795Y254974D01*
X110688Y255433D01*
X109500Y255589D01*
D02*
G37*
G36*
X124225Y250500D02*
X120000D01*
Y246275D01*
X120740Y246372D01*
X121896Y246851D01*
X122888Y247612D01*
X123649Y248604D01*
X124128Y249760D01*
X124225Y250500D01*
D02*
G37*
G36*
X119000D02*
X114775D01*
X114872Y249760D01*
X115351Y248604D01*
X116112Y247612D01*
X117104Y246851D01*
X118260Y246372D01*
X119000Y246275D01*
Y250500D01*
D02*
G37*
G36*
X202457Y253615D02*
X195543D01*
Y246800D01*
X195543Y246700D01*
X195543Y246200D01*
Y239385D01*
X202457D01*
Y246200D01*
X202457Y246300D01*
X202457Y246800D01*
Y253615D01*
D02*
G37*
G36*
X227500Y259080D02*
X226895Y258960D01*
X226382Y258617D01*
X226040Y258105D01*
X225920Y257500D01*
X226040Y256895D01*
X226382Y256382D01*
X226895Y256040D01*
X227500Y255920D01*
X228105Y256040D01*
X228459Y256276D01*
X263993D01*
X275135Y245135D01*
X275532Y244870D01*
X276000Y244777D01*
X276170D01*
X276330Y244303D01*
X276255Y244245D01*
X275526Y243295D01*
X275067Y242188D01*
X274911Y241000D01*
X275067Y239812D01*
X275526Y238705D01*
X276255Y237755D01*
X277205Y237026D01*
X278312Y236567D01*
X279500Y236411D01*
X280688Y236567D01*
X281795Y237026D01*
X282745Y237755D01*
X283474Y238705D01*
X283933Y239812D01*
X284089Y241000D01*
X283933Y242188D01*
X283474Y243295D01*
X282745Y244245D01*
X282670Y244303D01*
X282830Y244777D01*
X283993D01*
X285511Y243259D01*
X285067Y242188D01*
X284911Y241000D01*
X285067Y239812D01*
X285526Y238705D01*
X286255Y237755D01*
X287205Y237026D01*
X288312Y236567D01*
X289500Y236411D01*
X290688Y236567D01*
X291795Y237026D01*
X292745Y237755D01*
X293474Y238705D01*
X293933Y239812D01*
X294089Y241000D01*
X293933Y242188D01*
X293474Y243295D01*
X292745Y244245D01*
X291795Y244974D01*
X290688Y245433D01*
X289500Y245589D01*
X288312Y245433D01*
X287241Y244989D01*
X285365Y246865D01*
X284968Y247130D01*
X284500Y247223D01*
X282830D01*
X282670Y247697D01*
X282745Y247755D01*
X283474Y248705D01*
X283933Y249812D01*
X284089Y251000D01*
X283933Y252188D01*
X283474Y253295D01*
X282745Y254245D01*
X281795Y254974D01*
X280688Y255433D01*
X279500Y255589D01*
X278312Y255433D01*
X277205Y254974D01*
X276255Y254245D01*
X275526Y253295D01*
X275067Y252188D01*
X274911Y251000D01*
X275067Y249812D01*
X275380Y249058D01*
X274956Y248775D01*
X265365Y258365D01*
X264968Y258630D01*
X264500Y258723D01*
X228459D01*
X228105Y258960D01*
X227500Y259080D01*
D02*
G37*
G36*
X119500Y245589D02*
X118312Y245433D01*
X117205Y244974D01*
X116255Y244245D01*
X115526Y243295D01*
X115067Y242188D01*
X114911Y241000D01*
X115067Y239812D01*
X115526Y238705D01*
X116255Y237755D01*
X117205Y237026D01*
X118312Y236567D01*
X119500Y236411D01*
X120688Y236567D01*
X121795Y237026D01*
X122745Y237755D01*
X123474Y238705D01*
X123933Y239812D01*
X124089Y241000D01*
X123933Y242188D01*
X123474Y243295D01*
X122745Y244245D01*
X121795Y244974D01*
X120688Y245433D01*
X119500Y245589D01*
D02*
G37*
G36*
X109500D02*
X108312Y245433D01*
X107205Y244974D01*
X106255Y244245D01*
X105526Y243295D01*
X105067Y242188D01*
X104911Y241000D01*
X105067Y239812D01*
X105526Y238705D01*
X106255Y237755D01*
X107205Y237026D01*
X108312Y236567D01*
X109500Y236411D01*
X110688Y236567D01*
X111795Y237026D01*
X112745Y237755D01*
X113474Y238705D01*
X113933Y239812D01*
X114089Y241000D01*
X113933Y242188D01*
X113474Y243295D01*
X112745Y244245D01*
X111795Y244974D01*
X110688Y245433D01*
X109500Y245589D01*
D02*
G37*
G36*
X289500Y235589D02*
X288312Y235433D01*
X287205Y234974D01*
X286255Y234245D01*
X285526Y233295D01*
X285067Y232188D01*
X284911Y231000D01*
X285067Y229812D01*
X285526Y228705D01*
X286255Y227755D01*
X287205Y227026D01*
X288312Y226567D01*
X289500Y226411D01*
X290688Y226567D01*
X291795Y227026D01*
X292745Y227755D01*
X293474Y228705D01*
X293933Y229812D01*
X294089Y231000D01*
X293933Y232188D01*
X293474Y233295D01*
X292745Y234245D01*
X291795Y234974D01*
X290688Y235433D01*
X289500Y235589D01*
D02*
G37*
G36*
X279500D02*
X278312Y235433D01*
X277205Y234974D01*
X276255Y234245D01*
X275526Y233295D01*
X275067Y232188D01*
X274911Y231000D01*
X275067Y229812D01*
X275526Y228705D01*
X276255Y227755D01*
X277205Y227026D01*
X278312Y226567D01*
X279500Y226411D01*
X280688Y226567D01*
X281795Y227026D01*
X282745Y227755D01*
X283474Y228705D01*
X283933Y229812D01*
X284089Y231000D01*
X283933Y232188D01*
X283474Y233295D01*
X282745Y234245D01*
X281795Y234974D01*
X280688Y235433D01*
X279500Y235589D01*
D02*
G37*
G36*
X109500D02*
X108312Y235433D01*
X107205Y234974D01*
X106255Y234245D01*
X105526Y233295D01*
X105067Y232188D01*
X104911Y231000D01*
X105067Y229812D01*
X105526Y228705D01*
X106255Y227755D01*
X107205Y227026D01*
X108312Y226567D01*
X109500Y226411D01*
X110688Y226567D01*
X111795Y227026D01*
X112745Y227755D01*
X113474Y228705D01*
X113933Y229812D01*
X114089Y231000D01*
X113933Y232188D01*
X113474Y233295D01*
X112745Y234245D01*
X111795Y234974D01*
X110688Y235433D01*
X109500Y235589D01*
D02*
G37*
G36*
X212000Y228966D02*
Y225842D01*
X215123D01*
X215063Y226297D01*
X214695Y227187D01*
X214109Y227951D01*
X213345Y228537D01*
X212455Y228906D01*
X212000Y228966D01*
D02*
G37*
G36*
X211000D02*
X210545Y228906D01*
X209655Y228537D01*
X208892Y227951D01*
X208305Y227187D01*
X207937Y226297D01*
X207877Y225842D01*
X211000D01*
Y228966D01*
D02*
G37*
G36*
X257224Y225132D02*
Y223709D01*
X258648D01*
X258594Y223983D01*
X258155Y224639D01*
X257499Y225078D01*
X257224Y225132D01*
D02*
G37*
G36*
X256224Y225132D02*
X255950Y225078D01*
X255294Y224639D01*
X254855Y223983D01*
X254801Y223709D01*
X256224D01*
Y225132D01*
D02*
G37*
G36*
X199500Y226781D02*
Y223657D01*
X202623D01*
X202563Y224112D01*
X202195Y225002D01*
X201608Y225766D01*
X200845Y226352D01*
X199955Y226721D01*
X199500Y226781D01*
D02*
G37*
G36*
X198500D02*
X198045Y226721D01*
X197155Y226352D01*
X196391Y225766D01*
X195805Y225002D01*
X195437Y224112D01*
X195377Y223657D01*
X198500D01*
Y226781D01*
D02*
G37*
G36*
X215123Y224843D02*
X212000D01*
Y221719D01*
X212455Y221779D01*
X213345Y222148D01*
X214109Y222734D01*
X214695Y223498D01*
X215063Y224388D01*
X215123Y224843D01*
D02*
G37*
G36*
X211000D02*
X207877D01*
X207937Y224388D01*
X208305Y223498D01*
X208892Y222734D01*
X209655Y222148D01*
X210545Y221779D01*
X211000Y221719D01*
Y224843D01*
D02*
G37*
G36*
X256224Y222709D02*
X254801D01*
X254855Y222434D01*
X255294Y221778D01*
X255950Y221340D01*
X256224Y221285D01*
Y222709D01*
D02*
G37*
G36*
X258648D02*
X257224D01*
Y221285D01*
X257499Y221340D01*
X258155Y221778D01*
X258594Y222434D01*
X258648Y222709D01*
D02*
G37*
G36*
X261949Y221924D02*
Y220500D01*
X263372D01*
X263318Y220774D01*
X262879Y221431D01*
X262223Y221869D01*
X261949Y221924D01*
D02*
G37*
G36*
X252500D02*
Y220500D01*
X253924D01*
X253869Y220774D01*
X253431Y221431D01*
X252774Y221869D01*
X252500Y221924D01*
D02*
G37*
G36*
X251500D02*
X251226Y221869D01*
X250569Y221431D01*
X250131Y220774D01*
X250076Y220500D01*
X251500D01*
Y221924D01*
D02*
G37*
G36*
X260949D02*
X260675Y221869D01*
X260018Y221431D01*
X259580Y220774D01*
X259525Y220500D01*
X260949D01*
Y221924D01*
D02*
G37*
G36*
X202623Y222657D02*
X199500D01*
Y219534D01*
X199955Y219594D01*
X200845Y219963D01*
X201608Y220549D01*
X202195Y221313D01*
X202563Y222203D01*
X202623Y222657D01*
D02*
G37*
G36*
X198500D02*
X195377D01*
X195437Y222203D01*
X195805Y221313D01*
X196391Y220549D01*
X197155Y219963D01*
X198045Y219594D01*
X198500Y219534D01*
Y222657D01*
D02*
G37*
G36*
X239753Y225753D02*
X232247D01*
Y218247D01*
X239753D01*
Y225753D01*
D02*
G37*
G36*
X226000Y225785D02*
X225020Y225656D01*
X224107Y225278D01*
X223323Y224676D01*
X222722Y223893D01*
X222344Y222980D01*
X222215Y222000D01*
X222344Y221020D01*
X222722Y220107D01*
X223323Y219323D01*
X224107Y218722D01*
X225020Y218344D01*
X226000Y218215D01*
X226980Y218344D01*
X227893Y218722D01*
X228677Y219323D01*
X229278Y220107D01*
X229656Y221020D01*
X229785Y222000D01*
X229656Y222980D01*
X229278Y223893D01*
X228677Y224676D01*
X227893Y225278D01*
X226980Y225656D01*
X226000Y225785D01*
D02*
G37*
G36*
X263372Y219500D02*
X261949D01*
Y218076D01*
X262223Y218131D01*
X262879Y218569D01*
X263318Y219226D01*
X263372Y219500D01*
D02*
G37*
G36*
X253924D02*
X252500D01*
Y218076D01*
X252774Y218131D01*
X253431Y218569D01*
X253869Y219226D01*
X253924Y219500D01*
D02*
G37*
G36*
X260949D02*
X259525D01*
X259580Y219226D01*
X260018Y218569D01*
X260675Y218131D01*
X260949Y218076D01*
Y219500D01*
D02*
G37*
G36*
X251500D02*
X250076D01*
X250131Y219226D01*
X250569Y218569D01*
X251226Y218131D01*
X251500Y218076D01*
Y219500D01*
D02*
G37*
G36*
X119500Y235589D02*
X118312Y235433D01*
X117205Y234974D01*
X116255Y234245D01*
X115526Y233295D01*
X115067Y232188D01*
X114911Y231000D01*
X115067Y229812D01*
X115526Y228705D01*
X116255Y227755D01*
X117205Y227026D01*
X118312Y226567D01*
X119500Y226411D01*
X120688Y226567D01*
X121405Y226864D01*
X127733Y220537D01*
X127568Y219994D01*
X127395Y219960D01*
X126883Y219618D01*
X126540Y219105D01*
X126457Y218687D01*
X124135Y216365D01*
X123870Y215968D01*
X123776Y215500D01*
Y213722D01*
X123276Y213553D01*
X122745Y214245D01*
X121795Y214974D01*
X120688Y215433D01*
X119500Y215589D01*
X118312Y215433D01*
X117205Y214974D01*
X116255Y214245D01*
X115526Y213295D01*
X115067Y212188D01*
X114911Y211000D01*
X115067Y209812D01*
X115526Y208705D01*
X116241Y207773D01*
X116214Y207595D01*
X116104Y207274D01*
X115550D01*
X115082Y207180D01*
X114685Y206915D01*
X112332Y204562D01*
X111795Y204974D01*
X110688Y205433D01*
X109500Y205589D01*
X108312Y205433D01*
X107205Y204974D01*
X106255Y204245D01*
X105526Y203295D01*
X105067Y202188D01*
X104911Y201000D01*
X105067Y199812D01*
X105526Y198705D01*
X106255Y197755D01*
X107205Y197026D01*
X108312Y196567D01*
X109500Y196411D01*
X110688Y196567D01*
X111795Y197026D01*
X112745Y197755D01*
X113474Y198705D01*
X113933Y199812D01*
X114089Y201000D01*
X113933Y202188D01*
X113782Y202552D01*
X115796Y204565D01*
X115860Y204550D01*
X116059Y203990D01*
X115526Y203295D01*
X115067Y202188D01*
X114911Y201000D01*
X115067Y199812D01*
X115526Y198705D01*
X116255Y197755D01*
X116286Y197731D01*
X116162Y197196D01*
X116082Y197180D01*
X115685Y196915D01*
X113635Y194865D01*
X113370Y194468D01*
X113336Y194297D01*
X112801Y194172D01*
X112745Y194245D01*
X111795Y194974D01*
X110688Y195433D01*
X109500Y195589D01*
X108312Y195433D01*
X107205Y194974D01*
X106255Y194245D01*
X105526Y193295D01*
X105067Y192188D01*
X104911Y191000D01*
X105067Y189812D01*
X105526Y188705D01*
X106255Y187755D01*
X107205Y187026D01*
X108312Y186567D01*
X109500Y186411D01*
X110688Y186567D01*
X111795Y187026D01*
X112745Y187755D01*
X112803Y187830D01*
X113277Y187670D01*
Y186507D01*
X111759Y184989D01*
X110688Y185433D01*
X109500Y185589D01*
X108312Y185433D01*
X107205Y184974D01*
X106255Y184245D01*
X105526Y183295D01*
X105067Y182188D01*
X104911Y181000D01*
X105067Y179812D01*
X105526Y178705D01*
X106255Y177755D01*
X107205Y177026D01*
X108312Y176567D01*
X109500Y176411D01*
X110688Y176567D01*
X111795Y177026D01*
X112745Y177755D01*
X113474Y178705D01*
X113933Y179812D01*
X114089Y181000D01*
X113933Y182188D01*
X113489Y183259D01*
X115365Y185135D01*
X115630Y185532D01*
X115724Y186000D01*
Y187670D01*
X116197Y187830D01*
X116255Y187755D01*
X117205Y187026D01*
X118312Y186567D01*
X119500Y186411D01*
X120688Y186567D01*
X121795Y187026D01*
X122745Y187755D01*
X123474Y188705D01*
X123876Y189674D01*
X130500D01*
X131007Y189775D01*
X131436Y190062D01*
X131566Y190045D01*
X131947Y189865D01*
X132040Y189395D01*
X132276Y189041D01*
Y188506D01*
X124536Y180766D01*
X124232Y180916D01*
X124086Y181023D01*
X123933Y182188D01*
X123474Y183295D01*
X122745Y184245D01*
X121795Y184974D01*
X120688Y185433D01*
X119500Y185589D01*
X118312Y185433D01*
X117205Y184974D01*
X116255Y184245D01*
X115526Y183295D01*
X115067Y182188D01*
X114911Y181000D01*
X115067Y179812D01*
X115526Y178705D01*
X116241Y177773D01*
X116214Y177595D01*
X116104Y177273D01*
X114550D01*
X114082Y177180D01*
X113685Y176915D01*
X111759Y174989D01*
X110688Y175433D01*
X109500Y175589D01*
X108312Y175433D01*
X107205Y174974D01*
X106255Y174245D01*
X105526Y173295D01*
X105067Y172188D01*
X104911Y171000D01*
X105067Y169812D01*
X105526Y168705D01*
X106255Y167755D01*
X107205Y167026D01*
X108312Y166567D01*
X109500Y166411D01*
X110688Y166567D01*
X111795Y167026D01*
X112745Y167755D01*
X113474Y168705D01*
X113933Y169812D01*
X114089Y171000D01*
X113933Y172188D01*
X113489Y173259D01*
X115057Y174827D01*
X116235D01*
X116396Y174353D01*
X116255Y174245D01*
X115526Y173295D01*
X115067Y172188D01*
X114911Y171000D01*
X115067Y169812D01*
X115526Y168705D01*
X116255Y167755D01*
X117205Y167026D01*
X118312Y166567D01*
X119500Y166411D01*
X120688Y166567D01*
X121795Y167026D01*
X122745Y167755D01*
X123474Y168705D01*
X123933Y169812D01*
X124089Y171000D01*
X123933Y172188D01*
X123474Y173295D01*
X122745Y174245D01*
X122356Y174544D01*
X122376Y175159D01*
X122415Y175185D01*
X134365Y187135D01*
X134630Y187531D01*
X134723Y188000D01*
Y189041D01*
X134960Y189395D01*
X135080Y190000D01*
X134960Y190605D01*
X134617Y191118D01*
X134105Y191460D01*
X133635Y191553D01*
X133455Y191933D01*
X133438Y192064D01*
X137549Y196175D01*
X188694D01*
X188895Y196040D01*
X189500Y195920D01*
X190105Y196040D01*
X190618Y196382D01*
X190960Y196895D01*
X191080Y197500D01*
X190960Y198105D01*
X190618Y198617D01*
X190105Y198960D01*
X189500Y199080D01*
X188895Y198960D01*
X188694Y198826D01*
X137000D01*
X136493Y198725D01*
X136063Y198437D01*
X129951Y192325D01*
X123876D01*
X123474Y193295D01*
X122745Y194245D01*
X122604Y194353D01*
X122765Y194826D01*
X125550D01*
X126018Y194920D01*
X126415Y195185D01*
X129187Y197957D01*
X129605Y198040D01*
X130117Y198382D01*
X130460Y198895D01*
X130580Y199500D01*
X130460Y200105D01*
X130117Y200618D01*
X129605Y200960D01*
X129000Y201080D01*
X128395Y200960D01*
X127883Y200618D01*
X127540Y200105D01*
X127457Y199687D01*
X125043Y197274D01*
X122896D01*
X122786Y197595D01*
X122759Y197774D01*
X123474Y198705D01*
X123933Y199812D01*
X124089Y201000D01*
X123933Y202188D01*
X123474Y203295D01*
X122745Y204245D01*
X122356Y204544D01*
X122376Y205158D01*
X122415Y205185D01*
X125865Y208634D01*
X126130Y209031D01*
X126224Y209500D01*
Y214993D01*
X128187Y216957D01*
X128605Y217040D01*
X129118Y217383D01*
X129366Y217755D01*
X129774Y217856D01*
X129957Y217832D01*
X130395Y217540D01*
X131000Y217420D01*
X131605Y217540D01*
X132117Y217882D01*
X132460Y218395D01*
X132580Y219000D01*
X132460Y219605D01*
X132117Y220117D01*
X131605Y220460D01*
X131187Y220543D01*
X123279Y228451D01*
X123474Y228705D01*
X123933Y229812D01*
X124089Y231000D01*
X123933Y232188D01*
X123474Y233295D01*
X122745Y234245D01*
X121795Y234974D01*
X120688Y235433D01*
X119500Y235589D01*
D02*
G37*
G36*
X257224Y218715D02*
Y217291D01*
X258648D01*
X258594Y217565D01*
X258155Y218222D01*
X257499Y218660D01*
X257224Y218715D01*
D02*
G37*
G36*
X256224Y218715D02*
X255950Y218660D01*
X255294Y218222D01*
X254855Y217565D01*
X254801Y217291D01*
X256224D01*
Y218715D01*
D02*
G37*
G36*
X289500Y225589D02*
X288312Y225433D01*
X287205Y224974D01*
X286255Y224245D01*
X285526Y223295D01*
X285067Y222188D01*
X284911Y221000D01*
X285067Y219812D01*
X285526Y218705D01*
X286255Y217755D01*
X287205Y217026D01*
X288312Y216567D01*
X289500Y216411D01*
X290688Y216567D01*
X291795Y217026D01*
X292745Y217755D01*
X293474Y218705D01*
X293933Y219812D01*
X294089Y221000D01*
X293933Y222188D01*
X293474Y223295D01*
X292745Y224245D01*
X291795Y224974D01*
X290688Y225433D01*
X289500Y225589D01*
D02*
G37*
G36*
X279500D02*
X278312Y225433D01*
X277205Y224974D01*
X276255Y224245D01*
X275526Y223295D01*
X275067Y222188D01*
X274911Y221000D01*
X275067Y219812D01*
X275526Y218705D01*
X276255Y217755D01*
X277205Y217026D01*
X278312Y216567D01*
X279500Y216411D01*
X280688Y216567D01*
X281795Y217026D01*
X282745Y217755D01*
X283474Y218705D01*
X283933Y219812D01*
X284089Y221000D01*
X283933Y222188D01*
X283474Y223295D01*
X282745Y224245D01*
X281795Y224974D01*
X280688Y225433D01*
X279500Y225589D01*
D02*
G37*
G36*
X119500D02*
X118312Y225433D01*
X117205Y224974D01*
X116255Y224245D01*
X115526Y223295D01*
X115067Y222188D01*
X114911Y221000D01*
X115067Y219812D01*
X115526Y218705D01*
X116255Y217755D01*
X117205Y217026D01*
X118312Y216567D01*
X119500Y216411D01*
X120688Y216567D01*
X121795Y217026D01*
X122745Y217755D01*
X123474Y218705D01*
X123933Y219812D01*
X124089Y221000D01*
X123933Y222188D01*
X123474Y223295D01*
X122745Y224245D01*
X121795Y224974D01*
X120688Y225433D01*
X119500Y225589D01*
D02*
G37*
G36*
X109500D02*
X108312Y225433D01*
X107205Y224974D01*
X106255Y224245D01*
X105526Y223295D01*
X105067Y222188D01*
X104911Y221000D01*
X105067Y219812D01*
X105526Y218705D01*
X106255Y217755D01*
X107205Y217026D01*
X108312Y216567D01*
X109500Y216411D01*
X110688Y216567D01*
X111795Y217026D01*
X112745Y217755D01*
X113474Y218705D01*
X113933Y219812D01*
X114089Y221000D01*
X113933Y222188D01*
X113474Y223295D01*
X112745Y224245D01*
X111795Y224974D01*
X110688Y225433D01*
X109500Y225589D01*
D02*
G37*
G36*
X256224Y216291D02*
X254801D01*
X254855Y216017D01*
X255294Y215361D01*
X255950Y214922D01*
X256224Y214868D01*
Y216291D01*
D02*
G37*
G36*
X258648D02*
X257224D01*
Y214868D01*
X257499Y214922D01*
X258155Y215361D01*
X258594Y216017D01*
X258648Y216291D01*
D02*
G37*
G36*
X289500Y215589D02*
X288312Y215433D01*
X287205Y214974D01*
X286255Y214245D01*
X285526Y213295D01*
X285067Y212188D01*
X284911Y211000D01*
X285067Y209812D01*
X285526Y208705D01*
X286255Y207755D01*
X287205Y207026D01*
X288312Y206567D01*
X289500Y206411D01*
X290688Y206567D01*
X291795Y207026D01*
X292745Y207755D01*
X293474Y208705D01*
X293933Y209812D01*
X294089Y211000D01*
X293933Y212188D01*
X293474Y213295D01*
X292745Y214245D01*
X291795Y214974D01*
X290688Y215433D01*
X289500Y215589D01*
D02*
G37*
G36*
X279500D02*
X278312Y215433D01*
X277205Y214974D01*
X276255Y214245D01*
X275526Y213295D01*
X275067Y212188D01*
X274911Y211000D01*
X275067Y209812D01*
X275526Y208705D01*
X276255Y207755D01*
X277205Y207026D01*
X278312Y206567D01*
X279500Y206411D01*
X280688Y206567D01*
X281795Y207026D01*
X282745Y207755D01*
X283474Y208705D01*
X283933Y209812D01*
X284089Y211000D01*
X283933Y212188D01*
X283474Y213295D01*
X282745Y214245D01*
X281795Y214974D01*
X280688Y215433D01*
X279500Y215589D01*
D02*
G37*
G36*
X109500D02*
X108312Y215433D01*
X107205Y214974D01*
X106255Y214245D01*
X105526Y213295D01*
X105067Y212188D01*
X104911Y211000D01*
X105067Y209812D01*
X105526Y208705D01*
X106255Y207755D01*
X107205Y207026D01*
X108312Y206567D01*
X109500Y206411D01*
X110688Y206567D01*
X111795Y207026D01*
X112745Y207755D01*
X113474Y208705D01*
X113933Y209812D01*
X114089Y211000D01*
X113933Y212188D01*
X113474Y213295D01*
X112745Y214245D01*
X111795Y214974D01*
X110688Y215433D01*
X109500Y215589D01*
D02*
G37*
G36*
X214957Y209115D02*
X208043D01*
Y202200D01*
X214957D01*
Y209115D01*
D02*
G37*
G36*
X289500Y205589D02*
X288312Y205433D01*
X287205Y204974D01*
X286255Y204245D01*
X285526Y203295D01*
X285067Y202188D01*
X284911Y201000D01*
X285067Y199812D01*
X285526Y198705D01*
X286255Y197755D01*
X287205Y197026D01*
X288312Y196567D01*
X289500Y196411D01*
X290688Y196567D01*
X291795Y197026D01*
X292745Y197755D01*
X293474Y198705D01*
X293933Y199812D01*
X294089Y201000D01*
X293933Y202188D01*
X293474Y203295D01*
X292745Y204245D01*
X291795Y204974D01*
X290688Y205433D01*
X289500Y205589D01*
D02*
G37*
G36*
X279500D02*
X278312Y205433D01*
X277205Y204974D01*
X276255Y204245D01*
X275526Y203295D01*
X275067Y202188D01*
X274911Y201000D01*
X275067Y199812D01*
X275526Y198705D01*
X276255Y197755D01*
X277205Y197026D01*
X278312Y196567D01*
X279500Y196411D01*
X280688Y196567D01*
X281795Y197026D01*
X282745Y197755D01*
X283474Y198705D01*
X283933Y199812D01*
X284089Y201000D01*
X283933Y202188D01*
X283474Y203295D01*
X282745Y204245D01*
X281795Y204974D01*
X280688Y205433D01*
X279500Y205589D01*
D02*
G37*
G36*
X181500Y191685D02*
Y190500D01*
X182685D01*
X182649Y190683D01*
X182262Y191262D01*
X181683Y191648D01*
X181500Y191685D01*
D02*
G37*
G36*
X180500D02*
X180317Y191648D01*
X179738Y191262D01*
X179351Y190683D01*
X179315Y190500D01*
X180500D01*
Y191685D01*
D02*
G37*
G36*
X182685Y189500D02*
X181500D01*
Y188315D01*
X181683Y188352D01*
X182262Y188738D01*
X182649Y189317D01*
X182685Y189500D01*
D02*
G37*
G36*
X180500D02*
X179315D01*
X179351Y189317D01*
X179738Y188738D01*
X180317Y188352D01*
X180500Y188315D01*
Y189500D01*
D02*
G37*
G36*
X289500Y195589D02*
X288312Y195433D01*
X287205Y194974D01*
X286255Y194245D01*
X285526Y193295D01*
X285067Y192188D01*
X284911Y191000D01*
X285067Y189812D01*
X285526Y188705D01*
X286255Y187755D01*
X287205Y187026D01*
X288312Y186567D01*
X289500Y186411D01*
X290688Y186567D01*
X291795Y187026D01*
X292745Y187755D01*
X293474Y188705D01*
X293933Y189812D01*
X294089Y191000D01*
X293933Y192188D01*
X293474Y193295D01*
X292745Y194245D01*
X291795Y194974D01*
X290688Y195433D01*
X289500Y195589D01*
D02*
G37*
G36*
X279500D02*
X278312Y195433D01*
X277205Y194974D01*
X276255Y194245D01*
X275526Y193295D01*
X275067Y192188D01*
X274911Y191000D01*
X275067Y189812D01*
X275526Y188705D01*
X276255Y187755D01*
X277205Y187026D01*
X278312Y186567D01*
X279500Y186411D01*
X280688Y186567D01*
X281795Y187026D01*
X282745Y187755D01*
X283474Y188705D01*
X283933Y189812D01*
X284089Y191000D01*
X283933Y192188D01*
X283474Y193295D01*
X282745Y194245D01*
X281795Y194974D01*
X280688Y195433D01*
X279500Y195589D01*
D02*
G37*
G36*
X213500Y179193D02*
Y178008D01*
X214685D01*
X214649Y178191D01*
X214262Y178770D01*
X213683Y179156D01*
X213500Y179193D01*
D02*
G37*
G36*
X212500D02*
X212317Y179156D01*
X211738Y178770D01*
X211351Y178191D01*
X211315Y178008D01*
X212500D01*
Y179193D01*
D02*
G37*
G36*
X289500Y185589D02*
X288312Y185433D01*
X287205Y184974D01*
X286255Y184245D01*
X285526Y183295D01*
X285067Y182188D01*
X284911Y181000D01*
X285067Y179812D01*
X285526Y178705D01*
X286255Y177755D01*
X287205Y177026D01*
X288312Y176567D01*
X289500Y176411D01*
X290688Y176567D01*
X291795Y177026D01*
X292745Y177755D01*
X293474Y178705D01*
X293933Y179812D01*
X294089Y181000D01*
X293933Y182188D01*
X293474Y183295D01*
X292745Y184245D01*
X291795Y184974D01*
X290688Y185433D01*
X289500Y185589D01*
D02*
G37*
G36*
X279500D02*
X278312Y185433D01*
X277205Y184974D01*
X276255Y184245D01*
X275526Y183295D01*
X275067Y182188D01*
X274911Y181000D01*
X275067Y179812D01*
X275526Y178705D01*
X276255Y177755D01*
X277205Y177026D01*
X278312Y176567D01*
X279500Y176411D01*
X280688Y176567D01*
X281795Y177026D01*
X282745Y177755D01*
X283474Y178705D01*
X283933Y179812D01*
X284089Y181000D01*
X283933Y182188D01*
X283474Y183295D01*
X282745Y184245D01*
X281795Y184974D01*
X280688Y185433D01*
X279500Y185589D01*
D02*
G37*
G36*
X214685Y177008D02*
X213500D01*
Y175823D01*
X213683Y175859D01*
X214262Y176246D01*
X214649Y176825D01*
X214685Y177008D01*
D02*
G37*
G36*
X212500D02*
X211315D01*
X211351Y176825D01*
X211738Y176246D01*
X212317Y175859D01*
X212500Y175823D01*
Y177008D01*
D02*
G37*
G36*
X258000Y170185D02*
Y169000D01*
X259185D01*
X259149Y169183D01*
X258762Y169762D01*
X258183Y170149D01*
X258000Y170185D01*
D02*
G37*
G36*
X257000D02*
X256817Y170149D01*
X256238Y169762D01*
X255852Y169183D01*
X255815Y169000D01*
X257000D01*
Y170185D01*
D02*
G37*
G36*
X259185Y168000D02*
X258000D01*
Y166815D01*
X258183Y166851D01*
X258762Y167238D01*
X259149Y167817D01*
X259185Y168000D01*
D02*
G37*
G36*
X257000D02*
X255815D01*
X255852Y167817D01*
X256238Y167238D01*
X256817Y166851D01*
X257000Y166815D01*
Y168000D01*
D02*
G37*
G36*
X279500Y175589D02*
X278312Y175433D01*
X277205Y174974D01*
X276255Y174245D01*
X275526Y173295D01*
X275067Y172188D01*
X274911Y171000D01*
X275067Y169812D01*
X275526Y168705D01*
X276255Y167755D01*
X277205Y167026D01*
X278312Y166567D01*
X279500Y166411D01*
X280688Y166567D01*
X281795Y167026D01*
X282745Y167755D01*
X283474Y168705D01*
X283933Y169812D01*
X284089Y171000D01*
X283933Y172188D01*
X283474Y173295D01*
X282745Y174245D01*
X281795Y174974D01*
X280688Y175433D01*
X279500Y175589D01*
D02*
G37*
G36*
X289500Y175089D02*
X288312Y174933D01*
X287205Y174474D01*
X286255Y173745D01*
X285526Y172795D01*
X285067Y171688D01*
X284911Y170500D01*
X285067Y169312D01*
X285526Y168205D01*
X286255Y167255D01*
X287205Y166526D01*
X288312Y166067D01*
X289500Y165911D01*
X290688Y166067D01*
X291795Y166526D01*
X292745Y167255D01*
X293474Y168205D01*
X293933Y169312D01*
X294089Y170500D01*
X293933Y171688D01*
X293474Y172795D01*
X292745Y173745D01*
X291795Y174474D01*
X290688Y174933D01*
X289500Y175089D01*
D02*
G37*
G36*
X135137Y166972D02*
Y165787D01*
X136322D01*
X136286Y165970D01*
X135899Y166549D01*
X135320Y166936D01*
X135137Y166972D01*
D02*
G37*
G36*
X134137D02*
X133955Y166936D01*
X133376Y166549D01*
X132989Y165970D01*
X132953Y165787D01*
X134137D01*
Y166972D01*
D02*
G37*
G36*
X136322Y164787D02*
X135137D01*
Y163602D01*
X135320Y163638D01*
X135899Y164025D01*
X136286Y164604D01*
X136322Y164787D01*
D02*
G37*
G36*
X134137D02*
X132953D01*
X132989Y164604D01*
X133376Y164025D01*
X133955Y163638D01*
X134137Y163602D01*
Y164787D01*
D02*
G37*
G36*
X214000Y155921D02*
Y152500D01*
X217421D01*
X217351Y153032D01*
X216953Y153993D01*
X216319Y154819D01*
X215493Y155453D01*
X214532Y155851D01*
X214000Y155921D01*
D02*
G37*
G36*
X213000D02*
X212468Y155851D01*
X211507Y155453D01*
X210681Y154819D01*
X210047Y153993D01*
X209649Y153032D01*
X209579Y152500D01*
X213000D01*
Y155921D01*
D02*
G37*
G36*
X237253Y155753D02*
X229747D01*
Y148247D01*
X237253D01*
Y155753D01*
D02*
G37*
G36*
X223500Y155785D02*
X222520Y155656D01*
X221607Y155278D01*
X220824Y154676D01*
X220222Y153893D01*
X219844Y152980D01*
X219715Y152000D01*
X219844Y151020D01*
X220222Y150107D01*
X220824Y149323D01*
X221607Y148722D01*
X222520Y148344D01*
X223500Y148215D01*
X224480Y148344D01*
X225393Y148722D01*
X226177Y149323D01*
X226778Y150107D01*
X227156Y151020D01*
X227285Y152000D01*
X227156Y152980D01*
X226778Y153893D01*
X226177Y154676D01*
X225393Y155278D01*
X224480Y155656D01*
X223500Y155785D01*
D02*
G37*
G36*
X203500D02*
X202520Y155656D01*
X201607Y155278D01*
X200823Y154676D01*
X200222Y153893D01*
X199844Y152980D01*
X199715Y152000D01*
X199844Y151020D01*
X200222Y150107D01*
X200823Y149323D01*
X201607Y148722D01*
X202520Y148344D01*
X203500Y148215D01*
X204480Y148344D01*
X205393Y148722D01*
X206176Y149323D01*
X206778Y150107D01*
X207156Y151020D01*
X207285Y152000D01*
X207156Y152980D01*
X206778Y153893D01*
X206176Y154676D01*
X205393Y155278D01*
X204480Y155656D01*
X203500Y155785D01*
D02*
G37*
G36*
X217421Y151500D02*
X214000D01*
Y148079D01*
X214532Y148149D01*
X215493Y148547D01*
X216319Y149181D01*
X216953Y150007D01*
X217351Y150968D01*
X217421Y151500D01*
D02*
G37*
G36*
X213000D02*
X209579D01*
X209649Y150968D01*
X210047Y150007D01*
X210681Y149181D01*
X211507Y148547D01*
X212468Y148149D01*
X213000Y148079D01*
Y151500D01*
D02*
G37*
G36*
X162000Y145685D02*
Y144500D01*
X163185D01*
X163148Y144683D01*
X162762Y145262D01*
X162183Y145649D01*
X162000Y145685D01*
D02*
G37*
G36*
X161000D02*
X160817Y145649D01*
X160238Y145262D01*
X159852Y144683D01*
X159815Y144500D01*
X161000D01*
Y145685D01*
D02*
G37*
G36*
X163185Y143500D02*
X162000D01*
Y142315D01*
X162183Y142351D01*
X162762Y142738D01*
X163148Y143317D01*
X163185Y143500D01*
D02*
G37*
G36*
X161000D02*
X159815D01*
X159852Y143317D01*
X160238Y142738D01*
X160817Y142351D01*
X161000Y142315D01*
Y143500D01*
D02*
G37*
G36*
X169500Y141829D02*
X168639Y141715D01*
X167836Y141383D01*
X167146Y140854D01*
X166618Y140164D01*
X166285Y139362D01*
X166172Y138500D01*
X166285Y137638D01*
X166618Y136836D01*
X166888Y136483D01*
X160740Y130335D01*
X145996D01*
Y132253D01*
X138491D01*
Y124747D01*
X145996D01*
Y126665D01*
X213747D01*
Y124747D01*
X221253D01*
Y132253D01*
X213747D01*
Y130335D01*
X166584D01*
X166393Y130797D01*
X170798Y135202D01*
X171041Y135566D01*
X171164Y135617D01*
X171854Y136146D01*
X172382Y136836D01*
X172715Y137638D01*
X172828Y138500D01*
X172715Y139362D01*
X172382Y140164D01*
X171854Y140854D01*
X171164Y141383D01*
X170361Y141715D01*
X169500Y141829D01*
D02*
G37*
G36*
X238000Y132421D02*
Y129000D01*
X241421D01*
X241351Y129532D01*
X240953Y130493D01*
X240319Y131319D01*
X239493Y131953D01*
X238532Y132351D01*
X238000Y132421D01*
D02*
G37*
G36*
X237000D02*
X236468Y132351D01*
X235507Y131953D01*
X234681Y131319D01*
X234047Y130493D01*
X233649Y129532D01*
X233579Y129000D01*
X237000D01*
Y132421D01*
D02*
G37*
G36*
X287500Y132285D02*
X286520Y132156D01*
X285607Y131778D01*
X284823Y131176D01*
X284222Y130393D01*
X283844Y129480D01*
X283715Y128500D01*
X283844Y127520D01*
X284222Y126607D01*
X284823Y125823D01*
X285607Y125222D01*
X286520Y124844D01*
X287500Y124715D01*
X288480Y124844D01*
X289393Y125222D01*
X290177Y125823D01*
X290778Y126607D01*
X291156Y127520D01*
X291285Y128500D01*
X291156Y129480D01*
X290778Y130393D01*
X290177Y131176D01*
X289393Y131778D01*
X288480Y132156D01*
X287500Y132285D01*
D02*
G37*
G36*
X277500D02*
X276520Y132156D01*
X275607Y131778D01*
X274823Y131176D01*
X274222Y130393D01*
X273844Y129480D01*
X273715Y128500D01*
X273844Y127520D01*
X274222Y126607D01*
X274823Y125823D01*
X275607Y125222D01*
X276520Y124844D01*
X277500Y124715D01*
X278480Y124844D01*
X279393Y125222D01*
X280176Y125823D01*
X280778Y126607D01*
X281156Y127520D01*
X281285Y128500D01*
X281156Y129480D01*
X280778Y130393D01*
X280176Y131176D01*
X279393Y131778D01*
X278480Y132156D01*
X277500Y132285D01*
D02*
G37*
G36*
X267500D02*
X266520Y132156D01*
X265607Y131778D01*
X264824Y131176D01*
X264222Y130393D01*
X263844Y129480D01*
X263715Y128500D01*
X263844Y127520D01*
X264222Y126607D01*
X264824Y125823D01*
X265607Y125222D01*
X266520Y124844D01*
X267500Y124715D01*
X268480Y124844D01*
X269393Y125222D01*
X270177Y125823D01*
X270778Y126607D01*
X271156Y127520D01*
X271285Y128500D01*
X271156Y129480D01*
X270778Y130393D01*
X270177Y131176D01*
X269393Y131778D01*
X268480Y132156D01*
X267500Y132285D01*
D02*
G37*
G36*
X257500D02*
X256520Y132156D01*
X255607Y131778D01*
X254823Y131176D01*
X254222Y130393D01*
X253844Y129480D01*
X253715Y128500D01*
X253844Y127520D01*
X254222Y126607D01*
X254823Y125823D01*
X255607Y125222D01*
X256520Y124844D01*
X257500Y124715D01*
X258480Y124844D01*
X259393Y125222D01*
X260176Y125823D01*
X260778Y126607D01*
X261156Y127520D01*
X261285Y128500D01*
X261156Y129480D01*
X260778Y130393D01*
X260176Y131176D01*
X259393Y131778D01*
X258480Y132156D01*
X257500Y132285D01*
D02*
G37*
G36*
X247500D02*
X246520Y132156D01*
X245607Y131778D01*
X244824Y131176D01*
X244222Y130393D01*
X243844Y129480D01*
X243715Y128500D01*
X243844Y127520D01*
X244222Y126607D01*
X244824Y125823D01*
X245607Y125222D01*
X246520Y124844D01*
X247500Y124715D01*
X248480Y124844D01*
X249393Y125222D01*
X250177Y125823D01*
X250778Y126607D01*
X251156Y127520D01*
X251285Y128500D01*
X251156Y129480D01*
X250778Y130393D01*
X250177Y131176D01*
X249393Y131778D01*
X248480Y132156D01*
X247500Y132285D01*
D02*
G37*
G36*
X227500D02*
X226520Y132156D01*
X225607Y131778D01*
X224823Y131176D01*
X224222Y130393D01*
X223844Y129480D01*
X223715Y128500D01*
X223844Y127520D01*
X224222Y126607D01*
X224823Y125823D01*
X225607Y125222D01*
X226520Y124844D01*
X227500Y124715D01*
X228480Y124844D01*
X229393Y125222D01*
X230176Y125823D01*
X230778Y126607D01*
X231156Y127520D01*
X231285Y128500D01*
X231156Y129480D01*
X230778Y130393D01*
X230176Y131176D01*
X229393Y131778D01*
X228480Y132156D01*
X227500Y132285D01*
D02*
G37*
G36*
X132244D02*
X131264Y132156D01*
X130351Y131778D01*
X129567Y131176D01*
X128966Y130393D01*
X128588Y129480D01*
X128459Y128500D01*
X128588Y127520D01*
X128966Y126607D01*
X129567Y125823D01*
X130351Y125222D01*
X131264Y124844D01*
X132244Y124715D01*
X133223Y124844D01*
X134136Y125222D01*
X134920Y125823D01*
X135522Y126607D01*
X135900Y127520D01*
X136029Y128500D01*
X135900Y129480D01*
X135522Y130393D01*
X134920Y131176D01*
X134136Y131778D01*
X133223Y132156D01*
X132244Y132285D01*
D02*
G37*
G36*
X122244D02*
X121264Y132156D01*
X120351Y131778D01*
X119567Y131176D01*
X118966Y130393D01*
X118588Y129480D01*
X118459Y128500D01*
X118588Y127520D01*
X118966Y126607D01*
X119567Y125823D01*
X120351Y125222D01*
X121264Y124844D01*
X122244Y124715D01*
X123223Y124844D01*
X124136Y125222D01*
X124920Y125823D01*
X125522Y126607D01*
X125900Y127520D01*
X126029Y128500D01*
X125900Y129480D01*
X125522Y130393D01*
X124920Y131176D01*
X124136Y131778D01*
X123223Y132156D01*
X122244Y132285D01*
D02*
G37*
G36*
X112244D02*
X111264Y132156D01*
X110351Y131778D01*
X109567Y131176D01*
X108966Y130393D01*
X108588Y129480D01*
X108459Y128500D01*
X108588Y127520D01*
X108966Y126607D01*
X109567Y125823D01*
X110351Y125222D01*
X111264Y124844D01*
X112244Y124715D01*
X113223Y124844D01*
X114136Y125222D01*
X114920Y125823D01*
X115522Y126607D01*
X115900Y127520D01*
X116029Y128500D01*
X115900Y129480D01*
X115522Y130393D01*
X114920Y131176D01*
X114136Y131778D01*
X113223Y132156D01*
X112244Y132285D01*
D02*
G37*
G36*
X241421Y128000D02*
X238000D01*
Y124579D01*
X238532Y124649D01*
X239493Y125047D01*
X240319Y125681D01*
X240953Y126507D01*
X241351Y127468D01*
X241421Y128000D01*
D02*
G37*
G36*
X237000D02*
X233579D01*
X233649Y127468D01*
X234047Y126507D01*
X234681Y125681D01*
X235507Y125047D01*
X236468Y124649D01*
X237000Y124579D01*
Y128000D01*
D02*
G37*
%LPD*%
D10*
X137000Y197500D02*
X189500D01*
X130500Y191000D02*
X137000Y197500D01*
X119500Y191000D02*
X130500D01*
D58*
X227500Y257500D02*
X264500D01*
X284500Y246000D02*
X289500Y241000D01*
X276000Y246000D02*
X284500D01*
X264500Y257500D02*
X276000Y246000D01*
X133500Y188000D02*
Y190000D01*
X114550Y176050D02*
X121550D01*
X133500Y188000D01*
X109500Y171000D02*
X114550Y176050D01*
X125550Y196050D02*
X129000Y199500D01*
X116550Y196050D02*
X125550D01*
X125000Y215500D02*
X128000Y218500D01*
X125000Y209500D02*
Y215500D01*
X121550Y206050D02*
X125000Y209500D01*
X110500Y201000D02*
X115550Y206050D01*
X121550D01*
X119500Y230500D02*
Y231000D01*
Y230500D02*
X131000Y219000D01*
X109500Y201000D02*
X110500D01*
X114500Y194000D02*
X116550Y196050D01*
X114500Y186000D02*
Y194000D01*
X109500Y181000D02*
X114500Y186000D01*
D59*
X142244Y128500D02*
X161500D01*
X217500D01*
X161500D02*
X169500Y136500D01*
Y138500D01*
D61*
X287500Y128500D02*
D03*
X277500D02*
D03*
X267500D02*
D03*
X257500D02*
D03*
X247500D02*
D03*
X237500D02*
D03*
X227500D02*
D03*
X289500Y273000D02*
D03*
X226000Y222000D02*
D03*
X223500Y152000D02*
D03*
X213500D02*
D03*
X203500D02*
D03*
X132244Y128500D02*
D03*
X122244D02*
D03*
X112244D02*
D03*
D62*
X217500D02*
D03*
X279500Y273000D02*
D03*
X236000Y222000D02*
D03*
X233500Y152000D02*
D03*
X142244Y128500D02*
D03*
D63*
X211500Y205658D02*
D03*
X199000Y250157D02*
D03*
X199000Y242843D02*
D03*
D64*
X211500Y225342D02*
D03*
X219158Y274000D02*
D03*
X199000Y269843D02*
D03*
X199000Y223158D02*
D03*
D65*
X238843Y274000D02*
D03*
D66*
X289500Y170500D02*
D03*
Y181000D02*
D03*
Y191000D02*
D03*
Y201000D02*
D03*
Y211000D02*
D03*
Y221000D02*
D03*
Y231000D02*
D03*
Y241000D02*
D03*
Y251000D02*
D03*
Y261000D02*
D03*
X279500Y171000D02*
D03*
Y181000D02*
D03*
Y191000D02*
D03*
Y201000D02*
D03*
Y211000D02*
D03*
Y221000D02*
D03*
Y231000D02*
D03*
Y241000D02*
D03*
Y251000D02*
D03*
Y261000D02*
D03*
X119500Y171000D02*
D03*
Y181000D02*
D03*
Y191000D02*
D03*
Y201000D02*
D03*
Y211000D02*
D03*
Y221000D02*
D03*
Y231000D02*
D03*
Y241000D02*
D03*
Y251000D02*
D03*
Y261000D02*
D03*
X109500Y171000D02*
D03*
Y181000D02*
D03*
Y191000D02*
D03*
Y201000D02*
D03*
Y211000D02*
D03*
Y221000D02*
D03*
Y231000D02*
D03*
Y241000D02*
D03*
Y251000D02*
D03*
D67*
Y261000D02*
D03*
D68*
X261449Y220000D02*
D03*
X256724Y223209D02*
D03*
X252000Y220000D02*
D03*
X256724Y216791D02*
D03*
D69*
X134500Y277500D02*
D03*
X161500Y144000D02*
D03*
X181000Y190000D02*
D03*
X213000Y177508D02*
D03*
X134637Y165287D02*
D03*
X257500Y168500D02*
D03*
X227500Y257500D02*
D03*
X128000Y218500D02*
D03*
X133500Y190000D02*
D03*
X131000Y219000D02*
D03*
X129000Y199500D02*
D03*
X189500Y197500D02*
D03*
D70*
X169500Y138500D02*
D03*
M02*
