G04*
G04 #@! TF.GenerationSoftware,Altium Limited,Altium Designer,18.0.12 (696)*
G04*
G04 Layer_Color=16711935*
%FSLAX25Y25*%
%MOIN*%
G70*
G01*
G75*
%ADD31C,0.06706*%
%ADD32R,0.06706X0.06706*%
%ADD33R,0.06115X0.06115*%
%ADD34C,0.06115*%
%ADD35R,0.06115X0.06115*%
%ADD36C,0.08300*%
%ADD37R,0.08300X0.08300*%
%ADD38C,0.02368*%
%ADD39C,0.02300*%
%ADD40C,0.05800*%
D31*
X287500Y128500D02*
D03*
X277500D02*
D03*
X267500D02*
D03*
X257500D02*
D03*
X247500D02*
D03*
X237500D02*
D03*
X227500D02*
D03*
X289500Y273000D02*
D03*
X226000Y222000D02*
D03*
X223500Y152000D02*
D03*
X213500D02*
D03*
X203500D02*
D03*
X132244Y128500D02*
D03*
X122244D02*
D03*
X112244D02*
D03*
D32*
X217500D02*
D03*
X279500Y273000D02*
D03*
X236000Y222000D02*
D03*
X233500Y152000D02*
D03*
X142244Y128500D02*
D03*
D33*
X211500Y205658D02*
D03*
X199000Y250157D02*
D03*
X199000Y242843D02*
D03*
D34*
X211500Y225342D02*
D03*
X219158Y274000D02*
D03*
X199000Y269843D02*
D03*
X199000Y223158D02*
D03*
D35*
X238843Y274000D02*
D03*
D36*
X289500Y170500D02*
D03*
Y181000D02*
D03*
Y191000D02*
D03*
Y201000D02*
D03*
Y211000D02*
D03*
Y221000D02*
D03*
Y231000D02*
D03*
Y241000D02*
D03*
Y251000D02*
D03*
Y261000D02*
D03*
X279500Y171000D02*
D03*
Y181000D02*
D03*
Y191000D02*
D03*
Y201000D02*
D03*
Y211000D02*
D03*
Y221000D02*
D03*
Y231000D02*
D03*
Y241000D02*
D03*
Y251000D02*
D03*
Y261000D02*
D03*
X119500Y171000D02*
D03*
Y181000D02*
D03*
Y191000D02*
D03*
Y201000D02*
D03*
Y211000D02*
D03*
Y221000D02*
D03*
Y231000D02*
D03*
Y241000D02*
D03*
Y251000D02*
D03*
Y261000D02*
D03*
X109500Y171000D02*
D03*
Y181000D02*
D03*
Y191000D02*
D03*
Y201000D02*
D03*
Y211000D02*
D03*
Y221000D02*
D03*
Y231000D02*
D03*
Y241000D02*
D03*
Y251000D02*
D03*
D37*
Y261000D02*
D03*
D38*
X261449Y220000D02*
D03*
X256724Y223209D02*
D03*
X252000Y220000D02*
D03*
X256724Y216791D02*
D03*
D39*
X134500Y277500D02*
D03*
X161500Y144000D02*
D03*
X181000Y190000D02*
D03*
X213000Y177508D02*
D03*
X134637Y165287D02*
D03*
X257500Y168500D02*
D03*
X227500Y257500D02*
D03*
X128000Y218500D02*
D03*
X133500Y190000D02*
D03*
X131000Y219000D02*
D03*
X129000Y199500D02*
D03*
X189500Y197500D02*
D03*
D40*
X169500Y138500D02*
D03*
M02*
