G04*
G04 #@! TF.GenerationSoftware,Altium Limited,Altium Designer,18.0.12 (696)*
G04*
G04 Layer_Color=65535*
%FSLAX25Y25*%
%MOIN*%
G70*
G01*
G75*
%ADD10C,0.01000*%
%ADD11C,0.00984*%
%ADD12C,0.00787*%
%ADD13C,0.02362*%
D10*
X154500Y190000D02*
G03*
X149500Y190000I-2500J0D01*
G01*
X147137Y151250D02*
G03*
X147137Y148750I0J-1250D01*
G01*
X154500Y190000D02*
X161000D01*
X143000D02*
X149500D01*
X143000D02*
Y250000D01*
X161000D01*
Y190000D02*
Y250000D01*
X106500Y277000D02*
X109500D01*
X108000Y275500D02*
Y278500D01*
X274000Y287000D02*
Y290000D01*
X272500Y288500D02*
X275500D01*
X108250Y287900D02*
Y290900D01*
X106750Y289400D02*
X109750D01*
X127137Y155000D02*
X147137D01*
X127137Y145000D02*
Y155000D01*
Y145000D02*
X147137D01*
Y148750D01*
Y151250D02*
Y155000D01*
X134500Y291197D02*
Y287198D01*
Y289198D01*
X137166D01*
Y291197D01*
Y287198D01*
X140498D02*
X139165D01*
X138499Y287865D01*
Y289198D01*
X139165Y289864D01*
X140498D01*
X141165Y289198D01*
Y288531D01*
X138499D01*
X143164Y289864D02*
X144497D01*
X145163Y289198D01*
Y287198D01*
X143164D01*
X142497Y287865D01*
X143164Y288531D01*
X145163D01*
X146496Y289864D02*
Y287198D01*
Y288531D01*
X147163Y289198D01*
X147829Y289864D01*
X148495D01*
X151161Y290531D02*
Y289864D01*
X150495D01*
X151828D01*
X151161D01*
Y287865D01*
X151828Y287198D01*
X134500Y283999D02*
Y280000D01*
X136499D01*
X137166Y280666D01*
Y281333D01*
Y281999D01*
X136499Y282666D01*
X134500D01*
X140498Y280000D02*
X139165D01*
X138499Y280666D01*
Y281999D01*
X139165Y282666D01*
X140498D01*
X141165Y281999D01*
Y281333D01*
X138499D01*
X143164Y282666D02*
X144497D01*
X145163Y281999D01*
Y280000D01*
X143164D01*
X142497Y280666D01*
X143164Y281333D01*
X145163D01*
X147163Y283332D02*
Y282666D01*
X146496D01*
X147829D01*
X147163D01*
Y280666D01*
X147829Y280000D01*
X163500Y285898D02*
Y290896D01*
X165166Y289230D01*
X166832Y290896D01*
Y285898D01*
X168498Y290896D02*
X170165D01*
X169331D01*
Y285898D01*
X168498D01*
X170165D01*
X172664D02*
Y290896D01*
X175163D01*
X175996Y290063D01*
Y288397D01*
X175163Y287564D01*
X172664D01*
X174330D02*
X175996Y285898D01*
X177662D02*
Y289230D01*
X179328Y290896D01*
X180994Y289230D01*
Y285898D01*
Y288397D01*
X177662D01*
X190991Y290896D02*
X189325D01*
X190158D01*
Y286731D01*
X189325Y285898D01*
X188492D01*
X187659Y286731D01*
X193490Y285898D02*
X195156D01*
X195990Y286731D01*
Y288397D01*
X195156Y289230D01*
X193490D01*
X192657Y288397D01*
Y286731D01*
X193490Y285898D01*
X197656D02*
X199322D01*
X198489D01*
Y289230D01*
X197656D01*
X201821Y285898D02*
Y289230D01*
X204320D01*
X205153Y288397D01*
Y285898D01*
X207652Y290063D02*
Y289230D01*
X206819D01*
X208485D01*
X207652D01*
Y286731D01*
X208485Y285898D01*
X215983Y290896D02*
Y285898D01*
X218482D01*
X219315Y286731D01*
Y287564D01*
X218482Y288397D01*
X215983D01*
X218482D01*
X219315Y289230D01*
Y290063D01*
X218482Y290896D01*
X215983D01*
X221814Y285898D02*
X223481D01*
X224314Y286731D01*
Y288397D01*
X223481Y289230D01*
X221814D01*
X220981Y288397D01*
Y286731D01*
X221814Y285898D01*
X226813Y289230D02*
X228479D01*
X229312Y288397D01*
Y285898D01*
X226813D01*
X225980Y286731D01*
X226813Y287564D01*
X229312D01*
X230978Y289230D02*
Y285898D01*
Y287564D01*
X231811Y288397D01*
X232644Y289230D01*
X233477D01*
X239309Y290896D02*
Y285898D01*
X236810D01*
X235977Y286731D01*
Y288397D01*
X236810Y289230D01*
X239309D01*
X163500Y282498D02*
Y277500D01*
X165999D01*
X166832Y278333D01*
Y279166D01*
X165999Y279999D01*
X163500D01*
X165999D01*
X166832Y280832D01*
Y281665D01*
X165999Y282498D01*
X163500D01*
X169331Y277500D02*
X170998D01*
X171831Y278333D01*
Y279999D01*
X170998Y280832D01*
X169331D01*
X168498Y279999D01*
Y278333D01*
X169331Y277500D01*
X174330D02*
X175996D01*
X176829Y278333D01*
Y279999D01*
X175996Y280832D01*
X174330D01*
X173497Y279999D01*
Y278333D01*
X174330Y277500D01*
X178495D02*
X180994D01*
X181827Y278333D01*
X180994Y279166D01*
X179328D01*
X178495Y279999D01*
X179328Y280832D01*
X181827D01*
X184327Y281665D02*
Y280832D01*
X183493D01*
X185160D01*
X184327D01*
Y278333D01*
X185160Y277500D01*
X190158D02*
X188492D01*
X187659Y278333D01*
Y279999D01*
X188492Y280832D01*
X190158D01*
X190991Y279999D01*
Y279166D01*
X187659D01*
X192657Y280832D02*
Y277500D01*
Y279166D01*
X193490Y279999D01*
X194323Y280832D01*
X195156D01*
X197656Y277500D02*
Y282498D01*
X200155D01*
X200988Y281665D01*
Y279999D01*
X200155Y279166D01*
X197656D01*
X203487Y280832D02*
X205153D01*
X205986Y279999D01*
Y277500D01*
X203487D01*
X202654Y278333D01*
X203487Y279166D01*
X205986D01*
X210985Y280832D02*
X208485D01*
X207652Y279999D01*
Y278333D01*
X208485Y277500D01*
X210985D01*
X212651D02*
Y282498D01*
Y279166D02*
X215150Y280832D01*
X212651Y279166D02*
X215150Y277500D01*
X154500Y115665D02*
Y110666D01*
X156999D01*
X157832Y111499D01*
Y114831D01*
X156999Y115665D01*
X154500D01*
X161998Y110666D02*
X160331D01*
X159498Y111499D01*
Y113165D01*
X160331Y113998D01*
X161998D01*
X162831Y113165D01*
Y112332D01*
X159498D01*
X164497Y110666D02*
X166996D01*
X167829Y111499D01*
X166996Y112332D01*
X165330D01*
X164497Y113165D01*
X165330Y113998D01*
X167829D01*
X169495Y110666D02*
X171161D01*
X170328D01*
Y113998D01*
X169495D01*
X175327Y109000D02*
X176160D01*
X176993Y109833D01*
Y113998D01*
X174494D01*
X173661Y113165D01*
Y111499D01*
X174494Y110666D01*
X176993D01*
X178659D02*
Y113998D01*
X181158D01*
X181991Y113165D01*
Y110666D01*
X186156D02*
X184490D01*
X183657Y111499D01*
Y113165D01*
X184490Y113998D01*
X186156D01*
X186989Y113165D01*
Y112332D01*
X183657D01*
X191988Y115665D02*
Y110666D01*
X189489D01*
X188656Y111499D01*
Y113165D01*
X189489Y113998D01*
X191988D01*
X198652Y115665D02*
Y110666D01*
X201151D01*
X201985Y111499D01*
Y112332D01*
Y113165D01*
X201151Y113998D01*
X198652D01*
X203651D02*
Y111499D01*
X204484Y110666D01*
X206983D01*
Y109833D01*
X206150Y109000D01*
X205317D01*
X206983Y110666D02*
Y113998D01*
X208649D02*
X209482D01*
Y113165D01*
X208649D01*
Y113998D01*
Y111499D02*
X209482D01*
Y110666D01*
X208649D01*
Y111499D01*
X217813Y115665D02*
Y110666D01*
X220312D01*
X221145Y111499D01*
Y112332D01*
X220312Y113165D01*
X217813D01*
X220312D01*
X221145Y113998D01*
Y114831D01*
X220312Y115665D01*
X217813D01*
X225310Y110666D02*
X223644D01*
X222811Y111499D01*
Y113165D01*
X223644Y113998D01*
X225310D01*
X226144Y113165D01*
Y112332D01*
X222811D01*
X227810Y110666D02*
Y113998D01*
X230309D01*
X231142Y113165D01*
Y110666D01*
X237806Y115665D02*
X241139D01*
X239473D01*
Y110666D01*
X242805D02*
X244471D01*
X243638D01*
Y113998D01*
X242805D01*
X247803Y114831D02*
Y113998D01*
X246970D01*
X248636D01*
X247803D01*
Y111499D01*
X248636Y110666D01*
X251135Y113998D02*
Y111499D01*
X251968Y110666D01*
X254468D01*
Y113998D01*
X256134Y110666D02*
X258633D01*
X259466Y111499D01*
X258633Y112332D01*
X256967D01*
X256134Y113165D01*
X256967Y113998D01*
X259466D01*
X265000Y119000D02*
X267828Y121827D01*
Y119942D01*
X269712Y119942D01*
X266885Y117115D01*
X270655Y119000D02*
X271598Y118058D01*
X271126Y118529D01*
X268299Y115701D01*
X267828Y116173D01*
X268770Y115230D01*
X274425Y114287D02*
Y115230D01*
X273482Y116173D01*
X272540D01*
X272069Y115701D01*
Y114759D01*
X273011Y113816D01*
Y112874D01*
X272540Y112402D01*
X271598D01*
X270655Y113345D01*
Y114287D01*
X277253Y112402D02*
X276310Y113345D01*
X275368D01*
X273482Y111460D01*
Y110518D01*
X274425Y109575D01*
X275367D01*
X277253Y111460D01*
Y112402D01*
X278741Y119971D02*
Y120914D01*
X277799Y121856D01*
X276856D01*
X276385Y121385D01*
Y120442D01*
X277327Y119500D01*
Y118558D01*
X276856Y118086D01*
X275914D01*
X274971Y119029D01*
Y119971D01*
X281569Y117144D02*
Y118086D01*
X280626Y119029D01*
X279684D01*
X277799Y117144D01*
Y116201D01*
X278741Y115259D01*
X279684D01*
X282982Y116673D02*
X280155Y113845D01*
X282040Y111960D01*
X285810Y113845D02*
X282982Y111018D01*
X283925Y111960D01*
X287695D01*
X284868D01*
Y109132D01*
X289241Y119971D02*
Y120914D01*
X288299Y121856D01*
X287356D01*
X285471Y119971D01*
Y119029D01*
X286414Y118086D01*
X287356D01*
X292069Y117144D02*
Y118086D01*
X291126Y119029D01*
X290184D01*
X289713Y118558D01*
Y117615D01*
X290655Y116673D01*
Y115730D01*
X290184Y115259D01*
X289241D01*
X288299Y116201D01*
Y117144D01*
X143827Y121827D02*
X141943Y119942D01*
Y118058D01*
X143827D01*
X145712Y119942D01*
X147598Y116173D02*
X146184Y117586D01*
X145241D01*
X144299Y116644D01*
Y115701D01*
X145712Y114287D01*
X150425Y113345D02*
X149011Y114759D01*
X148069D01*
X147126Y113816D01*
Y112874D01*
X148540Y111460D01*
X134241Y119971D02*
Y120914D01*
X133299Y121856D01*
X132356D01*
X130471Y119971D01*
Y119029D01*
X131414Y118086D01*
X132356D01*
X132827Y116673D02*
X134713Y118558D01*
X136598Y118558D01*
Y116673D01*
X134713Y114787D01*
X136126Y116201D01*
X134241Y118086D01*
X135655Y113845D02*
X138482Y116673D01*
X137540Y111960D01*
X140368Y114787D01*
X141310Y113845D02*
X138482Y111018D01*
X139896Y112431D01*
X141781Y110546D01*
X143195Y111960D01*
X140368Y109132D01*
X123741Y119971D02*
Y120914D01*
X122799Y121856D01*
X121856D01*
X119971Y119971D01*
Y119029D01*
X120914Y118086D01*
X121856D01*
X122327Y116673D02*
X124213Y118558D01*
X126098Y118558D01*
Y116673D01*
X124213Y114787D01*
X125626Y116201D01*
X123741Y118086D01*
X125155Y113845D02*
X127982Y116673D01*
X127040Y111960D01*
X129868Y114787D01*
X130810Y113845D02*
X127982Y111018D01*
X129868Y109132D01*
X109000Y119000D02*
X111828Y121827D01*
X113241Y120414D01*
Y119471D01*
X112299Y118529D01*
X111356D01*
X109942Y119942D01*
X110885Y119000D02*
Y117115D01*
X111356Y115701D02*
X113241Y113816D01*
X119368Y114287D02*
X117482Y116173D01*
X114655Y113345D01*
X116540Y111460D01*
X116069Y114759D02*
X117011Y113816D01*
X117482Y110518D02*
X120310Y113345D01*
X119368Y108632D01*
X122195Y111460D01*
X131166Y252832D02*
X130499Y253499D01*
X129166D01*
X128500Y252832D01*
Y252166D01*
X129166Y251499D01*
X130499D01*
X131166Y250833D01*
Y250166D01*
X130499Y249500D01*
X129166D01*
X128500Y250166D01*
X132499Y253499D02*
Y249500D01*
X133832Y250833D01*
X135164Y249500D01*
Y253499D01*
X136497Y249500D02*
X137830D01*
X137164D01*
Y253499D01*
X136497Y252832D01*
X148166Y256332D02*
X147499Y256999D01*
X146167D01*
X145500Y256332D01*
Y255666D01*
X146167Y254999D01*
X147499D01*
X148166Y254333D01*
Y253666D01*
X147499Y253000D01*
X146167D01*
X145500Y253666D01*
X149499Y253000D02*
X150832D01*
X150165D01*
Y256999D01*
X149499Y256332D01*
X241000Y154499D02*
Y151833D01*
X242333Y150500D01*
X243666Y151833D01*
Y154499D01*
X247664Y153166D02*
X245665D01*
X244999Y152499D01*
Y151166D01*
X245665Y150500D01*
X247664D01*
X251663Y153166D02*
X249664D01*
X248997Y152499D01*
Y151166D01*
X249664Y150500D01*
X251663D01*
X199500Y128999D02*
Y126333D01*
X200833Y125000D01*
X202166Y126333D01*
Y128999D01*
X206165Y127666D02*
X204165D01*
X203499Y126999D01*
Y125666D01*
X204165Y125000D01*
X206165D01*
X210163Y127666D02*
X208164D01*
X207497Y126999D01*
Y125666D01*
X208164Y125000D01*
X210163D01*
X134500Y273832D02*
X135167Y274499D01*
X136499D01*
X137166Y273832D01*
Y273166D01*
X136499Y272499D01*
X135833D01*
X136499D01*
X137166Y271833D01*
Y271166D01*
X136499Y270500D01*
X135167D01*
X134500Y271166D01*
X138499Y270500D02*
Y271166D01*
X139165D01*
Y270500D01*
X138499D01*
X141831Y273832D02*
X142497Y274499D01*
X143830D01*
X144497Y273832D01*
Y273166D01*
X143830Y272499D01*
X143164D01*
X143830D01*
X144497Y271833D01*
Y271166D01*
X143830Y270500D01*
X142497D01*
X141831Y271166D01*
X145830Y274499D02*
Y271833D01*
X147163Y270500D01*
X148495Y271833D01*
Y274499D01*
X211000Y267499D02*
Y264166D01*
X211666Y263500D01*
X212999D01*
X213666Y264166D01*
Y267499D01*
X214999D02*
X217665D01*
Y266832D01*
X214999Y264166D01*
Y263500D01*
X203500Y130500D02*
Y134499D01*
X205499D01*
X206166Y133832D01*
Y132499D01*
X205499Y131833D01*
X203500D01*
X207499Y133832D02*
X208165Y134499D01*
X209498D01*
X210164Y133832D01*
Y133166D01*
X209498Y132499D01*
X208832D01*
X209498D01*
X210164Y131833D01*
Y131167D01*
X209498Y130500D01*
X208165D01*
X207499Y131167D01*
X214166Y233832D02*
X213499Y234499D01*
X212166D01*
X211500Y233832D01*
Y231166D01*
X212166Y230500D01*
X213499D01*
X214166Y231166D01*
X218164Y234499D02*
X215499D01*
Y232499D01*
X216832Y233166D01*
X217498D01*
X218164Y232499D01*
Y231166D01*
X217498Y230500D01*
X216165D01*
X215499Y231166D01*
X207166Y274332D02*
X206499Y274999D01*
X205166D01*
X204500Y274332D01*
Y271666D01*
X205166Y271000D01*
X206499D01*
X207166Y271666D01*
X208499Y271000D02*
X209832D01*
X209165D01*
Y274999D01*
X208499Y274332D01*
X211831D02*
X212497Y274999D01*
X213830D01*
X214497Y274332D01*
Y271666D01*
X213830Y271000D01*
X212497D01*
X211831Y271666D01*
Y274332D01*
X123000Y276000D02*
Y279999D01*
X124999D01*
X125666Y279332D01*
Y277999D01*
X124999Y277333D01*
X123000D01*
X124333D02*
X125666Y276000D01*
X129665D02*
X126999D01*
X129665Y278666D01*
Y279332D01*
X128998Y279999D01*
X127665D01*
X126999Y279332D01*
X112500Y279999D02*
Y276000D01*
X114499D01*
X115166Y276666D01*
Y279332D01*
X114499Y279999D01*
X112500D01*
X119165Y276000D02*
X116499D01*
X119165Y278666D01*
Y279332D01*
X118498Y279999D01*
X117165D01*
X116499Y279332D01*
X289000Y287500D02*
Y291499D01*
X290999D01*
X291666Y290832D01*
Y289499D01*
X290999Y288833D01*
X289000D01*
X290333D02*
X291666Y287500D01*
X292999D02*
X294332D01*
X293665D01*
Y291499D01*
X292999Y290832D01*
X278500Y291499D02*
Y287500D01*
X280499D01*
X281166Y288166D01*
Y290832D01*
X280499Y291499D01*
X278500D01*
X282499Y287500D02*
X283832D01*
X283165D01*
Y291499D01*
X282499Y290832D01*
X267000Y271000D02*
Y274999D01*
X268999D01*
X269666Y274332D01*
Y272999D01*
X268999Y272333D01*
X267000D01*
X270999Y271000D02*
X272332D01*
X271665D01*
Y274999D01*
X270999Y274332D01*
X260666Y184332D02*
X259999Y184999D01*
X258666D01*
X258000Y184332D01*
Y181667D01*
X258666Y181000D01*
X259999D01*
X260666Y181667D01*
X261999D02*
X262665Y181000D01*
X263998D01*
X264665Y181667D01*
Y184332D01*
X263998Y184999D01*
X262665D01*
X261999Y184332D01*
Y183666D01*
X262665Y182999D01*
X264665D01*
X250666Y184332D02*
X249999Y184999D01*
X248666D01*
X248000Y184332D01*
Y181667D01*
X248666Y181000D01*
X249999D01*
X250666Y181667D01*
X251999Y184332D02*
X252665Y184999D01*
X253998D01*
X254664Y184332D01*
Y183666D01*
X253998Y182999D01*
X254664Y182333D01*
Y181667D01*
X253998Y181000D01*
X252665D01*
X251999Y181667D01*
Y182333D01*
X252665Y182999D01*
X251999Y183666D01*
Y184332D01*
X252665Y182999D02*
X253998D01*
X182666Y266832D02*
X181999Y267499D01*
X180666D01*
X180000Y266832D01*
Y264166D01*
X180666Y263500D01*
X181999D01*
X182666Y264166D01*
X183999Y263500D02*
X185332D01*
X184665D01*
Y267499D01*
X183999Y266832D01*
X187331Y263500D02*
X188664D01*
X187997D01*
Y267499D01*
X187331Y266832D01*
X186666Y223332D02*
X185999Y223999D01*
X184667D01*
X184000Y223332D01*
Y220666D01*
X184667Y220000D01*
X185999D01*
X186666Y220666D01*
X187999Y220000D02*
X189332D01*
X188665D01*
Y223999D01*
X187999Y223332D01*
X193997Y220000D02*
X191331D01*
X193997Y222666D01*
Y223332D01*
X193330Y223999D01*
X191997D01*
X191331Y223332D01*
X273000Y196500D02*
X269001D01*
Y198499D01*
X269668Y199166D01*
X271001D01*
X271667Y198499D01*
Y196500D01*
Y197833D02*
X273000Y199166D01*
Y200499D02*
Y201832D01*
Y201165D01*
X269001D01*
X269668Y200499D01*
Y203831D02*
X269001Y204497D01*
Y205830D01*
X269668Y206497D01*
X270334D01*
X271001Y205830D01*
Y205164D01*
Y205830D01*
X271667Y206497D01*
X272334D01*
X273000Y205830D01*
Y204497D01*
X272334Y203831D01*
X231500Y208000D02*
Y211999D01*
X233499D01*
X234166Y211332D01*
Y209999D01*
X233499Y209333D01*
X231500D01*
X238164Y211999D02*
X235499D01*
Y209999D01*
X236832Y210666D01*
X237498D01*
X238164Y209999D01*
Y208666D01*
X237498Y208000D01*
X236165D01*
X235499Y208666D01*
X145166Y186332D02*
X144499Y186999D01*
X143166D01*
X142500Y186332D01*
Y183667D01*
X143166Y183000D01*
X144499D01*
X145166Y183667D01*
X149164Y183000D02*
X146499D01*
X149164Y185666D01*
Y186332D01*
X148498Y186999D01*
X147165D01*
X146499Y186332D01*
X132666D02*
X131999Y186999D01*
X130666D01*
X130000Y186332D01*
Y183667D01*
X130666Y183000D01*
X131999D01*
X132666Y183667D01*
X133999Y186332D02*
X134665Y186999D01*
X135998D01*
X136664Y186332D01*
Y185666D01*
X135998Y184999D01*
X135332D01*
X135998D01*
X136664Y184333D01*
Y183667D01*
X135998Y183000D01*
X134665D01*
X133999Y183667D01*
X131666Y170332D02*
X130999Y170999D01*
X129666D01*
X129000Y170332D01*
Y167666D01*
X129666Y167000D01*
X130999D01*
X131666Y167666D01*
X132999Y167000D02*
X134332D01*
X133665D01*
Y170999D01*
X132999Y170332D01*
X122500Y288000D02*
Y291999D01*
X124499D01*
X125166Y291332D01*
Y289999D01*
X124499Y289333D01*
X122500D01*
X123833D02*
X125166Y288000D01*
X126499Y291332D02*
X127165Y291999D01*
X128498D01*
X129165Y291332D01*
Y290666D01*
X128498Y289999D01*
X127832D01*
X128498D01*
X129165Y289333D01*
Y288666D01*
X128498Y288000D01*
X127165D01*
X126499Y288666D01*
X112000Y291999D02*
Y288000D01*
X113999D01*
X114666Y288666D01*
Y291332D01*
X113999Y291999D01*
X112000D01*
X115999Y291332D02*
X116665Y291999D01*
X117998D01*
X118665Y291332D01*
Y290666D01*
X117998Y289999D01*
X117332D01*
X117998D01*
X118665Y289333D01*
Y288666D01*
X117998Y288000D01*
X116665D01*
X115999Y288666D01*
X187666Y162832D02*
X186999Y163499D01*
X185667D01*
X185000Y162832D01*
Y160167D01*
X185667Y159500D01*
X186999D01*
X187666Y160167D01*
X188999Y163499D02*
X191665D01*
Y162832D01*
X188999Y160167D01*
Y159500D01*
X214166Y169832D02*
X213499Y170499D01*
X212166D01*
X211500Y169832D01*
Y167166D01*
X212166Y166500D01*
X213499D01*
X214166Y167166D01*
X218164Y170499D02*
X216832Y169832D01*
X215499Y168499D01*
Y167166D01*
X216165Y166500D01*
X217498D01*
X218164Y167166D01*
Y167833D01*
X217498Y168499D01*
X215499D01*
X188500Y148000D02*
Y151999D01*
X190499D01*
X191166Y151332D01*
Y149999D01*
X190499Y149333D01*
X188500D01*
X194498Y148000D02*
Y151999D01*
X192499Y149999D01*
X195165D01*
X181000Y204000D02*
Y207999D01*
X182999D01*
X183666Y207332D01*
Y205999D01*
X182999Y205333D01*
X181000D01*
X182333D02*
X183666Y204000D01*
X184999D02*
X186332D01*
X185665D01*
Y207999D01*
X184999Y207332D01*
X188331D02*
X188997Y207999D01*
X190330D01*
X190997Y207332D01*
Y204666D01*
X190330Y204000D01*
X188997D01*
X188331Y204666D01*
Y207332D01*
X174500Y181000D02*
Y184999D01*
X176499D01*
X177166Y184332D01*
Y182999D01*
X176499Y182333D01*
X174500D01*
X175833D02*
X177166Y181000D01*
X178499Y181667D02*
X179165Y181000D01*
X180498D01*
X181165Y181667D01*
Y184332D01*
X180498Y184999D01*
X179165D01*
X178499Y184332D01*
Y183666D01*
X179165Y182999D01*
X181165D01*
X174500Y174000D02*
Y177999D01*
X176499D01*
X177166Y177332D01*
Y175999D01*
X176499Y175333D01*
X174500D01*
X175833D02*
X177166Y174000D01*
X178499Y177332D02*
X179165Y177999D01*
X180498D01*
X181165Y177332D01*
Y176666D01*
X180498Y175999D01*
X181165Y175333D01*
Y174667D01*
X180498Y174000D01*
X179165D01*
X178499Y174667D01*
Y175333D01*
X179165Y175999D01*
X178499Y176666D01*
Y177332D01*
X179165Y175999D02*
X180498D01*
X233500Y171500D02*
Y175499D01*
X235499D01*
X236166Y174832D01*
Y173499D01*
X235499Y172833D01*
X233500D01*
X234833D02*
X236166Y171500D01*
X237499Y175499D02*
X240164D01*
Y174832D01*
X237499Y172167D01*
Y171500D01*
X220500D02*
Y175499D01*
X222499D01*
X223166Y174832D01*
Y173499D01*
X222499Y172833D01*
X220500D01*
X221833D02*
X223166Y171500D01*
X224499D02*
X225832D01*
X225165D01*
Y175499D01*
X224499Y174832D01*
X227831Y171500D02*
X229164D01*
X228497D01*
Y175499D01*
X227831Y174832D01*
X105000Y159500D02*
Y163499D01*
X106999D01*
X107666Y162832D01*
Y161499D01*
X106999Y160833D01*
X105000D01*
X106333D02*
X107666Y159500D01*
X111664Y163499D02*
X108999D01*
Y161499D01*
X110332Y162166D01*
X110998D01*
X111664Y161499D01*
Y160167D01*
X110998Y159500D01*
X109665D01*
X108999Y160167D01*
X123666Y139166D02*
Y141832D01*
X122999Y142499D01*
X121667D01*
X121000Y141832D01*
Y139166D01*
X121667Y138500D01*
X122999D01*
X122333Y139833D02*
X123666Y138500D01*
X122999D02*
X123666Y139166D01*
X124999Y138500D02*
X126332D01*
X125665D01*
Y142499D01*
X124999Y141832D01*
X105000Y151500D02*
Y155499D01*
X106999D01*
X107666Y154832D01*
Y153499D01*
X106999Y152833D01*
X105000D01*
X106333D02*
X107666Y151500D01*
X110998D02*
Y155499D01*
X108999Y153499D01*
X111664D01*
X150000Y130500D02*
Y134499D01*
X151999D01*
X152666Y133832D01*
Y132499D01*
X151999Y131833D01*
X150000D01*
X156665Y130500D02*
X153999D01*
X156665Y133166D01*
Y133832D01*
X155998Y134499D01*
X154665D01*
X153999Y133832D01*
X155286Y161710D02*
X151954D01*
X151287Y161044D01*
Y159711D01*
X151954Y159044D01*
X155286D01*
X151287Y155046D02*
Y157712D01*
X153953Y155046D01*
X154620D01*
X155286Y155712D01*
Y157045D01*
X154620Y157712D01*
X246700Y241999D02*
Y238666D01*
X247366Y238000D01*
X248699D01*
X249366Y238666D01*
Y241999D01*
X253364D02*
X252032Y241332D01*
X250699Y239999D01*
Y238666D01*
X251365Y238000D01*
X252698D01*
X253364Y238666D01*
Y239333D01*
X252698Y239999D01*
X250699D01*
X251000Y208499D02*
Y205166D01*
X251666Y204500D01*
X252999D01*
X253666Y205166D01*
Y208499D01*
X257664D02*
X254999D01*
Y206499D01*
X256332Y207166D01*
X256998D01*
X257664Y206499D01*
Y205166D01*
X256998Y204500D01*
X255665D01*
X254999Y205166D01*
X195800Y201799D02*
Y198467D01*
X196467Y197800D01*
X197799D01*
X198466Y198467D01*
Y201799D01*
X201798Y197800D02*
Y201799D01*
X199799Y199799D01*
X202465D01*
X216200Y206699D02*
Y203366D01*
X216866Y202700D01*
X218199D01*
X218866Y203366D01*
Y206699D01*
X220199Y206032D02*
X220865Y206699D01*
X222198D01*
X222865Y206032D01*
Y205366D01*
X222198Y204699D01*
X221532D01*
X222198D01*
X222865Y204033D01*
Y203366D01*
X222198Y202700D01*
X220865D01*
X220199Y203366D01*
X245500Y271100D02*
Y275099D01*
X247499D01*
X248166Y274432D01*
Y273099D01*
X247499Y272433D01*
X245500D01*
X246833D02*
X248166Y271100D01*
X249499D02*
X250832D01*
X250165D01*
Y275099D01*
X249499Y274432D01*
X255497Y271100D02*
X252831D01*
X255497Y273766D01*
Y274432D01*
X254830Y275099D01*
X253497D01*
X252831Y274432D01*
X150900Y145100D02*
Y149099D01*
X152899D01*
X153566Y148432D01*
Y147099D01*
X152899Y146433D01*
X150900D01*
X152233D02*
X153566Y145100D01*
X157564Y149099D02*
X156232Y148432D01*
X154899Y147099D01*
Y145766D01*
X155565Y145100D01*
X156898D01*
X157564Y145766D01*
Y146433D01*
X156898Y147099D01*
X154899D01*
X187066Y200032D02*
X186399Y200699D01*
X185066D01*
X184400Y200032D01*
Y197366D01*
X185066Y196700D01*
X186399D01*
X187066Y197366D01*
X190398Y196700D02*
Y200699D01*
X188399Y198699D01*
X191065D01*
D11*
X235516Y240555D02*
G03*
X235516Y240555I-492J0D01*
G01*
X105905Y137776D02*
G03*
X105905Y137776I-492J0D01*
G01*
X251504Y189480D02*
G03*
X251504Y189480I-492J0D01*
G01*
X218657Y198748D02*
G03*
X218657Y198748I-492J0D01*
G01*
X196405Y171346D02*
G03*
X196405Y171346I-492J0D01*
G01*
D12*
X215732Y208860D02*
G03*
X214774Y222661I-4232J6640D01*
G01*
X208226D02*
G03*
X207268Y208860I3274J-7161D01*
G01*
X235640Y278232D02*
G03*
X221839Y277274I-6640J-4232D01*
G01*
Y270726D02*
G03*
X235640Y269768I7161J3274D01*
G01*
X203232Y253360D02*
G03*
X202274Y267161I-4232J6640D01*
G01*
X195726D02*
G03*
X194768Y253360I3274J-7161D01*
G01*
X194768Y239640D02*
G03*
X195726Y225839I4232J-6640D01*
G01*
X202274D02*
G03*
X203232Y239640I-3274J7161D01*
G01*
X217996Y241854D02*
X230004D01*
Y261146D01*
X217996Y241854D02*
Y261146D01*
X230004D01*
X212500Y133500D02*
X292500D01*
X212500Y123500D02*
Y133500D01*
Y123500D02*
X292500D01*
Y133500D01*
X126303Y273665D02*
X126697D01*
X126303Y269335D02*
X126697D01*
X291303Y285165D02*
X291697D01*
X291303Y280835D02*
X291697D01*
X274500Y278000D02*
X294500D01*
X274500Y268000D02*
Y278000D01*
Y268000D02*
X294500D01*
Y278000D01*
X264264Y172303D02*
Y172697D01*
X259736Y172303D02*
Y172697D01*
X255264Y172303D02*
Y172697D01*
X250736Y172303D02*
Y172697D01*
X273165Y214303D02*
Y214697D01*
X268835Y214303D02*
Y214697D01*
X221000Y217000D02*
X241000D01*
Y227000D01*
X221000D02*
X241000D01*
X221000Y217000D02*
Y227000D01*
X145303Y175736D02*
X145697D01*
X145303Y180264D02*
X145697D01*
X132803D02*
X133197D01*
X132803Y175736D02*
X133197D01*
X141303Y166736D02*
X141697D01*
X141303Y171264D02*
X141697D01*
X126053Y286065D02*
X126447D01*
X126053Y281735D02*
X126447D01*
X198803Y159236D02*
X199197D01*
X198803Y163764D02*
X199197D01*
X211303D02*
X211697D01*
X211303Y159236D02*
X211697D01*
X198500Y147000D02*
Y157000D01*
X238500D01*
X198500Y147000D02*
X238500D01*
Y157000D01*
X198803Y208165D02*
X199197D01*
X198803Y203835D02*
X199197D01*
X188803Y180835D02*
X189197D01*
X188803Y185165D02*
X189197D01*
X188803Y178165D02*
X189197D01*
X188803Y173835D02*
X189197D01*
X231335Y164303D02*
Y164697D01*
X235665Y164303D02*
Y164697D01*
X226165Y164457D02*
Y164850D01*
X221835Y164457D02*
Y164850D01*
X118803Y159335D02*
X119197D01*
X118803Y163665D02*
X119197D01*
X115256Y145256D02*
X118405D01*
Y141319D02*
Y145256D01*
X106595D02*
X109744D01*
X106595Y141319D02*
Y145256D01*
X118803Y150835D02*
X119197D01*
X118803Y155165D02*
X119197D01*
X107244Y123500D02*
Y133500D01*
X147244D01*
X107244Y123500D02*
X147244D01*
Y133500D01*
X266567Y215965D02*
Y224429D01*
X246843Y206705D02*
Y226004D01*
X251898Y196468D02*
X264102D01*
X251898Y192532D02*
X264102D01*
Y196468D01*
X251898Y192532D02*
Y196468D01*
X245496Y246126D02*
Y261874D01*
X257504Y246126D02*
Y261874D01*
X222201Y178157D02*
X234799D01*
X222201Y197843D02*
X234799D01*
Y178157D02*
Y197843D01*
X222201Y178157D02*
Y197843D01*
X209102Y175972D02*
Y185028D01*
X196898Y175972D02*
Y185028D01*
X209102D01*
X196898Y175972D02*
X209102D01*
X188803Y192764D02*
X189197D01*
X188803Y188236D02*
X189197D01*
X155303Y136835D02*
X155697D01*
X155303Y141165D02*
X155697D01*
D13*
X227319Y193905D02*
G03*
X227319Y193905I-1181J0D01*
G01*
M02*
