G04*
G04 #@! TF.GenerationSoftware,Altium Limited,Altium Designer,18.0.12 (696)*
G04*
G04 Layer_Physical_Order=1*
G04 Layer_Color=255*
%FSLAX25Y25*%
%MOIN*%
G70*
G01*
G75*
%ADD10C,0.01000*%
%ADD41R,0.10000X0.03000*%
%ADD42O,0.10000X0.03000*%
%ADD43R,0.06890X0.02559*%
%ADD44R,0.03347X0.05118*%
%ADD45R,0.05000X0.05000*%
%ADD46R,0.05315X0.03740*%
%ADD47R,0.05118X0.03347*%
%ADD48R,0.03740X0.05315*%
%ADD49R,0.02362X0.03937*%
%ADD50O,0.02500X0.06000*%
%ADD51R,0.02500X0.06000*%
%ADD52O,0.02362X0.07874*%
%ADD53R,0.11811X0.08386*%
G04:AMPARAMS|DCode=54|XSize=21.65mil|YSize=31.5mil|CornerRadius=1.95mil|HoleSize=0mil|Usage=FLASHONLY|Rotation=180.000|XOffset=0mil|YOffset=0mil|HoleType=Round|Shape=RoundedRectangle|*
%AMROUNDEDRECTD54*
21,1,0.02165,0.02760,0,0,180.0*
21,1,0.01776,0.03150,0,0,180.0*
1,1,0.00390,-0.00888,0.01380*
1,1,0.00390,0.00888,0.01380*
1,1,0.00390,0.00888,-0.01380*
1,1,0.00390,-0.00888,-0.01380*
%
%ADD54ROUNDEDRECTD54*%
%ADD55R,0.12795X0.04134*%
G04:AMPARAMS|DCode=56|XSize=21.65mil|YSize=49.21mil|CornerRadius=1.95mil|HoleSize=0mil|Usage=FLASHONLY|Rotation=90.000|XOffset=0mil|YOffset=0mil|HoleType=Round|Shape=RoundedRectangle|*
%AMROUNDEDRECTD56*
21,1,0.02165,0.04532,0,0,90.0*
21,1,0.01776,0.04921,0,0,90.0*
1,1,0.00390,0.02266,0.00888*
1,1,0.00390,0.02266,-0.00888*
1,1,0.00390,-0.02266,-0.00888*
1,1,0.00390,-0.02266,0.00888*
%
%ADD56ROUNDEDRECTD56*%
G04:AMPARAMS|DCode=57|XSize=15mil|YSize=61.02mil|CornerRadius=1.65mil|HoleSize=0mil|Usage=FLASHONLY|Rotation=180.000|XOffset=0mil|YOffset=0mil|HoleType=Round|Shape=RoundedRectangle|*
%AMROUNDEDRECTD57*
21,1,0.01500,0.05772,0,0,180.0*
21,1,0.01170,0.06102,0,0,180.0*
1,1,0.00330,-0.00585,0.02886*
1,1,0.00330,0.00585,0.02886*
1,1,0.00330,0.00585,-0.02886*
1,1,0.00330,-0.00585,-0.02886*
%
%ADD57ROUNDEDRECTD57*%
%ADD58C,0.00800*%
%ADD59C,0.02000*%
%ADD60C,0.04000*%
%ADD61C,0.05906*%
%ADD62R,0.05906X0.05906*%
%ADD63R,0.05315X0.05315*%
%ADD64C,0.05315*%
%ADD65R,0.05315X0.05315*%
%ADD66C,0.07500*%
%ADD67R,0.07500X0.07500*%
%ADD68C,0.01968*%
%ADD69C,0.01500*%
%ADD70C,0.05000*%
D10*
X129596Y282403D02*
X134500Y277500D01*
X129596Y282403D02*
Y284900D01*
X129847Y272847D02*
X134500Y277500D01*
X129847Y272000D02*
Y272847D01*
X108760Y154606D02*
X115654Y161500D01*
X108760Y137776D02*
Y154606D01*
X199000Y269843D02*
X202134D01*
X212976Y259000D01*
Y254000D02*
Y259000D01*
X254622Y195500D02*
X264500D01*
X258000Y198878D02*
Y199520D01*
X254622Y195500D02*
X258000Y198878D01*
X249500Y195500D02*
X254622D01*
X244500Y190500D02*
X249500Y195500D01*
X264500D02*
X271000Y202000D01*
Y211154D01*
X264224Y211071D02*
X271000Y217846D01*
X264224Y210157D02*
Y211071D01*
X261740Y199520D02*
Y202260D01*
X259224Y204776D02*
X261740Y202260D01*
X259224Y204776D02*
Y210157D01*
X254224Y199555D02*
X254260Y199520D01*
X254224Y199555D02*
Y210157D01*
X252000Y220000D02*
X256724D01*
X250949D02*
X252000D01*
X249224Y218276D02*
X250949Y220000D01*
X249224Y210157D02*
Y218276D01*
X247843Y283000D02*
X274000D01*
X238843Y274000D02*
X247843Y283000D01*
X254260Y189480D02*
Y190122D01*
X257500Y188980D02*
X258000Y189480D01*
X257500Y168500D02*
Y188980D01*
X253000Y175650D02*
Y182650D01*
X257500Y168500D02*
X258350Y169350D01*
X262000D01*
X256650D02*
X257500Y168500D01*
X253000Y169350D02*
X256650D01*
X253000Y182650D02*
X254260Y183909D01*
Y189480D01*
X122346Y160653D02*
Y161500D01*
Y153000D02*
X124846D01*
X128923Y148923D01*
X135077D01*
X110794Y266706D02*
X112050Y267962D01*
X158846Y141347D02*
X161500Y144000D01*
X158846Y139000D02*
Y141347D01*
X181000Y190000D02*
X181500Y190500D01*
X185850D01*
X223807Y161500D02*
X224000Y161307D01*
X214650Y161500D02*
X223807D01*
X213000Y177508D02*
X215992Y180500D01*
X206839Y171346D02*
X213000Y177508D01*
X214650Y161500D02*
Y165850D01*
X213000Y167500D02*
X214650Y165850D01*
X213000Y167500D02*
Y177508D01*
X215992Y180500D02*
X218165D01*
X189500Y197500D02*
X192150Y194850D01*
Y190500D02*
Y194850D01*
X152154Y130154D02*
Y139000D01*
X145500Y123500D02*
X152154Y130154D01*
X127244Y123500D02*
X145500D01*
X122244Y128500D02*
X127244Y123500D01*
X294847Y277346D02*
Y283000D01*
X290500Y273000D02*
X294847Y277346D01*
X289500Y273000D02*
X290500D01*
X282000Y283000D02*
X288154D01*
X274000Y278500D02*
Y283000D01*
Y278500D02*
X279500Y273000D01*
X138350Y169000D02*
Y169067D01*
X142350Y173067D01*
Y178000D01*
X136150Y171201D02*
X138350Y169000D01*
X136150Y171201D02*
Y178000D01*
X134637Y165287D02*
X138350Y169000D01*
X134637Y160000D02*
Y165287D01*
X139637Y140000D02*
Y144363D01*
X135077Y148923D02*
X139637Y144363D01*
X129637Y177787D02*
X129850Y178000D01*
X129637Y160000D02*
Y177787D01*
X144650Y168933D02*
Y169000D01*
X139637Y163921D02*
X144650Y168933D01*
X139637Y160000D02*
Y163921D01*
X148650Y164012D02*
Y178000D01*
X144637Y160000D02*
X148650Y164012D01*
X134637Y138137D02*
Y140000D01*
X125000Y128500D02*
X134637Y138137D01*
X122244Y128500D02*
X125000D01*
X139637Y135894D02*
Y140000D01*
X132244Y128500D02*
X139637Y135894D01*
X116240Y134503D02*
X122244Y128500D01*
X116240Y134503D02*
Y137776D01*
X108760D02*
X112244Y134292D01*
Y128500D02*
Y134292D01*
X195850Y152150D02*
Y161500D01*
Y152150D02*
X200500Y147500D01*
X209000D01*
X213500Y152000D01*
X218500Y157000D02*
X223500Y152000D01*
X212784Y157000D02*
X218500D01*
X208350Y161433D02*
X212784Y157000D01*
X208350Y161433D02*
Y161500D01*
X202150Y153350D02*
X203500Y152000D01*
X202150Y153350D02*
Y161500D01*
X208350D02*
Y163650D01*
X204279Y167720D02*
X208350Y163650D01*
X204279Y167720D02*
Y171346D01*
X201720D02*
X202150Y170917D01*
Y161500D02*
Y170917D01*
X190307Y171346D02*
X199161D01*
X185653Y176000D02*
X190307Y171346D01*
X185653Y176000D02*
X185653Y176000D01*
Y183000D01*
X192347Y176000D02*
X197500D01*
X206839Y185339D01*
Y189654D01*
X197650Y185000D02*
X202610D01*
X194346D02*
X197650D01*
X192150Y190500D02*
X197650Y185000D01*
X192347Y183000D02*
X194346Y185000D01*
X202610D02*
X204279Y186670D01*
Y189654D01*
X195653Y206000D02*
X199161Y202492D01*
Y189654D02*
Y202492D01*
X201720Y189654D02*
Y195878D01*
X211500Y205658D01*
X229000Y167847D02*
X233500D01*
X224153D02*
X229000D01*
X218165Y185500D02*
X220000D01*
X227500Y178000D01*
Y169346D02*
Y178000D01*
Y169346D02*
X229000Y167847D01*
X224000Y168000D02*
X224153Y167847D01*
X217319Y189654D02*
X218165Y190500D01*
X206839Y189654D02*
X217319D01*
X218165Y190500D02*
Y195500D01*
X211157Y206000D02*
X211500Y205658D01*
X202346Y206000D02*
X211157D01*
X289500Y178000D02*
Y181000D01*
X116250Y283900D02*
X122904D01*
X108250Y279250D02*
Y284900D01*
Y279250D02*
X112050Y275450D01*
Y267962D02*
Y275450D01*
X116250Y271500D02*
X122904D01*
X104500Y267250D02*
X108250Y271000D01*
X104500Y265388D02*
Y267250D01*
X104450Y265338D02*
X104500Y265388D01*
X104450Y252050D02*
Y265338D01*
Y252050D02*
X105500Y251000D01*
X109500D01*
D41*
X169500Y195000D02*
D03*
D42*
Y205000D02*
D03*
Y215000D02*
D03*
Y225000D02*
D03*
Y235000D02*
D03*
Y245000D02*
D03*
X134500Y195000D02*
D03*
Y205000D02*
D03*
Y215000D02*
D03*
Y225000D02*
D03*
Y235000D02*
D03*
Y245000D02*
D03*
D43*
X235024Y244000D02*
D03*
Y249000D02*
D03*
Y254000D02*
D03*
Y259000D02*
D03*
X212976Y244000D02*
D03*
Y249000D02*
D03*
Y254000D02*
D03*
Y259000D02*
D03*
D44*
X123153Y271500D02*
D03*
X129847D02*
D03*
X288154Y283000D02*
D03*
X294847D02*
D03*
X122904Y283900D02*
D03*
X129596D02*
D03*
X195653Y206000D02*
D03*
X202346D02*
D03*
X192347Y183000D02*
D03*
X185653D02*
D03*
X185653Y176000D02*
D03*
X192347D02*
D03*
X122346Y161500D02*
D03*
X115654D02*
D03*
X122346Y153000D02*
D03*
X115654D02*
D03*
X158846Y139000D02*
D03*
X152154D02*
D03*
D45*
X116000Y271500D02*
D03*
X108000D02*
D03*
X274000Y283000D02*
D03*
X282000D02*
D03*
X108250Y283900D02*
D03*
X116250D02*
D03*
D46*
X262000Y175650D02*
D03*
Y169350D02*
D03*
X253000Y175650D02*
D03*
Y169350D02*
D03*
D47*
X271000Y217846D02*
D03*
Y211154D02*
D03*
X233500Y161153D02*
D03*
Y167847D02*
D03*
X224000Y168000D02*
D03*
Y161307D02*
D03*
D48*
X148650Y178000D02*
D03*
X142350D02*
D03*
X129850D02*
D03*
X136150D02*
D03*
X144650Y169000D02*
D03*
X138350D02*
D03*
X202150Y161500D02*
D03*
X195850D02*
D03*
X208350D02*
D03*
X214650D02*
D03*
X185850Y190500D02*
D03*
X192150D02*
D03*
D49*
X112500Y147224D02*
D03*
X116240Y137776D02*
D03*
X108760D02*
D03*
D50*
X129637Y140000D02*
D03*
X134637D02*
D03*
X139637D02*
D03*
X144637D02*
D03*
X129637Y160000D02*
D03*
X134637D02*
D03*
X139637D02*
D03*
D51*
X144637D02*
D03*
D52*
X249224Y210157D02*
D03*
X254224D02*
D03*
X259224D02*
D03*
X264224D02*
D03*
Y229842D02*
D03*
X259224D02*
D03*
X254224D02*
D03*
X249224D02*
D03*
D53*
X256724Y220000D02*
D03*
D54*
X254260Y199520D02*
D03*
X258000D02*
D03*
X261740D02*
D03*
Y189480D02*
D03*
X258000D02*
D03*
X254260D02*
D03*
D55*
X251500Y242583D02*
D03*
Y265417D02*
D03*
D56*
X238835Y180500D02*
D03*
Y185500D02*
D03*
Y190500D02*
D03*
Y195500D02*
D03*
X218165Y180500D02*
D03*
Y185500D02*
D03*
Y190500D02*
D03*
Y195500D02*
D03*
D57*
X199161Y171346D02*
D03*
X201720D02*
D03*
X204279D02*
D03*
X206839D02*
D03*
X199161Y189654D02*
D03*
X201720D02*
D03*
X204279D02*
D03*
X206839D02*
D03*
D58*
X112500Y147224D02*
X115654Y150378D01*
Y153000D01*
X219000Y249000D02*
X227500Y257500D01*
X212976Y249000D02*
X219000D01*
X211819Y250157D02*
X212976Y249000D01*
X199000Y250157D02*
X211819D01*
X288500Y211000D02*
X289500D01*
X283450Y205950D02*
X288500Y211000D01*
X277450Y205950D02*
X283450D01*
X274000Y202500D02*
X277450Y205950D01*
X274000Y199500D02*
Y202500D01*
X267500Y193000D02*
X274000Y199500D01*
X257138Y193000D02*
X267500D01*
X254260Y190122D02*
X257138Y193000D01*
X261740Y189480D02*
X261760Y189500D01*
X271000D01*
X277450Y195950D01*
X284450D02*
X289500Y201000D01*
X261740Y189480D02*
X262000Y189220D01*
Y175650D02*
Y189220D01*
X269000Y135000D02*
Y177500D01*
X267500Y133500D02*
X269000Y135000D01*
X267500Y128500D02*
Y133500D01*
X269000Y177500D02*
X277450Y185950D01*
X284450D02*
X289500Y191000D01*
X277450Y185950D02*
X284450D01*
X128000Y218500D02*
Y218758D01*
X134242Y225000D01*
X134500D01*
X131000Y218500D02*
Y219000D01*
Y218500D02*
X134500Y215000D01*
X129000Y199500D02*
X134500Y205000D01*
X133500Y190000D02*
X134500Y191000D01*
Y195000D01*
X125500Y236000D02*
X134500Y245000D01*
X125500Y229500D02*
Y236000D01*
X119500Y223500D02*
X125500Y229500D01*
X119500Y221000D02*
Y223500D01*
X124500Y225000D02*
X134500Y235000D01*
X124500Y216000D02*
Y225000D01*
X119500Y211000D02*
X124500Y216000D01*
X104550Y198950D02*
Y214500D01*
Y198950D02*
X107450Y196050D01*
X104550Y214500D02*
X109500Y219450D01*
X125000Y195000D02*
Y202500D01*
X114500Y206000D02*
X121500D01*
X125000Y202500D01*
Y195000D02*
X135000Y185000D01*
X129850Y178000D02*
Y187650D01*
X121450Y196050D02*
X129850Y187650D01*
X141650Y185000D02*
X148650Y178000D01*
X135000Y185000D02*
X141650D01*
X109500Y211000D02*
X114500Y206000D01*
X107450Y196050D02*
X121450D01*
X109500Y219450D02*
Y221000D01*
X277450Y195950D02*
X284450D01*
X289500Y178000D02*
X294550Y172950D01*
Y168408D02*
Y172950D01*
X287500Y161358D02*
X294550Y168408D01*
X287500Y128500D02*
Y161358D01*
X277500Y158500D02*
X289500Y170500D01*
X277500Y128500D02*
Y158500D01*
D59*
X211819Y242843D02*
X212976Y244000D01*
X199000Y242843D02*
X211819D01*
X147794Y266706D02*
X168794D01*
X192657Y242843D01*
X199000D01*
X238835Y195500D02*
X239335Y195000D01*
X243000D01*
X244500Y190500D02*
Y193500D01*
X243000Y195000D02*
X244500Y193500D01*
Y167500D02*
Y190500D01*
X238154Y161153D02*
X244500Y167500D01*
X233500Y161153D02*
X238154D01*
X122346Y160653D02*
X131137Y151863D01*
X139637D01*
Y160000D01*
Y151863D02*
X154737D01*
X169500Y166625D01*
X110794Y266706D02*
X147794D01*
X169500Y138500D02*
Y166625D01*
Y195000D01*
X227500Y132500D02*
Y146000D01*
X251000Y135000D02*
X257500Y128500D01*
X230000Y135000D02*
X251000D01*
X227500Y132500D02*
X230000Y135000D01*
X227500Y128500D02*
Y132500D01*
X233500Y152000D02*
Y161153D01*
X227500Y146000D02*
X233500Y152000D01*
X217500Y128500D02*
X227500D01*
X228677Y205658D02*
X238835Y195500D01*
X211500Y205658D02*
X228677D01*
X169500Y235000D02*
Y245000D01*
Y225000D02*
Y235000D01*
Y215000D02*
Y225000D01*
Y205000D02*
Y215000D01*
Y195000D02*
Y205000D01*
X109500Y265411D02*
X110794Y266706D01*
X147794D02*
X169500Y245000D01*
X109500Y261000D02*
Y265411D01*
D60*
X219158Y274000D02*
X227740Y265417D01*
X251500D01*
Y237000D02*
Y242583D01*
X226000Y222000D02*
Y231000D01*
X235024Y240024D01*
Y244000D01*
Y249000D01*
Y254000D02*
X237524Y256500D01*
X255849D01*
X261424Y250924D01*
Y236924D02*
Y250924D01*
X266224Y248342D02*
X272000Y254118D01*
X259224Y234724D02*
X261424Y236924D01*
X259224Y229842D02*
Y234724D01*
X264224Y229842D02*
X266224Y231842D01*
Y248342D01*
X254224Y229842D02*
Y234276D01*
X251500Y237000D02*
X254224Y234276D01*
X236000Y222000D02*
X243843Y229842D01*
X249224D01*
X272000Y265500D02*
X279500Y273000D01*
X272000Y254118D02*
Y265500D01*
D61*
X287500Y128500D02*
D03*
X277500D02*
D03*
X267500D02*
D03*
X257500D02*
D03*
X247500D02*
D03*
X237500D02*
D03*
X227500D02*
D03*
X289500Y273000D02*
D03*
X226000Y222000D02*
D03*
X223500Y152000D02*
D03*
X213500D02*
D03*
X203500D02*
D03*
X132244Y128500D02*
D03*
X122244D02*
D03*
X112244D02*
D03*
D62*
X217500D02*
D03*
X279500Y273000D02*
D03*
X236000Y222000D02*
D03*
X233500Y152000D02*
D03*
X142244Y128500D02*
D03*
D63*
X211500Y205658D02*
D03*
X199000Y250157D02*
D03*
X199000Y242843D02*
D03*
D64*
X211500Y225342D02*
D03*
X219158Y274000D02*
D03*
X199000Y269843D02*
D03*
X199000Y223158D02*
D03*
D65*
X238843Y274000D02*
D03*
D66*
X289500Y170500D02*
D03*
Y181000D02*
D03*
Y191000D02*
D03*
Y201000D02*
D03*
Y211000D02*
D03*
Y221000D02*
D03*
Y231000D02*
D03*
Y241000D02*
D03*
Y251000D02*
D03*
Y261000D02*
D03*
X279500Y171000D02*
D03*
Y181000D02*
D03*
Y191000D02*
D03*
Y201000D02*
D03*
Y211000D02*
D03*
Y221000D02*
D03*
Y231000D02*
D03*
Y241000D02*
D03*
Y251000D02*
D03*
Y261000D02*
D03*
X119500Y171000D02*
D03*
Y181000D02*
D03*
Y191000D02*
D03*
Y201000D02*
D03*
Y211000D02*
D03*
Y221000D02*
D03*
Y231000D02*
D03*
Y241000D02*
D03*
Y251000D02*
D03*
Y261000D02*
D03*
X109500Y171000D02*
D03*
Y181000D02*
D03*
Y191000D02*
D03*
Y201000D02*
D03*
Y211000D02*
D03*
Y221000D02*
D03*
Y231000D02*
D03*
Y241000D02*
D03*
Y251000D02*
D03*
D67*
Y261000D02*
D03*
D68*
X261449Y220000D02*
D03*
X256724Y223209D02*
D03*
X252000Y220000D02*
D03*
X256724Y216791D02*
D03*
D69*
X134500Y277500D02*
D03*
X161500Y144000D02*
D03*
X181000Y190000D02*
D03*
X213000Y177508D02*
D03*
X134637Y165287D02*
D03*
X257500Y168500D02*
D03*
X227500Y257500D02*
D03*
X128000Y218500D02*
D03*
X133500Y190000D02*
D03*
X131000Y219000D02*
D03*
X129000Y199500D02*
D03*
X189500Y197500D02*
D03*
D70*
X169500Y138500D02*
D03*
M02*
