G04*
G04 #@! TF.GenerationSoftware,Altium Limited,Altium Designer,18.0.12 (696)*
G04*
G04 Layer_Color=128*
%FSLAX25Y25*%
%MOIN*%
G70*
G01*
G75*
%ADD74C,0.00200*%
D74*
X285728Y128500D02*
X289272D01*
X287500Y126728D02*
Y130272D01*
X275728Y128500D02*
X279272D01*
X277500Y126728D02*
Y130272D01*
X265728Y128500D02*
X269272D01*
X267500Y126728D02*
Y130272D01*
X255728Y128500D02*
X259272D01*
X257500Y126728D02*
Y130272D01*
X245728Y128500D02*
X249272D01*
X247500Y126728D02*
Y130272D01*
X235728Y128500D02*
X239272D01*
X237500Y126728D02*
Y130272D01*
X225728Y128500D02*
X229272D01*
X227500Y126728D02*
Y130272D01*
X215728Y128500D02*
X219272D01*
X217500Y126728D02*
Y130272D01*
X209925Y205658D02*
X213075D01*
X211500Y204083D02*
Y207232D01*
X209925Y225342D02*
X213075D01*
X211500Y223768D02*
Y226917D01*
X237268Y274000D02*
X240417D01*
X238843Y272425D02*
Y275575D01*
X217583Y274000D02*
X220732D01*
X219158Y272425D02*
Y275575D01*
X287500Y170500D02*
X291500D01*
X289500Y168500D02*
Y172500D01*
X287500Y181000D02*
X291500D01*
X289500Y179000D02*
Y183000D01*
X287500Y191000D02*
X291500D01*
X289500Y189000D02*
Y193000D01*
X287500Y201000D02*
X291500D01*
X289500Y199000D02*
Y203000D01*
X287500Y211000D02*
X291500D01*
X289500Y209000D02*
Y213000D01*
X287500Y221000D02*
X291500D01*
X289500Y219000D02*
Y223000D01*
X287500Y231000D02*
X291500D01*
X289500Y229000D02*
Y233000D01*
X287500Y241000D02*
X291500D01*
X289500Y239000D02*
Y243000D01*
X287500Y251000D02*
X291500D01*
X289500Y249000D02*
Y253000D01*
X287500Y261000D02*
X291500D01*
X289500Y259000D02*
Y263000D01*
X277500Y171000D02*
X281500D01*
X279500Y169000D02*
Y173000D01*
X277500Y181000D02*
X281500D01*
X279500Y179000D02*
Y183000D01*
X277500Y191000D02*
X281500D01*
X279500Y189000D02*
Y193000D01*
X277500Y201000D02*
X281500D01*
X279500Y199000D02*
Y203000D01*
X277500Y211000D02*
X281500D01*
X279500Y209000D02*
Y213000D01*
X277500Y221000D02*
X281500D01*
X279500Y219000D02*
Y223000D01*
X277500Y231000D02*
X281500D01*
X279500Y229000D02*
Y233000D01*
X277500Y241000D02*
X281500D01*
X279500Y239000D02*
Y243000D01*
X277500Y251000D02*
X281500D01*
X279500Y249000D02*
Y253000D01*
X277500Y261000D02*
X281500D01*
X279500Y259000D02*
Y263000D01*
X117500Y171000D02*
X121500D01*
X119500Y169000D02*
Y173000D01*
X117500Y181000D02*
X121500D01*
X119500Y179000D02*
Y183000D01*
X117500Y191000D02*
X121500D01*
X119500Y189000D02*
Y193000D01*
X117500Y201000D02*
X121500D01*
X119500Y199000D02*
Y203000D01*
X117500Y211000D02*
X121500D01*
X119500Y209000D02*
Y213000D01*
X117500Y221000D02*
X121500D01*
X119500Y219000D02*
Y223000D01*
X117500Y231000D02*
X121500D01*
X119500Y229000D02*
Y233000D01*
X117500Y241000D02*
X121500D01*
X119500Y239000D02*
Y243000D01*
X117500Y251000D02*
X121500D01*
X119500Y249000D02*
Y253000D01*
X117500Y261000D02*
X121500D01*
X119500Y259000D02*
Y263000D01*
X107500Y171000D02*
X111500D01*
X109500Y169000D02*
Y173000D01*
X107500Y181000D02*
X111500D01*
X109500Y179000D02*
Y183000D01*
X107500Y191000D02*
X111500D01*
X109500Y189000D02*
Y193000D01*
X107500Y201000D02*
X111500D01*
X109500Y199000D02*
Y203000D01*
X107500Y211000D02*
X111500D01*
X109500Y209000D02*
Y213000D01*
X107500Y221000D02*
X111500D01*
X109500Y219000D02*
Y223000D01*
X107500Y231000D02*
X111500D01*
X109500Y229000D02*
Y233000D01*
X107500Y241000D02*
X111500D01*
X109500Y239000D02*
Y243000D01*
X107500Y251000D02*
X111500D01*
X109500Y249000D02*
Y253000D01*
X107500Y261000D02*
X111500D01*
X109500Y259000D02*
Y263000D01*
X287728Y273000D02*
X291272D01*
X289500Y271228D02*
Y274772D01*
X277728Y273000D02*
X281272D01*
X279500Y271228D02*
Y274772D01*
X197425Y250157D02*
X200575D01*
X199000Y248583D02*
Y251732D01*
X197425Y269843D02*
X200575D01*
X199000Y268268D02*
Y271417D01*
X197425Y242843D02*
X200575D01*
X199000Y241268D02*
Y244417D01*
X197425Y223158D02*
X200575D01*
X199000Y221583D02*
Y224732D01*
X224228Y222000D02*
X227772D01*
X226000Y220228D02*
Y223772D01*
X234228Y222000D02*
X237772D01*
X236000Y220228D02*
Y223772D01*
X231728Y152000D02*
X235272D01*
X233500Y150228D02*
Y153772D01*
X221728Y152000D02*
X225272D01*
X223500Y150228D02*
Y153772D01*
X211728Y152000D02*
X215272D01*
X213500Y150228D02*
Y153772D01*
X201728Y152000D02*
X205272D01*
X203500Y150228D02*
Y153772D01*
X140472Y128500D02*
X144015D01*
X142244Y126728D02*
Y130272D01*
X130472Y128500D02*
X134015D01*
X132244Y126728D02*
Y130272D01*
X120472Y128500D02*
X124015D01*
X122244Y126728D02*
Y130272D01*
X110472Y128500D02*
X114015D01*
X112244Y126728D02*
Y130272D01*
X261049Y220000D02*
X261849D01*
X261449Y219600D02*
Y220400D01*
X256324Y223209D02*
X257124D01*
X256724Y222809D02*
Y223609D01*
X251600Y220000D02*
X252400D01*
X252000Y219600D02*
Y220400D01*
X256324Y216791D02*
X257124D01*
X256724Y216391D02*
Y217191D01*
X134100Y277500D02*
X134900D01*
X134500Y277100D02*
Y277900D01*
X168100Y138500D02*
X170900D01*
X169500Y137100D02*
Y139900D01*
X161100Y144000D02*
X161900D01*
X161500Y143600D02*
Y144400D01*
X180600Y190000D02*
X181400D01*
X181000Y189600D02*
Y190400D01*
X212600Y177508D02*
X213400D01*
X213000Y177108D02*
Y177908D01*
X134237Y165287D02*
X135037D01*
X134637Y164887D02*
Y165687D01*
X257100Y168500D02*
X257900D01*
X257500Y168100D02*
Y168900D01*
X227100Y257500D02*
X227900D01*
X227500Y257100D02*
Y257900D01*
X127600Y218500D02*
X128400D01*
X128000Y218100D02*
Y218900D01*
X133100Y190000D02*
X133900D01*
X133500Y189600D02*
Y190400D01*
X130600Y219000D02*
X131400D01*
X131000Y218600D02*
Y219400D01*
X128600Y199500D02*
X129400D01*
X129000Y199100D02*
Y199900D01*
X189100Y197500D02*
X189900D01*
X189500Y197100D02*
Y197900D01*
M02*
