G04*
G04 #@! TF.GenerationSoftware,Altium Limited,Altium Designer,18.0.12 (696)*
G04*
G04 Layer_Color=2752767*
%FSLAX25Y25*%
%MOIN*%
G70*
G01*
G75*
%ADD10C,0.01000*%
%ADD74C,0.00200*%
%ADD75C,0.00267*%
D10*
X103500Y293500D02*
X297500D01*
X103500Y106500D02*
Y293500D01*
Y106500D02*
X297500D01*
Y293500D01*
D74*
X286700Y127700D02*
Y129300D01*
X288300D01*
Y127700D01*
X286700D01*
X276700D02*
Y129300D01*
X278300D01*
Y127700D01*
X276700D01*
X266700D02*
Y129300D01*
X268300D01*
Y127700D01*
X266700D01*
X256700D02*
Y129300D01*
X258300D01*
Y127700D01*
X256700D01*
X246700D02*
Y129300D01*
X248300D01*
Y127700D01*
X246700D01*
X236700D02*
Y129300D01*
X238300D01*
Y127700D01*
X236700D01*
X226700D02*
Y129300D01*
X228300D01*
Y127700D01*
X226700D01*
X216700D02*
Y129300D01*
X218300D01*
Y127700D01*
X216700D01*
X289500Y169700D02*
X288700Y171300D01*
X290300D01*
X289500Y169700D01*
Y180200D02*
X288700Y181800D01*
X290300D01*
X289500Y180200D01*
Y190200D02*
X288700Y191800D01*
X290300D01*
X289500Y190200D01*
Y200200D02*
X288700Y201800D01*
X290300D01*
X289500Y200200D01*
Y210200D02*
X288700Y211800D01*
X290300D01*
X289500Y210200D01*
Y220200D02*
X288700Y221800D01*
X290300D01*
X289500Y220200D01*
Y230200D02*
X288700Y231800D01*
X290300D01*
X289500Y230200D01*
Y240200D02*
X288700Y241800D01*
X290300D01*
X289500Y240200D01*
Y250200D02*
X288700Y251800D01*
X290300D01*
X289500Y250200D01*
Y260200D02*
X288700Y261800D01*
X290300D01*
X289500Y260200D01*
X279500Y170200D02*
X278700Y171800D01*
X280300D01*
X279500Y170200D01*
Y180200D02*
X278700Y181800D01*
X280300D01*
X279500Y180200D01*
Y190200D02*
X278700Y191800D01*
X280300D01*
X279500Y190200D01*
Y200200D02*
X278700Y201800D01*
X280300D01*
X279500Y200200D01*
Y210200D02*
X278700Y211800D01*
X280300D01*
X279500Y210200D01*
Y220200D02*
X278700Y221800D01*
X280300D01*
X279500Y220200D01*
Y230200D02*
X278700Y231800D01*
X280300D01*
X279500Y230200D01*
Y240200D02*
X278700Y241800D01*
X280300D01*
X279500Y240200D01*
Y250200D02*
X278700Y251800D01*
X280300D01*
X279500Y250200D01*
Y260200D02*
X278700Y261800D01*
X280300D01*
X279500Y260200D01*
X119500Y170200D02*
X118700Y171800D01*
X120300D01*
X119500Y170200D01*
Y180200D02*
X118700Y181800D01*
X120300D01*
X119500Y180200D01*
Y190200D02*
X118700Y191800D01*
X120300D01*
X119500Y190200D01*
Y200200D02*
X118700Y201800D01*
X120300D01*
X119500Y200200D01*
Y210200D02*
X118700Y211800D01*
X120300D01*
X119500Y210200D01*
Y220200D02*
X118700Y221800D01*
X120300D01*
X119500Y220200D01*
Y230200D02*
X118700Y231800D01*
X120300D01*
X119500Y230200D01*
Y240200D02*
X118700Y241800D01*
X120300D01*
X119500Y240200D01*
Y250200D02*
X118700Y251800D01*
X120300D01*
X119500Y250200D01*
Y260200D02*
X118700Y261800D01*
X120300D01*
X119500Y260200D01*
X109500Y170200D02*
X108700Y171800D01*
X110300D01*
X109500Y170200D01*
Y180200D02*
X108700Y181800D01*
X110300D01*
X109500Y180200D01*
Y190200D02*
X108700Y191800D01*
X110300D01*
X109500Y190200D01*
Y200200D02*
X108700Y201800D01*
X110300D01*
X109500Y200200D01*
Y210200D02*
X108700Y211800D01*
X110300D01*
X109500Y210200D01*
Y220200D02*
X108700Y221800D01*
X110300D01*
X109500Y220200D01*
Y230200D02*
X108700Y231800D01*
X110300D01*
X109500Y230200D01*
Y240200D02*
X108700Y241800D01*
X110300D01*
X109500Y240200D01*
Y250200D02*
X108700Y251800D01*
X110300D01*
X109500Y250200D01*
Y260200D02*
X108700Y261800D01*
X110300D01*
X109500Y260200D01*
X288700Y272200D02*
Y273800D01*
X290300D01*
Y272200D01*
X288700D01*
X278700D02*
Y273800D01*
X280300D01*
Y272200D01*
X278700D01*
X225200Y221200D02*
Y222800D01*
X226800D01*
Y221200D01*
X225200D01*
X235200D02*
Y222800D01*
X236800D01*
Y221200D01*
X235200D01*
X232700Y151200D02*
Y152800D01*
X234300D01*
Y151200D01*
X232700D01*
X222700D02*
Y152800D01*
X224300D01*
Y151200D01*
X222700D01*
X212700D02*
Y152800D01*
X214300D01*
Y151200D01*
X212700D01*
X202700D02*
Y152800D01*
X204300D01*
Y151200D01*
X202700D01*
X141444Y127700D02*
Y129300D01*
X143044D01*
Y127700D01*
X141444D01*
X131444D02*
Y129300D01*
X133044D01*
Y127700D01*
X131444D01*
X121444D02*
Y129300D01*
X123044D01*
Y127700D01*
X121444D01*
X111444D02*
Y129300D01*
X113044D01*
Y127700D01*
X111444D01*
X261449Y219200D02*
X261849Y219600D01*
X262249D01*
X261849Y220000D01*
X262249Y220400D01*
X261849D01*
X261449Y220800D01*
X261049Y220400D01*
X260649D01*
X261049Y220000D01*
X260649Y219600D01*
X261049D01*
X261449Y219200D01*
X256724Y222409D02*
X257124Y222809D01*
X257524D01*
X257124Y223209D01*
X257524Y223609D01*
X257124D01*
X256724Y224009D01*
X256324Y223609D01*
X255924D01*
X256324Y223209D01*
X255924Y222809D01*
X256324D01*
X256724Y222409D01*
X252000Y219200D02*
X252400Y219600D01*
X252800D01*
X252400Y220000D01*
X252800Y220400D01*
X252400D01*
X252000Y220800D01*
X251600Y220400D01*
X251200D01*
X251600Y220000D01*
X251200Y219600D01*
X251600D01*
X252000Y219200D01*
X256724Y215991D02*
X257124Y216391D01*
X257524D01*
X257124Y216791D01*
X257524Y217191D01*
X257124D01*
X256724Y217591D01*
X256324Y217191D01*
X255924D01*
X256324Y216791D01*
X255924Y216391D01*
X256324D01*
X256724Y215991D01*
X134500Y276700D02*
X134900Y277100D01*
X135300D01*
X134900Y277500D01*
X135300Y277900D01*
X134900D01*
X134500Y278300D01*
X134100Y277900D01*
X133700D01*
X134100Y277500D01*
X133700Y277100D01*
X134100D01*
X134500Y276700D01*
X168700Y137700D02*
X169100Y138500D01*
X168700Y139300D01*
X169500Y138900D01*
X170300Y139300D01*
X169900Y138500D01*
X170300Y137700D01*
X169500Y138100D01*
X168700Y137700D01*
X161500Y143200D02*
X161900Y143600D01*
X162300D01*
X161900Y144000D01*
X162300Y144400D01*
X161900D01*
X161500Y144800D01*
X161100Y144400D01*
X160700D01*
X161100Y144000D01*
X160700Y143600D01*
X161100D01*
X161500Y143200D01*
X181000Y189200D02*
X181400Y189600D01*
X181800D01*
X181400Y190000D01*
X181800Y190400D01*
X181400D01*
X181000Y190800D01*
X180600Y190400D01*
X180200D01*
X180600Y190000D01*
X180200Y189600D01*
X180600D01*
X181000Y189200D01*
X213000Y176708D02*
X213400Y177108D01*
X213800D01*
X213400Y177508D01*
X213800Y177908D01*
X213400D01*
X213000Y178308D01*
X212600Y177908D01*
X212200D01*
X212600Y177508D01*
X212200Y177108D01*
X212600D01*
X213000Y176708D01*
X134637Y164487D02*
X135037Y164887D01*
X135437D01*
X135037Y165287D01*
X135437Y165687D01*
X135037D01*
X134637Y166087D01*
X134237Y165687D01*
X133837D01*
X134237Y165287D01*
X133837Y164887D01*
X134237D01*
X134637Y164487D01*
X257500Y167700D02*
X257900Y168100D01*
X258300D01*
X257900Y168500D01*
X258300Y168900D01*
X257900D01*
X257500Y169300D01*
X257100Y168900D01*
X256700D01*
X257100Y168500D01*
X256700Y168100D01*
X257100D01*
X257500Y167700D01*
X227500Y256700D02*
X227900Y257100D01*
X228300D01*
X227900Y257500D01*
X228300Y257900D01*
X227900D01*
X227500Y258300D01*
X227100Y257900D01*
X226700D01*
X227100Y257500D01*
X226700Y257100D01*
X227100D01*
X227500Y256700D01*
X128000Y217700D02*
X128400Y218100D01*
X128800D01*
X128400Y218500D01*
X128800Y218900D01*
X128400D01*
X128000Y219300D01*
X127600Y218900D01*
X127200D01*
X127600Y218500D01*
X127200Y218100D01*
X127600D01*
X128000Y217700D01*
X133500Y189200D02*
X133900Y189600D01*
X134300D01*
X133900Y190000D01*
X134300Y190400D01*
X133900D01*
X133500Y190800D01*
X133100Y190400D01*
X132700D01*
X133100Y190000D01*
X132700Y189600D01*
X133100D01*
X133500Y189200D01*
X131000Y218200D02*
X131400Y218600D01*
X131800D01*
X131400Y219000D01*
X131800Y219400D01*
X131400D01*
X131000Y219800D01*
X130600Y219400D01*
X130200D01*
X130600Y219000D01*
X130200Y218600D01*
X130600D01*
X131000Y218200D01*
X129000Y198700D02*
X129400Y199100D01*
X129800D01*
X129400Y199500D01*
X129800Y199900D01*
X129400D01*
X129000Y200300D01*
X128600Y199900D01*
X128200D01*
X128600Y199500D01*
X128200Y199100D01*
X128600D01*
X129000Y198700D01*
X189500Y196700D02*
X189900Y197100D01*
X190300D01*
X189900Y197500D01*
X190300Y197900D01*
X189900D01*
X189500Y198300D01*
X189100Y197900D01*
X188700D01*
X189100Y197500D01*
X188700Y197100D01*
X189100D01*
X189500Y196700D01*
D75*
X212300Y205658D02*
G03*
X212300Y205658I-800J0D01*
G01*
X212300Y225342D02*
G03*
X212300Y225342I-800J0D01*
G01*
X239643Y274000D02*
G03*
X239643Y274000I-800J0D01*
G01*
X219957Y274000D02*
G03*
X219957Y274000I-800J0D01*
G01*
X199800Y250157D02*
G03*
X199800Y250157I-800J0D01*
G01*
X199800Y269843D02*
G03*
X199800Y269843I-800J0D01*
G01*
Y242843D02*
G03*
X199800Y242843I-800J0D01*
G01*
X199800Y223158D02*
G03*
X199800Y223158I-800J0D01*
G01*
M02*
