G04*
G04 #@! TF.GenerationSoftware,Altium Limited,Altium Designer,18.0.12 (696)*
G04*
G04 Layer_Color=2752767*
%FSLAX25Y25*%
%MOIN*%
G70*
G01*
G75*
%ADD12C,0.01000*%
%ADD54C,0.00200*%
%ADD59C,0.00267*%
D12*
X146000Y118400D02*
Y361400D01*
Y118400D02*
X146600Y117800D01*
X305600D01*
X306900Y119100D01*
Y360800D01*
X305800Y361900D02*
X306900Y360800D01*
X146500Y361900D02*
X305800D01*
D54*
X300356Y343714D02*
Y345314D01*
X301956D01*
Y343714D01*
X300356D01*
Y333714D02*
Y335314D01*
X301956D01*
Y333714D01*
X300356D01*
Y323714D02*
Y325314D01*
X301956D01*
Y323714D01*
X300356D01*
Y313714D02*
Y315314D01*
X301956D01*
Y313714D01*
X300356D01*
Y303714D02*
Y305314D01*
X301956D01*
Y303714D01*
X300356D01*
Y293714D02*
Y295314D01*
X301956D01*
Y293714D01*
X300356D01*
Y283714D02*
Y285314D01*
X301956D01*
Y283714D01*
X300356D01*
Y273714D02*
Y275314D01*
X301956D01*
Y273714D01*
X300356D01*
Y263714D02*
Y265314D01*
X301956D01*
Y263714D01*
X300356D01*
Y253714D02*
Y255314D01*
X301956D01*
Y253714D01*
X300356D01*
Y243714D02*
Y245314D01*
X301956D01*
Y243714D01*
X300356D01*
Y233714D02*
Y235314D01*
X301956D01*
Y233714D01*
X300356D01*
Y223714D02*
Y225314D01*
X301956D01*
Y223714D01*
X300356D01*
Y213714D02*
Y215314D01*
X301956D01*
Y213714D01*
X300356D01*
Y203714D02*
Y205314D01*
X301956D01*
Y203714D01*
X300356D01*
Y193714D02*
Y195314D01*
X301956D01*
Y193714D01*
X300356D01*
Y183714D02*
Y185314D01*
X301956D01*
Y183714D01*
X300356D01*
Y173714D02*
Y175314D01*
X301956D01*
Y173714D01*
X300356D01*
Y163714D02*
Y165314D01*
X301956D01*
Y163714D01*
X300356D01*
Y153714D02*
Y155314D01*
X301956D01*
Y153714D01*
X300356D01*
Y143714D02*
Y145314D01*
X301956D01*
Y143714D01*
X300356D01*
Y133714D02*
Y135314D01*
X301956D01*
Y133714D01*
X300356D01*
Y123714D02*
Y125314D01*
X301956D01*
Y123714D01*
X300356D01*
Y353714D02*
Y355314D01*
X301956D01*
Y353714D01*
X300356D01*
X150700Y343200D02*
Y344800D01*
X152300D01*
Y343200D01*
X150700D01*
Y333200D02*
Y334800D01*
X152300D01*
Y333200D01*
X150700D01*
Y323200D02*
Y324800D01*
X152300D01*
Y323200D01*
X150700D01*
Y313200D02*
Y314800D01*
X152300D01*
Y313200D01*
X150700D01*
Y303200D02*
Y304800D01*
X152300D01*
Y303200D01*
X150700D01*
Y293200D02*
Y294800D01*
X152300D01*
Y293200D01*
X150700D01*
Y283200D02*
Y284800D01*
X152300D01*
Y283200D01*
X150700D01*
Y273200D02*
Y274800D01*
X152300D01*
Y273200D01*
X150700D01*
Y263200D02*
Y264800D01*
X152300D01*
Y263200D01*
X150700D01*
Y253200D02*
Y254800D01*
X152300D01*
Y253200D01*
X150700D01*
Y243200D02*
Y244800D01*
X152300D01*
Y243200D01*
X150700D01*
Y233200D02*
Y234800D01*
X152300D01*
Y233200D01*
X150700D01*
Y223200D02*
Y224800D01*
X152300D01*
Y223200D01*
X150700D01*
Y213200D02*
Y214800D01*
X152300D01*
Y213200D01*
X150700D01*
Y203200D02*
Y204800D01*
X152300D01*
Y203200D01*
X150700D01*
Y193200D02*
Y194800D01*
X152300D01*
Y193200D01*
X150700D01*
Y183200D02*
Y184800D01*
X152300D01*
Y183200D01*
X150700D01*
Y173200D02*
Y174800D01*
X152300D01*
Y173200D01*
X150700D01*
Y163200D02*
Y164800D01*
X152300D01*
Y163200D01*
X150700D01*
Y153200D02*
Y154800D01*
X152300D01*
Y153200D01*
X150700D01*
Y143200D02*
Y144800D01*
X152300D01*
Y143200D01*
X150700D01*
Y133200D02*
Y134800D01*
X152300D01*
Y133200D01*
X150700D01*
Y123200D02*
Y124800D01*
X152300D01*
Y123200D01*
X150700D01*
Y353200D02*
Y354800D01*
X152300D01*
Y353200D01*
X150700D01*
X243306Y279546D02*
Y281147D01*
X244906D01*
Y279546D01*
X243306D01*
Y269547D02*
Y271146D01*
X244906D01*
Y269547D01*
X243306D01*
X233306Y279546D02*
Y281147D01*
X234906D01*
Y279546D01*
X233306D01*
Y269547D02*
Y271146D01*
X234906D01*
Y269547D01*
X233306D01*
X223306Y279546D02*
Y281147D01*
X224906D01*
Y279546D01*
X223306D01*
Y269547D02*
Y271146D01*
X224906D01*
Y269547D01*
X223306D01*
X213306Y279546D02*
Y281147D01*
X214906D01*
Y279546D01*
X213306D01*
Y269547D02*
Y271146D01*
X214906D01*
Y269547D01*
X213306D01*
X203306Y279546D02*
Y281147D01*
X204906D01*
Y279546D01*
X203306D01*
Y269547D02*
Y271146D01*
X204906D01*
Y269547D01*
X203306D01*
X256053Y138968D02*
X255254Y140568D01*
X256854D01*
X256053Y138968D01*
Y121251D02*
X255254Y122851D01*
X256854D01*
X256053Y121251D01*
X281644D02*
X280844Y122851D01*
X282444D01*
X281644Y121251D01*
Y138968D02*
X280844Y140568D01*
X282444D01*
X281644Y138968D01*
X237317Y150702D02*
X237717Y151102D01*
X238117D01*
X237717Y151502D01*
X238117Y151902D01*
X237717D01*
X237317Y152302D01*
X236917Y151902D01*
X236517D01*
X236917Y151502D01*
X236517Y151102D01*
X236917D01*
X237317Y150702D01*
X232380D02*
X232780Y151102D01*
X233180D01*
X232780Y151502D01*
X233180Y151902D01*
X232780D01*
X232380Y152302D01*
X231980Y151902D01*
X231580D01*
X231980Y151502D01*
X231580Y151102D01*
X231980D01*
X232380Y150702D01*
X195200Y165200D02*
X195600Y166000D01*
X195200Y166800D01*
X196000Y166400D01*
X196800Y166800D01*
X196400Y166000D01*
X196800Y165200D01*
X196000Y165600D01*
X195200Y165200D01*
X235200Y180200D02*
X235600Y181000D01*
X235200Y181800D01*
X236000Y181400D01*
X236800Y181800D01*
X236400Y181000D01*
X236800Y180200D01*
X236000Y180600D01*
X235200Y180200D01*
X238700Y219700D02*
X239100Y220500D01*
X238700Y221300D01*
X239500Y220900D01*
X240300Y221300D01*
X239900Y220500D01*
X240300Y219700D01*
X239500Y220100D01*
X238700Y219700D01*
X223700Y191700D02*
X224100Y192500D01*
X223700Y193300D01*
X224500Y192900D01*
X225300Y193300D01*
X224900Y192500D01*
X225300Y191700D01*
X224500Y192100D01*
X223700Y191700D01*
X243700Y256700D02*
X244100Y257500D01*
X243700Y258300D01*
X244500Y257900D01*
X245300Y258300D01*
X244900Y257500D01*
X245300Y256700D01*
X244500Y257100D01*
X243700Y256700D01*
X246700Y260200D02*
X247100Y261000D01*
X246700Y261800D01*
X247500Y261400D01*
X248300Y261800D01*
X247900Y261000D01*
X248300Y260200D01*
X247500Y260600D01*
X246700Y260200D01*
X254356Y324356D02*
X254756Y325156D01*
X254356Y325956D01*
X255156Y325556D01*
X255956Y325956D01*
X255556Y325156D01*
X255956Y324356D01*
X255156Y324756D01*
X254356Y324356D01*
X256915Y325985D02*
X257315Y326785D01*
X256915Y327585D01*
X257715Y327185D01*
X258515Y327585D01*
X258115Y326785D01*
X258515Y325985D01*
X257715Y326385D01*
X256915Y325985D01*
X193700Y218200D02*
X194100Y219000D01*
X193700Y219800D01*
X194500Y219400D01*
X195300Y219800D01*
X194900Y219000D01*
X195300Y218200D01*
X194500Y218600D01*
X193700Y218200D01*
X247200Y297700D02*
X247600Y298500D01*
X247200Y299300D01*
X248000Y298900D01*
X248800Y299300D01*
X248400Y298500D01*
X248800Y297700D01*
X248000Y298100D01*
X247200Y297700D01*
X201200Y298200D02*
X201600Y299000D01*
X201200Y299800D01*
X202000Y299400D01*
X202800Y299800D01*
X202400Y299000D01*
X202800Y298200D01*
X202000Y298600D01*
X201200Y298200D01*
X197691Y146200D02*
X198091Y147000D01*
X197691Y147800D01*
X198491Y147400D01*
X199291Y147800D01*
X198891Y147000D01*
X199291Y146200D01*
X198491Y146600D01*
X197691Y146200D01*
X174164D02*
X174564Y147000D01*
X174164Y147800D01*
X174964Y147400D01*
X175764Y147800D01*
X175364Y147000D01*
X175764Y146200D01*
X174964Y146600D01*
X174164Y146200D01*
X186700Y145700D02*
X187100Y146500D01*
X186700Y147300D01*
X187500Y146900D01*
X188300Y147300D01*
X187900Y146500D01*
X188300Y145700D01*
X187500Y146100D01*
X186700Y145700D01*
X229700Y195700D02*
X230100Y196500D01*
X229700Y197300D01*
X230500Y196900D01*
X231300Y197300D01*
X230900Y196500D01*
X231300Y195700D01*
X230500Y196100D01*
X229700Y195700D01*
X202700Y207200D02*
X203100Y208000D01*
X202700Y208800D01*
X203500Y208400D01*
X204300Y208800D01*
X203900Y208000D01*
X204300Y207200D01*
X203500Y207600D01*
X202700Y207200D01*
X212700Y218700D02*
X213100Y219500D01*
X212700Y220300D01*
X213500Y219900D01*
X214300Y220300D01*
X213900Y219500D01*
X214300Y218700D01*
X213500Y219100D01*
X212700Y218700D01*
X206200Y230700D02*
X206600Y231500D01*
X206200Y232300D01*
X207000Y231900D01*
X207800Y232300D01*
X207400Y231500D01*
X207800Y230700D01*
X207000Y231100D01*
X206200Y230700D01*
X198700Y203200D02*
X199100Y204000D01*
X198700Y204800D01*
X199500Y204400D01*
X200300Y204800D01*
X199900Y204000D01*
X200300Y203200D01*
X199500Y203600D01*
X198700Y203200D01*
X195700D02*
X196100Y204000D01*
X195700Y204800D01*
X196500Y204400D01*
X197300Y204800D01*
X196900Y204000D01*
X197300Y203200D01*
X196500Y203600D01*
X195700Y203200D01*
X198541Y180541D02*
X198941Y181341D01*
X198541Y182141D01*
X199341Y181741D01*
X200141Y182141D01*
X199741Y181341D01*
X200141Y180541D01*
X199341Y180941D01*
X198541Y180541D01*
X200700Y178200D02*
X201100Y179000D01*
X200700Y179800D01*
X201500Y179400D01*
X202300Y179800D01*
X201900Y179000D01*
X202300Y178200D01*
X201500Y178600D01*
X200700Y178200D01*
X232200Y198200D02*
X232600Y199000D01*
X232200Y199800D01*
X233000Y199400D01*
X233800Y199800D01*
X233400Y199000D01*
X233800Y198200D01*
X233000Y198600D01*
X232200Y198200D01*
X234700Y200700D02*
X235100Y201500D01*
X234700Y202300D01*
X235500Y201900D01*
X236300Y202300D01*
X235900Y201500D01*
X236300Y200700D01*
X235500Y201100D01*
X234700Y200700D01*
X246200Y338200D02*
X246600Y339000D01*
X246200Y339800D01*
X247000Y339400D01*
X247800Y339800D01*
X247400Y339000D01*
X247800Y338200D01*
X247000Y338600D01*
X246200Y338200D01*
X187700D02*
X188100Y339000D01*
X187700Y339800D01*
X188500Y339400D01*
X189300Y339800D01*
X188900Y339000D01*
X189300Y338200D01*
X188500Y338600D01*
X187700Y338200D01*
X195549Y331351D02*
X195949Y332151D01*
X195549Y332951D01*
X196349Y332551D01*
X197149Y332951D01*
X196749Y332151D01*
X197149Y331351D01*
X196349Y331751D01*
X195549Y331351D01*
X198200Y333200D02*
X198600Y334000D01*
X198200Y334800D01*
X199000Y334400D01*
X199800Y334800D01*
X199400Y334000D01*
X199800Y333200D01*
X199000Y333600D01*
X198200Y333200D01*
X254356Y333856D02*
X254756Y334656D01*
X254356Y335456D01*
X255156Y335056D01*
X255956Y335456D01*
X255556Y334656D01*
X255956Y333856D01*
X255156Y334256D01*
X254356Y333856D01*
X256915Y335485D02*
X257315Y336285D01*
X256915Y337085D01*
X257715Y336685D01*
X258515Y337085D01*
X258115Y336285D01*
X258515Y335485D01*
X257715Y335885D01*
X256915Y335485D01*
X224100Y338100D02*
Y337700D01*
X224900D01*
Y338100D01*
X225300D01*
Y338900D01*
X224900D01*
Y339300D01*
X224100D01*
Y338900D01*
X223700D01*
Y338100D01*
X224100D01*
X202700Y161200D02*
X203100Y162000D01*
X202700Y162800D01*
X203500Y162400D01*
X204300Y162800D01*
X203900Y162000D01*
X204300Y161200D01*
X203500Y161600D01*
X202700Y161200D01*
X283856Y194714D02*
X284256Y195514D01*
X283856Y196314D01*
X284656Y195914D01*
X285456Y196314D01*
X285056Y195514D01*
X285456Y194714D01*
X284656Y195114D01*
X283856Y194714D01*
X255356Y199214D02*
X255756Y200014D01*
X255356Y200814D01*
X256156Y200414D01*
X256956Y200814D01*
X256556Y200014D01*
X256956Y199214D01*
X256156Y199614D01*
X255356Y199214D01*
X255856Y204714D02*
X256256Y205514D01*
X255856Y206314D01*
X256656Y205914D01*
X257456Y206314D01*
X257056Y205514D01*
X257456Y204714D01*
X256656Y205114D01*
X255856Y204714D01*
Y207714D02*
X256256Y208514D01*
X255856Y209314D01*
X256656Y208914D01*
X257456Y209314D01*
X257056Y208514D01*
X257456Y207714D01*
X256656Y208114D01*
X255856Y207714D01*
Y210714D02*
X256256Y211514D01*
X255856Y212314D01*
X256656Y211914D01*
X257456Y212314D01*
X257056Y211514D01*
X257456Y210714D01*
X256656Y211114D01*
X255856Y210714D01*
Y213714D02*
X256256Y214514D01*
X255856Y215314D01*
X256656Y214914D01*
X257456Y215314D01*
X257056Y214514D01*
X257456Y213714D01*
X256656Y214114D01*
X255856Y213714D01*
D59*
X215956Y312272D02*
G03*
X215956Y312272I-800J0D01*
G01*
X225956D02*
G03*
X225956Y312272I-800J0D01*
G01*
X235956D02*
G03*
X235956Y312272I-800J0D01*
G01*
M02*
