G04*
G04 #@! TF.GenerationSoftware,Altium Limited,Altium Designer,18.0.12 (696)*
G04*
G04 Layer_Physical_Order=2*
G04 Layer_Color=16711680*
%FSLAX25Y25*%
%MOIN*%
G70*
G01*
G75*
%ADD12C,0.01000*%
%ADD45C,0.03000*%
%ADD46C,0.05906*%
%ADD47R,0.05906X0.05906*%
%ADD48R,0.05906X0.05906*%
%ADD49C,0.06000*%
%ADD50C,0.03937*%
%ADD51R,0.03937X0.03937*%
%ADD52C,0.01500*%
%ADD53C,0.05000*%
G36*
X306000Y118000D02*
X282977D01*
X282877Y118500D01*
X283537Y118773D01*
X284321Y119375D01*
X284922Y120159D01*
X285300Y121072D01*
X285429Y122051D01*
X285300Y123031D01*
X284922Y123944D01*
X284321Y124728D01*
X283537Y125329D01*
X282624Y125707D01*
X281644Y125836D01*
X280664Y125707D01*
X279751Y125329D01*
X278968Y124728D01*
X278366Y123944D01*
X277988Y123031D01*
X277859Y122051D01*
X277988Y121072D01*
X278366Y120159D01*
X278968Y119375D01*
X279751Y118773D01*
X280411Y118500D01*
X280311Y118000D01*
X257386D01*
X257287Y118500D01*
X257946Y118773D01*
X258730Y119375D01*
X259332Y120159D01*
X259710Y121072D01*
X259839Y122051D01*
X259710Y123031D01*
X259332Y123944D01*
X258730Y124728D01*
X257946Y125329D01*
X257033Y125707D01*
X256053Y125836D01*
X255074Y125707D01*
X254161Y125329D01*
X253377Y124728D01*
X252776Y123944D01*
X252397Y123031D01*
X252268Y122051D01*
X252397Y121072D01*
X252776Y120159D01*
X253377Y119375D01*
X254161Y118773D01*
X254820Y118500D01*
X254721Y118000D01*
X146500D01*
Y148972D01*
X146962Y149164D01*
X148909Y147216D01*
X148877Y146717D01*
X148823Y146677D01*
X148222Y145893D01*
X147844Y144980D01*
X147715Y144000D01*
X147844Y143020D01*
X148222Y142107D01*
X148823Y141323D01*
X149607Y140722D01*
X150520Y140344D01*
X151500Y140215D01*
X152480Y140344D01*
X153393Y140722D01*
X154176Y141323D01*
X154778Y142107D01*
X155156Y143020D01*
X155285Y144000D01*
X155156Y144980D01*
X154778Y145893D01*
X154176Y146677D01*
X153393Y147278D01*
X152480Y147656D01*
X152179Y147696D01*
X149755Y150120D01*
X150038Y150544D01*
X150520Y150344D01*
X151500Y150215D01*
X152480Y150344D01*
X153393Y150722D01*
X154176Y151323D01*
X154778Y152107D01*
X155156Y153020D01*
X155285Y154000D01*
X155156Y154980D01*
X154921Y155547D01*
X160049Y160675D01*
X186057D01*
X186264Y160175D01*
X174597Y148507D01*
X174359Y148460D01*
X173846Y148117D01*
X173504Y147605D01*
X173383Y147000D01*
X173504Y146395D01*
X173846Y145882D01*
X174359Y145540D01*
X174964Y145420D01*
X175568Y145540D01*
X176081Y145882D01*
X176424Y146395D01*
X176471Y146633D01*
X188013Y158175D01*
X196647D01*
X196838Y157713D01*
X187133Y148007D01*
X186895Y147960D01*
X186382Y147617D01*
X186040Y147105D01*
X185920Y146500D01*
X186040Y145895D01*
X186382Y145382D01*
X186895Y145040D01*
X187500Y144920D01*
X188105Y145040D01*
X188618Y145382D01*
X188960Y145895D01*
X189007Y146133D01*
X199249Y156375D01*
X282251D01*
X295049Y143577D01*
X295479Y143290D01*
X295986Y143189D01*
X297643D01*
X297878Y142622D01*
X298479Y141838D01*
X299263Y141236D01*
X300176Y140858D01*
X301156Y140729D01*
X302136Y140858D01*
X303048Y141236D01*
X303832Y141838D01*
X304434Y142622D01*
X304812Y143535D01*
X304941Y144514D01*
X304812Y145494D01*
X304434Y146407D01*
X303832Y147191D01*
X303048Y147792D01*
X302136Y148170D01*
X301156Y148299D01*
X300176Y148170D01*
X299263Y147792D01*
X298479Y147191D01*
X297878Y146407D01*
X297643Y145840D01*
X296535D01*
X284662Y157713D01*
X284853Y158175D01*
X295621D01*
X297735Y156061D01*
X297500Y155494D01*
X297371Y154514D01*
X297500Y153534D01*
X297878Y152622D01*
X298479Y151838D01*
X299263Y151236D01*
X300176Y150858D01*
X301156Y150729D01*
X302136Y150858D01*
X303048Y151236D01*
X303832Y151838D01*
X304434Y152622D01*
X304812Y153534D01*
X304941Y154514D01*
X304812Y155494D01*
X304434Y156407D01*
X303832Y157191D01*
X303048Y157792D01*
X302136Y158170D01*
X301156Y158299D01*
X300176Y158170D01*
X299609Y157935D01*
X297107Y160437D01*
X296677Y160725D01*
X296170Y160826D01*
X205181D01*
X204913Y161326D01*
X204960Y161395D01*
X205080Y162000D01*
X204960Y162605D01*
X204618Y163118D01*
X204105Y163460D01*
X203500Y163580D01*
X202895Y163460D01*
X202694Y163326D01*
X162353D01*
X162162Y163787D01*
X164549Y166174D01*
X179451D01*
X180563Y165063D01*
X180993Y164775D01*
X181500Y164674D01*
X195194D01*
X195395Y164540D01*
X196000Y164420D01*
X196605Y164540D01*
X197117Y164883D01*
X197460Y165395D01*
X197580Y166000D01*
X197460Y166605D01*
X197117Y167118D01*
X196605Y167460D01*
X196000Y167580D01*
X195395Y167460D01*
X195194Y167325D01*
X182049D01*
X180937Y168437D01*
X180507Y168725D01*
X180000Y168825D01*
X164000D01*
X163493Y168725D01*
X163063Y168437D01*
X159751Y165126D01*
X158754D01*
X158247Y165025D01*
X157817Y164737D01*
X155412Y162332D01*
X154989Y162616D01*
X155156Y163020D01*
X155285Y164000D01*
X155156Y164980D01*
X154778Y165893D01*
X154176Y166676D01*
X153393Y167278D01*
X152480Y167656D01*
X151500Y167785D01*
X150520Y167656D01*
X149607Y167278D01*
X148823Y166676D01*
X148222Y165893D01*
X147844Y164980D01*
X147715Y164000D01*
X147844Y163020D01*
X148222Y162107D01*
X148823Y161323D01*
X149607Y160722D01*
X150520Y160344D01*
X151500Y160215D01*
X152480Y160344D01*
X152884Y160511D01*
X153167Y160088D01*
X152658Y159578D01*
X149738D01*
X149231Y159477D01*
X148801Y159190D01*
X146962Y157351D01*
X146500Y157542D01*
Y362000D01*
X306000D01*
Y118000D01*
D02*
G37*
%LPC*%
G36*
X304909Y358267D02*
X297403D01*
Y350761D01*
X304909D01*
Y358267D01*
D02*
G37*
G36*
X155253Y357753D02*
X147747D01*
Y350247D01*
X155253D01*
Y357753D01*
D02*
G37*
G36*
X301156Y348299D02*
X300176Y348170D01*
X299263Y347792D01*
X298479Y347191D01*
X297878Y346407D01*
X297500Y345494D01*
X297371Y344514D01*
X297500Y343534D01*
X297878Y342622D01*
X298479Y341838D01*
X299263Y341236D01*
X300176Y340858D01*
X301156Y340729D01*
X302136Y340858D01*
X303048Y341236D01*
X303832Y341838D01*
X304434Y342622D01*
X304812Y343534D01*
X304941Y344514D01*
X304812Y345494D01*
X304434Y346407D01*
X303832Y347191D01*
X303048Y347792D01*
X302136Y348170D01*
X301156Y348299D01*
D02*
G37*
G36*
X151500Y347785D02*
X150520Y347656D01*
X149607Y347278D01*
X148823Y346676D01*
X148222Y345893D01*
X147844Y344980D01*
X147715Y344000D01*
X147844Y343020D01*
X148222Y342107D01*
X148823Y341323D01*
X149607Y340722D01*
X150520Y340344D01*
X151500Y340215D01*
X152480Y340344D01*
X153393Y340722D01*
X154176Y341323D01*
X154778Y342107D01*
X155156Y343020D01*
X155285Y344000D01*
X155156Y344980D01*
X154778Y345893D01*
X154176Y346676D01*
X153393Y347278D01*
X152480Y347656D01*
X151500Y347785D01*
D02*
G37*
G36*
X247500Y340685D02*
Y339500D01*
X248685D01*
X248649Y339683D01*
X248262Y340262D01*
X247683Y340649D01*
X247500Y340685D01*
D02*
G37*
G36*
X246500D02*
X246317Y340649D01*
X245738Y340262D01*
X245352Y339683D01*
X245315Y339500D01*
X246500D01*
Y340685D01*
D02*
G37*
G36*
X189000D02*
Y339500D01*
X190185D01*
X190148Y339683D01*
X189762Y340262D01*
X189183Y340649D01*
X189000Y340685D01*
D02*
G37*
G36*
X188000D02*
X187817Y340649D01*
X187238Y340262D01*
X186852Y339683D01*
X186815Y339500D01*
X188000D01*
Y340685D01*
D02*
G37*
G36*
X225000Y341964D02*
Y339000D01*
X227964D01*
X227910Y339414D01*
X227557Y340265D01*
X226996Y340996D01*
X226265Y341557D01*
X225414Y341910D01*
X225000Y341964D01*
D02*
G37*
G36*
X224000D02*
X223586Y341910D01*
X222735Y341557D01*
X222004Y340996D01*
X221443Y340265D01*
X221090Y339414D01*
X221036Y339000D01*
X224000D01*
Y341964D01*
D02*
G37*
G36*
X248685Y338500D02*
X247500D01*
Y337315D01*
X247683Y337351D01*
X248262Y337738D01*
X248649Y338317D01*
X248685Y338500D01*
D02*
G37*
G36*
X246500D02*
X245315D01*
X245352Y338317D01*
X245738Y337738D01*
X246317Y337351D01*
X246500Y337315D01*
Y338500D01*
D02*
G37*
G36*
X190185D02*
X189000D01*
Y337315D01*
X189183Y337351D01*
X189762Y337738D01*
X190148Y338317D01*
X190185Y338500D01*
D02*
G37*
G36*
X188000D02*
X186815D01*
X186852Y338317D01*
X187238Y337738D01*
X187817Y337351D01*
X188000Y337315D01*
Y338500D01*
D02*
G37*
G36*
X257715Y337865D02*
X257110Y337745D01*
X256597Y337403D01*
X256255Y336890D01*
X256167Y336446D01*
X255868Y336203D01*
X255654Y336137D01*
X255156Y336236D01*
X254551Y336116D01*
X254038Y335773D01*
X253696Y335261D01*
X253575Y334656D01*
X253696Y334051D01*
X253830Y333850D01*
Y325962D01*
X253696Y325761D01*
X253575Y325156D01*
X253696Y324551D01*
X254038Y324038D01*
X254551Y323696D01*
X255156Y323575D01*
X255761Y323696D01*
X256273Y324038D01*
X256616Y324551D01*
X256704Y324995D01*
X257003Y325238D01*
X257217Y325304D01*
X257715Y325205D01*
X258320Y325325D01*
X258833Y325668D01*
X259175Y326180D01*
X259295Y326785D01*
X259175Y327390D01*
X259040Y327591D01*
Y335479D01*
X259175Y335680D01*
X259295Y336285D01*
X259175Y336890D01*
X258833Y337403D01*
X258320Y337745D01*
X257715Y337865D01*
D02*
G37*
G36*
X227964Y338000D02*
X225000D01*
Y335036D01*
X225414Y335090D01*
X226265Y335443D01*
X226996Y336004D01*
X227557Y336735D01*
X227910Y337586D01*
X227964Y338000D01*
D02*
G37*
G36*
X224000D02*
X221036D01*
X221090Y337586D01*
X221443Y336735D01*
X222004Y336004D01*
X222735Y335443D01*
X223586Y335090D01*
X224000Y335036D01*
Y338000D01*
D02*
G37*
G36*
X199000Y335580D02*
X198395Y335460D01*
X197882Y335118D01*
X197540Y334605D01*
X197420Y334000D01*
X197442Y333886D01*
X196992Y333585D01*
X196954Y333611D01*
X196349Y333732D01*
X195744Y333611D01*
X195231Y333269D01*
X194889Y332756D01*
X194769Y332151D01*
X194889Y331546D01*
X195023Y331345D01*
Y323443D01*
X188763Y317183D01*
X188475Y316753D01*
X188374Y316246D01*
Y210800D01*
X188475Y210293D01*
X188763Y209863D01*
X194993Y203633D01*
X195040Y203395D01*
X195382Y202883D01*
X195895Y202540D01*
X196500Y202420D01*
X197105Y202540D01*
X197617Y202883D01*
X197699Y203005D01*
X198301D01*
X198382Y202883D01*
X198895Y202540D01*
X199500Y202420D01*
X200105Y202540D01*
X200618Y202883D01*
X200960Y203395D01*
X201080Y204000D01*
X200960Y204605D01*
X200826Y204806D01*
Y209500D01*
X200725Y210007D01*
X200437Y210437D01*
X193832Y217043D01*
X194078Y217504D01*
X194500Y217420D01*
X195105Y217540D01*
X195617Y217882D01*
X195960Y218395D01*
X196080Y219000D01*
X195960Y219605D01*
X195826Y219806D01*
Y220451D01*
X201299Y225925D01*
X201761Y225733D01*
Y222894D01*
X201940Y221996D01*
X202448Y221235D01*
X223176Y200507D01*
X223175Y200500D01*
Y193306D01*
X223040Y193105D01*
X222920Y192500D01*
X223040Y191895D01*
X223382Y191383D01*
X223895Y191040D01*
X224500Y190920D01*
X225105Y191040D01*
X225618Y191383D01*
X225960Y191895D01*
X226080Y192500D01*
X225960Y193105D01*
X225826Y193306D01*
Y198593D01*
X226325Y198800D01*
X228993Y196133D01*
X229040Y195895D01*
X229382Y195382D01*
X229895Y195040D01*
X230500Y194920D01*
X231105Y195040D01*
X231617Y195382D01*
X231960Y195895D01*
X232080Y196500D01*
X231960Y197105D01*
X231810Y197330D01*
X232170Y197690D01*
X232395Y197540D01*
X233000Y197420D01*
X233605Y197540D01*
X234118Y197882D01*
X234460Y198395D01*
X234580Y199000D01*
X234460Y199605D01*
X234762Y200053D01*
X234825Y200086D01*
X234895Y200040D01*
X235500Y199920D01*
X236105Y200040D01*
X236617Y200382D01*
X236960Y200895D01*
X237007Y201133D01*
X248437Y212563D01*
X248725Y212993D01*
X248826Y213500D01*
Y260194D01*
X248960Y260395D01*
X249080Y261000D01*
X248960Y261605D01*
X248618Y262118D01*
X248105Y262460D01*
X247500Y262580D01*
X246895Y262460D01*
X246382Y262118D01*
X246040Y261605D01*
X245920Y261000D01*
X246040Y260395D01*
X246175Y260194D01*
Y258684D01*
X245674Y258532D01*
X245618Y258617D01*
X245105Y258960D01*
X244500Y259080D01*
X243895Y258960D01*
X243383Y258617D01*
X243040Y258105D01*
X242920Y257500D01*
X243040Y256895D01*
X243175Y256694D01*
Y214049D01*
X232063Y202937D01*
X231775Y202507D01*
X231675Y202000D01*
Y199806D01*
X231540Y199605D01*
X231420Y199000D01*
X231540Y198395D01*
X231690Y198170D01*
X231330Y197810D01*
X231105Y197960D01*
X230867Y198007D01*
X227767Y201108D01*
X227845Y201500D01*
X227667Y202397D01*
X227158Y203158D01*
X213014Y217303D01*
X213260Y217763D01*
X213500Y217716D01*
X214183Y217851D01*
X214762Y218238D01*
X215148Y218817D01*
X215185Y219000D01*
X213500D01*
Y219500D01*
X213000D01*
Y221185D01*
X212817Y221148D01*
X212238Y220762D01*
X211852Y220183D01*
X211716Y219500D01*
X211763Y219260D01*
X211303Y219014D01*
X206451Y223865D01*
Y229635D01*
X206838Y229952D01*
X207000Y229920D01*
X207605Y230040D01*
X208118Y230382D01*
X208460Y230895D01*
X208580Y231500D01*
X208460Y232105D01*
X208118Y232617D01*
X207605Y232960D01*
X207367Y233007D01*
X206451Y233923D01*
Y234394D01*
Y266594D01*
X207859D01*
Y274099D01*
X200354D01*
Y266594D01*
X201761D01*
Y234394D01*
Y230136D01*
X193563Y221937D01*
X193325Y221582D01*
X193006Y221602D01*
X192825Y221665D01*
Y314951D01*
X199937Y322063D01*
X200225Y322493D01*
X200325Y323000D01*
Y333194D01*
X200460Y333395D01*
X200580Y334000D01*
X200460Y334605D01*
X200117Y335118D01*
X199605Y335460D01*
X199000Y335580D01*
D02*
G37*
G36*
X301156Y338299D02*
X300176Y338170D01*
X299263Y337792D01*
X298479Y337191D01*
X297878Y336407D01*
X297500Y335494D01*
X297371Y334514D01*
X297500Y333535D01*
X297878Y332622D01*
X298479Y331838D01*
X299263Y331236D01*
X300176Y330858D01*
X301156Y330729D01*
X302136Y330858D01*
X303048Y331236D01*
X303832Y331838D01*
X304434Y332622D01*
X304812Y333535D01*
X304941Y334514D01*
X304812Y335494D01*
X304434Y336407D01*
X303832Y337191D01*
X303048Y337792D01*
X302136Y338170D01*
X301156Y338299D01*
D02*
G37*
G36*
X151500Y337785D02*
X150520Y337656D01*
X149607Y337278D01*
X148823Y336677D01*
X148222Y335893D01*
X147844Y334980D01*
X147715Y334000D01*
X147844Y333020D01*
X148222Y332107D01*
X148823Y331324D01*
X149607Y330722D01*
X150520Y330344D01*
X151500Y330215D01*
X152480Y330344D01*
X153393Y330722D01*
X154176Y331324D01*
X154778Y332107D01*
X155156Y333020D01*
X155285Y334000D01*
X155156Y334980D01*
X154778Y335893D01*
X154176Y336677D01*
X153393Y337278D01*
X152480Y337656D01*
X151500Y337785D01*
D02*
G37*
G36*
X301156Y328299D02*
X300176Y328170D01*
X299263Y327792D01*
X298479Y327191D01*
X297878Y326407D01*
X297500Y325494D01*
X297371Y324514D01*
X297500Y323534D01*
X297878Y322622D01*
X298479Y321838D01*
X299263Y321236D01*
X300176Y320858D01*
X301156Y320729D01*
X302136Y320858D01*
X303048Y321236D01*
X303832Y321838D01*
X304434Y322622D01*
X304812Y323534D01*
X304941Y324514D01*
X304812Y325494D01*
X304434Y326407D01*
X303832Y327191D01*
X303048Y327792D01*
X302136Y328170D01*
X301156Y328299D01*
D02*
G37*
G36*
X151500Y327785D02*
X150520Y327656D01*
X149607Y327278D01*
X148823Y326677D01*
X148222Y325893D01*
X147844Y324980D01*
X147715Y324000D01*
X147844Y323020D01*
X148222Y322107D01*
X148823Y321323D01*
X149607Y320722D01*
X150520Y320344D01*
X151500Y320215D01*
X152480Y320344D01*
X153393Y320722D01*
X154176Y321323D01*
X154778Y322107D01*
X155156Y323020D01*
X155285Y324000D01*
X155156Y324980D01*
X154778Y325893D01*
X154176Y326677D01*
X153393Y327278D01*
X152480Y327656D01*
X151500Y327785D01*
D02*
G37*
G36*
X225656Y316241D02*
Y312772D01*
X229125D01*
X229053Y313316D01*
X228650Y314290D01*
X228009Y315125D01*
X227173Y315766D01*
X226200Y316169D01*
X225656Y316241D01*
D02*
G37*
G36*
X224656D02*
X224112Y316169D01*
X223139Y315766D01*
X222303Y315125D01*
X221662Y314290D01*
X221259Y313316D01*
X221187Y312772D01*
X224656D01*
Y316241D01*
D02*
G37*
G36*
X301156Y318299D02*
X300176Y318170D01*
X299263Y317792D01*
X298479Y317191D01*
X297878Y316407D01*
X297500Y315494D01*
X297371Y314514D01*
X297500Y313534D01*
X297878Y312622D01*
X298479Y311838D01*
X299263Y311236D01*
X300176Y310858D01*
X301156Y310729D01*
X302136Y310858D01*
X303048Y311236D01*
X303832Y311838D01*
X304434Y312622D01*
X304812Y313534D01*
X304941Y314514D01*
X304812Y315494D01*
X304434Y316407D01*
X303832Y317191D01*
X303048Y317792D01*
X302136Y318170D01*
X301156Y318299D01*
D02*
G37*
G36*
X151500Y317785D02*
X150520Y317656D01*
X149607Y317278D01*
X148823Y316676D01*
X148222Y315893D01*
X147844Y314980D01*
X147715Y314000D01*
X147844Y313020D01*
X148222Y312107D01*
X148823Y311323D01*
X149607Y310722D01*
X150520Y310344D01*
X151500Y310215D01*
X152480Y310344D01*
X153393Y310722D01*
X154176Y311323D01*
X154778Y312107D01*
X155156Y313020D01*
X155285Y314000D01*
X155156Y314980D01*
X154778Y315893D01*
X154176Y316676D01*
X153393Y317278D01*
X152480Y317656D01*
X151500Y317785D01*
D02*
G37*
G36*
X235156Y316105D02*
X234164Y315974D01*
X233240Y315592D01*
X232446Y314983D01*
X231837Y314189D01*
X231454Y313264D01*
X231323Y312272D01*
X231454Y311280D01*
X231837Y310356D01*
X232446Y309562D01*
X233240Y308953D01*
X234164Y308570D01*
X235156Y308439D01*
X236148Y308570D01*
X237072Y308953D01*
X237866Y309562D01*
X238475Y310356D01*
X238858Y311280D01*
X238989Y312272D01*
X238858Y313264D01*
X238475Y314189D01*
X237866Y314983D01*
X237072Y315592D01*
X236148Y315974D01*
X235156Y316105D01*
D02*
G37*
G36*
X215156D02*
X214164Y315974D01*
X213240Y315592D01*
X212446Y314983D01*
X211837Y314189D01*
X211454Y313264D01*
X211323Y312272D01*
X211454Y311280D01*
X211837Y310356D01*
X212446Y309562D01*
X213240Y308953D01*
X214164Y308570D01*
X215156Y308439D01*
X216148Y308570D01*
X217072Y308953D01*
X217866Y309562D01*
X218475Y310356D01*
X218858Y311280D01*
X218989Y312272D01*
X218858Y313264D01*
X218475Y314189D01*
X217866Y314983D01*
X217072Y315592D01*
X216148Y315974D01*
X215156Y316105D01*
D02*
G37*
G36*
X229125Y311772D02*
X225656D01*
Y308304D01*
X226200Y308375D01*
X227173Y308778D01*
X228009Y309419D01*
X228650Y310255D01*
X229053Y311228D01*
X229125Y311772D01*
D02*
G37*
G36*
X224656D02*
X221187D01*
X221259Y311228D01*
X221662Y310255D01*
X222303Y309419D01*
X223139Y308778D01*
X224112Y308375D01*
X224656Y308304D01*
Y311772D01*
D02*
G37*
G36*
X301156Y308299D02*
X300176Y308170D01*
X299263Y307792D01*
X298479Y307191D01*
X297878Y306407D01*
X297500Y305494D01*
X297371Y304514D01*
X297500Y303535D01*
X297878Y302622D01*
X298479Y301838D01*
X299263Y301236D01*
X300176Y300858D01*
X301156Y300729D01*
X302136Y300858D01*
X303048Y301236D01*
X303832Y301838D01*
X304434Y302622D01*
X304812Y303535D01*
X304941Y304514D01*
X304812Y305494D01*
X304434Y306407D01*
X303832Y307191D01*
X303048Y307792D01*
X302136Y308170D01*
X301156Y308299D01*
D02*
G37*
G36*
X151500Y307785D02*
X150520Y307656D01*
X149607Y307278D01*
X148823Y306677D01*
X148222Y305893D01*
X147844Y304980D01*
X147715Y304000D01*
X147844Y303020D01*
X148222Y302107D01*
X148823Y301324D01*
X149607Y300722D01*
X150520Y300344D01*
X151500Y300215D01*
X152480Y300344D01*
X153393Y300722D01*
X154176Y301324D01*
X154778Y302107D01*
X155156Y303020D01*
X155285Y304000D01*
X155156Y304980D01*
X154778Y305893D01*
X154176Y306677D01*
X153393Y307278D01*
X152480Y307656D01*
X151500Y307785D01*
D02*
G37*
G36*
X202500Y300685D02*
Y299500D01*
X203685D01*
X203648Y299683D01*
X203262Y300262D01*
X202683Y300648D01*
X202500Y300685D01*
D02*
G37*
G36*
X201500D02*
X201317Y300648D01*
X200738Y300262D01*
X200352Y299683D01*
X200315Y299500D01*
X201500D01*
Y300685D01*
D02*
G37*
G36*
X248500Y300185D02*
Y299000D01*
X249685D01*
X249648Y299183D01*
X249262Y299762D01*
X248683Y300149D01*
X248500Y300185D01*
D02*
G37*
G36*
X247500D02*
X247317Y300149D01*
X246738Y299762D01*
X246352Y299183D01*
X246315Y299000D01*
X247500D01*
Y300185D01*
D02*
G37*
G36*
X203685Y298500D02*
X202500D01*
Y297315D01*
X202683Y297352D01*
X203262Y297738D01*
X203648Y298317D01*
X203685Y298500D01*
D02*
G37*
G36*
X201500D02*
X200315D01*
X200352Y298317D01*
X200738Y297738D01*
X201317Y297352D01*
X201500Y297315D01*
Y298500D01*
D02*
G37*
G36*
X249685Y298000D02*
X248500D01*
Y296815D01*
X248683Y296851D01*
X249262Y297238D01*
X249648Y297817D01*
X249685Y298000D01*
D02*
G37*
G36*
X247500D02*
X246315D01*
X246352Y297817D01*
X246738Y297238D01*
X247317Y296851D01*
X247500Y296815D01*
Y298000D01*
D02*
G37*
G36*
X301156Y298299D02*
X300176Y298170D01*
X299263Y297792D01*
X298479Y297191D01*
X297878Y296407D01*
X297500Y295494D01*
X297371Y294514D01*
X297500Y293534D01*
X297878Y292622D01*
X298479Y291838D01*
X299263Y291236D01*
X300176Y290858D01*
X301156Y290729D01*
X302136Y290858D01*
X303048Y291236D01*
X303832Y291838D01*
X304434Y292622D01*
X304812Y293534D01*
X304941Y294514D01*
X304812Y295494D01*
X304434Y296407D01*
X303832Y297191D01*
X303048Y297792D01*
X302136Y298170D01*
X301156Y298299D01*
D02*
G37*
G36*
X151500Y297785D02*
X150520Y297656D01*
X149607Y297278D01*
X148823Y296676D01*
X148222Y295893D01*
X147844Y294980D01*
X147715Y294000D01*
X147844Y293020D01*
X148222Y292107D01*
X148823Y291323D01*
X149607Y290722D01*
X150520Y290344D01*
X151500Y290215D01*
X152480Y290344D01*
X153393Y290722D01*
X154176Y291323D01*
X154778Y292107D01*
X155156Y293020D01*
X155285Y294000D01*
X155156Y294980D01*
X154778Y295893D01*
X154176Y296676D01*
X153393Y297278D01*
X152480Y297656D01*
X151500Y297785D01*
D02*
G37*
G36*
X301156Y288299D02*
X300176Y288170D01*
X299263Y287792D01*
X298479Y287191D01*
X297878Y286407D01*
X297500Y285494D01*
X297371Y284514D01*
X297500Y283535D01*
X297878Y282622D01*
X298479Y281838D01*
X299263Y281236D01*
X300176Y280858D01*
X301156Y280729D01*
X302136Y280858D01*
X303048Y281236D01*
X303832Y281838D01*
X304434Y282622D01*
X304812Y283535D01*
X304941Y284514D01*
X304812Y285494D01*
X304434Y286407D01*
X303832Y287191D01*
X303048Y287792D01*
X302136Y288170D01*
X301156Y288299D01*
D02*
G37*
G36*
X151500Y287785D02*
X150520Y287656D01*
X149607Y287278D01*
X148823Y286677D01*
X148222Y285893D01*
X147844Y284980D01*
X147715Y284000D01*
X147844Y283020D01*
X148222Y282107D01*
X148823Y281324D01*
X149607Y280722D01*
X150520Y280344D01*
X151500Y280215D01*
X152480Y280344D01*
X153393Y280722D01*
X154176Y281324D01*
X154778Y282107D01*
X155156Y283020D01*
X155285Y284000D01*
X155156Y284980D01*
X154778Y285893D01*
X154176Y286677D01*
X153393Y287278D01*
X152480Y287656D01*
X151500Y287785D01*
D02*
G37*
G36*
X244606Y274268D02*
Y270847D01*
X248027D01*
X247957Y271378D01*
X247559Y272340D01*
X246925Y273166D01*
X246100Y273799D01*
X245138Y274198D01*
X244606Y274268D01*
D02*
G37*
G36*
X243606D02*
X243074Y274198D01*
X242113Y273799D01*
X241287Y273166D01*
X240654Y272340D01*
X240255Y271378D01*
X240185Y270847D01*
X243606D01*
Y274268D01*
D02*
G37*
G36*
X224606D02*
Y270847D01*
X228027D01*
X227957Y271378D01*
X227559Y272340D01*
X226925Y273166D01*
X226100Y273799D01*
X225138Y274198D01*
X224606Y274268D01*
D02*
G37*
G36*
X223606D02*
X223075Y274198D01*
X222113Y273799D01*
X221287Y273166D01*
X220654Y272340D01*
X220255Y271378D01*
X220185Y270847D01*
X223606D01*
Y274268D01*
D02*
G37*
G36*
X301156Y278299D02*
X300176Y278170D01*
X299263Y277792D01*
X298479Y277191D01*
X297878Y276407D01*
X297500Y275494D01*
X297371Y274514D01*
X297500Y273534D01*
X297878Y272622D01*
X298479Y271838D01*
X299263Y271236D01*
X300176Y270858D01*
X301156Y270729D01*
X302136Y270858D01*
X303048Y271236D01*
X303832Y271838D01*
X304434Y272622D01*
X304812Y273534D01*
X304941Y274514D01*
X304812Y275494D01*
X304434Y276407D01*
X303832Y277191D01*
X303048Y277792D01*
X302136Y278170D01*
X301156Y278299D01*
D02*
G37*
G36*
X151500Y277785D02*
X150520Y277656D01*
X149607Y277278D01*
X148823Y276677D01*
X148222Y275893D01*
X147844Y274980D01*
X147715Y274000D01*
X147844Y273020D01*
X148222Y272107D01*
X148823Y271323D01*
X149607Y270722D01*
X150520Y270344D01*
X151500Y270215D01*
X152480Y270344D01*
X153393Y270722D01*
X154176Y271323D01*
X154778Y272107D01*
X155156Y273020D01*
X155285Y274000D01*
X155156Y274980D01*
X154778Y275893D01*
X154176Y276677D01*
X153393Y277278D01*
X152480Y277656D01*
X151500Y277785D01*
D02*
G37*
G36*
X234106Y274132D02*
X233127Y274003D01*
X232214Y273624D01*
X231430Y273023D01*
X230828Y272239D01*
X230450Y271326D01*
X230321Y270346D01*
X230450Y269367D01*
X230828Y268454D01*
X231430Y267670D01*
X232214Y267068D01*
X233127Y266690D01*
X234106Y266561D01*
X235086Y266690D01*
X235999Y267068D01*
X236783Y267670D01*
X237384Y268454D01*
X237762Y269367D01*
X237892Y270346D01*
X237762Y271326D01*
X237384Y272239D01*
X236783Y273023D01*
X235999Y273624D01*
X235086Y274003D01*
X234106Y274132D01*
D02*
G37*
G36*
X248027Y269847D02*
X244606D01*
Y266425D01*
X245138Y266495D01*
X246100Y266894D01*
X246925Y267527D01*
X247559Y268353D01*
X247957Y269315D01*
X248027Y269847D01*
D02*
G37*
G36*
X243606D02*
X240185D01*
X240255Y269315D01*
X240654Y268353D01*
X241287Y267527D01*
X242113Y266894D01*
X243074Y266495D01*
X243606Y266425D01*
Y269847D01*
D02*
G37*
G36*
X228027D02*
X224606D01*
Y266425D01*
X225138Y266495D01*
X226100Y266894D01*
X226925Y267527D01*
X227559Y268353D01*
X227957Y269315D01*
X228027Y269847D01*
D02*
G37*
G36*
X223606D02*
X220185D01*
X220255Y269315D01*
X220654Y268353D01*
X221287Y267527D01*
X222113Y266894D01*
X223075Y266495D01*
X223606Y266425D01*
Y269847D01*
D02*
G37*
G36*
X218027D02*
X214606D01*
Y266425D01*
X215138Y266495D01*
X216100Y266894D01*
X216926Y267527D01*
X217559Y268353D01*
X217957Y269315D01*
X218027Y269847D01*
D02*
G37*
G36*
X213606D02*
X210185D01*
X210255Y269315D01*
X210654Y268353D01*
X211287Y267527D01*
X212113Y266894D01*
X213074Y266495D01*
X213606Y266425D01*
Y269847D01*
D02*
G37*
G36*
X268216Y291325D02*
X224053D01*
X223546Y291224D01*
X223116Y290936D01*
X215861Y283682D01*
X215086Y284003D01*
X214106Y284132D01*
X213127Y284003D01*
X212214Y283625D01*
X211430Y283023D01*
X210828Y282239D01*
X210450Y281326D01*
X210362Y280658D01*
X209834Y280479D01*
X209029Y281284D01*
X208599Y281571D01*
X208092Y281672D01*
X207619D01*
X207384Y282239D01*
X206783Y283023D01*
X205999Y283625D01*
X205086Y284003D01*
X204106Y284132D01*
X203127Y284003D01*
X202214Y283625D01*
X201430Y283023D01*
X200828Y282239D01*
X200450Y281326D01*
X200321Y280346D01*
X200450Y279367D01*
X200828Y278454D01*
X201430Y277670D01*
X202214Y277068D01*
X203127Y276690D01*
X204106Y276561D01*
X205086Y276690D01*
X205999Y277068D01*
X206783Y277670D01*
X207384Y278454D01*
X207425Y278551D01*
X207915Y278649D01*
X211407Y275156D01*
X211838Y274869D01*
X212345Y274768D01*
X213579D01*
X213612Y274268D01*
X213074Y274198D01*
X212113Y273799D01*
X211287Y273166D01*
X210654Y272340D01*
X210255Y271378D01*
X210185Y270847D01*
X218027D01*
X217957Y271378D01*
X217559Y272340D01*
X216926Y273166D01*
X216100Y273799D01*
X215138Y274198D01*
X214601Y274268D01*
X214633Y274768D01*
X215868D01*
X216375Y274869D01*
X216805Y275156D01*
X219296Y277648D01*
X219584Y278078D01*
X219685Y278585D01*
Y281165D01*
X220001Y281421D01*
X220429Y281168D01*
X220321Y280346D01*
X220450Y279367D01*
X220828Y278454D01*
X221430Y277670D01*
X222214Y277068D01*
X223127Y276690D01*
X224106Y276561D01*
X225086Y276690D01*
X225653Y276925D01*
X227422Y275156D01*
X227852Y274869D01*
X228359Y274768D01*
X237594D01*
X238101Y274869D01*
X238531Y275156D01*
X240791Y277416D01*
X240885Y277558D01*
X241237Y277630D01*
X241503Y277614D01*
X242214Y277068D01*
X243127Y276690D01*
X244106Y276561D01*
X245086Y276690D01*
X245999Y277068D01*
X246783Y277670D01*
X247384Y278454D01*
X247762Y279367D01*
X247891Y280346D01*
X247762Y281326D01*
X247384Y282239D01*
X246974Y282774D01*
X247221Y283274D01*
X250522D01*
X297735Y236061D01*
X297500Y235494D01*
X297371Y234514D01*
X297500Y233535D01*
X297878Y232622D01*
X298479Y231838D01*
X299263Y231236D01*
X300176Y230858D01*
X301156Y230729D01*
X302136Y230858D01*
X303048Y231236D01*
X303832Y231838D01*
X304434Y232622D01*
X304812Y233535D01*
X304941Y234514D01*
X304812Y235494D01*
X304434Y236407D01*
X303832Y237191D01*
X303048Y237792D01*
X302136Y238170D01*
X301156Y238299D01*
X300176Y238170D01*
X299609Y237935D01*
X252933Y284612D01*
X253124Y285074D01*
X258722D01*
X297735Y246061D01*
X297500Y245494D01*
X297371Y244514D01*
X297500Y243534D01*
X297878Y242622D01*
X298479Y241838D01*
X299263Y241236D01*
X300176Y240858D01*
X301156Y240729D01*
X302136Y240858D01*
X303048Y241236D01*
X303832Y241838D01*
X304434Y242622D01*
X304812Y243534D01*
X304941Y244514D01*
X304812Y245494D01*
X304434Y246407D01*
X303832Y247191D01*
X303048Y247792D01*
X302136Y248170D01*
X301156Y248299D01*
X300176Y248170D01*
X299609Y247935D01*
X261133Y286412D01*
X261324Y286874D01*
X266922D01*
X297735Y256061D01*
X297500Y255494D01*
X297371Y254514D01*
X297500Y253535D01*
X297878Y252622D01*
X298479Y251838D01*
X299263Y251236D01*
X300176Y250858D01*
X301156Y250729D01*
X302136Y250858D01*
X303048Y251236D01*
X303832Y251838D01*
X304434Y252622D01*
X304812Y253535D01*
X304941Y254514D01*
X304812Y255494D01*
X304434Y256407D01*
X303832Y257191D01*
X303048Y257792D01*
X302136Y258170D01*
X301156Y258299D01*
X300176Y258170D01*
X299609Y257935D01*
X294818Y262727D01*
X295009Y263189D01*
X297643D01*
X297878Y262622D01*
X298479Y261838D01*
X299263Y261236D01*
X300176Y260858D01*
X301156Y260729D01*
X302136Y260858D01*
X303048Y261236D01*
X303832Y261838D01*
X304434Y262622D01*
X304812Y263534D01*
X304941Y264514D01*
X304812Y265494D01*
X304434Y266407D01*
X303832Y267191D01*
X303048Y267792D01*
X302136Y268170D01*
X301156Y268299D01*
X300176Y268170D01*
X299263Y267792D01*
X298479Y267191D01*
X297878Y266407D01*
X297643Y265840D01*
X294250D01*
X269154Y290936D01*
X268724Y291224D01*
X268216Y291325D01*
D02*
G37*
G36*
X151500Y267785D02*
X150520Y267656D01*
X149607Y267278D01*
X148823Y266676D01*
X148222Y265893D01*
X147844Y264980D01*
X147715Y264000D01*
X147844Y263020D01*
X148222Y262107D01*
X148823Y261323D01*
X149607Y260722D01*
X150520Y260344D01*
X151500Y260215D01*
X152480Y260344D01*
X153393Y260722D01*
X154176Y261323D01*
X154778Y262107D01*
X155156Y263020D01*
X155285Y264000D01*
X155156Y264980D01*
X154778Y265893D01*
X154176Y266676D01*
X153393Y267278D01*
X152480Y267656D01*
X151500Y267785D01*
D02*
G37*
G36*
Y257785D02*
X150520Y257656D01*
X149607Y257278D01*
X148823Y256677D01*
X148222Y255893D01*
X147844Y254980D01*
X147715Y254000D01*
X147844Y253020D01*
X148222Y252107D01*
X148823Y251324D01*
X149607Y250722D01*
X150520Y250344D01*
X151500Y250215D01*
X152480Y250344D01*
X153393Y250722D01*
X154176Y251324D01*
X154778Y252107D01*
X155156Y253020D01*
X155285Y254000D01*
X155156Y254980D01*
X154778Y255893D01*
X154176Y256677D01*
X153393Y257278D01*
X152480Y257656D01*
X151500Y257785D01*
D02*
G37*
G36*
Y247785D02*
X150520Y247656D01*
X149607Y247278D01*
X148823Y246676D01*
X148222Y245893D01*
X147844Y244980D01*
X147715Y244000D01*
X147844Y243020D01*
X148222Y242107D01*
X148823Y241323D01*
X149607Y240722D01*
X150520Y240344D01*
X151500Y240215D01*
X152480Y240344D01*
X153393Y240722D01*
X154176Y241323D01*
X154778Y242107D01*
X155156Y243020D01*
X155285Y244000D01*
X155156Y244980D01*
X154778Y245893D01*
X154176Y246676D01*
X153393Y247278D01*
X152480Y247656D01*
X151500Y247785D01*
D02*
G37*
G36*
Y237785D02*
X150520Y237656D01*
X149607Y237278D01*
X148823Y236677D01*
X148222Y235893D01*
X147844Y234980D01*
X147715Y234000D01*
X147844Y233020D01*
X148222Y232107D01*
X148823Y231324D01*
X149607Y230722D01*
X150520Y230344D01*
X151500Y230215D01*
X152480Y230344D01*
X153393Y230722D01*
X154176Y231324D01*
X154778Y232107D01*
X155156Y233020D01*
X155285Y234000D01*
X155156Y234980D01*
X154778Y235893D01*
X154176Y236677D01*
X153393Y237278D01*
X152480Y237656D01*
X151500Y237785D01*
D02*
G37*
G36*
X240000Y222185D02*
Y221000D01*
X241185D01*
X241148Y221183D01*
X240762Y221762D01*
X240183Y222148D01*
X240000Y222185D01*
D02*
G37*
G36*
X239000D02*
X238817Y222148D01*
X238238Y221762D01*
X237852Y221183D01*
X237815Y221000D01*
X239000D01*
Y222185D01*
D02*
G37*
G36*
X301156Y228299D02*
X300176Y228170D01*
X299263Y227792D01*
X298479Y227191D01*
X297878Y226407D01*
X297500Y225494D01*
X297371Y224514D01*
X297500Y223534D01*
X297878Y222622D01*
X298479Y221838D01*
X299263Y221236D01*
X300176Y220858D01*
X301156Y220729D01*
X302136Y220858D01*
X303048Y221236D01*
X303832Y221838D01*
X304434Y222622D01*
X304812Y223534D01*
X304941Y224514D01*
X304812Y225494D01*
X304434Y226407D01*
X303832Y227191D01*
X303048Y227792D01*
X302136Y228170D01*
X301156Y228299D01*
D02*
G37*
G36*
X151500Y227785D02*
X150520Y227656D01*
X149607Y227278D01*
X148823Y226677D01*
X148222Y225893D01*
X147844Y224980D01*
X147715Y224000D01*
X147844Y223020D01*
X148222Y222107D01*
X148823Y221323D01*
X149607Y220722D01*
X150520Y220344D01*
X151500Y220215D01*
X152480Y220344D01*
X153393Y220722D01*
X154176Y221323D01*
X154778Y222107D01*
X155156Y223020D01*
X155285Y224000D01*
X155156Y224980D01*
X154778Y225893D01*
X154176Y226677D01*
X153393Y227278D01*
X152480Y227656D01*
X151500Y227785D01*
D02*
G37*
G36*
X214000Y221185D02*
Y220000D01*
X215185D01*
X215148Y220183D01*
X214762Y220762D01*
X214183Y221148D01*
X214000Y221185D01*
D02*
G37*
G36*
X241185Y220000D02*
X240000D01*
Y218815D01*
X240183Y218851D01*
X240762Y219238D01*
X241148Y219817D01*
X241185Y220000D01*
D02*
G37*
G36*
X239000D02*
X237815D01*
X237852Y219817D01*
X238238Y219238D01*
X238817Y218851D01*
X239000Y218815D01*
Y220000D01*
D02*
G37*
G36*
X301156Y218299D02*
X300176Y218170D01*
X299263Y217792D01*
X298479Y217191D01*
X297878Y216407D01*
X297643Y215840D01*
X257462D01*
X257261Y215974D01*
X256656Y216094D01*
X256051Y215974D01*
X255538Y215632D01*
X255196Y215119D01*
X255076Y214514D01*
X255196Y213909D01*
X255538Y213397D01*
X255661Y213315D01*
Y212714D01*
X255538Y212632D01*
X255196Y212119D01*
X255076Y211514D01*
X255196Y210909D01*
X255538Y210397D01*
X255661Y210315D01*
Y209714D01*
X255538Y209632D01*
X255196Y209119D01*
X255076Y208514D01*
X255196Y207909D01*
X255538Y207397D01*
X255661Y207315D01*
Y206714D01*
X255538Y206632D01*
X255196Y206119D01*
X255076Y205514D01*
X255196Y204909D01*
X255538Y204397D01*
X256051Y204054D01*
X256656Y203934D01*
X257261Y204054D01*
X257462Y204189D01*
X269107D01*
X285219Y188077D01*
X285649Y187790D01*
X286156Y187689D01*
X296107D01*
X297735Y186061D01*
X297500Y185494D01*
X297371Y184514D01*
X297500Y183535D01*
X297878Y182622D01*
X298479Y181838D01*
X299263Y181236D01*
X300176Y180858D01*
X301156Y180729D01*
X302136Y180858D01*
X303048Y181236D01*
X303832Y181838D01*
X304434Y182622D01*
X304812Y183535D01*
X304941Y184514D01*
X304812Y185494D01*
X304434Y186407D01*
X303832Y187191D01*
X303048Y187792D01*
X302136Y188170D01*
X301156Y188299D01*
X300176Y188170D01*
X299609Y187935D01*
X297593Y189951D01*
X297163Y190239D01*
X296656Y190340D01*
X286705D01*
X283392Y193653D01*
X283711Y194041D01*
X283973Y193866D01*
X284156Y193829D01*
Y195014D01*
X282971D01*
X283008Y194831D01*
X283183Y194569D01*
X282794Y194250D01*
X271318Y205727D01*
X271509Y206189D01*
X286607D01*
X297477Y195319D01*
X297371Y194514D01*
X297500Y193535D01*
X297878Y192622D01*
X298479Y191838D01*
X299263Y191236D01*
X300176Y190858D01*
X301156Y190729D01*
X302136Y190858D01*
X303048Y191236D01*
X303832Y191838D01*
X304434Y192622D01*
X304812Y193535D01*
X304941Y194514D01*
X304812Y195494D01*
X304434Y196407D01*
X303832Y197191D01*
X303048Y197792D01*
X302136Y198170D01*
X301156Y198299D01*
X300176Y198170D01*
X299263Y197792D01*
X298974Y197570D01*
X288818Y207727D01*
X289009Y208189D01*
X295607D01*
X297735Y206061D01*
X297500Y205494D01*
X297371Y204514D01*
X297500Y203535D01*
X297878Y202622D01*
X298479Y201838D01*
X299263Y201236D01*
X300176Y200858D01*
X301156Y200729D01*
X302136Y200858D01*
X303048Y201236D01*
X303832Y201838D01*
X304434Y202622D01*
X304812Y203535D01*
X304941Y204514D01*
X304812Y205494D01*
X304434Y206407D01*
X303832Y207191D01*
X303048Y207792D01*
X302136Y208170D01*
X301156Y208299D01*
X300176Y208170D01*
X299609Y207935D01*
X297093Y210451D01*
X296663Y210739D01*
X296156Y210840D01*
X270205D01*
X268593Y212451D01*
X268238Y212689D01*
X268258Y213008D01*
X268321Y213189D01*
X297643D01*
X297878Y212622D01*
X298479Y211838D01*
X299263Y211236D01*
X300176Y210858D01*
X301156Y210729D01*
X302136Y210858D01*
X303048Y211236D01*
X303832Y211838D01*
X304434Y212622D01*
X304812Y213534D01*
X304941Y214514D01*
X304812Y215494D01*
X304434Y216407D01*
X303832Y217191D01*
X303048Y217792D01*
X302136Y218170D01*
X301156Y218299D01*
D02*
G37*
G36*
X151500Y217785D02*
X150520Y217656D01*
X149607Y217278D01*
X148823Y216676D01*
X148222Y215893D01*
X147844Y214980D01*
X147715Y214000D01*
X147844Y213020D01*
X148222Y212107D01*
X148823Y211323D01*
X149607Y210722D01*
X150520Y210344D01*
X151500Y210215D01*
X152480Y210344D01*
X153393Y210722D01*
X154176Y211323D01*
X154778Y212107D01*
X155156Y213020D01*
X155285Y214000D01*
X155156Y214980D01*
X154778Y215893D01*
X154176Y216676D01*
X153393Y217278D01*
X152480Y217656D01*
X151500Y217785D01*
D02*
G37*
G36*
X204000Y209685D02*
Y208500D01*
X205185D01*
X205149Y208683D01*
X204762Y209262D01*
X204183Y209648D01*
X204000Y209685D01*
D02*
G37*
G36*
X203000D02*
X202817Y209648D01*
X202238Y209262D01*
X201852Y208683D01*
X201815Y208500D01*
X203000D01*
Y209685D01*
D02*
G37*
G36*
X205185Y207500D02*
X204000D01*
Y206315D01*
X204183Y206351D01*
X204762Y206738D01*
X205149Y207317D01*
X205185Y207500D01*
D02*
G37*
G36*
X203000D02*
X201815D01*
X201852Y207317D01*
X202238Y206738D01*
X202817Y206351D01*
X203000Y206315D01*
Y207500D01*
D02*
G37*
G36*
X151500Y207785D02*
X150520Y207656D01*
X149607Y207278D01*
X148823Y206677D01*
X148222Y205893D01*
X147844Y204980D01*
X147715Y204000D01*
X147844Y203020D01*
X148222Y202107D01*
X148823Y201324D01*
X149607Y200722D01*
X150520Y200344D01*
X151500Y200215D01*
X152480Y200344D01*
X153393Y200722D01*
X154176Y201324D01*
X154778Y202107D01*
X155156Y203020D01*
X155285Y204000D01*
X155156Y204980D01*
X154778Y205893D01*
X154176Y206677D01*
X153393Y207278D01*
X152480Y207656D01*
X151500Y207785D01*
D02*
G37*
G36*
X285156Y197199D02*
Y196014D01*
X286341D01*
X286304Y196197D01*
X285918Y196776D01*
X285339Y197163D01*
X285156Y197199D01*
D02*
G37*
G36*
X284156D02*
X283973Y197163D01*
X283394Y196776D01*
X283008Y196197D01*
X282971Y196014D01*
X284156D01*
Y197199D01*
D02*
G37*
G36*
X286341Y195014D02*
X285156D01*
Y193829D01*
X285339Y193866D01*
X285918Y194253D01*
X286304Y194831D01*
X286341Y195014D01*
D02*
G37*
G36*
X151500Y197785D02*
X150520Y197656D01*
X149607Y197278D01*
X148823Y196677D01*
X148222Y195893D01*
X147844Y194980D01*
X147715Y194000D01*
X147844Y193020D01*
X148222Y192107D01*
X148823Y191323D01*
X149607Y190722D01*
X150520Y190344D01*
X151500Y190215D01*
X152480Y190344D01*
X153393Y190722D01*
X154176Y191323D01*
X154778Y192107D01*
X155156Y193020D01*
X155285Y194000D01*
X155156Y194980D01*
X154778Y195893D01*
X154176Y196677D01*
X153393Y197278D01*
X152480Y197656D01*
X151500Y197785D01*
D02*
G37*
G36*
X199841Y183026D02*
Y181841D01*
X201026D01*
X200990Y182024D01*
X200603Y182603D01*
X200024Y182990D01*
X199841Y183026D01*
D02*
G37*
G36*
X198841D02*
X198659Y182990D01*
X198080Y182603D01*
X197693Y182024D01*
X197657Y181841D01*
X198841D01*
Y183026D01*
D02*
G37*
G36*
X236500Y182685D02*
Y181500D01*
X237685D01*
X237649Y181683D01*
X237262Y182262D01*
X236683Y182649D01*
X236500Y182685D01*
D02*
G37*
G36*
X235500D02*
X235317Y182649D01*
X234738Y182262D01*
X234351Y181683D01*
X234315Y181500D01*
X235500D01*
Y182685D01*
D02*
G37*
G36*
X151500Y187785D02*
X150520Y187656D01*
X149607Y187278D01*
X148823Y186677D01*
X148222Y185893D01*
X147844Y184980D01*
X147715Y184000D01*
X147844Y183020D01*
X148222Y182107D01*
X148823Y181324D01*
X149607Y180722D01*
X150520Y180344D01*
X151500Y180215D01*
X152480Y180344D01*
X153393Y180722D01*
X154176Y181324D01*
X154778Y182107D01*
X155156Y183020D01*
X155285Y184000D01*
X155156Y184980D01*
X154778Y185893D01*
X154176Y186677D01*
X153393Y187278D01*
X152480Y187656D01*
X151500Y187785D01*
D02*
G37*
G36*
X198841Y180841D02*
X197657D01*
X197693Y180659D01*
X198080Y180080D01*
X198659Y179693D01*
X198841Y179657D01*
Y180841D01*
D02*
G37*
G36*
X237685Y180500D02*
X236500D01*
Y179315D01*
X236683Y179351D01*
X237262Y179738D01*
X237649Y180317D01*
X237685Y180500D01*
D02*
G37*
G36*
X235500D02*
X234315D01*
X234351Y180317D01*
X234738Y179738D01*
X235317Y179351D01*
X235500Y179315D01*
Y180500D01*
D02*
G37*
G36*
X256156Y201594D02*
X255551Y201474D01*
X255038Y201132D01*
X254696Y200619D01*
X254575Y200014D01*
X254696Y199409D01*
X255038Y198897D01*
X255551Y198554D01*
X256156Y198434D01*
X256761Y198554D01*
X256962Y198689D01*
X270107D01*
X295219Y173577D01*
X295649Y173290D01*
X296156Y173189D01*
X297643D01*
X297878Y172622D01*
X298479Y171838D01*
X299263Y171236D01*
X300176Y170858D01*
X301156Y170729D01*
X302136Y170858D01*
X303048Y171236D01*
X303832Y171838D01*
X304434Y172622D01*
X304812Y173535D01*
X304941Y174514D01*
X304812Y175494D01*
X304434Y176407D01*
X303832Y177191D01*
X303048Y177792D01*
X302136Y178170D01*
X301156Y178299D01*
X300176Y178170D01*
X299263Y177792D01*
X298479Y177191D01*
X297878Y176407D01*
X297643Y175840D01*
X296705D01*
X271593Y200951D01*
X271163Y201239D01*
X270656Y201340D01*
X256962D01*
X256761Y201474D01*
X256156Y201594D01*
D02*
G37*
G36*
X151500Y177785D02*
X150520Y177656D01*
X149607Y177278D01*
X148823Y176676D01*
X148222Y175893D01*
X147844Y174980D01*
X147715Y174000D01*
X147844Y173020D01*
X148222Y172107D01*
X148823Y171324D01*
X149607Y170722D01*
X150520Y170344D01*
X151500Y170215D01*
X152480Y170344D01*
X153393Y170722D01*
X154176Y171324D01*
X154778Y172107D01*
X155156Y173020D01*
X155285Y174000D01*
X155156Y174980D01*
X154778Y175893D01*
X154176Y176676D01*
X153393Y177278D01*
X152480Y177656D01*
X151500Y177785D01*
D02*
G37*
G36*
X201219Y180841D02*
X199841D01*
Y179281D01*
X199953Y179169D01*
X199920Y179000D01*
X200040Y178395D01*
X200382Y177883D01*
X200895Y177540D01*
X201133Y177493D01*
X215613Y163013D01*
X216043Y162725D01*
X216550Y162625D01*
X297877D01*
X297878Y162622D01*
X298479Y161838D01*
X299263Y161236D01*
X300176Y160858D01*
X301156Y160729D01*
X302136Y160858D01*
X303048Y161236D01*
X303832Y161838D01*
X304434Y162622D01*
X304812Y163534D01*
X304941Y164514D01*
X304812Y165494D01*
X304434Y166407D01*
X303832Y167191D01*
X303048Y167792D01*
X302136Y168170D01*
X301156Y168299D01*
X300176Y168170D01*
X299263Y167792D01*
X298479Y167191D01*
X297878Y166407D01*
X297500Y165494D01*
X297471Y165276D01*
X217099D01*
X203007Y179367D01*
X202960Y179605D01*
X202618Y180117D01*
X202105Y180460D01*
X201500Y180580D01*
X201483Y180577D01*
X201219Y180841D01*
D02*
G37*
G36*
X237317Y154295D02*
X236595Y154200D01*
X235921Y153921D01*
X235649Y153712D01*
X235149Y153958D01*
Y154271D01*
X229612D01*
Y148734D01*
X235149D01*
Y149046D01*
X235649Y149293D01*
X235921Y149084D01*
X236595Y148805D01*
X237317Y148710D01*
X238040Y148805D01*
X238714Y149084D01*
X239292Y149528D01*
X239736Y150106D01*
X240015Y150780D01*
X240110Y151502D01*
X240015Y152225D01*
X239736Y152899D01*
X239292Y153477D01*
X238714Y153921D01*
X238040Y154200D01*
X237317Y154295D01*
D02*
G37*
G36*
X282144Y143689D02*
Y140268D01*
X285565D01*
X285495Y140800D01*
X285097Y141761D01*
X284463Y142587D01*
X283637Y143220D01*
X282676Y143619D01*
X282144Y143689D01*
D02*
G37*
G36*
X281144D02*
X280612Y143619D01*
X279651Y143220D01*
X278825Y142587D01*
X278191Y141761D01*
X277793Y140800D01*
X277723Y140268D01*
X281144D01*
Y143689D01*
D02*
G37*
G36*
X198491Y148580D02*
X197887Y148460D01*
X197374Y148117D01*
X197031Y147605D01*
X196911Y147000D01*
X197031Y146395D01*
X197374Y145882D01*
X197887Y145540D01*
X198491Y145420D01*
X199096Y145540D01*
X199298Y145675D01*
X200951D01*
X203063Y143563D01*
X203493Y143275D01*
X204000Y143175D01*
X252301D01*
Y137889D01*
X249737Y135326D01*
X155013D01*
X154778Y135893D01*
X154176Y136677D01*
X153393Y137278D01*
X152480Y137656D01*
X151500Y137785D01*
X150520Y137656D01*
X149607Y137278D01*
X148823Y136677D01*
X148222Y135893D01*
X147844Y134980D01*
X147715Y134000D01*
X147844Y133020D01*
X148222Y132107D01*
X148823Y131324D01*
X149607Y130722D01*
X150520Y130344D01*
X151500Y130215D01*
X152480Y130344D01*
X153393Y130722D01*
X154176Y131324D01*
X154778Y132107D01*
X155013Y132675D01*
X250286D01*
X250793Y132775D01*
X251223Y133063D01*
X254175Y136015D01*
X259806D01*
Y142612D01*
X260306Y142819D01*
X269549Y133577D01*
X269979Y133290D01*
X270486Y133189D01*
X297643D01*
X297878Y132622D01*
X298479Y131838D01*
X299263Y131236D01*
X300176Y130858D01*
X301156Y130729D01*
X302136Y130858D01*
X303048Y131236D01*
X303832Y131838D01*
X304434Y132622D01*
X304812Y133535D01*
X304941Y134514D01*
X304812Y135494D01*
X304434Y136407D01*
X303832Y137191D01*
X303048Y137792D01*
X302136Y138170D01*
X301156Y138299D01*
X300176Y138170D01*
X299263Y137792D01*
X298479Y137191D01*
X297878Y136407D01*
X297643Y135840D01*
X283936D01*
X283667Y136286D01*
X283670Y136340D01*
X284463Y136949D01*
X285097Y137774D01*
X285495Y138736D01*
X285565Y139268D01*
X281644D01*
X277723D01*
X277793Y138736D01*
X278191Y137774D01*
X278825Y136949D01*
X279619Y136340D01*
X279621Y136286D01*
X279352Y135840D01*
X271035D01*
X261437Y145437D01*
X261007Y145725D01*
X260500Y145826D01*
X204549D01*
X202437Y147937D01*
X202007Y148225D01*
X201500Y148326D01*
X199298D01*
X199096Y148460D01*
X198491Y148580D01*
D02*
G37*
G36*
X301656Y128435D02*
Y125014D01*
X305077D01*
X305007Y125546D01*
X304609Y126508D01*
X303975Y127333D01*
X303149Y127967D01*
X302188Y128365D01*
X301656Y128435D01*
D02*
G37*
G36*
X300656D02*
X300124Y128365D01*
X299163Y127967D01*
X298337Y127333D01*
X297703Y126508D01*
X297305Y125546D01*
X297235Y125014D01*
X300656D01*
Y128435D01*
D02*
G37*
G36*
X152000Y127921D02*
Y124500D01*
X155421D01*
X155351Y125032D01*
X154953Y125993D01*
X154319Y126819D01*
X153493Y127453D01*
X152532Y127851D01*
X152000Y127921D01*
D02*
G37*
G36*
X151000D02*
X150468Y127851D01*
X149507Y127453D01*
X148681Y126819D01*
X148047Y125993D01*
X147649Y125032D01*
X147579Y124500D01*
X151000D01*
Y127921D01*
D02*
G37*
G36*
X305077Y124014D02*
X301656D01*
Y120593D01*
X302188Y120663D01*
X303149Y121061D01*
X303975Y121695D01*
X304609Y122521D01*
X305007Y123482D01*
X305077Y124014D01*
D02*
G37*
G36*
X300656D02*
X297235D01*
X297305Y123482D01*
X297703Y122521D01*
X298337Y121695D01*
X299163Y121061D01*
X300124Y120663D01*
X300656Y120593D01*
Y124014D01*
D02*
G37*
G36*
X155421Y123500D02*
X152000D01*
Y120079D01*
X152532Y120149D01*
X153493Y120547D01*
X154319Y121181D01*
X154953Y122007D01*
X155351Y122968D01*
X155421Y123500D01*
D02*
G37*
G36*
X151000D02*
X147579D01*
X147649Y122968D01*
X148047Y122007D01*
X148681Y121181D01*
X149507Y120547D01*
X150468Y120149D01*
X151000Y120079D01*
Y123500D01*
D02*
G37*
%LPD*%
G36*
X198175Y208951D02*
Y205184D01*
X197675Y205032D01*
X197617Y205118D01*
X197105Y205460D01*
X196867Y205507D01*
X191025Y211349D01*
Y215447D01*
X191487Y215638D01*
X198175Y208951D01*
D02*
G37*
G36*
X239737Y286412D02*
X236537Y283211D01*
X235999Y283625D01*
X235086Y284003D01*
X234106Y284132D01*
X233127Y284003D01*
X232214Y283625D01*
X231430Y283023D01*
X230828Y282239D01*
X230450Y281326D01*
X230321Y280346D01*
X230450Y279367D01*
X230828Y278454D01*
X231239Y277919D01*
X230992Y277419D01*
X228908D01*
X227528Y278800D01*
X227763Y279367D01*
X227891Y280346D01*
X227763Y281326D01*
X227384Y282239D01*
X226783Y283023D01*
X225999Y283625D01*
X225086Y284003D01*
X224106Y284132D01*
X223192Y284011D01*
X223070Y284141D01*
X222938Y284465D01*
X225347Y286874D01*
X239546D01*
X239737Y286412D01*
D02*
G37*
D12*
X180000Y167500D02*
X181500Y166000D01*
X196000D01*
X151500Y144000D02*
Y146500D01*
X147247Y150753D02*
X151500Y146500D01*
X147247Y150753D02*
Y155762D01*
X149738Y158253D01*
X153207D01*
X158754Y163800D01*
X160300D01*
X164000Y167500D01*
X180000D01*
X159500Y162000D02*
X203500D01*
X151500Y154000D02*
X159500Y162000D01*
X224500Y192500D02*
Y200500D01*
X225500Y201500D01*
X230500Y196500D01*
X244500Y213500D02*
Y257500D01*
X233000Y202000D02*
X244500Y213500D01*
X247500D02*
Y261000D01*
X233000Y199000D02*
Y202000D01*
X235500Y201500D02*
X247500Y213500D01*
X255156Y325156D02*
Y334656D01*
X257715Y326785D02*
Y336285D01*
X216559Y279330D02*
Y282505D01*
X215841Y278612D02*
X216559Y279330D01*
X214106Y280346D02*
X215841Y278612D01*
X215841D01*
X216559Y282505D02*
X224053Y289999D01*
X268216D01*
X293702Y264514D01*
X301156D01*
X267471Y288199D02*
X301156Y254514D01*
X224798Y288199D02*
X267471D01*
X218359Y281760D02*
X224798Y288199D01*
X234106Y278906D02*
X241599Y286399D01*
X234106Y278906D02*
Y280346D01*
X259271Y286399D02*
X301156Y244514D01*
X241599Y286399D02*
X259271D01*
X218359Y278585D02*
Y281760D01*
X228359Y276094D02*
X237594D01*
X239854Y278354D01*
X215868Y276094D02*
X218359Y278585D01*
X212345Y276094D02*
X215868D01*
X208092Y280346D02*
X212345Y276094D01*
X204106Y280346D02*
X208092D01*
X224106D02*
X228359Y276094D01*
X239854Y278354D02*
Y282108D01*
X242345Y284599D01*
X251071D01*
X301156Y234514D01*
X194500Y221000D02*
X204106Y230606D01*
X194500Y219000D02*
Y221000D01*
X189700Y210800D02*
X196500Y204000D01*
X189700Y210800D02*
Y316246D01*
X196349Y322894D01*
Y332151D01*
X199000Y323000D02*
Y334000D01*
X191500Y315500D02*
X199000Y323000D01*
X191500Y217500D02*
Y315500D01*
Y217500D02*
X199500Y209500D01*
Y204000D02*
Y209500D01*
X204106Y234394D02*
X207000Y231500D01*
X260500Y144500D02*
X270486Y134514D01*
X204000Y144500D02*
X260500D01*
X201500Y147000D02*
X204000Y144500D01*
X282800Y157700D02*
X295986Y144514D01*
X198700Y157700D02*
X282800D01*
X187500Y146500D02*
X198700Y157700D01*
X295986Y144514D02*
X301156D01*
X187464Y159500D02*
X296170D01*
X174964Y147000D02*
X187464Y159500D01*
X296170D02*
X301156Y154514D01*
X198491Y147000D02*
X201500D01*
X270486Y134514D02*
X301156D01*
X250286Y134000D02*
X256053Y139768D01*
X151500Y134000D02*
X250286D01*
X300592Y163950D02*
X301156Y164514D01*
X216550Y163950D02*
X300592D01*
X201500Y179000D02*
X216550Y163950D01*
X296156Y174514D02*
X301156D01*
X270656Y200014D02*
X296156Y174514D01*
X256156Y200014D02*
X270656D01*
X287156Y207514D02*
X300156Y194514D01*
X269110Y207514D02*
X287156D01*
X268110Y208514D02*
X269110Y207514D01*
X286156Y189014D02*
X296656D01*
X269656Y205514D02*
X286156Y189014D01*
X256656Y205514D02*
X269656D01*
X296656Y189014D02*
X301156Y184514D01*
X300156Y194514D02*
X301156D01*
X256656Y208514D02*
X268110D01*
X269656Y209514D02*
X296156D01*
X267656Y211514D02*
X269656Y209514D01*
X256656Y211514D02*
X267656D01*
X296156Y209514D02*
X301156Y204514D01*
X256656Y214514D02*
X301156D01*
D45*
X204106Y222894D02*
X225500Y201500D01*
X204106Y222894D02*
Y230606D01*
Y234394D01*
Y270346D01*
D46*
X301156Y344514D02*
D03*
Y334514D02*
D03*
Y324514D02*
D03*
Y314514D02*
D03*
Y304514D02*
D03*
Y294514D02*
D03*
Y284514D02*
D03*
Y274514D02*
D03*
Y264514D02*
D03*
Y254514D02*
D03*
Y244514D02*
D03*
Y234514D02*
D03*
Y224514D02*
D03*
Y214514D02*
D03*
Y204514D02*
D03*
Y194514D02*
D03*
Y184514D02*
D03*
Y174514D02*
D03*
Y164514D02*
D03*
Y154514D02*
D03*
Y144514D02*
D03*
Y134514D02*
D03*
Y124514D02*
D03*
X151500Y344000D02*
D03*
Y334000D02*
D03*
Y324000D02*
D03*
Y314000D02*
D03*
Y304000D02*
D03*
Y294000D02*
D03*
Y284000D02*
D03*
Y274000D02*
D03*
Y264000D02*
D03*
Y254000D02*
D03*
Y244000D02*
D03*
Y234000D02*
D03*
Y224000D02*
D03*
Y214000D02*
D03*
Y204000D02*
D03*
Y194000D02*
D03*
Y184000D02*
D03*
Y174000D02*
D03*
Y164000D02*
D03*
Y154000D02*
D03*
Y144000D02*
D03*
Y134000D02*
D03*
Y124000D02*
D03*
X244106Y280346D02*
D03*
Y270346D02*
D03*
X234106Y280346D02*
D03*
Y270346D02*
D03*
X224106Y280346D02*
D03*
Y270346D02*
D03*
X214106Y280346D02*
D03*
Y270346D02*
D03*
X204106Y280346D02*
D03*
X256053Y122051D02*
D03*
X281644D02*
D03*
Y139768D02*
D03*
D47*
X301156Y354514D02*
D03*
X151500Y354000D02*
D03*
D48*
X204106Y270346D02*
D03*
X256053Y139768D02*
D03*
D49*
X215156Y312272D02*
D03*
X225156D02*
D03*
X235156D02*
D03*
D50*
X237317Y151502D02*
D03*
D51*
X232380D02*
D03*
D52*
X196000Y166000D02*
D03*
X236000Y181000D02*
D03*
X239500Y220500D02*
D03*
X224500Y192500D02*
D03*
X244500Y257500D02*
D03*
X247500Y261000D02*
D03*
X255156Y325156D02*
D03*
X257715Y326785D02*
D03*
X194500Y219000D02*
D03*
X248000Y298500D02*
D03*
X202000Y299000D02*
D03*
X198491Y147000D02*
D03*
X174964D02*
D03*
X187500Y146500D02*
D03*
X230500Y196500D02*
D03*
X203500Y208000D02*
D03*
X213500Y219500D02*
D03*
X207000Y231500D02*
D03*
X199500Y204000D02*
D03*
X196500D02*
D03*
X199341Y181341D02*
D03*
X201500Y179000D02*
D03*
X233000Y199000D02*
D03*
X235500Y201500D02*
D03*
X247000Y339000D02*
D03*
X188500D02*
D03*
X196349Y332151D02*
D03*
X199000Y334000D02*
D03*
X255156Y334656D02*
D03*
X257715Y336285D02*
D03*
X203500Y162000D02*
D03*
X284656Y195514D02*
D03*
X256156Y200014D02*
D03*
X256656Y205514D02*
D03*
Y208514D02*
D03*
Y211514D02*
D03*
Y214514D02*
D03*
D53*
X224500Y338500D02*
D03*
M02*
