G04*
G04 #@! TF.GenerationSoftware,Altium Limited,Altium Designer,18.0.12 (696)*
G04*
G04 Layer_Color=16711935*
%FSLAX25Y25*%
%MOIN*%
G70*
G01*
G75*
%ADD54C,0.00200*%
%ADD55C,0.00000*%
D54*
X184932Y367673D02*
G03*
X184144Y366886I0J-787D01*
G01*
X208554D02*
G03*
X207766Y367673I-787J0D01*
G01*
X208552Y366889D02*
G03*
X207768Y367280I-687J-397D01*
G01*
X184932Y367280D02*
G03*
X184145Y366888I0J-984D01*
G01*
X210745Y365977D02*
G03*
X210522Y365348I777J-629D01*
G01*
X211825Y365664D02*
G03*
X211703Y365311I452J-353D01*
G01*
X182176Y365348D02*
G03*
X181953Y365977I-1000J0D01*
G01*
X180994Y365311D02*
G03*
X180873Y365664I-573J0D01*
G01*
X243739Y367673D02*
G03*
X242951Y366886I0J-787D01*
G01*
X267361D02*
G03*
X266573Y367673I-787J0D01*
G01*
X267359Y366889D02*
G03*
X266575Y367280I-687J-397D01*
G01*
X243739Y367280D02*
G03*
X242952Y366888I0J-984D01*
G01*
X269552Y365977D02*
G03*
X269329Y365348I777J-629D01*
G01*
X270632Y365664D02*
G03*
X270510Y365311I452J-353D01*
G01*
X240983Y365348D02*
G03*
X240760Y365977I-1000J0D01*
G01*
X239802Y365311D02*
G03*
X239680Y365664I-573J0D01*
G01*
X180994Y345626D02*
X211703D01*
X180994D02*
Y365311D01*
X184144D01*
Y366886D01*
X184932Y367673D02*
X207766D01*
X208554Y365311D02*
Y366886D01*
Y365311D02*
X210522D01*
X211703D01*
Y345626D02*
Y365311D01*
X184932Y367280D02*
X207766D01*
X212294Y367870D02*
X213081Y367280D01*
X210748Y365981D02*
X212294Y367870D01*
X210522Y365311D02*
Y365348D01*
X211824Y365663D02*
X213081Y367280D01*
X179617D02*
X180404Y367870D01*
X181950Y365981D01*
X182176Y365311D02*
Y365348D01*
X179617Y367280D02*
X180874Y365663D01*
X239802Y345626D02*
X270510D01*
X239802D02*
Y365311D01*
X242951D01*
Y366886D01*
X243739Y367673D02*
X266573D01*
X267361Y365311D02*
Y366886D01*
Y365311D02*
X269329D01*
X270510D01*
Y345626D02*
Y365311D01*
X243739Y367280D02*
X266573D01*
X271101Y367870D02*
X271888Y367280D01*
X269555Y365981D02*
X271101Y367870D01*
X269329Y365311D02*
Y365348D01*
X270631Y365663D02*
X271888Y367280D01*
X238424D02*
X239211Y367870D01*
X240757Y365981D01*
X240983Y365311D02*
Y365348D01*
X238424Y367280D02*
X239681Y365663D01*
D55*
X181191Y362555D02*
X211506D01*
X239998Y362555D02*
X270313D01*
M02*
