G04*
G04 #@! TF.GenerationSoftware,Altium Limited,Altium Designer,18.0.12 (696)*
G04*
G04 Layer_Color=32768*
%FSLAX25Y25*%
%MOIN*%
G70*
G01*
G75*
%ADD56C,0.00394*%
%ADD57C,0.00197*%
D56*
X216457Y201454D02*
X219241Y204238D01*
X216457D02*
X219241Y201454D01*
X202656Y165878D02*
Y169815D01*
X200687Y167847D02*
X204624D01*
X179680Y124216D02*
X183617D01*
X181649Y122248D02*
Y126185D01*
X191530Y124216D02*
X195467D01*
X193499Y122248D02*
Y126185D01*
X167830Y124216D02*
X171767D01*
X169798Y122248D02*
Y126185D01*
X257038Y149846D02*
X260975D01*
X259006Y147878D02*
Y151815D01*
X266880Y130909D02*
X270817D01*
X268849Y128941D02*
Y132878D01*
X232880Y151502D02*
X236817D01*
X234849Y149534D02*
Y153471D01*
X285156Y178378D02*
Y182315D01*
X283187Y180347D02*
X287124D01*
X284656Y204228D02*
Y208165D01*
X282687Y206197D02*
X286624D01*
X246656Y146046D02*
Y149983D01*
X244687Y148014D02*
X248624D01*
X223156Y146384D02*
Y150321D01*
X221187Y148353D02*
X225124D01*
X202000Y305031D02*
Y308968D01*
X200031Y307000D02*
X203969D01*
X248000Y305031D02*
Y308968D01*
X246031Y307000D02*
X249969D01*
X268849Y191378D02*
Y195315D01*
X266880Y193347D02*
X270817D01*
X246156Y166892D02*
Y170829D01*
X244187Y168861D02*
X248124D01*
X205349Y122248D02*
Y126185D01*
X203380Y124216D02*
X207317D01*
D57*
X180545Y202847D02*
X217849Y165542D01*
Y240150D02*
X255153Y202847D01*
X217849Y165542D02*
X255153Y202847D01*
X180545D02*
X217849Y240150D01*
X197144Y164894D02*
X208168D01*
X197144Y170799D02*
X208168D01*
Y164894D02*
Y170799D01*
X197144Y164894D02*
Y170799D01*
X184601Y118705D02*
Y129728D01*
X178696Y118705D02*
Y129728D01*
X184601D01*
X178696Y118705D02*
X184601D01*
X196451D02*
Y129728D01*
X190546Y118705D02*
Y129728D01*
X196451D01*
X190546Y118705D02*
X196451D01*
X172751D02*
Y129728D01*
X166846Y118705D02*
Y129728D01*
X172751D01*
X166846Y118705D02*
X172751D01*
X264518Y146697D02*
Y152996D01*
X253495Y146697D02*
Y152996D01*
Y146697D02*
X264518D01*
X253495Y152996D02*
X264518D01*
X252707Y118705D02*
X284991D01*
X252707D02*
Y143114D01*
X284991D01*
Y118705D02*
Y143114D01*
X230018Y119219D02*
X239680D01*
X230018Y153865D02*
X239680D01*
Y119219D02*
Y153865D01*
X230018Y119219D02*
Y153865D01*
X282006Y174835D02*
X288305D01*
X282006Y185858D02*
X288305D01*
X282006Y174835D02*
Y185858D01*
X288305Y174835D02*
Y185858D01*
X281506Y211709D02*
X287806D01*
X281506Y200685D02*
X287806D01*
Y211709D01*
X281506Y200685D02*
Y211709D01*
X243506Y142502D02*
X249805D01*
X243506Y153526D02*
X249805D01*
X243506Y142502D02*
Y153526D01*
X249805Y142502D02*
Y153526D01*
X220006Y142841D02*
X226306D01*
X220006Y153865D02*
X226306D01*
X220006Y142841D02*
Y153865D01*
X226306Y142841D02*
Y153865D01*
X198850Y301488D02*
X205150D01*
X198850Y312512D02*
X205150D01*
X198850Y301488D02*
Y312512D01*
X205150Y301488D02*
Y312512D01*
X244850Y301488D02*
X251150D01*
X244850Y312512D02*
X251150D01*
X244850Y301488D02*
Y312512D01*
X251150Y301488D02*
Y312512D01*
X278495Y163228D02*
Y223465D01*
X259203D02*
X278495D01*
X259203Y163228D02*
X278495D01*
X259203D02*
Y223465D01*
X243203Y174372D02*
X249109D01*
X243203Y163349D02*
X249109D01*
Y174372D01*
X243203Y163349D02*
Y174372D01*
X202396Y118705D02*
X208302D01*
X202396Y129728D02*
X208302D01*
X202396Y118705D02*
Y129728D01*
X208302Y118705D02*
Y129728D01*
M02*
