M48
;Layer_Color=9474304
;FILE_FORMAT=2:5
INCH,LZ
;TYPE=PLATED
T1F00S00C0.00800
T2F00S00C0.01500
T3F00S00C0.03150
T4F00S00C0.03543
%
T01
X0166Y0133276
X0162791Y0138
X0169209
X0166Y0142724
T02
X0147Y01085
X01455Y0117
X01475Y01435
X01855Y01405
X01755Y0121
X01695Y0115
T03
X01925Y01285
X0212185Y01285
T04
X012Y0107843
Y0117842
Y0127842
Y0137843
X02245
Y0127842
Y0117842
Y0107843
M30
