M48
;Layer_Color=9474304
;FILE_FORMAT=2:5
INCH,LZ
;TYPE=PLATED
T1F00S00C0.00800
T2F00S00C0.02800
T3F00S00C0.03150
T4F00S00C0.03543
T5F00S00C0.04000
%
T01
X0161Y0155
X01805Y0201
X0189Y02085
X02125Y0188508
X0257Y01795
X0256224Y0227791
Y0234209
X02515Y0231
X0260949
X0227Y02685
X0134Y02885
X01305Y023
X01275Y02295
X01285Y02105
X0133Y0201
X01385Y01755
T02
X0169Y01495
T03
X0211Y0216657
X0211Y0236343
X01985Y0234157
X01985Y0253842
X01985Y0261157
X01985Y0280842
X0218657Y0285
X0238342Y0285
T04
X01185Y01295
X01285
X01385
X01485
Y01395
X01385
X01285
X01185
X01085
X0217
X0227
X0237
X0247
X0257
X0267
X0277
X0287
X0233Y0163
X0223
X0213
X0203
X02255Y0233
X02355
X0279Y0284
X0289
T05
X0279Y0182
Y0192
X0289
Y0202
Y0212
Y0222
Y0232
Y0242
Y0252
Y0262
Y0272
X0279
Y0262
Y0252
Y0242
Y0232
Y0222
Y0212
Y0202
X0289Y01815
X0119Y0182
Y0192
Y0202
Y0212
Y0222
Y0232
Y0242
Y0252
Y0262
Y0272
X0109
Y0262
Y0252
Y0242
Y0232
Y0222
Y0212
Y0202
Y0192
Y0182
M30
