G04*
G04 #@! TF.GenerationSoftware,Altium Limited,Altium Designer,18.0.12 (696)*
G04*
G04 Layer_Color=65535*
%FSLAX25Y25*%
%MOIN*%
G70*
G01*
G75*
%ADD10C,0.00787*%
%ADD11C,0.00984*%
%ADD12C,0.01000*%
D10*
X192339Y153726D02*
G03*
X206140Y152768I7161J3274D01*
G01*
Y161232D02*
G03*
X192339Y160274I-6640J-4232D01*
G01*
X190274Y123181D02*
G03*
X191232Y136982I-3274J7161D01*
G01*
X182768D02*
G03*
X183726Y123181I4232J-6640D01*
G01*
X169274Y123339D02*
G03*
X170232Y137140I-3274J7161D01*
G01*
X161768D02*
G03*
X162726Y123339I4232J-6640D01*
G01*
X193894Y190382D02*
X213193D01*
X203153Y170658D02*
X211618D01*
X181968Y171898D02*
Y184102D01*
X178032Y171898D02*
Y184102D01*
Y171898D02*
X181968D01*
X178032Y184102D02*
X181968D01*
X157236Y167654D02*
Y168047D01*
X161764Y167654D02*
Y168047D01*
X147236Y167654D02*
Y168047D01*
X151764Y167654D02*
Y168047D01*
X235126Y186504D02*
X250874D01*
X235126Y174496D02*
X250874D01*
X151835Y143303D02*
Y143697D01*
X156165Y143303D02*
Y143697D01*
X265000Y175000D02*
X275000D01*
Y135000D02*
Y175000D01*
X265000Y135000D02*
Y175000D01*
Y135000D02*
X275000D01*
X220854Y132472D02*
Y144480D01*
Y132472D02*
X240146D01*
X220854Y144480D02*
X240146D01*
Y132472D02*
Y144480D01*
X130000Y135000D02*
X140000D01*
X130000D02*
Y175000D01*
X140000Y135000D02*
Y175000D01*
X130000D02*
X140000D01*
D11*
X175472Y184988D02*
G03*
X175472Y184988I-492J0D01*
G01*
X241937Y149500D02*
G03*
X241937Y149500I-492J0D01*
G01*
D12*
X221400Y161475D02*
Y157309D01*
X222233Y156476D01*
X223899D01*
X224732Y157309D01*
Y161475D01*
X226398Y160642D02*
X227231Y161475D01*
X228898D01*
X229731Y160642D01*
Y159809D01*
X228898Y158976D01*
X228064D01*
X228898D01*
X229731Y158142D01*
Y157309D01*
X228898Y156476D01*
X227231D01*
X226398Y157309D01*
X174000Y193998D02*
Y189833D01*
X174833Y189000D01*
X176499D01*
X177332Y189833D01*
Y193998D01*
X182331Y189000D02*
X178998D01*
X182331Y192332D01*
Y193165D01*
X181498Y193998D01*
X179831D01*
X178998Y193165D01*
X204000Y197998D02*
Y193833D01*
X204833Y193000D01*
X206499D01*
X207332Y193833D01*
Y197998D01*
X208998Y193000D02*
X210665D01*
X209831D01*
Y197998D01*
X208998Y197165D01*
X229900Y190500D02*
Y195498D01*
X232399D01*
X233232Y194665D01*
Y192999D01*
X232399Y192166D01*
X229900D01*
X231566D02*
X233232Y190500D01*
X238231D02*
X234898D01*
X238231Y193832D01*
Y194665D01*
X237398Y195498D01*
X235731D01*
X234898Y194665D01*
X151900Y152146D02*
Y157145D01*
X154399D01*
X155232Y156312D01*
Y154646D01*
X154399Y153813D01*
X151900D01*
X153566D02*
X155232Y152146D01*
X156898D02*
X158564D01*
X157731D01*
Y157145D01*
X156898Y156312D01*
X265600Y178400D02*
Y183398D01*
X268099D01*
X268932Y182565D01*
Y180899D01*
X268099Y180066D01*
X265600D01*
X273931Y178400D02*
X270598D01*
X273931Y181732D01*
Y182565D01*
X273098Y183398D01*
X271431D01*
X270598Y182565D01*
X130650Y178350D02*
Y184348D01*
X133649D01*
X134649Y183348D01*
Y181349D01*
X133649Y180349D01*
X130650D01*
X136648Y178350D02*
X138647D01*
X137648D01*
Y184348D01*
X136648Y183348D01*
X175332Y121323D02*
X174499Y122156D01*
X172833D01*
X172000Y121323D01*
Y117991D01*
X172833Y117157D01*
X174499D01*
X175332Y117991D01*
X180331Y122156D02*
X176998D01*
Y119657D01*
X178665Y120490D01*
X179498D01*
X180331Y119657D01*
Y117991D01*
X179498Y117157D01*
X177831D01*
X176998Y117991D01*
X196332Y122165D02*
X195499Y122998D01*
X193833D01*
X193000Y122165D01*
Y118833D01*
X193833Y118000D01*
X195499D01*
X196332Y118833D01*
X200498Y118000D02*
Y122998D01*
X197998Y120499D01*
X201331D01*
X150632Y180665D02*
X149799Y181498D01*
X148133D01*
X147300Y180665D01*
Y177333D01*
X148133Y176500D01*
X149799D01*
X150632Y177333D01*
X152298Y180665D02*
X153131Y181498D01*
X154798D01*
X155631Y180665D01*
Y179832D01*
X154798Y178999D01*
X153964D01*
X154798D01*
X155631Y178166D01*
Y177333D01*
X154798Y176500D01*
X153131D01*
X152298Y177333D01*
X160632Y180665D02*
X159799Y181498D01*
X158133D01*
X157300Y180665D01*
Y177333D01*
X158133Y176500D01*
X159799D01*
X160632Y177333D01*
X165631Y176500D02*
X162298D01*
X165631Y179832D01*
Y180665D01*
X164798Y181498D01*
X163131D01*
X162298Y180665D01*
X188332Y168665D02*
X187499Y169498D01*
X185833D01*
X185000Y168665D01*
Y165333D01*
X185833Y164500D01*
X187499D01*
X188332Y165333D01*
X189998Y164500D02*
X191665D01*
X190831D01*
Y169498D01*
X189998Y168665D01*
M02*
