G04*
G04 #@! TF.GenerationSoftware,Altium Limited,Altium Designer,18.0.12 (696)*
G04*
G04 Layer_Color=128*
%FSLAX25Y25*%
%MOIN*%
G70*
G01*
G75*
%ADD45C,0.00200*%
D45*
X188083Y157000D02*
X191232D01*
X189657Y155425D02*
Y158575D01*
X207768Y157000D02*
X210917D01*
X209343Y155425D02*
Y158575D01*
X203580Y180500D02*
X204380D01*
X203980Y180100D02*
Y180900D01*
X206789Y185224D02*
X207589D01*
X207189Y184824D02*
Y185624D01*
X209998Y180500D02*
X210798D01*
X210398Y180100D02*
Y180900D01*
X206789Y175776D02*
X207589D01*
X207189Y175376D02*
Y176176D01*
X185425Y120500D02*
X188575D01*
X187000Y118925D02*
Y122075D01*
X185425Y140185D02*
X188575D01*
X187000Y138610D02*
Y141760D01*
X164425Y120658D02*
X167575D01*
X166000Y119083D02*
Y122232D01*
X164425Y140342D02*
X167575D01*
X166000Y138768D02*
Y141917D01*
X268228Y140000D02*
X271772D01*
X270000Y138228D02*
Y141772D01*
X268228Y150000D02*
X271772D01*
X270000Y148228D02*
Y151772D01*
X268228Y160000D02*
X271772D01*
X270000Y158228D02*
Y161772D01*
X268228Y170000D02*
X271772D01*
X270000Y168228D02*
Y171772D01*
X133228Y170000D02*
X136772D01*
X135000Y168228D02*
Y171772D01*
X133228Y160000D02*
X136772D01*
X135000Y158228D02*
Y161772D01*
X133228Y150000D02*
X136772D01*
X135000Y148228D02*
Y151772D01*
X133228Y140000D02*
X136772D01*
X135000Y138228D02*
Y141772D01*
X253750Y170000D02*
X255250D01*
X254500Y169250D02*
Y170750D01*
X167750Y178000D02*
X169250D01*
X168500Y177250D02*
Y178750D01*
M02*
