G04*
G04 #@! TF.GenerationSoftware,Altium Limited,Altium Designer,18.0.12 (696)*
G04*
G04 Layer_Color=8388736*
%FSLAX25Y25*%
%MOIN*%
G70*
G01*
G75*
%ADD13R,0.08786X0.12211*%
%ADD14O,0.08274X0.02762*%
G04:AMPARAMS|DCode=15|XSize=29.65mil|YSize=39.5mil|CornerRadius=5.95mil|HoleSize=0mil|Usage=FLASHONLY|Rotation=90.000|XOffset=0mil|YOffset=0mil|HoleType=Round|Shape=RoundedRectangle|*
%AMROUNDEDRECTD15*
21,1,0.02965,0.02760,0,0,90.0*
21,1,0.01776,0.03950,0,0,90.0*
1,1,0.01190,0.01380,0.00888*
1,1,0.01190,0.01380,-0.00888*
1,1,0.01190,-0.01380,-0.00888*
1,1,0.01190,-0.01380,0.00888*
%
%ADD15ROUNDEDRECTD15*%
%ADD16R,0.06115X0.04540*%
%ADD17R,0.04934X0.13595*%
%ADD18R,0.05918X0.04147*%
%ADD19R,0.03359X0.07690*%
%ADD20C,0.06115*%
%ADD21R,0.06115X0.06115*%
%ADD22C,0.02368*%
%ADD23R,0.06115X0.06115*%
%ADD24C,0.06706*%
%ADD25R,0.06706X0.06706*%
%ADD26C,0.05800*%
%ADD27C,0.03800*%
D13*
X207189Y180500D02*
D03*
D14*
X217032Y188000D02*
D03*
Y183000D02*
D03*
Y178000D02*
D03*
Y173000D02*
D03*
X197346D02*
D03*
Y178000D02*
D03*
Y183000D02*
D03*
Y188000D02*
D03*
D15*
X185020Y181740D02*
D03*
Y178000D02*
D03*
Y174260D02*
D03*
X174980D02*
D03*
Y178000D02*
D03*
Y181740D02*
D03*
D16*
X159500Y164701D02*
D03*
Y171000D02*
D03*
X149500Y164701D02*
D03*
Y171000D02*
D03*
D17*
X231583Y180500D02*
D03*
X254417D02*
D03*
D18*
X154000Y140154D02*
D03*
Y146846D02*
D03*
D19*
X223000Y127453D02*
D03*
X228000D02*
D03*
X233000D02*
D03*
X238000D02*
D03*
X223000Y149500D02*
D03*
X228000D02*
D03*
X233000D02*
D03*
X238000D02*
D03*
D20*
X189657Y157000D02*
D03*
X187000Y120500D02*
D03*
X166000Y120658D02*
D03*
D21*
X209343Y157000D02*
D03*
D22*
X203980Y180500D02*
D03*
X207189Y185224D02*
D03*
X210398Y180500D02*
D03*
X207189Y175776D02*
D03*
D23*
X187000Y140185D02*
D03*
X166000Y140342D02*
D03*
D24*
X270000Y140000D02*
D03*
Y150000D02*
D03*
Y160000D02*
D03*
X135000Y170000D02*
D03*
Y160000D02*
D03*
Y150000D02*
D03*
D25*
X270000Y170000D02*
D03*
X135000Y140000D02*
D03*
D26*
X215595Y125500D02*
D03*
D27*
X254500Y170000D02*
D03*
X168500Y178000D02*
D03*
M02*
