G04*
G04 #@! TF.GenerationSoftware,Altium Limited,Altium Designer,18.0.12 (696)*
G04*
G04 Layer_Physical_Order=1*
G04 Layer_Color=255*
%FSLAX25Y25*%
%MOIN*%
G70*
G01*
G75*
%ADD12C,0.01000*%
%ADD28R,0.08386X0.11811*%
%ADD29O,0.07874X0.02362*%
G04:AMPARAMS|DCode=30|XSize=21.65mil|YSize=31.5mil|CornerRadius=1.95mil|HoleSize=0mil|Usage=FLASHONLY|Rotation=90.000|XOffset=0mil|YOffset=0mil|HoleType=Round|Shape=RoundedRectangle|*
%AMROUNDEDRECTD30*
21,1,0.02165,0.02760,0,0,90.0*
21,1,0.01776,0.03150,0,0,90.0*
1,1,0.00390,0.01380,0.00888*
1,1,0.00390,0.01380,-0.00888*
1,1,0.00390,-0.01380,-0.00888*
1,1,0.00390,-0.01380,0.00888*
%
%ADD30ROUNDEDRECTD30*%
%ADD31R,0.05315X0.03740*%
%ADD32R,0.04134X0.12795*%
%ADD33R,0.05118X0.03347*%
%ADD34R,0.02559X0.06890*%
%ADD35C,0.04000*%
%ADD36C,0.05315*%
%ADD37R,0.05315X0.05315*%
%ADD38C,0.01968*%
%ADD39R,0.05315X0.05315*%
%ADD40C,0.05906*%
%ADD41R,0.05906X0.05906*%
%ADD42C,0.05000*%
%ADD43C,0.03000*%
D12*
X233000Y119500D02*
X238000Y124500D01*
X187000Y140185D02*
X207685Y119500D01*
X230500Y121500D02*
X233000Y124000D01*
X193500Y137000D02*
X209000Y121500D01*
X215595Y125500D02*
X217547Y127453D01*
X209000Y121500D02*
X230500D01*
X207685Y119500D02*
X233000D01*
X217547Y127453D02*
X223000D01*
X254500Y170000D02*
Y180417D01*
X254417Y180500D02*
X254500Y180417D01*
X153201Y164701D02*
X155000Y166500D01*
X149500Y164701D02*
X153201D01*
X159500Y178000D02*
X174980D01*
X155000Y173500D02*
X159500Y178000D01*
X155000Y166500D02*
Y173500D01*
Y166500D02*
X156799Y164701D01*
X159500D01*
X135000Y160000D02*
X161500D01*
X164000Y162500D01*
Y169500D01*
X162500Y171000D02*
X164000Y169500D01*
X159500Y171000D02*
X162500D01*
X174240Y175000D02*
X174980Y174260D01*
X163500Y175000D02*
X174240D01*
X159500Y171000D02*
X163500Y175000D01*
X204413Y188000D02*
X207189Y185224D01*
X197346Y188000D02*
X204413D01*
X223000Y127453D02*
X228000D01*
X154000Y146500D02*
X164000D01*
X186000Y168500D01*
X140000Y140000D02*
X155307D01*
X159653Y134500D02*
X171500D01*
X155500Y138654D02*
X159653Y134500D01*
X155500Y138654D02*
Y139807D01*
X135000Y140000D02*
X140000D01*
X152000Y152000D02*
X166500D01*
X140000Y140000D02*
X152000Y152000D01*
X166500D02*
X181945Y167445D01*
X184000Y178000D02*
X185020D01*
X181945Y175945D02*
X184000Y178000D01*
X181945Y167445D02*
Y175945D01*
X186000Y168500D02*
X192847D01*
X186279Y183000D02*
X197346D01*
X185020Y181740D02*
X186279Y183000D01*
X189684Y178000D02*
X197346D01*
X185944Y174260D02*
X189684Y178000D01*
X185020Y174260D02*
X185944D01*
X192847Y168500D02*
X197346Y173000D01*
X155307Y140000D02*
X155500Y139807D01*
X166000Y140342D02*
X170658Y145000D01*
X191500D01*
X193500Y143000D01*
Y137000D02*
Y143000D01*
X233000Y124000D02*
Y127453D01*
X238000Y124500D02*
Y127453D01*
X171500Y134500D02*
X177185Y140185D01*
X187000D01*
X149150Y171000D02*
X149500D01*
X143150Y165000D02*
X149150Y171000D01*
X133000Y165000D02*
X143150D01*
X130547Y162547D02*
X133000Y165000D01*
X130547Y154453D02*
Y162547D01*
Y154453D02*
X135000Y150000D01*
X160240Y181740D02*
X174980D01*
X149500Y171000D02*
X160240Y181740D01*
X227000Y149500D02*
X228000D01*
D28*
X207189Y180500D02*
D03*
D29*
X217032Y188000D02*
D03*
Y183000D02*
D03*
Y178000D02*
D03*
Y173000D02*
D03*
X197346D02*
D03*
Y178000D02*
D03*
Y183000D02*
D03*
Y188000D02*
D03*
D30*
X185020Y181740D02*
D03*
Y178000D02*
D03*
Y174260D02*
D03*
X174980D02*
D03*
Y178000D02*
D03*
Y181740D02*
D03*
D31*
X159500Y164701D02*
D03*
Y171000D02*
D03*
X149500Y164701D02*
D03*
Y171000D02*
D03*
D32*
X231583Y180500D02*
D03*
X254417D02*
D03*
D33*
X154000Y140154D02*
D03*
Y146846D02*
D03*
D34*
X223000Y127453D02*
D03*
X228000D02*
D03*
X233000D02*
D03*
X238000D02*
D03*
X223000Y149500D02*
D03*
X228000D02*
D03*
X233000D02*
D03*
X238000D02*
D03*
D35*
X209343Y161343D02*
X217032Y169032D01*
X209343Y157000D02*
Y161343D01*
X233000Y149500D02*
X235500Y152000D01*
X238000Y149500D01*
X220532Y191500D02*
X260500D01*
X217032Y188000D02*
X220532Y191500D01*
X260500D02*
X270000Y182000D01*
X217032Y169032D02*
Y173000D01*
X240500Y160000D02*
X270000D01*
X235500Y155000D02*
X240500Y160000D01*
X235500Y152000D02*
Y155000D01*
X229083Y183000D02*
X231583Y180500D01*
X217032Y183000D02*
X229083D01*
X225000Y151500D02*
X227000Y149500D01*
X223000D02*
X225000Y151500D01*
Y176000D01*
X223000Y178000D02*
X225000Y176000D01*
X217032Y178000D02*
X223000D01*
X270000Y170000D02*
Y182000D01*
D36*
X189657Y157000D02*
D03*
X187000Y120500D02*
D03*
X166000Y120658D02*
D03*
D37*
X209343Y157000D02*
D03*
D38*
X203980Y180500D02*
D03*
X207189Y185224D02*
D03*
X210398Y180500D02*
D03*
X207189Y175776D02*
D03*
D39*
X187000Y140185D02*
D03*
X166000Y140342D02*
D03*
D40*
X270000Y140000D02*
D03*
Y150000D02*
D03*
Y160000D02*
D03*
X135000Y170000D02*
D03*
Y160000D02*
D03*
Y150000D02*
D03*
D41*
X270000Y170000D02*
D03*
X135000Y140000D02*
D03*
D42*
X215595Y125500D02*
D03*
D43*
X254500Y170000D02*
D03*
X168500Y178000D02*
D03*
M02*
