G04*
G04 #@! TF.GenerationSoftware,Altium Limited,Altium Designer,18.0.12 (696)*
G04*
G04 Layer_Physical_Order=2*
G04 Layer_Color=16711680*
%FSLAX25Y25*%
%MOIN*%
G70*
G01*
G75*
%ADD12C,0.01000*%
%ADD35C,0.04000*%
%ADD36C,0.05315*%
%ADD37R,0.05315X0.05315*%
%ADD38C,0.01968*%
%ADD39R,0.05315X0.05315*%
%ADD40C,0.05906*%
%ADD41R,0.05906X0.05906*%
%ADD42C,0.05000*%
%ADD43C,0.03000*%
G36*
X276000Y116000D02*
X129000D01*
Y200000D01*
X276000D01*
Y116000D01*
D02*
G37*
%LPC*%
G36*
X207689Y187148D02*
Y185724D01*
X209113D01*
X209058Y185999D01*
X208619Y186655D01*
X207963Y187093D01*
X207689Y187148D01*
D02*
G37*
G36*
X206689D02*
X206415Y187093D01*
X205758Y186655D01*
X205320Y185999D01*
X205265Y185724D01*
X206689D01*
Y187148D01*
D02*
G37*
G36*
X209113Y184724D02*
X207689D01*
Y183301D01*
X207963Y183355D01*
X208619Y183794D01*
X209058Y184450D01*
X209113Y184724D01*
D02*
G37*
G36*
X206689D02*
X205265D01*
X205320Y184450D01*
X205758Y183794D01*
X206415Y183355D01*
X206689Y183301D01*
Y184724D01*
D02*
G37*
G36*
X210898Y182424D02*
Y181000D01*
X212321D01*
X212267Y181274D01*
X211828Y181930D01*
X211172Y182369D01*
X210898Y182424D01*
D02*
G37*
G36*
X209898D02*
X209623Y182369D01*
X208967Y181930D01*
X208528Y181274D01*
X208474Y181000D01*
X209898D01*
Y182424D01*
D02*
G37*
G36*
X204480D02*
Y181000D01*
X205904D01*
X205849Y181274D01*
X205411Y181930D01*
X204754Y182369D01*
X204480Y182424D01*
D02*
G37*
G36*
X203480D02*
X203206Y182369D01*
X202550Y181930D01*
X202111Y181274D01*
X202057Y181000D01*
X203480D01*
Y182424D01*
D02*
G37*
G36*
X212321Y180000D02*
X210898D01*
Y178576D01*
X211172Y178631D01*
X211828Y179069D01*
X212267Y179726D01*
X212321Y180000D01*
D02*
G37*
G36*
X209898D02*
X208474D01*
X208528Y179726D01*
X208967Y179069D01*
X209623Y178631D01*
X209898Y178576D01*
Y180000D01*
D02*
G37*
G36*
X205904D02*
X204480D01*
Y178576D01*
X204754Y178631D01*
X205411Y179069D01*
X205849Y179726D01*
X205904Y180000D01*
D02*
G37*
G36*
X203480D02*
X202057D01*
X202111Y179726D01*
X202550Y179069D01*
X203206Y178631D01*
X203480Y178576D01*
Y180000D01*
D02*
G37*
G36*
X169000Y180449D02*
Y178500D01*
X170949D01*
X170855Y178975D01*
X170302Y179802D01*
X169475Y180355D01*
X169000Y180449D01*
D02*
G37*
G36*
X168000D02*
X167525Y180355D01*
X166698Y179802D01*
X166145Y178975D01*
X166051Y178500D01*
X168000D01*
Y180449D01*
D02*
G37*
G36*
X207689Y177699D02*
Y176276D01*
X209113D01*
X209058Y176550D01*
X208619Y177206D01*
X207963Y177645D01*
X207689Y177699D01*
D02*
G37*
G36*
X206689D02*
X206415Y177645D01*
X205758Y177206D01*
X205320Y176550D01*
X205265Y176276D01*
X206689D01*
Y177699D01*
D02*
G37*
G36*
X170949Y177500D02*
X169000D01*
Y175550D01*
X169475Y175645D01*
X170302Y176198D01*
X170855Y177024D01*
X170949Y177500D01*
D02*
G37*
G36*
X168000D02*
X166051D01*
X166145Y177024D01*
X166698Y176198D01*
X167525Y175645D01*
X168000Y175550D01*
Y177500D01*
D02*
G37*
G36*
X209113Y175276D02*
X207689D01*
Y173852D01*
X207963Y173906D01*
X208619Y174345D01*
X209058Y175001D01*
X209113Y175276D01*
D02*
G37*
G36*
X206689D02*
X205265D01*
X205320Y175001D01*
X205758Y174345D01*
X206415Y173906D01*
X206689Y173852D01*
Y175276D01*
D02*
G37*
G36*
X255000Y172450D02*
Y170500D01*
X256949D01*
X256855Y170975D01*
X256302Y171802D01*
X255475Y172355D01*
X255000Y172450D01*
D02*
G37*
G36*
X254000D02*
X253524Y172355D01*
X252698Y171802D01*
X252145Y170975D01*
X252050Y170500D01*
X254000D01*
Y172450D01*
D02*
G37*
G36*
X256949Y169500D02*
X255000D01*
Y167551D01*
X255475Y167645D01*
X256302Y168198D01*
X256855Y169025D01*
X256949Y169500D01*
D02*
G37*
G36*
X254000D02*
X252050D01*
X252145Y169025D01*
X252698Y168198D01*
X253524Y167645D01*
X254000Y167551D01*
Y169500D01*
D02*
G37*
G36*
X273953Y173953D02*
X266047D01*
Y166047D01*
X273953D01*
Y173953D01*
D02*
G37*
G36*
X270000Y163987D02*
X268968Y163851D01*
X268007Y163453D01*
X267181Y162819D01*
X266547Y161993D01*
X266149Y161032D01*
X266013Y160000D01*
X266149Y158968D01*
X266241Y158745D01*
X265818Y158462D01*
X263140Y161140D01*
X262513Y161620D01*
X261783Y161923D01*
X261000Y162026D01*
X211343D01*
X211343Y162026D01*
X210559Y161923D01*
X209830Y161620D01*
X209203Y161140D01*
X209203Y161140D01*
X208721Y160658D01*
X205685D01*
Y153342D01*
X213000D01*
Y155974D01*
X259747D01*
X266057Y149663D01*
X266149Y148968D01*
X266547Y148007D01*
X267181Y147181D01*
X268007Y146547D01*
X268968Y146149D01*
X270000Y146013D01*
X271032Y146149D01*
X271993Y146547D01*
X272819Y147181D01*
X273453Y148007D01*
X273851Y148968D01*
X273987Y150000D01*
X273851Y151032D01*
X273453Y151993D01*
X272819Y152819D01*
X271993Y153453D01*
X271032Y153851D01*
X270337Y153943D01*
X268462Y155818D01*
X268745Y156241D01*
X268968Y156149D01*
X270000Y156013D01*
X271032Y156149D01*
X271993Y156547D01*
X272819Y157181D01*
X273453Y158007D01*
X273851Y158968D01*
X273987Y160000D01*
X273851Y161032D01*
X273453Y161993D01*
X272819Y162819D01*
X271993Y163453D01*
X271032Y163851D01*
X270000Y163987D01*
D02*
G37*
G36*
X190157Y160623D02*
Y157500D01*
X193281D01*
X193221Y157955D01*
X192852Y158844D01*
X192266Y159609D01*
X191502Y160195D01*
X190612Y160563D01*
X190157Y160623D01*
D02*
G37*
G36*
X189157D02*
X188703Y160563D01*
X187813Y160195D01*
X187049Y159609D01*
X186463Y158844D01*
X186094Y157955D01*
X186034Y157500D01*
X189157D01*
Y160623D01*
D02*
G37*
G36*
X135000Y163987D02*
X133968Y163851D01*
X133007Y163453D01*
X132181Y162819D01*
X131547Y161993D01*
X131149Y161032D01*
X131013Y160000D01*
X131149Y158968D01*
X131547Y158007D01*
X132181Y157181D01*
X133007Y156547D01*
X133968Y156149D01*
X135000Y156013D01*
X136032Y156149D01*
X136993Y156547D01*
X137819Y157181D01*
X138453Y158007D01*
X138851Y158968D01*
X138987Y160000D01*
X138851Y161032D01*
X138453Y161993D01*
X137819Y162819D01*
X136993Y163453D01*
X136032Y163851D01*
X135000Y163987D01*
D02*
G37*
G36*
X193281Y156500D02*
X190157D01*
Y153377D01*
X190612Y153437D01*
X191502Y153805D01*
X192266Y154392D01*
X192852Y155156D01*
X193221Y156045D01*
X193281Y156500D01*
D02*
G37*
G36*
X189157D02*
X186034D01*
X186094Y156045D01*
X186463Y155156D01*
X187049Y154392D01*
X187813Y153805D01*
X188703Y153437D01*
X189157Y153377D01*
Y156500D01*
D02*
G37*
G36*
X135000Y153987D02*
X133968Y153851D01*
X133007Y153453D01*
X132181Y152819D01*
X131547Y151993D01*
X131149Y151032D01*
X131013Y150000D01*
X131149Y148968D01*
X131547Y148007D01*
X132181Y147181D01*
X133007Y146547D01*
X133968Y146149D01*
X135000Y146013D01*
X136032Y146149D01*
X136993Y146547D01*
X137819Y147181D01*
X138453Y148007D01*
X138851Y148968D01*
X138987Y150000D01*
X138851Y151032D01*
X138453Y151993D01*
X137819Y152819D01*
X136993Y153453D01*
X136032Y153851D01*
X135000Y153987D01*
D02*
G37*
G36*
X270500Y143921D02*
Y140500D01*
X273921D01*
X273851Y141032D01*
X273453Y141993D01*
X272819Y142819D01*
X271993Y143453D01*
X271032Y143851D01*
X270500Y143921D01*
D02*
G37*
G36*
X269500D02*
X268968Y143851D01*
X268007Y143453D01*
X267181Y142819D01*
X266547Y141993D01*
X266149Y141032D01*
X266079Y140500D01*
X269500D01*
Y143921D01*
D02*
G37*
G36*
X135000Y173987D02*
X133968Y173851D01*
X133007Y173453D01*
X132181Y172819D01*
X131547Y171993D01*
X131149Y171032D01*
X131013Y170000D01*
X131149Y168968D01*
X131547Y168007D01*
X132181Y167181D01*
X133007Y166547D01*
X133968Y166149D01*
X135000Y166013D01*
X136032Y166149D01*
X136993Y166547D01*
X137355Y166825D01*
X162343Y141837D01*
Y136685D01*
X169658D01*
Y144000D01*
X164505D01*
X138931Y169575D01*
X138987Y170000D01*
X138851Y171032D01*
X138453Y171993D01*
X137819Y172819D01*
X136993Y173453D01*
X136032Y173851D01*
X135000Y173987D01*
D02*
G37*
G36*
X190657Y143842D02*
X183343D01*
Y136528D01*
X190657D01*
Y143842D01*
D02*
G37*
G36*
X273921Y139500D02*
X270500D01*
Y136079D01*
X271032Y136149D01*
X271993Y136547D01*
X272819Y137181D01*
X273453Y138007D01*
X273851Y138968D01*
X273921Y139500D01*
D02*
G37*
G36*
X269500D02*
X266079D01*
X266149Y138968D01*
X266547Y138007D01*
X267181Y137181D01*
X268007Y136547D01*
X268968Y136149D01*
X269500Y136079D01*
Y139500D01*
D02*
G37*
G36*
X138953Y143953D02*
X131047D01*
Y136047D01*
X138953D01*
Y143953D01*
D02*
G37*
G36*
X216094Y128964D02*
Y126000D01*
X219059D01*
X219004Y126414D01*
X218652Y127265D01*
X218091Y127996D01*
X217360Y128557D01*
X216508Y128910D01*
X216094Y128964D01*
D02*
G37*
G36*
X215094D02*
X214681Y128910D01*
X213829Y128557D01*
X213098Y127996D01*
X212537Y127265D01*
X212185Y126414D01*
X212130Y126000D01*
X215094D01*
Y128964D01*
D02*
G37*
G36*
X219059Y125000D02*
X216094D01*
Y122036D01*
X216508Y122090D01*
X217360Y122443D01*
X218091Y123004D01*
X218652Y123735D01*
X219004Y124586D01*
X219059Y125000D01*
D02*
G37*
G36*
X215094D02*
X212130D01*
X212185Y124586D01*
X212537Y123735D01*
X213098Y123004D01*
X213829Y122443D01*
X214681Y122090D01*
X215094Y122036D01*
Y125000D01*
D02*
G37*
G36*
X166500Y124281D02*
Y121158D01*
X169623D01*
X169563Y121612D01*
X169195Y122502D01*
X168608Y123266D01*
X167844Y123852D01*
X166955Y124221D01*
X166500Y124281D01*
D02*
G37*
G36*
X165500D02*
X165045Y124221D01*
X164155Y123852D01*
X163391Y123266D01*
X162805Y122502D01*
X162437Y121612D01*
X162377Y121158D01*
X165500D01*
Y124281D01*
D02*
G37*
G36*
X187500Y124123D02*
Y121000D01*
X190623D01*
X190563Y121455D01*
X190195Y122345D01*
X189609Y123108D01*
X188845Y123695D01*
X187955Y124063D01*
X187500Y124123D01*
D02*
G37*
G36*
X186500D02*
X186045Y124063D01*
X185155Y123695D01*
X184391Y123108D01*
X183805Y122345D01*
X183437Y121455D01*
X183377Y121000D01*
X186500D01*
Y124123D01*
D02*
G37*
G36*
X169623Y120158D02*
X166500D01*
Y117034D01*
X166955Y117094D01*
X167844Y117463D01*
X168608Y118049D01*
X169195Y118813D01*
X169563Y119703D01*
X169623Y120158D01*
D02*
G37*
G36*
X165500D02*
X162377D01*
X162437Y119703D01*
X162805Y118813D01*
X163391Y118049D01*
X164155Y117463D01*
X165045Y117094D01*
X165500Y117034D01*
Y120158D01*
D02*
G37*
G36*
X190623Y120000D02*
X187500D01*
Y116877D01*
X187955Y116937D01*
X188845Y117305D01*
X189609Y117892D01*
X190195Y118656D01*
X190563Y119545D01*
X190623Y120000D01*
D02*
G37*
G36*
X186500D02*
X183377D01*
X183437Y119545D01*
X183805Y118656D01*
X184391Y117892D01*
X185155Y117305D01*
X186045Y116937D01*
X186500Y116877D01*
Y120000D01*
D02*
G37*
%LPD*%
D12*
X135000Y170000D02*
X136343D01*
X166000Y140342D01*
D35*
X209343Y157000D02*
X211343Y159000D01*
X261000D01*
X270000Y150000D01*
D36*
X189657Y157000D02*
D03*
X187000Y120500D02*
D03*
X166000Y120658D02*
D03*
D37*
X209343Y157000D02*
D03*
D38*
X203980Y180500D02*
D03*
X207189Y185224D02*
D03*
X210398Y180500D02*
D03*
X207189Y175776D02*
D03*
D39*
X187000Y140185D02*
D03*
X166000Y140342D02*
D03*
D40*
X270000Y140000D02*
D03*
Y150000D02*
D03*
Y160000D02*
D03*
X135000Y170000D02*
D03*
Y160000D02*
D03*
Y150000D02*
D03*
D41*
X270000Y170000D02*
D03*
X135000Y140000D02*
D03*
D42*
X215595Y125500D02*
D03*
D43*
X254500Y170000D02*
D03*
X168500Y178000D02*
D03*
M02*
