G04*
G04 #@! TF.GenerationSoftware,Altium Limited,Altium Designer,18.0.12 (696)*
G04*
G04 Layer_Color=32768*
%FSLAX25Y25*%
%MOIN*%
G70*
G01*
G75*
%ADD37C,0.00394*%
%ADD38C,0.00197*%
D37*
X183685Y176000D02*
X187622D01*
X185653Y174031D02*
Y177969D01*
X238500Y138185D02*
Y142122D01*
X236531Y140154D02*
X240469D01*
X233972Y162500D02*
X237910D01*
X235941Y160531D02*
Y164469D01*
X210500Y123031D02*
Y126969D01*
X208531Y125000D02*
X212469D01*
X192500Y123031D02*
Y126969D01*
X190532Y125000D02*
X194468D01*
X200000Y123031D02*
Y126969D01*
X198031Y125000D02*
X201969D01*
X227000Y144032D02*
Y147968D01*
X225031Y146000D02*
X228969D01*
D38*
X180142Y173047D02*
Y178953D01*
X191165Y173047D02*
Y178953D01*
X180142D02*
X191165D01*
X180142Y173047D02*
X191165D01*
X235547Y145665D02*
X241453D01*
X235547Y134642D02*
X241453D01*
Y145665D01*
X235547Y134642D02*
Y145665D01*
X230429Y159547D02*
Y165453D01*
X241453Y159547D02*
Y165453D01*
X230429D02*
X241453D01*
X230429Y159547D02*
X241453D01*
X207350Y119488D02*
X213650D01*
X207350Y130512D02*
X213650D01*
X207350Y119488D02*
Y130512D01*
X213650Y119488D02*
Y130512D01*
X189350Y119488D02*
X195650D01*
X189350Y130512D02*
X195650D01*
X189350Y119488D02*
Y130512D01*
X195650Y119488D02*
Y130512D01*
X196850Y119488D02*
X203150D01*
X196850Y130512D02*
X203150D01*
X196850Y119488D02*
Y130512D01*
X203150Y119488D02*
Y130512D01*
X236646Y136354D02*
Y155646D01*
X221350D02*
X236646D01*
X221350Y136354D02*
X236646D01*
X221350D02*
Y155646D01*
M02*
