G04*
G04 #@! TF.GenerationSoftware,Altium Limited,Altium Designer,18.0.12 (696)*
G04*
G04 Layer_Color=2752767*
%FSLAX25Y25*%
%MOIN*%
G70*
G01*
G75*
%ADD39C,0.00200*%
%ADD40C,0.00267*%
D39*
X129700Y174700D02*
Y176300D01*
X131300D01*
Y174700D01*
X129700D01*
Y164700D02*
Y166300D01*
X131300D01*
Y164700D01*
X129700D01*
Y154700D02*
Y156300D01*
X131300D01*
Y154700D01*
X129700D01*
Y144700D02*
Y146300D01*
X131300D01*
Y144700D01*
X129700D01*
Y124700D02*
Y126300D01*
X131300D01*
Y124700D01*
X129700D01*
Y114700D02*
Y116300D01*
X131300D01*
Y114700D01*
X129700D01*
Y134700D02*
Y136300D01*
X131300D01*
Y134700D01*
X129700D01*
X249700Y175094D02*
Y176694D01*
X251300D01*
Y175094D01*
X249700D01*
Y165094D02*
Y166694D01*
X251300D01*
Y165094D01*
X249700D01*
Y155094D02*
Y156694D01*
X251300D01*
Y155094D01*
X249700D01*
Y145094D02*
Y146694D01*
X251300D01*
Y145094D01*
X249700D01*
Y125094D02*
Y126694D01*
X251300D01*
Y125094D01*
X249700D01*
Y115094D02*
Y116694D01*
X251300D01*
Y115094D01*
X249700D01*
Y135094D02*
Y136694D01*
X251300D01*
Y135094D01*
X249700D01*
X186000Y120200D02*
X185200Y121800D01*
X186800D01*
X186000Y120200D01*
X218000Y121200D02*
X217200Y122800D01*
X218800D01*
X218000Y121200D01*
D40*
X227800Y151000D02*
G03*
X227800Y151000I-800J0D01*
G01*
Y146000D02*
G03*
X227800Y146000I-800J0D01*
G01*
Y141000D02*
G03*
X227800Y141000I-800J0D01*
G01*
M02*
