G04*
G04 #@! TF.GenerationSoftware,Altium Limited,Altium Designer,18.0.12 (696)*
G04*
G04 Layer_Color=32896*
%FSLAX25Y25*%
%MOIN*%
G70*
G01*
G75*
%ADD10C,0.01000*%
D10*
X154000Y147063D02*
Y142064D01*
X156499D01*
X157332Y142897D01*
Y146230D01*
X156499Y147063D01*
X154000D01*
X161498Y142064D02*
X159831D01*
X158998Y142897D01*
Y144563D01*
X159831Y145396D01*
X161498D01*
X162331Y144563D01*
Y143730D01*
X158998D01*
X163997Y142064D02*
X166496D01*
X167329Y142897D01*
X166496Y143730D01*
X164830D01*
X163997Y144563D01*
X164830Y145396D01*
X167329D01*
X168995Y142064D02*
X170661D01*
X169828D01*
Y145396D01*
X168995D01*
X174827Y140398D02*
X175660D01*
X176493Y141231D01*
Y145396D01*
X173994D01*
X173161Y144563D01*
Y142897D01*
X173994Y142064D01*
X176493D01*
X178159D02*
Y145396D01*
X180658D01*
X181491Y144563D01*
Y142064D01*
X185656D02*
X183990D01*
X183157Y142897D01*
Y144563D01*
X183990Y145396D01*
X185656D01*
X186489Y144563D01*
Y143730D01*
X183157D01*
X191488Y147063D02*
Y142064D01*
X188989D01*
X188156Y142897D01*
Y144563D01*
X188989Y145396D01*
X191488D01*
X198152Y147063D02*
Y142064D01*
X200652D01*
X201485Y142897D01*
Y143730D01*
Y144563D01*
X200652Y145396D01*
X198152D01*
X203151D02*
Y142897D01*
X203984Y142064D01*
X206483D01*
Y141231D01*
X205650Y140398D01*
X204817D01*
X206483Y142064D02*
Y145396D01*
X208149D02*
X208982D01*
Y144563D01*
X208149D01*
Y145396D01*
Y142897D02*
X208982D01*
Y142064D01*
X208149D01*
Y142897D01*
X154000Y136998D02*
Y132000D01*
X156499D01*
X157332Y132833D01*
Y133666D01*
X156499Y134499D01*
X154000D01*
X156499D01*
X157332Y135332D01*
Y136165D01*
X156499Y136998D01*
X154000D01*
X161498Y132000D02*
X159831D01*
X158998Y132833D01*
Y134499D01*
X159831Y135332D01*
X161498D01*
X162331Y134499D01*
Y133666D01*
X158998D01*
X163997Y132000D02*
Y135332D01*
X166496D01*
X167329Y134499D01*
Y132000D01*
X173994Y136998D02*
X177326D01*
X175660D01*
Y132000D01*
X178992D02*
X180658D01*
X179825D01*
Y135332D01*
X178992D01*
X183990Y136165D02*
Y135332D01*
X183157D01*
X184823D01*
X183990D01*
Y132833D01*
X184823Y132000D01*
X187322Y135332D02*
Y132833D01*
X188156Y132000D01*
X190655D01*
Y135332D01*
X192321Y132000D02*
X194820D01*
X195653Y132833D01*
X194820Y133666D01*
X193154D01*
X192321Y134499D01*
X193154Y135332D01*
X195653D01*
X157332Y176563D02*
X156499Y177396D01*
X154833D01*
X154000Y176563D01*
Y173231D01*
X154833Y172398D01*
X156499D01*
X157332Y173231D01*
X158998Y172398D02*
Y175730D01*
X160664Y177396D01*
X162331Y175730D01*
Y172398D01*
Y174897D01*
X158998D01*
X163997Y172398D02*
Y177396D01*
X167329Y172398D01*
Y177396D01*
X173994D02*
X177326Y172398D01*
Y177396D02*
X173994Y172398D01*
X182324Y176563D02*
X181491Y177396D01*
X179825D01*
X178992Y176563D01*
Y173231D01*
X179825Y172398D01*
X181491D01*
X182324Y173231D01*
X183990Y177396D02*
Y174064D01*
X185656Y172398D01*
X187322Y174064D01*
Y177396D01*
X188989Y172398D02*
Y177396D01*
X191488D01*
X192321Y176563D01*
Y174897D01*
X191488Y174064D01*
X188989D01*
X190655D02*
X192321Y172398D01*
X202318D02*
X201485Y173231D01*
X200652Y172398D01*
X199819D01*
X198985Y173231D01*
Y174064D01*
X199819Y174897D01*
X198985Y175730D01*
Y176563D01*
X199819Y177396D01*
X200652D01*
X201485Y176563D01*
Y175730D01*
X200652Y174897D01*
X201485Y174064D01*
Y173231D01*
X202318Y174897D02*
X201485Y174064D01*
X199819Y174897D02*
X200652D01*
X154000Y164000D02*
Y167332D01*
X155666Y168998D01*
X157332Y167332D01*
Y164000D01*
Y166499D01*
X154000D01*
X158998Y167332D02*
Y164833D01*
X159831Y164000D01*
X162331D01*
Y167332D01*
X164830Y168165D02*
Y167332D01*
X163997D01*
X165663D01*
X164830D01*
Y164833D01*
X165663Y164000D01*
X168995D02*
X170661D01*
X171494Y164833D01*
Y166499D01*
X170661Y167332D01*
X168995D01*
X168162Y166499D01*
Y164833D01*
X168995Y164000D01*
X173161Y166499D02*
X176493D01*
X178159Y168998D02*
X181491D01*
X179825D01*
Y164000D01*
X185656D02*
X183990D01*
X183157Y164833D01*
Y166499D01*
X183990Y167332D01*
X185656D01*
X186489Y166499D01*
Y165666D01*
X183157D01*
X188156Y167332D02*
Y164000D01*
Y165666D01*
X188989Y166499D01*
X189822Y167332D01*
X190655D01*
X193154Y164000D02*
Y167332D01*
X193987D01*
X194820Y166499D01*
Y164000D01*
Y166499D01*
X195653Y167332D01*
X196486Y166499D01*
Y164000D01*
X198152D02*
X199819D01*
X198985D01*
Y167332D01*
X198152D01*
X202318Y164000D02*
Y167332D01*
X204817D01*
X205650Y166499D01*
Y164000D01*
X208149Y167332D02*
X209815D01*
X210648Y166499D01*
Y164000D01*
X208149D01*
X207316Y164833D01*
X208149Y165666D01*
X210648D01*
X213147Y168165D02*
Y167332D01*
X212314D01*
X213981D01*
X213147D01*
Y164833D01*
X213981Y164000D01*
X218979D02*
X217313D01*
X216480Y164833D01*
Y166499D01*
X217313Y167332D01*
X218979D01*
X219812Y166499D01*
Y165666D01*
X216480D01*
X139832Y176165D02*
X138999Y176998D01*
X137333D01*
X136500Y176165D01*
Y172833D01*
X137333Y172000D01*
X138999D01*
X139832Y172833D01*
Y174499D01*
X138166D01*
X141498Y172000D02*
Y176998D01*
X144831Y172000D01*
Y176998D01*
X146497D02*
Y172000D01*
X148996D01*
X149829Y172833D01*
Y176165D01*
X148996Y176998D01*
X146497D01*
X139832Y166665D02*
X138999Y167498D01*
X137333D01*
X136500Y166665D01*
Y165832D01*
X137333Y164999D01*
X138999D01*
X139832Y164166D01*
Y163333D01*
X138999Y162500D01*
X137333D01*
X136500Y163333D01*
X141498Y167498D02*
Y162500D01*
X143165Y164166D01*
X144831Y162500D01*
Y167498D01*
X146497Y162500D02*
X148163D01*
X147330D01*
Y167498D01*
X146497Y166665D01*
X139832Y155665D02*
X138999Y156498D01*
X137333D01*
X136500Y155665D01*
Y154832D01*
X137333Y153999D01*
X138999D01*
X139832Y153166D01*
Y152333D01*
X138999Y151500D01*
X137333D01*
X136500Y152333D01*
X141498Y156498D02*
Y151500D01*
X143165Y153166D01*
X144831Y151500D01*
Y156498D01*
X149829Y151500D02*
X146497D01*
X149829Y154832D01*
Y155665D01*
X148996Y156498D01*
X147330D01*
X146497Y155665D01*
X139832Y146165D02*
X138999Y146998D01*
X137333D01*
X136500Y146165D01*
Y145332D01*
X137333Y144499D01*
X138999D01*
X139832Y143666D01*
Y142833D01*
X138999Y142000D01*
X137333D01*
X136500Y142833D01*
X141498Y146998D02*
Y142000D01*
X143165Y143666D01*
X144831Y142000D01*
Y146998D01*
X146497Y146165D02*
X147330Y146998D01*
X148996D01*
X149829Y146165D01*
Y145332D01*
X148996Y144499D01*
X148163D01*
X148996D01*
X149829Y143666D01*
Y142833D01*
X148996Y142000D01*
X147330D01*
X146497Y142833D01*
X139832Y136165D02*
X138999Y136998D01*
X137333D01*
X136500Y136165D01*
Y135332D01*
X137333Y134499D01*
X138999D01*
X139832Y133666D01*
Y132833D01*
X138999Y132000D01*
X137333D01*
X136500Y132833D01*
X141498Y136998D02*
Y132000D01*
X143165Y133666D01*
X144831Y132000D01*
Y136998D01*
X148996Y132000D02*
Y136998D01*
X146497Y134499D01*
X149829D01*
X139832Y126165D02*
X138999Y126998D01*
X137333D01*
X136500Y126165D01*
Y125332D01*
X137333Y124499D01*
X138999D01*
X139832Y123666D01*
Y122833D01*
X138999Y122000D01*
X137333D01*
X136500Y122833D01*
X141498Y126998D02*
Y122000D01*
X143165Y123666D01*
X144831Y122000D01*
Y126998D01*
X149829D02*
X146497D01*
Y124499D01*
X148163Y125332D01*
X148996D01*
X149829Y124499D01*
Y122833D01*
X148996Y122000D01*
X147330D01*
X146497Y122833D01*
X139832Y116665D02*
X138999Y117498D01*
X137333D01*
X136500Y116665D01*
Y115832D01*
X137333Y114999D01*
X138999D01*
X139832Y114166D01*
Y113333D01*
X138999Y112500D01*
X137333D01*
X136500Y113333D01*
X141498Y117498D02*
Y112500D01*
X143165Y114166D01*
X144831Y112500D01*
Y117498D01*
X149829D02*
X148163Y116665D01*
X146497Y114999D01*
Y113333D01*
X147330Y112500D01*
X148996D01*
X149829Y113333D01*
Y114166D01*
X148996Y114999D01*
X146497D01*
X231000Y118498D02*
Y115166D01*
X232666Y113500D01*
X234332Y115166D01*
Y118498D01*
X239331Y117665D02*
X238498Y118498D01*
X236831D01*
X235998Y117665D01*
Y114333D01*
X236831Y113500D01*
X238498D01*
X239331Y114333D01*
X244329Y117665D02*
X243496Y118498D01*
X241830D01*
X240997Y117665D01*
Y114333D01*
X241830Y113500D01*
X243496D01*
X244329Y114333D01*
X216000Y126500D02*
Y131498D01*
X218499D01*
X219332Y130665D01*
Y128999D01*
X218499Y128166D01*
X216000D01*
X217666D02*
X219332Y126500D01*
X223498D02*
X221831D01*
X220998Y127333D01*
Y128999D01*
X221831Y129832D01*
X223498D01*
X224331Y128999D01*
Y128166D01*
X220998D01*
X225997Y126500D02*
X228496D01*
X229329Y127333D01*
X228496Y128166D01*
X226830D01*
X225997Y128999D01*
X226830Y129832D01*
X229329D01*
X239326Y131498D02*
X235994D01*
Y126500D01*
X239326D01*
X235994Y128999D02*
X237660D01*
X240992Y126500D02*
Y131498D01*
X244324Y126500D01*
Y131498D01*
X231000Y134500D02*
Y139498D01*
X233499D01*
X234332Y138665D01*
Y136999D01*
X233499Y136166D01*
X231000D01*
X232666D02*
X234332Y134500D01*
X235998Y139498D02*
X239331Y134500D01*
Y139498D02*
X235998Y134500D01*
X240997Y139498D02*
Y134500D01*
X243496D01*
X244329Y135333D01*
Y138665D01*
X243496Y139498D01*
X240997D01*
X231000Y148498D02*
X234332D01*
X232666D01*
Y143500D01*
X235998Y148498D02*
X239331Y143500D01*
Y148498D02*
X235998Y143500D01*
X240997Y148498D02*
Y143500D01*
X243496D01*
X244329Y144333D01*
Y147665D01*
X243496Y148498D01*
X240997D01*
X229332Y158165D02*
X228499Y158998D01*
X226833D01*
X226000Y158165D01*
Y154833D01*
X226833Y154000D01*
X228499D01*
X229332Y154833D01*
X230998Y154000D02*
Y157332D01*
X232664Y158998D01*
X234331Y157332D01*
Y154000D01*
Y156499D01*
X230998D01*
X235997Y154000D02*
Y158998D01*
X239329Y154000D01*
Y158998D01*
X240995D02*
Y154000D01*
Y156499D01*
X244327D01*
Y158998D01*
Y154000D01*
X229332Y167665D02*
X228499Y168498D01*
X226833D01*
X226000Y167665D01*
Y164333D01*
X226833Y163500D01*
X228499D01*
X229332Y164333D01*
X230998Y163500D02*
Y166832D01*
X232664Y168498D01*
X234331Y166832D01*
Y163500D01*
Y165999D01*
X230998D01*
X235997Y163500D02*
Y168498D01*
X239329Y163500D01*
Y168498D01*
X240995D02*
Y163500D01*
X244327D01*
X234332Y177665D02*
X233499Y178498D01*
X231833D01*
X231000Y177665D01*
Y174333D01*
X231833Y173500D01*
X233499D01*
X234332Y174333D01*
Y175999D01*
X232666D01*
X235998Y173500D02*
Y178498D01*
X239331Y173500D01*
Y178498D01*
X240997D02*
Y173500D01*
X243496D01*
X244329Y174333D01*
Y177665D01*
X243496Y178498D01*
X240997D01*
M02*
