G04*
G04 #@! TF.GenerationSoftware,Altium Limited,Altium Designer,18.0.12 (696)*
G04*
G04 Layer_Color=65535*
%FSLAX25Y25*%
%MOIN*%
G70*
G01*
G75*
%ADD10C,0.01000*%
%ADD11C,0.00787*%
%ADD12C,0.00984*%
D10*
X166000Y111000D02*
G03*
X161000Y111000I-2500J0D01*
G01*
X192500Y147250D02*
G03*
X192500Y149750I0J1250D01*
G01*
X172500Y111000D02*
Y171000D01*
X154500D02*
X172500D01*
X154500Y111000D02*
Y171000D01*
Y111000D02*
X161000D01*
X166000D02*
X172500D01*
X192500Y143500D02*
Y147250D01*
Y149750D02*
Y153500D01*
X212500D01*
Y143500D02*
Y153500D01*
X192500Y143500D02*
X212500D01*
X208500Y170498D02*
Y165500D01*
X209500Y164500D01*
X211499D01*
X212499Y165500D01*
Y170498D01*
X214498Y164500D02*
X216497D01*
X215498D01*
Y170498D01*
X214498Y169498D01*
X163499Y178498D02*
X162499Y179498D01*
X160500D01*
X159500Y178498D01*
Y177499D01*
X160500Y176499D01*
X162499D01*
X163499Y175499D01*
Y174500D01*
X162499Y173500D01*
X160500D01*
X159500Y174500D01*
X165498Y173500D02*
X167497D01*
X166498D01*
Y179498D01*
X165498Y178498D01*
X195500Y172500D02*
Y178498D01*
X198499D01*
X199499Y177498D01*
Y175499D01*
X198499Y174499D01*
X195500D01*
X197499D02*
X199499Y172500D01*
X201498Y177498D02*
X202498Y178498D01*
X204497D01*
X205497Y177498D01*
Y176499D01*
X204497Y175499D01*
X203497D01*
X204497D01*
X205497Y174499D01*
Y173500D01*
X204497Y172500D01*
X202498D01*
X201498Y173500D01*
X236500Y157500D02*
X242498D01*
Y154501D01*
X241498Y153501D01*
X239499D01*
X238499Y154501D01*
Y157500D01*
Y155501D02*
X236500Y153501D01*
Y147503D02*
Y151502D01*
X240499Y147503D01*
X241498D01*
X242498Y148503D01*
Y150502D01*
X241498Y151502D01*
X232287Y167000D02*
Y172998D01*
X235286D01*
X236286Y171998D01*
Y169999D01*
X235286Y168999D01*
X232287D01*
X234287D02*
X236286Y167000D01*
X238285D02*
X240285D01*
X239285D01*
Y172998D01*
X238285Y171998D01*
X226299Y162600D02*
Y166598D01*
X225299Y167598D01*
X223300D01*
X222300Y166598D01*
Y162600D01*
X223300Y161600D01*
X225299D01*
X224299Y163599D02*
X226299Y161600D01*
X225299D02*
X226299Y162600D01*
X228298Y161600D02*
X230297D01*
X229298D01*
Y167598D01*
X228298Y166598D01*
X139500Y173500D02*
Y179498D01*
X142499D01*
X143499Y178498D01*
Y176499D01*
X142499Y175499D01*
X139500D01*
X149497Y173500D02*
X145498D01*
X149497Y177499D01*
Y178498D01*
X148497Y179498D01*
X146498D01*
X145498Y178498D01*
X235500Y111500D02*
Y117498D01*
X238499D01*
X239499Y116498D01*
Y114499D01*
X238499Y113499D01*
X235500D01*
X241498Y111500D02*
X243497D01*
X242498D01*
Y117498D01*
X241498Y116498D01*
X199502Y111999D02*
X198502Y110999D01*
Y109000D01*
X199502Y108000D01*
X203500D01*
X204500Y109000D01*
Y110999D01*
X203500Y111999D01*
X199502Y113998D02*
X198502Y114998D01*
Y116997D01*
X199502Y117997D01*
X200501D01*
X201501Y116997D01*
Y115997D01*
Y116997D01*
X202501Y117997D01*
X203500D01*
X204500Y116997D01*
Y114998D01*
X203500Y113998D01*
X208502Y111999D02*
X207502Y110999D01*
Y109000D01*
X208502Y108000D01*
X212500D01*
X213500Y109000D01*
Y110999D01*
X212500Y111999D01*
X213500Y117997D02*
Y113998D01*
X209501Y117997D01*
X208502D01*
X207502Y116997D01*
Y114998D01*
X208502Y113998D01*
X189502Y111999D02*
X188502Y110999D01*
Y109000D01*
X189502Y108000D01*
X193500D01*
X194500Y109000D01*
Y110999D01*
X193500Y111999D01*
X194500Y113998D02*
Y115997D01*
Y114998D01*
X188502D01*
X189502Y113998D01*
D11*
X221743Y138386D02*
G03*
X221742Y153613I5257J7614D01*
G01*
X125500Y110500D02*
Y180500D01*
Y110500D02*
X135500D01*
Y180500D01*
X125500D02*
X135500D01*
X185457Y178165D02*
X185850D01*
X185457Y173835D02*
X185850D01*
X245500Y110894D02*
Y180894D01*
Y110894D02*
X255500D01*
Y180894D01*
X245500D02*
X255500D01*
X240665Y139957D02*
Y140350D01*
X236335Y139957D02*
Y140350D01*
X235744Y164665D02*
X236138D01*
X235744Y160335D02*
X236138D01*
X208236Y124803D02*
Y125197D01*
X212764Y124803D02*
Y125197D01*
X190236Y124803D02*
Y125197D01*
X194764Y124803D02*
Y125197D01*
X199236Y124803D02*
Y125197D01*
X203764Y124803D02*
Y125197D01*
X221744Y138387D02*
Y153613D01*
D12*
X227492Y157614D02*
G03*
X227492Y157614I-492J0D01*
G01*
M02*
