G04*
G04 #@! TF.GenerationSoftware,Altium Limited,Altium Designer,18.0.12 (696)*
G04*
G04 Layer_Physical_Order=2*
G04 Layer_Color=16711680*
%FSLAX25Y25*%
%MOIN*%
G70*
G01*
G75*
%ADD13C,0.01000*%
%ADD31C,0.05906*%
%ADD32R,0.05906X0.05906*%
%ADD33C,0.05315*%
%ADD34R,0.05315X0.05315*%
%ADD35C,0.01500*%
G36*
X248000Y122500D02*
X113000D01*
Y183500D01*
X248000D01*
Y122500D01*
D02*
G37*
%LPC*%
G36*
X158000Y173784D02*
X157317Y173649D01*
X157139Y173529D01*
X154500D01*
X153915Y173413D01*
X153419Y173081D01*
X152419Y172081D01*
X152087Y171585D01*
X151971Y171000D01*
Y154500D01*
X152087Y153915D01*
X152419Y153419D01*
X160310Y145527D01*
X160352Y145317D01*
X160738Y144738D01*
X161317Y144351D01*
X162000Y144216D01*
X162683Y144351D01*
X163262Y144738D01*
X163648Y145317D01*
X163784Y146000D01*
X163648Y146683D01*
X163262Y147262D01*
X162683Y147649D01*
X162473Y147690D01*
X155029Y155133D01*
Y170367D01*
X155133Y170471D01*
X157139D01*
X157317Y170352D01*
X158000Y170216D01*
X158683Y170352D01*
X159262Y170738D01*
X159649Y171317D01*
X159784Y172000D01*
X159649Y172683D01*
X159262Y173262D01*
X158683Y173649D01*
X158000Y173784D01*
D02*
G37*
G36*
X214500Y171814D02*
Y168691D01*
X217623D01*
X217563Y169145D01*
X217195Y170035D01*
X216609Y170799D01*
X215844Y171385D01*
X214955Y171754D01*
X214500Y171814D01*
D02*
G37*
G36*
X213500D02*
X213045Y171754D01*
X212156Y171385D01*
X211391Y170799D01*
X210805Y170035D01*
X210437Y169145D01*
X210377Y168691D01*
X213500D01*
Y171814D01*
D02*
G37*
G36*
Y167691D02*
X210377D01*
X210437Y167236D01*
X210805Y166346D01*
X211391Y165582D01*
X212156Y164996D01*
X213045Y164627D01*
X213500Y164567D01*
Y167691D01*
D02*
G37*
G36*
X238000Y163921D02*
Y160500D01*
X241421D01*
X241351Y161032D01*
X240953Y161993D01*
X240319Y162819D01*
X239493Y163453D01*
X238532Y163851D01*
X238000Y163921D01*
D02*
G37*
G36*
X162000Y159685D02*
Y158500D01*
X163185D01*
X163148Y158683D01*
X162762Y159262D01*
X162183Y159649D01*
X162000Y159685D01*
D02*
G37*
G36*
X161000D02*
X160817Y159649D01*
X160238Y159262D01*
X159852Y158683D01*
X159815Y158500D01*
X161000D01*
Y159685D01*
D02*
G37*
G36*
X163185Y157500D02*
X162000D01*
Y156315D01*
X162183Y156351D01*
X162762Y156738D01*
X163148Y157317D01*
X163185Y157500D01*
D02*
G37*
G36*
X161000D02*
X159815D01*
X159852Y157317D01*
X160238Y156738D01*
X160817Y156351D01*
X161000Y156315D01*
Y157500D01*
D02*
G37*
G36*
X241421Y159500D02*
X238000D01*
Y156079D01*
X238532Y156149D01*
X239493Y156547D01*
X240319Y157181D01*
X240953Y158007D01*
X241351Y158968D01*
X241421Y159500D01*
D02*
G37*
G36*
X217623Y167691D02*
X214500D01*
Y164567D01*
X214955Y164627D01*
X215270Y164758D01*
X221109Y158919D01*
X221605Y158587D01*
X222191Y158471D01*
X233855D01*
X234047Y158007D01*
X234681Y157181D01*
X235507Y156547D01*
X236468Y156149D01*
X237000Y156079D01*
Y160000D01*
Y163921D01*
X236468Y163851D01*
X235507Y163453D01*
X234681Y162819D01*
X234047Y161993D01*
X233855Y161529D01*
X222824D01*
X217433Y166921D01*
X217563Y167236D01*
X217623Y167691D01*
D02*
G37*
G36*
X122653Y163987D02*
X121622Y163851D01*
X120660Y163453D01*
X119834Y162819D01*
X119201Y161993D01*
X118802Y161032D01*
X118667Y160000D01*
X118802Y158968D01*
X119201Y158007D01*
X119834Y157181D01*
X120660Y156547D01*
X121622Y156149D01*
X122653Y156013D01*
X123685Y156149D01*
X124647Y156547D01*
X125473Y157181D01*
X126106Y158007D01*
X126505Y158968D01*
X126640Y160000D01*
X126505Y161032D01*
X126106Y161993D01*
X125473Y162819D01*
X124647Y163453D01*
X123685Y163851D01*
X122653Y163987D01*
D02*
G37*
G36*
X123153Y153921D02*
Y150500D01*
X126575D01*
X126505Y151032D01*
X126106Y151993D01*
X125473Y152819D01*
X124647Y153453D01*
X123685Y153851D01*
X123153Y153921D01*
D02*
G37*
G36*
X122153D02*
X121622Y153851D01*
X120660Y153453D01*
X119834Y152819D01*
X119201Y151993D01*
X118802Y151032D01*
X118733Y150500D01*
X122153D01*
Y153921D01*
D02*
G37*
G36*
X126575Y149500D02*
X123153D01*
Y146079D01*
X123685Y146149D01*
X124647Y146547D01*
X125473Y147181D01*
X126106Y148007D01*
X126505Y148968D01*
X126575Y149500D01*
D02*
G37*
G36*
X122153D02*
X118733D01*
X118802Y148968D01*
X119201Y148007D01*
X119834Y147181D01*
X120660Y146547D01*
X121622Y146149D01*
X122153Y146079D01*
Y149500D01*
D02*
G37*
G36*
X237500Y153987D02*
X236468Y153851D01*
X235507Y153453D01*
X234681Y152819D01*
X234047Y151993D01*
X233649Y151032D01*
X233513Y150000D01*
X233649Y148968D01*
X234047Y148007D01*
X234681Y147181D01*
X235507Y146547D01*
X236468Y146149D01*
X237500Y146013D01*
X238532Y146149D01*
X239493Y146547D01*
X240319Y147181D01*
X240953Y148007D01*
X241351Y148968D01*
X241487Y150000D01*
X241351Y151032D01*
X240953Y151993D01*
X240319Y152819D01*
X239493Y153453D01*
X238532Y153851D01*
X237500Y153987D01*
D02*
G37*
G36*
Y143987D02*
X236468Y143851D01*
X235507Y143453D01*
X234681Y142819D01*
X234047Y141993D01*
X233649Y141032D01*
X233513Y140000D01*
X233649Y138968D01*
X234047Y138007D01*
X234681Y137181D01*
X235507Y136547D01*
X236468Y136149D01*
X237500Y136013D01*
X238532Y136149D01*
X239493Y136547D01*
X240319Y137181D01*
X240953Y138007D01*
X241351Y138968D01*
X241487Y140000D01*
X241351Y141032D01*
X240953Y141993D01*
X240319Y142819D01*
X239493Y143453D01*
X238532Y143851D01*
X237500Y143987D01*
D02*
G37*
G36*
X122653D02*
X121622Y143851D01*
X120660Y143453D01*
X119834Y142819D01*
X119201Y141993D01*
X118802Y141032D01*
X118667Y140000D01*
X118802Y138968D01*
X119201Y138007D01*
X119834Y137181D01*
X120660Y136547D01*
X121622Y136149D01*
X122653Y136013D01*
X123685Y136149D01*
X124647Y136547D01*
X125473Y137181D01*
X126106Y138007D01*
X126505Y138968D01*
X126640Y140000D01*
X126505Y141032D01*
X126106Y141993D01*
X125473Y142819D01*
X124647Y143453D01*
X123685Y143851D01*
X122653Y143987D01*
D02*
G37*
G36*
X217657Y152163D02*
X210343D01*
Y144848D01*
X215879D01*
X228373Y133998D01*
X228198Y133529D01*
X126606D01*
Y133953D01*
X118701D01*
Y126047D01*
X126606D01*
Y130471D01*
X232681D01*
X233547Y130085D01*
Y126047D01*
X241453D01*
Y133953D01*
X233547D01*
Y133953D01*
X233247Y133816D01*
X217657Y147355D01*
Y152163D01*
D02*
G37*
G36*
X161172Y129185D02*
Y128000D01*
X162356D01*
X162320Y128183D01*
X161933Y128762D01*
X161354Y129148D01*
X161172Y129185D01*
D02*
G37*
G36*
X160172D02*
X159989Y129148D01*
X159410Y128762D01*
X159023Y128183D01*
X158987Y128000D01*
X160172D01*
Y129185D01*
D02*
G37*
G36*
X162356Y127000D02*
X161172D01*
Y125815D01*
X161354Y125852D01*
X161933Y126238D01*
X162320Y126817D01*
X162356Y127000D01*
D02*
G37*
G36*
X160172D02*
X158987D01*
X159023Y126817D01*
X159410Y126238D01*
X159989Y125852D01*
X160172Y125815D01*
Y127000D01*
D02*
G37*
%LPD*%
D13*
X153500Y154500D02*
Y171000D01*
X154500Y172000D01*
X158000D01*
X222191Y160000D02*
X237500D01*
X214000Y168191D02*
X222191Y160000D01*
X153500Y154500D02*
X162000Y146000D01*
X123153Y132000D02*
X233005D01*
X214000Y148505D02*
X233005Y132000D01*
X237500Y130000D01*
D31*
Y160000D02*
D03*
Y150000D02*
D03*
Y140000D02*
D03*
X122653Y160000D02*
D03*
Y150000D02*
D03*
Y140000D02*
D03*
D32*
X237500Y130000D02*
D03*
X122653D02*
D03*
D33*
X214000Y168191D02*
D03*
D34*
X214000Y148505D02*
D03*
D35*
X161500Y158000D02*
D03*
X158000Y172000D02*
D03*
X160672Y127500D02*
D03*
X162000Y146000D02*
D03*
M02*
