G04*
G04 #@! TF.GenerationSoftware,Altium Limited,Altium Designer,18.0.12 (696)*
G04*
G04 Layer_Color=8388736*
%FSLAX25Y25*%
%MOIN*%
G70*
G01*
G75*
G04:AMPARAMS|DCode=14|XSize=23mil|YSize=69.02mil|CornerRadius=5.65mil|HoleSize=0mil|Usage=FLASHONLY|Rotation=90.000|XOffset=0mil|YOffset=0mil|HoleType=Round|Shape=RoundedRectangle|*
%AMROUNDEDRECTD14*
21,1,0.02300,0.05772,0,0,90.0*
21,1,0.01170,0.06902,0,0,90.0*
1,1,0.01130,0.02886,0.00585*
1,1,0.01130,0.02886,-0.00585*
1,1,0.01130,-0.02886,-0.00585*
1,1,0.01130,-0.02886,0.00585*
%
%ADD14ROUNDEDRECTD14*%
G04:AMPARAMS|DCode=15|XSize=29.65mil|YSize=57.21mil|CornerRadius=5.95mil|HoleSize=0mil|Usage=FLASHONLY|Rotation=90.000|XOffset=0mil|YOffset=0mil|HoleType=Round|Shape=RoundedRectangle|*
%AMROUNDEDRECTD15*
21,1,0.02965,0.04532,0,0,90.0*
21,1,0.01776,0.05721,0,0,90.0*
1,1,0.01190,0.02266,0.00888*
1,1,0.01190,0.02266,-0.00888*
1,1,0.01190,-0.02266,-0.00888*
1,1,0.01190,-0.02266,0.00888*
%
%ADD15ROUNDEDRECTD15*%
%ADD16R,0.05918X0.04147*%
%ADD17R,0.04147X0.05918*%
%ADD18R,0.04540X0.06115*%
%ADD19R,0.06115X0.04540*%
%ADD20C,0.06706*%
%ADD21R,0.06706X0.06706*%
%ADD22C,0.06115*%
%ADD23R,0.06115X0.06115*%
%ADD24C,0.05800*%
D14*
X162634Y168059D02*
D03*
Y165500D02*
D03*
Y162941D02*
D03*
Y160382D02*
D03*
X180941Y168059D02*
D03*
Y165500D02*
D03*
Y162941D02*
D03*
Y160382D02*
D03*
D15*
X201488Y127500D02*
D03*
Y132500D02*
D03*
Y137500D02*
D03*
Y142500D02*
D03*
X180819Y127500D02*
D03*
Y132500D02*
D03*
Y137500D02*
D03*
Y142500D02*
D03*
D16*
X134484Y133622D02*
D03*
Y126929D02*
D03*
X168500Y137654D02*
D03*
Y144346D02*
D03*
X146287Y133563D02*
D03*
Y126870D02*
D03*
D17*
X193441Y151221D02*
D03*
X200134D02*
D03*
X214500Y128500D02*
D03*
X221193D02*
D03*
D18*
X199937Y168000D02*
D03*
X193638D02*
D03*
D19*
X134484Y156634D02*
D03*
Y162933D02*
D03*
X146484Y156634D02*
D03*
Y162933D02*
D03*
D20*
X237500Y160000D02*
D03*
Y150000D02*
D03*
Y140000D02*
D03*
X122653Y160000D02*
D03*
Y150000D02*
D03*
Y140000D02*
D03*
D21*
X237500Y130000D02*
D03*
X122653D02*
D03*
D22*
X214000Y168191D02*
D03*
D23*
X214000Y148505D02*
D03*
D24*
X158000Y172000D02*
D03*
X160672Y127500D02*
D03*
X162000Y146000D02*
D03*
M02*
