G04*
G04 #@! TF.GenerationSoftware,Altium Limited,Altium Designer,18.0.12 (696)*
G04*
G04 Layer_Color=16711935*
%FSLAX25Y25*%
%MOIN*%
G70*
G01*
G75*
%ADD36C,0.00394*%
D36*
X188791Y141299D02*
G03*
X188791Y141299I-1969J0D01*
G01*
X165685Y158118D02*
X177890D01*
X165685Y170323D02*
X177890D01*
Y158118D02*
Y170323D01*
X165685Y158118D02*
Y170323D01*
X183280Y125157D02*
X199028D01*
X183280Y144843D02*
X199028D01*
Y125157D02*
Y144843D01*
X183280Y125157D02*
Y144843D01*
X131827Y134606D02*
X137142D01*
X131827Y125945D02*
X137142D01*
Y134606D01*
X131827Y125945D02*
Y134606D01*
X192457Y148563D02*
Y153878D01*
X201118Y148563D02*
Y153878D01*
X192457D02*
X201118D01*
X192457Y148563D02*
X201118D01*
X165842Y136669D02*
X171158D01*
X165842Y145331D02*
X171158D01*
X165842Y136669D02*
Y145331D01*
X171158Y136669D02*
Y145331D01*
X213516Y125842D02*
Y131158D01*
X222177Y125842D02*
Y131158D01*
X213516D02*
X222177D01*
X213516Y125842D02*
X222177D01*
X143630Y134547D02*
X148945D01*
X143630Y125886D02*
X148945D01*
Y134547D01*
X143630Y125886D02*
Y134547D01*
X201118Y165146D02*
Y170854D01*
X192457Y165146D02*
Y170854D01*
Y165146D02*
X201118D01*
X192457Y170854D02*
X201118D01*
X131630Y155453D02*
X137339D01*
X131630Y164114D02*
X137339D01*
X131630Y155453D02*
Y164114D01*
X137339Y155453D02*
Y164114D01*
X143630Y155453D02*
X149339D01*
X143630Y164114D02*
X149339D01*
X143630Y155453D02*
Y164114D01*
X149339Y155453D02*
Y164114D01*
M02*
