G04*
G04 #@! TF.GenerationSoftware,Altium Limited,Altium Designer,18.0.12 (696)*
G04*
G04 Layer_Color=65535*
%FSLAX25Y25*%
%MOIN*%
G70*
G01*
G75*
%ADD10C,0.00984*%
%ADD11C,0.02362*%
%ADD12C,0.00787*%
%ADD13C,0.01000*%
D10*
X163126Y171307D02*
G03*
X163126Y171307I-492J0D01*
G01*
X181311Y145748D02*
G03*
X181311Y145748I-492J0D01*
G01*
D11*
X189972Y140905D02*
G03*
X189972Y140905I-1181J0D01*
G01*
D12*
X210726Y165509D02*
G03*
X209768Y151708I3274J-7161D01*
G01*
X218232D02*
G03*
X217274Y165509I-4232J6640D01*
G01*
X167260Y158118D02*
X176315D01*
X167260Y170323D02*
X176315D01*
Y158118D02*
Y170323D01*
X167260Y158118D02*
Y170323D01*
X184854Y125157D02*
X197453D01*
X184854Y144843D02*
X197453D01*
Y125157D02*
Y144843D01*
X184854Y125157D02*
Y144843D01*
X136650Y130079D02*
Y130472D01*
X132319Y130079D02*
Y130472D01*
X196591Y153386D02*
X196984D01*
X196591Y149055D02*
X196984D01*
X166335Y140803D02*
Y141197D01*
X170665Y140803D02*
Y141197D01*
X217650Y130665D02*
X218043D01*
X217650Y126335D02*
X218043D01*
X148453Y130020D02*
Y130413D01*
X144122Y130020D02*
Y130413D01*
X232500Y125000D02*
X242500D01*
X232500D02*
Y165000D01*
X242500Y125000D02*
Y165000D01*
X232500D02*
X242500D01*
X117654Y125000D02*
X127654D01*
X117654D02*
Y165000D01*
X127654Y125000D02*
Y165000D01*
X117654D02*
X127654D01*
X196590Y165736D02*
X196984D01*
X196590Y170264D02*
X196984D01*
X132220Y159587D02*
Y159980D01*
X136748Y159587D02*
Y159980D01*
X144220Y159587D02*
Y159980D01*
X148748Y159587D02*
Y159980D01*
D13*
X161637Y181069D02*
Y176070D01*
X162637Y175071D01*
X164636D01*
X165636Y176070D01*
Y181069D01*
X171634Y175071D02*
X167636D01*
X171634Y179069D01*
Y180069D01*
X170634Y181069D01*
X168635D01*
X167636Y180069D01*
X178903Y155748D02*
Y150750D01*
X179903Y149750D01*
X181903D01*
X182902Y150750D01*
Y155748D01*
X184902Y149750D02*
X186901D01*
X185901D01*
Y155748D01*
X184902Y154748D01*
X144187Y138863D02*
Y144861D01*
X147186D01*
X148186Y143861D01*
Y141862D01*
X147186Y140862D01*
X144187D01*
X146187D02*
X148186Y138863D01*
X154184Y144861D02*
X150186D01*
Y141862D01*
X152185Y142862D01*
X153184D01*
X154184Y141862D01*
Y139863D01*
X153184Y138863D01*
X151185D01*
X150186Y139863D01*
X213196Y134550D02*
Y140548D01*
X216196D01*
X217195Y139548D01*
Y137549D01*
X216196Y136549D01*
X213196D01*
X215196D02*
X217195Y134550D01*
X222194D02*
Y140548D01*
X219195Y137549D01*
X223193D01*
X192137Y157271D02*
Y163268D01*
X195136D01*
X196136Y162269D01*
Y160269D01*
X195136Y159270D01*
X192137D01*
X194137D02*
X196136Y157271D01*
X198135Y162269D02*
X199135Y163268D01*
X201134D01*
X202134Y162269D01*
Y161269D01*
X201134Y160269D01*
X200135D01*
X201134D01*
X202134Y159270D01*
Y158270D01*
X201134Y157271D01*
X199135D01*
X198135Y158270D01*
X166400Y149600D02*
Y155598D01*
X169399D01*
X170399Y154598D01*
Y152599D01*
X169399Y151599D01*
X166400D01*
X168399D02*
X170399Y149600D01*
X176397D02*
X172398D01*
X176397Y153599D01*
Y154598D01*
X175397Y155598D01*
X173398D01*
X172398Y154598D01*
X132384Y138876D02*
Y144874D01*
X135383D01*
X136383Y143874D01*
Y141875D01*
X135383Y140875D01*
X132384D01*
X134384D02*
X136383Y138876D01*
X138382D02*
X140382D01*
X139382D01*
Y144874D01*
X138382Y143874D01*
X118304Y168350D02*
Y174348D01*
X121303D01*
X122302Y173348D01*
Y171349D01*
X121303Y170349D01*
X118304D01*
X128300Y168350D02*
X124302D01*
X128300Y172349D01*
Y173348D01*
X127301Y174348D01*
X125301D01*
X124302Y173348D01*
X233150Y168350D02*
Y174348D01*
X236149D01*
X237149Y173348D01*
Y171349D01*
X236149Y170349D01*
X233150D01*
X239148Y168350D02*
X241147D01*
X240148D01*
Y174348D01*
X239148Y173348D01*
X136283Y173432D02*
X135283Y174432D01*
X133284D01*
X132284Y173432D01*
Y169433D01*
X133284Y168434D01*
X135283D01*
X136283Y169433D01*
X141281Y168434D02*
Y174432D01*
X138282Y171433D01*
X142281D01*
X148283Y173382D02*
X147283Y174381D01*
X145284D01*
X144284Y173382D01*
Y169383D01*
X145284Y168384D01*
X147283D01*
X148283Y169383D01*
X150282Y173382D02*
X151282Y174381D01*
X153281D01*
X154281Y173382D01*
Y172382D01*
X153281Y171382D01*
X152282D01*
X153281D01*
X154281Y170383D01*
Y169383D01*
X153281Y168384D01*
X151282D01*
X150282Y169383D01*
X210699Y179246D02*
X209699Y180246D01*
X207700D01*
X206700Y179246D01*
Y175248D01*
X207700Y174248D01*
X209699D01*
X210699Y175248D01*
X216697Y174248D02*
X212698D01*
X216697Y178247D01*
Y179246D01*
X215697Y180246D01*
X213698D01*
X212698Y179246D01*
X196186Y179198D02*
X195186Y180198D01*
X193187D01*
X192187Y179198D01*
Y175200D01*
X193187Y174200D01*
X195186D01*
X196186Y175200D01*
X198186Y174200D02*
X200185D01*
X199185D01*
Y180198D01*
X198186Y179198D01*
M02*
