G04*
G04 #@! TF.GenerationSoftware,Altium Limited,Altium Designer,18.0.12 (696)*
G04*
G04 Layer_Color=128*
%FSLAX25Y25*%
%MOIN*%
G70*
G01*
G75*
%ADD38C,0.00200*%
D38*
X235728Y160000D02*
X239272D01*
X237500Y158228D02*
Y161772D01*
X235728Y150000D02*
X239272D01*
X237500Y148228D02*
Y151772D01*
X235728Y140000D02*
X239272D01*
X237500Y138228D02*
Y141772D01*
X235728Y130000D02*
X239272D01*
X237500Y128228D02*
Y131772D01*
X120882Y160000D02*
X124425D01*
X122653Y158228D02*
Y161772D01*
X120882Y150000D02*
X124425D01*
X122653Y148228D02*
Y151772D01*
X120882Y140000D02*
X124425D01*
X122653Y138228D02*
Y141772D01*
X120882Y130000D02*
X124425D01*
X122653Y128228D02*
Y131772D01*
X212425Y168191D02*
X215575D01*
X214000Y166616D02*
Y169765D01*
X212425Y148505D02*
X215575D01*
X214000Y146931D02*
Y150080D01*
X161100Y158000D02*
X161900D01*
X161500Y157600D02*
Y158400D01*
X157600Y172000D02*
X158400D01*
X158000Y171600D02*
Y172400D01*
X160272Y127500D02*
X161072D01*
X160672Y127100D02*
Y127900D01*
X161600Y146000D02*
X162400D01*
X162000Y145600D02*
Y146400D01*
M02*
