G04*
G04 #@! TF.GenerationSoftware,Altium Limited,Altium Designer,18.0.12 (696)*
G04*
G04 Layer_Physical_Order=1*
G04 Layer_Color=255*
%FSLAX25Y25*%
%MOIN*%
G70*
G01*
G75*
%ADD13C,0.01000*%
G04:AMPARAMS|DCode=25|XSize=15mil|YSize=61.02mil|CornerRadius=1.65mil|HoleSize=0mil|Usage=FLASHONLY|Rotation=90.000|XOffset=0mil|YOffset=0mil|HoleType=Round|Shape=RoundedRectangle|*
%AMROUNDEDRECTD25*
21,1,0.01500,0.05772,0,0,90.0*
21,1,0.01170,0.06102,0,0,90.0*
1,1,0.00330,0.02886,0.00585*
1,1,0.00330,0.02886,-0.00585*
1,1,0.00330,-0.02886,-0.00585*
1,1,0.00330,-0.02886,0.00585*
%
%ADD25ROUNDEDRECTD25*%
G04:AMPARAMS|DCode=26|XSize=21.65mil|YSize=49.21mil|CornerRadius=1.95mil|HoleSize=0mil|Usage=FLASHONLY|Rotation=90.000|XOffset=0mil|YOffset=0mil|HoleType=Round|Shape=RoundedRectangle|*
%AMROUNDEDRECTD26*
21,1,0.02165,0.04532,0,0,90.0*
21,1,0.01776,0.04921,0,0,90.0*
1,1,0.00390,0.02266,0.00888*
1,1,0.00390,0.02266,-0.00888*
1,1,0.00390,-0.02266,-0.00888*
1,1,0.00390,-0.02266,0.00888*
%
%ADD26ROUNDEDRECTD26*%
%ADD27R,0.05118X0.03347*%
%ADD28R,0.03347X0.05118*%
%ADD29R,0.03740X0.05315*%
%ADD30R,0.05315X0.03740*%
%ADD31C,0.05906*%
%ADD32R,0.05906X0.05906*%
%ADD33C,0.05315*%
%ADD34R,0.05315X0.05315*%
%ADD35C,0.05000*%
D13*
X158693Y172000D02*
X162634Y168059D01*
X158000Y172000D02*
X158693D01*
X158000Y170118D02*
Y172000D01*
X180819Y137500D02*
Y142500D01*
X160672Y127500D02*
X180819D01*
X154609Y133563D02*
X160672Y127500D01*
X146287Y133563D02*
X154609D01*
X134484Y133622D02*
X138122D01*
X143000Y138500D01*
X152500D01*
X158500Y132500D01*
X180819D01*
X129287Y156634D02*
X134484D01*
X122653Y150000D02*
X129287Y156634D01*
X134484D02*
X146484D01*
X214000Y148505D02*
X221000Y155506D01*
X177564Y162941D02*
X180941D01*
X176390Y164115D02*
X177564Y162941D01*
X176390Y164115D02*
Y169334D01*
X185056Y178000D01*
X216853D01*
X225000Y169853D01*
Y151500D02*
Y169853D01*
Y151500D02*
X226500Y150000D01*
X237500D01*
X232693Y140000D02*
X237500D01*
X232500D02*
X232693D01*
X188882Y176000D02*
X216024D01*
X223000Y169025D01*
Y149500D02*
Y169025D01*
Y149500D02*
X232500Y140000D01*
X213809Y168000D02*
X214000Y168191D01*
X199937Y168000D02*
X213809D01*
X193638Y167650D02*
Y168000D01*
Y167650D02*
X200134Y161154D01*
Y151221D02*
Y161154D01*
X189536Y168000D02*
X193638D01*
X184786Y163250D02*
X189536Y168000D01*
X191056Y172348D02*
X216848D01*
X184517Y165809D02*
X191056Y172348D01*
X221000Y155506D02*
Y168196D01*
X216848Y172348D02*
X221000Y168196D01*
X181250Y165809D02*
X184517D01*
X180941Y165500D02*
X181250Y165809D01*
X181250Y163250D02*
X184786D01*
X180941Y168059D02*
X188882Y176000D01*
X180941Y162941D02*
X181250Y163250D01*
X201488Y142500D02*
X207494Y148505D01*
X214000D01*
X152828Y164500D02*
X156172D01*
X159058Y165809D02*
X162325D01*
X158190Y164941D02*
X159058Y165809D01*
X156613Y164941D02*
X158190D01*
X156172Y164500D02*
X156613Y164941D01*
X157441Y162941D02*
X162634D01*
X154500Y160000D02*
X157441Y162941D01*
X152395Y164933D02*
X152828Y164500D01*
X134484Y162933D02*
X137854Y166303D01*
X149763D02*
X151133Y164933D01*
X152395D01*
X137854Y166303D02*
X149763D01*
X164690Y137654D02*
X168500D01*
X174059Y153500D02*
X180941Y160382D01*
X163843Y153500D02*
X174059D01*
X158000Y147657D02*
X163843Y153500D01*
X158000Y144343D02*
Y147657D01*
Y144343D02*
X164690Y137654D01*
X162000Y146000D02*
X163654Y144346D01*
X168500D01*
X214500Y128500D02*
X218559Y124441D01*
X229000Y130000D02*
X237500D01*
X224366Y125366D02*
X229000Y130000D01*
X224366Y125320D02*
Y125366D01*
X223487Y124441D02*
X224366Y125320D01*
X218559Y124441D02*
X223487D01*
X221193Y128500D02*
X232693Y140000D01*
X175374Y151221D02*
X193441D01*
X168500Y144346D02*
X175374Y151221D01*
X180665Y137654D02*
X180819Y137500D01*
X168500Y137654D02*
X180665D01*
X134484Y133622D02*
X141236Y126870D01*
X146287D01*
X125724Y126929D02*
X134484D01*
X122653Y130000D02*
X125724Y126929D01*
X162325Y165809D02*
X162634Y165500D01*
X146484Y162933D02*
X151567D01*
X154500Y160000D01*
Y155000D02*
Y160000D01*
X139500Y140000D02*
X154500Y155000D01*
X122653Y140000D02*
X139500D01*
X125587Y162933D02*
X134484D01*
X122653Y160000D02*
X125587Y162933D01*
D25*
X162634Y168059D02*
D03*
Y165500D02*
D03*
Y162941D02*
D03*
Y160382D02*
D03*
X180941Y168059D02*
D03*
Y165500D02*
D03*
Y162941D02*
D03*
Y160382D02*
D03*
D26*
X201488Y127500D02*
D03*
Y132500D02*
D03*
Y137500D02*
D03*
Y142500D02*
D03*
X180819Y127500D02*
D03*
Y132500D02*
D03*
Y137500D02*
D03*
Y142500D02*
D03*
D27*
X134484Y133622D02*
D03*
Y126929D02*
D03*
X168500Y137654D02*
D03*
Y144346D02*
D03*
X146287Y133563D02*
D03*
Y126870D02*
D03*
D28*
X193441Y151221D02*
D03*
X200134D02*
D03*
X214500Y128500D02*
D03*
X221193D02*
D03*
D29*
X199937Y168000D02*
D03*
X193638D02*
D03*
D30*
X134484Y156634D02*
D03*
Y162933D02*
D03*
X146484Y156634D02*
D03*
Y162933D02*
D03*
D31*
X237500Y160000D02*
D03*
Y150000D02*
D03*
Y140000D02*
D03*
X122653Y160000D02*
D03*
Y150000D02*
D03*
Y140000D02*
D03*
D32*
X237500Y130000D02*
D03*
X122653D02*
D03*
D33*
X214000Y168191D02*
D03*
D34*
X214000Y148505D02*
D03*
D35*
X158000Y172000D02*
D03*
X160672Y127500D02*
D03*
X162000Y146000D02*
D03*
M02*
