G04*
G04 #@! TF.GenerationSoftware,Altium Limited,Altium Designer,18.0.12 (696)*
G04*
G04 Layer_Color=32896*
%FSLAX25Y25*%
%MOIN*%
G70*
G01*
G75*
%ADD13C,0.01000*%
D13*
X193500Y182063D02*
Y177064D01*
X195999D01*
X196832Y177897D01*
Y181229D01*
X195999Y182063D01*
X193500D01*
X200998Y177064D02*
X199331D01*
X198498Y177897D01*
Y179563D01*
X199331Y180396D01*
X200998D01*
X201831Y179563D01*
Y178730D01*
X198498D01*
X203497Y177064D02*
X205996D01*
X206829Y177897D01*
X205996Y178730D01*
X204330D01*
X203497Y179563D01*
X204330Y180396D01*
X206829D01*
X208495Y177064D02*
X210161D01*
X209328D01*
Y180396D01*
X208495D01*
X214327Y175398D02*
X215160D01*
X215993Y176231D01*
Y180396D01*
X213493D01*
X212661Y179563D01*
Y177897D01*
X213493Y177064D01*
X215993D01*
X217659D02*
Y180396D01*
X220158D01*
X220991Y179563D01*
Y177064D01*
X225156D02*
X223490D01*
X222657Y177897D01*
Y179563D01*
X223490Y180396D01*
X225156D01*
X225990Y179563D01*
Y178730D01*
X222657D01*
X230988Y182063D02*
Y177064D01*
X228489D01*
X227656Y177897D01*
Y179563D01*
X228489Y180396D01*
X230988D01*
X237652Y182063D02*
Y177064D01*
X240152D01*
X240985Y177897D01*
Y178730D01*
Y179563D01*
X240152Y180396D01*
X237652D01*
X242651D02*
Y177897D01*
X243484Y177064D01*
X245983D01*
Y176231D01*
X245150Y175398D01*
X244317D01*
X245983Y177064D02*
Y180396D01*
X193500Y171998D02*
Y167000D01*
X195999D01*
X196832Y167833D01*
Y168666D01*
X195999Y169499D01*
X193500D01*
X195999D01*
X196832Y170332D01*
Y171165D01*
X195999Y171998D01*
X193500D01*
X200998Y167000D02*
X199331D01*
X198498Y167833D01*
Y169499D01*
X199331Y170332D01*
X200998D01*
X201831Y169499D01*
Y168666D01*
X198498D01*
X203497Y167000D02*
Y170332D01*
X205996D01*
X206829Y169499D01*
Y167000D01*
X218492Y171998D02*
X221824D01*
X220158D01*
Y167000D01*
X223490D02*
X225156D01*
X224323D01*
Y170332D01*
X223490D01*
X228489Y171165D02*
Y170332D01*
X227656D01*
X229322D01*
X228489D01*
Y167833D01*
X229322Y167000D01*
X231821Y170332D02*
Y167833D01*
X232654Y167000D01*
X235153D01*
Y170332D01*
X236819Y167000D02*
X239318D01*
X240152Y167833D01*
X239318Y168666D01*
X237652D01*
X236819Y169499D01*
X237652Y170332D01*
X240152D01*
X115500Y180665D02*
Y175666D01*
X118832D01*
X121331D02*
X122998D01*
X123831Y176499D01*
Y178165D01*
X122998Y178998D01*
X121331D01*
X120498Y178165D01*
Y176499D01*
X121331Y175666D01*
X126330Y178998D02*
X127996D01*
X128829Y178165D01*
Y175666D01*
X126330D01*
X125497Y176499D01*
X126330Y177332D01*
X128829D01*
X133827Y180665D02*
Y175666D01*
X131328D01*
X130495Y176499D01*
Y178165D01*
X131328Y178998D01*
X133827D01*
X143824Y179831D02*
X142991Y180665D01*
X141325D01*
X140492Y179831D01*
Y176499D01*
X141325Y175666D01*
X142991D01*
X143824Y176499D01*
X147989Y175666D02*
X146323D01*
X145490Y176499D01*
Y178165D01*
X146323Y178998D01*
X147989D01*
X148822Y178165D01*
Y177332D01*
X145490D01*
X150489Y175666D02*
X152155D01*
X151322D01*
Y180665D01*
X150489D01*
X154654Y175666D02*
X156320D01*
X155487D01*
Y180665D01*
X154654D01*
X163818Y175666D02*
Y178998D01*
X165484Y180665D01*
X167150Y178998D01*
Y175666D01*
Y178165D01*
X163818D01*
X168816Y175666D02*
Y178998D01*
X169649D01*
X170482Y178165D01*
Y175666D01*
Y178165D01*
X171315Y178998D01*
X172148Y178165D01*
Y175666D01*
X173814Y174000D02*
Y178998D01*
X176314D01*
X177147Y178165D01*
Y176499D01*
X176314Y175666D01*
X173814D01*
X205832Y162165D02*
X204999Y162998D01*
X203333D01*
X202500Y162165D01*
Y158833D01*
X203333Y158000D01*
X204999D01*
X205832Y158833D01*
Y160499D01*
X204166D01*
X207498Y161332D02*
Y158000D01*
Y159666D01*
X208331Y160499D01*
X209165Y161332D01*
X209998D01*
X213330Y158000D02*
X214996D01*
X215829Y158833D01*
Y160499D01*
X214996Y161332D01*
X213330D01*
X212497Y160499D01*
Y158833D01*
X213330Y158000D01*
X217495Y161332D02*
Y158833D01*
X218328Y158000D01*
X220827D01*
Y161332D01*
X222494Y158000D02*
Y161332D01*
X224993D01*
X225826Y160499D01*
Y158000D01*
X230824Y162998D02*
Y158000D01*
X228325D01*
X227492Y158833D01*
Y160499D01*
X228325Y161332D01*
X230824D01*
X214000Y152498D02*
Y149166D01*
X215666Y147500D01*
X217332Y149166D01*
Y152498D01*
X219831Y147500D02*
X221498D01*
X222331Y148333D01*
Y149999D01*
X221498Y150832D01*
X219831D01*
X218998Y149999D01*
Y148333D01*
X219831Y147500D01*
X223997Y150832D02*
Y148333D01*
X224830Y147500D01*
X227329D01*
Y150832D01*
X229828Y151665D02*
Y150832D01*
X228995D01*
X230661D01*
X229828D01*
Y148333D01*
X230661Y147500D01*
X196832Y141665D02*
X195999Y142498D01*
X194333D01*
X193500Y141665D01*
Y140832D01*
X194333Y139999D01*
X195999D01*
X196832Y139166D01*
Y138333D01*
X195999Y137500D01*
X194333D01*
X193500Y138333D01*
X198498Y142498D02*
Y137500D01*
Y139999D01*
X199331Y140832D01*
X200998D01*
X201831Y139999D01*
Y137500D01*
X203497Y140832D02*
Y138333D01*
X204330Y137500D01*
X206829D01*
Y140832D01*
X209328Y141665D02*
Y140832D01*
X208495D01*
X210161D01*
X209328D01*
Y138333D01*
X210161Y137500D01*
X215993Y142498D02*
Y137500D01*
X213493D01*
X212661Y138333D01*
Y139999D01*
X213493Y140832D01*
X215993D01*
X218492Y137500D02*
X220158D01*
X220991Y138333D01*
Y139999D01*
X220158Y140832D01*
X218492D01*
X217659Y139999D01*
Y138333D01*
X218492Y137500D01*
X222657Y140832D02*
Y138333D01*
X223490Y137500D01*
X224323Y138333D01*
X225156Y137500D01*
X225990Y138333D01*
Y140832D01*
X227656Y137500D02*
Y140832D01*
X230155D01*
X230988Y139999D01*
Y137500D01*
X217500Y132498D02*
Y129166D01*
X219166Y127500D01*
X220832Y129166D01*
Y132498D01*
X225831Y130832D02*
X223331D01*
X222498Y129999D01*
Y128333D01*
X223331Y127500D01*
X225831D01*
X230829Y130832D02*
X228330D01*
X227497Y129999D01*
Y128333D01*
X228330Y127500D01*
X230829D01*
X129000Y127000D02*
Y131998D01*
X131499D01*
X132332Y131165D01*
Y129499D01*
X131499Y128666D01*
X129000D01*
X130666D02*
X132332Y127000D01*
X136498D02*
X134831D01*
X133998Y127833D01*
Y129499D01*
X134831Y130332D01*
X136498D01*
X137331Y129499D01*
Y128666D01*
X133998D01*
X142329Y131998D02*
Y127000D01*
X139830D01*
X138997Y127833D01*
Y129499D01*
X139830Y130332D01*
X142329D01*
X129000Y142498D02*
Y137500D01*
X130666Y139166D01*
X132332Y137500D01*
Y142498D01*
X133998D02*
Y137500D01*
Y139999D01*
X134831Y140832D01*
X136498D01*
X137331Y139999D01*
Y137500D01*
X138997D02*
X140663D01*
X139830D01*
Y140832D01*
X138997D01*
X143995Y141665D02*
Y140832D01*
X143162D01*
X144828D01*
X143995D01*
Y138333D01*
X144828Y137500D01*
X149827D02*
X148161D01*
X147327Y138333D01*
Y139999D01*
X148161Y140832D01*
X149827D01*
X150660Y139999D01*
Y139166D01*
X147327D01*
X129000Y152498D02*
Y147500D01*
X131499D01*
X132332Y148333D01*
Y149166D01*
X131499Y149999D01*
X129000D01*
X131499D01*
X132332Y150832D01*
Y151665D01*
X131499Y152498D01*
X129000D01*
X133998Y147500D02*
X135664D01*
X134831D01*
Y152498D01*
X133998D01*
X138997Y150832D02*
X140663D01*
X141496Y149999D01*
Y147500D01*
X138997D01*
X138164Y148333D01*
X138997Y149166D01*
X141496D01*
X146494Y150832D02*
X143995D01*
X143162Y149999D01*
Y148333D01*
X143995Y147500D01*
X146494D01*
X148161D02*
Y152498D01*
Y149166D02*
X150660Y150832D01*
X148161Y149166D02*
X150660Y147500D01*
X132332Y162165D02*
X131499Y162998D01*
X129833D01*
X129000Y162165D01*
Y158833D01*
X129833Y158000D01*
X131499D01*
X132332Y158833D01*
Y160499D01*
X130666D01*
X133998Y161332D02*
Y158000D01*
Y159666D01*
X134831Y160499D01*
X135664Y161332D01*
X136498D01*
X141496Y158000D02*
X139830D01*
X138997Y158833D01*
Y160499D01*
X139830Y161332D01*
X141496D01*
X142329Y160499D01*
Y159666D01*
X138997D01*
X146494Y158000D02*
X144828D01*
X143995Y158833D01*
Y160499D01*
X144828Y161332D01*
X146494D01*
X147327Y160499D01*
Y159666D01*
X143995D01*
X148994Y158000D02*
Y161332D01*
X151493D01*
X152326Y160499D01*
Y158000D01*
M02*
