G04*
G04 #@! TF.GenerationSoftware,Altium Limited,Altium Designer,18.0.12 (696)*
G04*
G04 Layer_Color=2752767*
%FSLAX25Y25*%
%MOIN*%
G70*
G01*
G75*
%ADD38C,0.00200*%
%ADD39C,0.00267*%
D38*
X236700Y159200D02*
Y160800D01*
X238300D01*
Y159200D01*
X236700D01*
Y149200D02*
Y150800D01*
X238300D01*
Y149200D01*
X236700D01*
Y139200D02*
Y140800D01*
X238300D01*
Y139200D01*
X236700D01*
Y129200D02*
Y130800D01*
X238300D01*
Y129200D01*
X236700D01*
X121853Y159200D02*
Y160800D01*
X123453D01*
Y159200D01*
X121853D01*
Y149200D02*
Y150800D01*
X123453D01*
Y149200D01*
X121853D01*
Y139200D02*
Y140800D01*
X123453D01*
Y139200D01*
X121853D01*
Y129200D02*
Y130800D01*
X123453D01*
Y129200D01*
X121853D01*
X158000Y171200D02*
X157200Y172800D01*
X158800D01*
X158000Y171200D01*
X160672Y126700D02*
X159872Y128300D01*
X161472D01*
X160672Y126700D01*
X162000Y145200D02*
X161200Y146800D01*
X162800D01*
X162000Y145200D01*
D39*
X214800Y168191D02*
G03*
X214800Y168191I-800J0D01*
G01*
X214800Y148505D02*
G03*
X214800Y148505I-800J0D01*
G01*
M02*
